G04 #@! TF.GenerationSoftware,KiCad,Pcbnew,(5.0.0)*
G04 #@! TF.CreationDate,2018-11-14T12:26:24-05:00*
G04 #@! TF.ProjectId,backdash,6261636B646173682E6B696361645F70,rev?*
G04 #@! TF.SameCoordinates,Original*
G04 #@! TF.FileFunction,Legend,Top*
G04 #@! TF.FilePolarity,Positive*
%FSLAX46Y46*%
G04 Gerber Fmt 4.6, Leading zero omitted, Abs format (unit mm)*
G04 Created by KiCad (PCBNEW (5.0.0)) date 11/14/18 12:26:24*
%MOMM*%
%LPD*%
G01*
G04 APERTURE LIST*
%ADD10C,0.300000*%
%ADD11C,0.120000*%
%ADD12C,0.150000*%
%ADD13C,0.010000*%
G04 APERTURE END LIST*
D10*
X163008571Y-53800000D02*
X164508571Y-53442857D01*
X163437142Y-53157142D01*
X164508571Y-52871428D01*
X163008571Y-52514285D01*
X164508571Y-51942857D02*
X163008571Y-51942857D01*
X164508571Y-51300000D02*
X163722857Y-51300000D01*
X163580000Y-51371428D01*
X163508571Y-51514285D01*
X163508571Y-51728571D01*
X163580000Y-51871428D01*
X163651428Y-51942857D01*
X164437142Y-50014285D02*
X164508571Y-50157142D01*
X164508571Y-50442857D01*
X164437142Y-50585714D01*
X164294285Y-50657142D01*
X163722857Y-50657142D01*
X163580000Y-50585714D01*
X163508571Y-50442857D01*
X163508571Y-50157142D01*
X163580000Y-50014285D01*
X163722857Y-49942857D01*
X163865714Y-49942857D01*
X164008571Y-50657142D01*
X164437142Y-48728571D02*
X164508571Y-48871428D01*
X164508571Y-49157142D01*
X164437142Y-49300000D01*
X164294285Y-49371428D01*
X163722857Y-49371428D01*
X163580000Y-49300000D01*
X163508571Y-49157142D01*
X163508571Y-48871428D01*
X163580000Y-48728571D01*
X163722857Y-48657142D01*
X163865714Y-48657142D01*
X164008571Y-49371428D01*
X164508571Y-47800000D02*
X164437142Y-47942857D01*
X164294285Y-48014285D01*
X163008571Y-48014285D01*
X249547142Y-24737142D02*
X249404285Y-24808571D01*
X249118571Y-24808571D01*
X248975714Y-24737142D01*
X248904285Y-24665714D01*
X248832857Y-24522857D01*
X248832857Y-24094285D01*
X248904285Y-23951428D01*
X248975714Y-23880000D01*
X249118571Y-23808571D01*
X249404285Y-23808571D01*
X249547142Y-23880000D01*
X250047142Y-23808571D02*
X250404285Y-24808571D01*
X250761428Y-23808571D01*
X251118571Y-23808571D02*
X251690000Y-23808571D01*
X251332857Y-23308571D02*
X251332857Y-24594285D01*
X251404285Y-24737142D01*
X251547142Y-24808571D01*
X251690000Y-24808571D01*
X216154285Y-23808571D02*
X216725714Y-23808571D01*
X216368571Y-23308571D02*
X216368571Y-24594285D01*
X216440000Y-24737142D01*
X216582857Y-24808571D01*
X216725714Y-24808571D01*
X217868571Y-24808571D02*
X217868571Y-24022857D01*
X217797142Y-23880000D01*
X217654285Y-23808571D01*
X217368571Y-23808571D01*
X217225714Y-23880000D01*
X217868571Y-24737142D02*
X217725714Y-24808571D01*
X217368571Y-24808571D01*
X217225714Y-24737142D01*
X217154285Y-24594285D01*
X217154285Y-24451428D01*
X217225714Y-24308571D01*
X217368571Y-24237142D01*
X217725714Y-24237142D01*
X217868571Y-24165714D01*
X219225714Y-24737142D02*
X219082857Y-24808571D01*
X218797142Y-24808571D01*
X218654285Y-24737142D01*
X218582857Y-24665714D01*
X218511428Y-24522857D01*
X218511428Y-24094285D01*
X218582857Y-23951428D01*
X218654285Y-23880000D01*
X218797142Y-23808571D01*
X219082857Y-23808571D01*
X219225714Y-23880000D01*
X219868571Y-24808571D02*
X219868571Y-23308571D01*
X220511428Y-24808571D02*
X220511428Y-24022857D01*
X220440000Y-23880000D01*
X220297142Y-23808571D01*
X220082857Y-23808571D01*
X219940000Y-23880000D01*
X219868571Y-23951428D01*
D11*
G04 #@! TO.C,REF\002A\002A*
X163770000Y-38040000D02*
X165100000Y-38040000D01*
X163770000Y-39370000D02*
X163770000Y-38040000D01*
X163770000Y-40640000D02*
X166430000Y-40640000D01*
X166430000Y-40640000D02*
X166430000Y-45780000D01*
X163770000Y-40640000D02*
X163770000Y-45780000D01*
X163770000Y-45780000D02*
X166430000Y-45780000D01*
D12*
G04 #@! TO.C,NANO1*
X167640000Y-27940000D02*
X167640000Y-22860000D01*
X167640000Y-40640000D02*
X167640000Y-35560000D01*
X165735000Y-35560000D02*
X165735000Y-27940000D01*
X165735000Y-27940000D02*
X173990000Y-27940000D01*
X173990000Y-27940000D02*
X173990000Y-35560000D01*
X173990000Y-35560000D02*
X165735000Y-35560000D01*
X210185000Y-31750000D02*
G75*
G03X210185000Y-31750000I-635000J0D01*
G01*
X210185000Y-29210000D02*
G75*
G03X210185000Y-29210000I-635000J0D01*
G01*
X207645000Y-29210000D02*
G75*
G03X207645000Y-29210000I-635000J0D01*
G01*
X207645000Y-31750000D02*
G75*
G03X207645000Y-31750000I-635000J0D01*
G01*
X207645000Y-34290000D02*
G75*
G03X207645000Y-34290000I-635000J0D01*
G01*
X210185000Y-34290000D02*
G75*
G03X210185000Y-34290000I-635000J0D01*
G01*
X169545000Y-24130000D02*
G75*
G03X169545000Y-24130000I-635000J0D01*
G01*
X169545000Y-39370000D02*
G75*
G03X169545000Y-39370000I-635000J0D01*
G01*
X210185000Y-24130000D02*
G75*
G03X210185000Y-24130000I-635000J0D01*
G01*
X210185000Y-39370000D02*
G75*
G03X210185000Y-39370000I-635000J0D01*
G01*
X208280000Y-35560000D02*
X208280000Y-33020000D01*
X208280000Y-33020000D02*
X210820000Y-33020000D01*
X205740000Y-35560000D02*
X210820000Y-35560000D01*
X210820000Y-27940000D02*
X205740000Y-27940000D01*
X205740000Y-27940000D02*
X205740000Y-35560000D01*
X210820000Y-40640000D02*
X210820000Y-22860000D01*
X210820000Y-22860000D02*
X167640000Y-22860000D01*
X167640000Y-40640000D02*
X210820000Y-40640000D01*
G04 #@! TO.C,NANO3*
X251460000Y-86360000D02*
X251460000Y-43180000D01*
X233680000Y-43180000D02*
X233680000Y-86360000D01*
X251460000Y-43180000D02*
X233680000Y-43180000D01*
X238760000Y-48260000D02*
X246380000Y-48260000D01*
X238760000Y-43180000D02*
X238760000Y-48260000D01*
X246380000Y-48260000D02*
X246380000Y-43180000D01*
X243840000Y-45720000D02*
X243840000Y-43180000D01*
X246380000Y-45720000D02*
X243840000Y-45720000D01*
X250825000Y-44450000D02*
G75*
G03X250825000Y-44450000I-635000J0D01*
G01*
X235585000Y-44450000D02*
G75*
G03X235585000Y-44450000I-635000J0D01*
G01*
X250825000Y-85090000D02*
G75*
G03X250825000Y-85090000I-635000J0D01*
G01*
X235585000Y-85090000D02*
G75*
G03X235585000Y-85090000I-635000J0D01*
G01*
X245745000Y-44450000D02*
G75*
G03X245745000Y-44450000I-635000J0D01*
G01*
X245745000Y-46990000D02*
G75*
G03X245745000Y-46990000I-635000J0D01*
G01*
X243205000Y-46990000D02*
G75*
G03X243205000Y-46990000I-635000J0D01*
G01*
X240665000Y-46990000D02*
G75*
G03X240665000Y-46990000I-635000J0D01*
G01*
X240665000Y-44450000D02*
G75*
G03X240665000Y-44450000I-635000J0D01*
G01*
X243205000Y-44450000D02*
G75*
G03X243205000Y-44450000I-635000J0D01*
G01*
X246380000Y-80010000D02*
X246380000Y-88265000D01*
X238760000Y-80010000D02*
X246380000Y-80010000D01*
X238760000Y-88265000D02*
X238760000Y-80010000D01*
X246380000Y-88265000D02*
X238760000Y-88265000D01*
X251460000Y-86360000D02*
X246380000Y-86360000D01*
X238760000Y-86360000D02*
X233680000Y-86360000D01*
G04 #@! TO.C,NANO2*
X167640000Y-46990000D02*
X167640000Y-41910000D01*
X167640000Y-59690000D02*
X167640000Y-54610000D01*
X165735000Y-54610000D02*
X165735000Y-46990000D01*
X165735000Y-46990000D02*
X173990000Y-46990000D01*
X173990000Y-46990000D02*
X173990000Y-54610000D01*
X173990000Y-54610000D02*
X165735000Y-54610000D01*
X210185000Y-50800000D02*
G75*
G03X210185000Y-50800000I-635000J0D01*
G01*
X210185000Y-48260000D02*
G75*
G03X210185000Y-48260000I-635000J0D01*
G01*
X207645000Y-48260000D02*
G75*
G03X207645000Y-48260000I-635000J0D01*
G01*
X207645000Y-50800000D02*
G75*
G03X207645000Y-50800000I-635000J0D01*
G01*
X207645000Y-53340000D02*
G75*
G03X207645000Y-53340000I-635000J0D01*
G01*
X210185000Y-53340000D02*
G75*
G03X210185000Y-53340000I-635000J0D01*
G01*
X169545000Y-43180000D02*
G75*
G03X169545000Y-43180000I-635000J0D01*
G01*
X169545000Y-58420000D02*
G75*
G03X169545000Y-58420000I-635000J0D01*
G01*
X210185000Y-43180000D02*
G75*
G03X210185000Y-43180000I-635000J0D01*
G01*
X210185000Y-58420000D02*
G75*
G03X210185000Y-58420000I-635000J0D01*
G01*
X208280000Y-54610000D02*
X208280000Y-52070000D01*
X208280000Y-52070000D02*
X210820000Y-52070000D01*
X205740000Y-54610000D02*
X210820000Y-54610000D01*
X210820000Y-46990000D02*
X205740000Y-46990000D01*
X205740000Y-46990000D02*
X205740000Y-54610000D01*
X210820000Y-59690000D02*
X210820000Y-41910000D01*
X210820000Y-41910000D02*
X167640000Y-41910000D01*
X167640000Y-59690000D02*
X210820000Y-59690000D01*
D11*
G04 #@! TO.C,BUCK1*
X227330000Y-43120000D02*
X227330000Y-45780000D01*
X227330000Y-43120000D02*
X217110000Y-43120000D01*
X227330000Y-45780000D02*
X217110000Y-45780000D01*
X228600000Y-43120000D02*
X229930000Y-43120000D01*
X217110000Y-43120000D02*
X217110000Y-45780000D01*
X229930000Y-43120000D02*
X229930000Y-44450000D01*
D12*
X231140000Y-41910000D02*
X231140000Y-59690000D01*
X231140000Y-59690000D02*
X213360000Y-59690000D01*
X213360000Y-59690000D02*
X213360000Y-41910000D01*
X213360000Y-41910000D02*
X231140000Y-41910000D01*
G04 #@! TO.C,CAN1*
X197700000Y-86360000D02*
X197700000Y-60800000D01*
X197700000Y-60800000D02*
X232410000Y-60800000D01*
X232410000Y-86360000D02*
X232410000Y-60800000D01*
X232410000Y-86360000D02*
X197700000Y-86360000D01*
G04 #@! TO.C,RTD1*
X193040000Y-86360000D02*
X165170000Y-86360000D01*
X165170000Y-86360000D02*
X165170000Y-60950000D01*
X165170000Y-60950000D02*
X193040000Y-60950000D01*
X193040000Y-60950000D02*
X193040000Y-86360000D01*
D11*
G04 #@! TO.C,REF\002A\002A*
X217110000Y-34350000D02*
X219770000Y-34350000D01*
X217110000Y-29210000D02*
X217110000Y-34350000D01*
X219770000Y-29210000D02*
X219770000Y-34350000D01*
X217110000Y-29210000D02*
X219770000Y-29210000D01*
X217110000Y-27940000D02*
X217110000Y-26610000D01*
X217110000Y-26610000D02*
X218440000Y-26610000D01*
X248860000Y-36890000D02*
X251520000Y-36890000D01*
X248860000Y-29210000D02*
X248860000Y-36890000D01*
X251520000Y-29210000D02*
X251520000Y-36890000D01*
X248860000Y-29210000D02*
X251520000Y-29210000D01*
X248860000Y-27940000D02*
X248860000Y-26610000D01*
X248860000Y-26610000D02*
X250190000Y-26610000D01*
D12*
X223520000Y-38770000D02*
X223520000Y-26070000D01*
X237490000Y-38770000D02*
X223520000Y-38770000D01*
X237490000Y-26070000D02*
X237490000Y-38770000D01*
X223520000Y-26070000D02*
X237490000Y-26070000D01*
D13*
G04 #@! TO.C,G\002A\002A\002A*
G36*
X246654491Y-31764711D02*
X246676801Y-31805059D01*
X246708259Y-31866147D01*
X246746461Y-31942916D01*
X246789004Y-32030308D01*
X246833484Y-32123263D01*
X246877499Y-32216723D01*
X246918644Y-32305628D01*
X246954517Y-32384920D01*
X246982714Y-32449540D01*
X247000831Y-32494429D01*
X247006533Y-32513820D01*
X247000668Y-32531524D01*
X246984458Y-32520329D01*
X246959977Y-32482842D01*
X246929303Y-32421671D01*
X246924200Y-32410400D01*
X246871199Y-32291867D01*
X246646766Y-32291956D01*
X246422333Y-32292044D01*
X246368657Y-32410489D01*
X246340724Y-32466856D01*
X246315449Y-32508671D01*
X246297543Y-32528330D01*
X246295279Y-32528933D01*
X246280522Y-32518707D01*
X246281222Y-32512903D01*
X246297468Y-32471863D01*
X246324175Y-32410149D01*
X246358959Y-32332773D01*
X246397392Y-32249200D01*
X246447733Y-32249200D01*
X246463574Y-32252601D01*
X246506729Y-32255390D01*
X246570647Y-32257285D01*
X246648778Y-32258000D01*
X246853278Y-32258000D01*
X246792790Y-32126767D01*
X246757639Y-32049943D01*
X246721416Y-31969881D01*
X246691427Y-31902735D01*
X246689020Y-31897281D01*
X246645737Y-31799028D01*
X246546735Y-32019714D01*
X246511363Y-32099146D01*
X246481577Y-32167146D01*
X246459860Y-32217961D01*
X246448693Y-32245836D01*
X246447733Y-32249200D01*
X246397392Y-32249200D01*
X246399440Y-32244747D01*
X246443235Y-32151081D01*
X246487962Y-32056789D01*
X246531239Y-31966881D01*
X246570685Y-31886370D01*
X246603917Y-31820267D01*
X246628553Y-31773584D01*
X246642212Y-31751332D01*
X246643733Y-31750162D01*
X246654491Y-31764711D01*
X246654491Y-31764711D01*
G37*
X246654491Y-31764711D02*
X246676801Y-31805059D01*
X246708259Y-31866147D01*
X246746461Y-31942916D01*
X246789004Y-32030308D01*
X246833484Y-32123263D01*
X246877499Y-32216723D01*
X246918644Y-32305628D01*
X246954517Y-32384920D01*
X246982714Y-32449540D01*
X247000831Y-32494429D01*
X247006533Y-32513820D01*
X247000668Y-32531524D01*
X246984458Y-32520329D01*
X246959977Y-32482842D01*
X246929303Y-32421671D01*
X246924200Y-32410400D01*
X246871199Y-32291867D01*
X246646766Y-32291956D01*
X246422333Y-32292044D01*
X246368657Y-32410489D01*
X246340724Y-32466856D01*
X246315449Y-32508671D01*
X246297543Y-32528330D01*
X246295279Y-32528933D01*
X246280522Y-32518707D01*
X246281222Y-32512903D01*
X246297468Y-32471863D01*
X246324175Y-32410149D01*
X246358959Y-32332773D01*
X246397392Y-32249200D01*
X246447733Y-32249200D01*
X246463574Y-32252601D01*
X246506729Y-32255390D01*
X246570647Y-32257285D01*
X246648778Y-32258000D01*
X246853278Y-32258000D01*
X246792790Y-32126767D01*
X246757639Y-32049943D01*
X246721416Y-31969881D01*
X246691427Y-31902735D01*
X246689020Y-31897281D01*
X246645737Y-31799028D01*
X246546735Y-32019714D01*
X246511363Y-32099146D01*
X246481577Y-32167146D01*
X246459860Y-32217961D01*
X246448693Y-32245836D01*
X246447733Y-32249200D01*
X246397392Y-32249200D01*
X246399440Y-32244747D01*
X246443235Y-32151081D01*
X246487962Y-32056789D01*
X246531239Y-31966881D01*
X246570685Y-31886370D01*
X246603917Y-31820267D01*
X246628553Y-31773584D01*
X246642212Y-31751332D01*
X246643733Y-31750162D01*
X246654491Y-31764711D01*
G36*
X246176800Y-32409866D02*
X246130233Y-32460194D01*
X246066809Y-32506908D01*
X245993357Y-32521467D01*
X245910964Y-32503707D01*
X245892908Y-32495986D01*
X245840342Y-32465092D01*
X245809830Y-32433245D01*
X245805677Y-32405554D01*
X245810708Y-32398314D01*
X245828889Y-32401024D01*
X245858187Y-32422221D01*
X245859366Y-32423317D01*
X245925289Y-32468196D01*
X245993036Y-32484954D01*
X246056112Y-32473379D01*
X246108018Y-32433259D01*
X246109447Y-32431470D01*
X246121522Y-32413493D01*
X246130307Y-32391343D01*
X246136316Y-32359711D01*
X246140065Y-32313285D01*
X246142069Y-32246754D01*
X246142844Y-32154807D01*
X246142933Y-32086383D01*
X246142933Y-31783867D01*
X246007466Y-31783867D01*
X245940380Y-31781886D01*
X245893237Y-31776480D01*
X245872451Y-31768448D01*
X245871999Y-31766934D01*
X245887985Y-31758820D01*
X245932234Y-31753032D01*
X245999190Y-31750188D01*
X246024399Y-31750000D01*
X246176800Y-31750000D01*
X246176800Y-32409866D01*
X246176800Y-32409866D01*
G37*
X246176800Y-32409866D02*
X246130233Y-32460194D01*
X246066809Y-32506908D01*
X245993357Y-32521467D01*
X245910964Y-32503707D01*
X245892908Y-32495986D01*
X245840342Y-32465092D01*
X245809830Y-32433245D01*
X245805677Y-32405554D01*
X245810708Y-32398314D01*
X245828889Y-32401024D01*
X245858187Y-32422221D01*
X245859366Y-32423317D01*
X245925289Y-32468196D01*
X245993036Y-32484954D01*
X246056112Y-32473379D01*
X246108018Y-32433259D01*
X246109447Y-32431470D01*
X246121522Y-32413493D01*
X246130307Y-32391343D01*
X246136316Y-32359711D01*
X246140065Y-32313285D01*
X246142069Y-32246754D01*
X246142844Y-32154807D01*
X246142933Y-32086383D01*
X246142933Y-31783867D01*
X246007466Y-31783867D01*
X245940380Y-31781886D01*
X245893237Y-31776480D01*
X245872451Y-31768448D01*
X245871999Y-31766934D01*
X245887985Y-31758820D01*
X245932234Y-31753032D01*
X245999190Y-31750188D01*
X246024399Y-31750000D01*
X246176800Y-31750000D01*
X246176800Y-32409866D01*
G36*
X245435291Y-31764711D02*
X245457601Y-31805059D01*
X245489059Y-31866147D01*
X245527261Y-31942916D01*
X245569804Y-32030308D01*
X245614284Y-32123263D01*
X245658299Y-32216723D01*
X245699444Y-32305628D01*
X245735317Y-32384920D01*
X245763514Y-32449540D01*
X245781631Y-32494429D01*
X245787333Y-32513820D01*
X245781468Y-32531524D01*
X245765258Y-32520329D01*
X245740777Y-32482842D01*
X245710103Y-32421671D01*
X245705000Y-32410400D01*
X245651999Y-32291867D01*
X245427566Y-32291956D01*
X245203133Y-32292044D01*
X245149457Y-32410489D01*
X245121524Y-32466856D01*
X245096249Y-32508671D01*
X245078343Y-32528330D01*
X245076079Y-32528933D01*
X245061322Y-32518707D01*
X245062022Y-32512903D01*
X245078268Y-32471863D01*
X245104975Y-32410149D01*
X245139759Y-32332773D01*
X245178192Y-32249200D01*
X245228533Y-32249200D01*
X245244374Y-32252601D01*
X245287529Y-32255390D01*
X245351447Y-32257285D01*
X245429578Y-32258000D01*
X245634078Y-32258000D01*
X245573590Y-32126767D01*
X245538439Y-32049943D01*
X245502216Y-31969881D01*
X245472227Y-31902735D01*
X245469820Y-31897281D01*
X245426537Y-31799028D01*
X245327535Y-32019714D01*
X245292163Y-32099146D01*
X245262377Y-32167146D01*
X245240660Y-32217961D01*
X245229493Y-32245836D01*
X245228533Y-32249200D01*
X245178192Y-32249200D01*
X245180240Y-32244747D01*
X245224035Y-32151081D01*
X245268762Y-32056789D01*
X245312039Y-31966881D01*
X245351485Y-31886370D01*
X245384717Y-31820267D01*
X245409353Y-31773584D01*
X245423012Y-31751332D01*
X245424533Y-31750162D01*
X245435291Y-31764711D01*
X245435291Y-31764711D01*
G37*
X245435291Y-31764711D02*
X245457601Y-31805059D01*
X245489059Y-31866147D01*
X245527261Y-31942916D01*
X245569804Y-32030308D01*
X245614284Y-32123263D01*
X245658299Y-32216723D01*
X245699444Y-32305628D01*
X245735317Y-32384920D01*
X245763514Y-32449540D01*
X245781631Y-32494429D01*
X245787333Y-32513820D01*
X245781468Y-32531524D01*
X245765258Y-32520329D01*
X245740777Y-32482842D01*
X245710103Y-32421671D01*
X245705000Y-32410400D01*
X245651999Y-32291867D01*
X245427566Y-32291956D01*
X245203133Y-32292044D01*
X245149457Y-32410489D01*
X245121524Y-32466856D01*
X245096249Y-32508671D01*
X245078343Y-32528330D01*
X245076079Y-32528933D01*
X245061322Y-32518707D01*
X245062022Y-32512903D01*
X245078268Y-32471863D01*
X245104975Y-32410149D01*
X245139759Y-32332773D01*
X245178192Y-32249200D01*
X245228533Y-32249200D01*
X245244374Y-32252601D01*
X245287529Y-32255390D01*
X245351447Y-32257285D01*
X245429578Y-32258000D01*
X245634078Y-32258000D01*
X245573590Y-32126767D01*
X245538439Y-32049943D01*
X245502216Y-31969881D01*
X245472227Y-31902735D01*
X245469820Y-31897281D01*
X245426537Y-31799028D01*
X245327535Y-32019714D01*
X245292163Y-32099146D01*
X245262377Y-32167146D01*
X245240660Y-32217961D01*
X245229493Y-32245836D01*
X245228533Y-32249200D01*
X245178192Y-32249200D01*
X245180240Y-32244747D01*
X245224035Y-32151081D01*
X245268762Y-32056789D01*
X245312039Y-31966881D01*
X245351485Y-31886370D01*
X245384717Y-31820267D01*
X245409353Y-31773584D01*
X245423012Y-31751332D01*
X245424533Y-31750162D01*
X245435291Y-31764711D01*
G36*
X244708428Y-31754235D02*
X244801512Y-31768140D01*
X244868067Y-31793521D01*
X244911299Y-31832182D01*
X244934413Y-31885925D01*
X244940666Y-31949804D01*
X244934700Y-32007008D01*
X244911812Y-32050288D01*
X244891011Y-32073193D01*
X244841357Y-32122848D01*
X244892345Y-32149216D01*
X244942765Y-32192812D01*
X244975198Y-32256270D01*
X244984585Y-32328151D01*
X244981813Y-32351503D01*
X244959715Y-32413301D01*
X244917637Y-32460624D01*
X244852835Y-32494624D01*
X244762562Y-32516452D01*
X244644073Y-32527259D01*
X244558833Y-32528933D01*
X244398799Y-32528933D01*
X244398799Y-32495067D01*
X244432666Y-32495067D01*
X244572366Y-32494653D01*
X244649741Y-32492240D01*
X244724721Y-32486256D01*
X244782538Y-32477929D01*
X244788016Y-32476739D01*
X244869850Y-32446224D01*
X244923684Y-32400018D01*
X244948027Y-32340235D01*
X244941388Y-32268989D01*
X244939313Y-32262366D01*
X244913000Y-32213870D01*
X244868284Y-32178758D01*
X244801404Y-32155646D01*
X244708597Y-32143149D01*
X244606233Y-32139839D01*
X244432666Y-32139467D01*
X244432666Y-32495067D01*
X244398799Y-32495067D01*
X244398799Y-31783867D01*
X244432666Y-31783867D01*
X244432666Y-32105600D01*
X244602840Y-32105600D01*
X244703240Y-32103033D01*
X244774380Y-32095003D01*
X244820501Y-32081016D01*
X244822472Y-32080025D01*
X244878071Y-32036252D01*
X244904206Y-31976468D01*
X244906799Y-31944734D01*
X244897428Y-31884879D01*
X244867433Y-31840345D01*
X244813992Y-31809679D01*
X244734281Y-31791430D01*
X244625479Y-31784145D01*
X244594077Y-31783867D01*
X244432666Y-31783867D01*
X244398799Y-31783867D01*
X244398799Y-31750000D01*
X244585610Y-31750000D01*
X244708428Y-31754235D01*
X244708428Y-31754235D01*
G37*
X244708428Y-31754235D02*
X244801512Y-31768140D01*
X244868067Y-31793521D01*
X244911299Y-31832182D01*
X244934413Y-31885925D01*
X244940666Y-31949804D01*
X244934700Y-32007008D01*
X244911812Y-32050288D01*
X244891011Y-32073193D01*
X244841357Y-32122848D01*
X244892345Y-32149216D01*
X244942765Y-32192812D01*
X244975198Y-32256270D01*
X244984585Y-32328151D01*
X244981813Y-32351503D01*
X244959715Y-32413301D01*
X244917637Y-32460624D01*
X244852835Y-32494624D01*
X244762562Y-32516452D01*
X244644073Y-32527259D01*
X244558833Y-32528933D01*
X244398799Y-32528933D01*
X244398799Y-32495067D01*
X244432666Y-32495067D01*
X244572366Y-32494653D01*
X244649741Y-32492240D01*
X244724721Y-32486256D01*
X244782538Y-32477929D01*
X244788016Y-32476739D01*
X244869850Y-32446224D01*
X244923684Y-32400018D01*
X244948027Y-32340235D01*
X244941388Y-32268989D01*
X244939313Y-32262366D01*
X244913000Y-32213870D01*
X244868284Y-32178758D01*
X244801404Y-32155646D01*
X244708597Y-32143149D01*
X244606233Y-32139839D01*
X244432666Y-32139467D01*
X244432666Y-32495067D01*
X244398799Y-32495067D01*
X244398799Y-31783867D01*
X244432666Y-31783867D01*
X244432666Y-32105600D01*
X244602840Y-32105600D01*
X244703240Y-32103033D01*
X244774380Y-32095003D01*
X244820501Y-32081016D01*
X244822472Y-32080025D01*
X244878071Y-32036252D01*
X244904206Y-31976468D01*
X244906799Y-31944734D01*
X244897428Y-31884879D01*
X244867433Y-31840345D01*
X244813992Y-31809679D01*
X244734281Y-31791430D01*
X244625479Y-31784145D01*
X244594077Y-31783867D01*
X244432666Y-31783867D01*
X244398799Y-31783867D01*
X244398799Y-31750000D01*
X244585610Y-31750000D01*
X244708428Y-31754235D01*
G36*
X243568231Y-31753161D02*
X243587427Y-31758220D01*
X243609048Y-31771584D01*
X243636096Y-31796578D01*
X243671570Y-31836526D01*
X243718472Y-31894756D01*
X243779801Y-31974592D01*
X243839165Y-32053442D01*
X244060133Y-32348418D01*
X244060133Y-31750000D01*
X244161733Y-31750000D01*
X244161733Y-32528933D01*
X244111679Y-32528933D01*
X244093469Y-32526657D01*
X244074183Y-32517630D01*
X244050767Y-32498553D01*
X244020169Y-32466130D01*
X243979333Y-32417061D01*
X243925207Y-32348050D01*
X243854736Y-32255798D01*
X243836512Y-32231760D01*
X243611400Y-31934587D01*
X243606775Y-32231760D01*
X243602151Y-32528933D01*
X243518266Y-32528933D01*
X243518266Y-31747854D01*
X243568231Y-31753161D01*
X243568231Y-31753161D01*
G37*
X243568231Y-31753161D02*
X243587427Y-31758220D01*
X243609048Y-31771584D01*
X243636096Y-31796578D01*
X243671570Y-31836526D01*
X243718472Y-31894756D01*
X243779801Y-31974592D01*
X243839165Y-32053442D01*
X244060133Y-32348418D01*
X244060133Y-31750000D01*
X244161733Y-31750000D01*
X244161733Y-32528933D01*
X244111679Y-32528933D01*
X244093469Y-32526657D01*
X244074183Y-32517630D01*
X244050767Y-32498553D01*
X244020169Y-32466130D01*
X243979333Y-32417061D01*
X243925207Y-32348050D01*
X243854736Y-32255798D01*
X243836512Y-32231760D01*
X243611400Y-31934587D01*
X243606775Y-32231760D01*
X243602151Y-32528933D01*
X243518266Y-32528933D01*
X243518266Y-31747854D01*
X243568231Y-31753161D01*
G36*
X243298133Y-32528933D02*
X243196533Y-32528933D01*
X243196533Y-31750000D01*
X243298133Y-31750000D01*
X243298133Y-32528933D01*
X243298133Y-32528933D01*
G37*
X243298133Y-32528933D02*
X243196533Y-32528933D01*
X243196533Y-31750000D01*
X243298133Y-31750000D01*
X243298133Y-32528933D01*
G36*
X242722400Y-32427333D02*
X243061066Y-32427333D01*
X243061066Y-32528933D01*
X242637733Y-32528933D01*
X242637733Y-31750000D01*
X242722400Y-31750000D01*
X242722400Y-32427333D01*
X242722400Y-32427333D01*
G37*
X242722400Y-32427333D02*
X243061066Y-32427333D01*
X243061066Y-32528933D01*
X242637733Y-32528933D01*
X242637733Y-31750000D01*
X242722400Y-31750000D01*
X242722400Y-32427333D01*
G36*
X242154842Y-31756528D02*
X242255696Y-31787275D01*
X242348738Y-31846116D01*
X242351457Y-31848424D01*
X242424471Y-31931595D01*
X242469378Y-32028230D01*
X242485655Y-32132149D01*
X242472784Y-32237173D01*
X242430243Y-32337121D01*
X242396633Y-32384539D01*
X242319441Y-32452915D01*
X242222553Y-32499689D01*
X242114079Y-32522594D01*
X242002128Y-32519362D01*
X241952517Y-32508704D01*
X241889934Y-32478625D01*
X241818988Y-32422774D01*
X241797971Y-32402580D01*
X241726813Y-32313539D01*
X241688193Y-32219457D01*
X241683947Y-32160212D01*
X241782866Y-32160212D01*
X241803734Y-32241666D01*
X241848369Y-32313082D01*
X241911750Y-32370416D01*
X241988856Y-32409623D01*
X242074666Y-32426655D01*
X242164157Y-32417469D01*
X242202508Y-32404456D01*
X242263610Y-32365803D01*
X242319849Y-32307974D01*
X242361366Y-32242645D01*
X242376428Y-32198497D01*
X242378924Y-32101830D01*
X242352086Y-32013717D01*
X242300277Y-31939292D01*
X242227855Y-31883692D01*
X242139182Y-31852052D01*
X242077731Y-31846722D01*
X241980964Y-31863627D01*
X241897511Y-31909311D01*
X241832580Y-31979676D01*
X241791374Y-32070620D01*
X241790788Y-32072766D01*
X241782866Y-32160212D01*
X241683947Y-32160212D01*
X241680800Y-32116307D01*
X241687662Y-32063961D01*
X241722142Y-31962915D01*
X241781165Y-31879457D01*
X241859339Y-31815339D01*
X241951272Y-31772310D01*
X242051570Y-31752123D01*
X242154842Y-31756528D01*
X242154842Y-31756528D01*
G37*
X242154842Y-31756528D02*
X242255696Y-31787275D01*
X242348738Y-31846116D01*
X242351457Y-31848424D01*
X242424471Y-31931595D01*
X242469378Y-32028230D01*
X242485655Y-32132149D01*
X242472784Y-32237173D01*
X242430243Y-32337121D01*
X242396633Y-32384539D01*
X242319441Y-32452915D01*
X242222553Y-32499689D01*
X242114079Y-32522594D01*
X242002128Y-32519362D01*
X241952517Y-32508704D01*
X241889934Y-32478625D01*
X241818988Y-32422774D01*
X241797971Y-32402580D01*
X241726813Y-32313539D01*
X241688193Y-32219457D01*
X241683947Y-32160212D01*
X241782866Y-32160212D01*
X241803734Y-32241666D01*
X241848369Y-32313082D01*
X241911750Y-32370416D01*
X241988856Y-32409623D01*
X242074666Y-32426655D01*
X242164157Y-32417469D01*
X242202508Y-32404456D01*
X242263610Y-32365803D01*
X242319849Y-32307974D01*
X242361366Y-32242645D01*
X242376428Y-32198497D01*
X242378924Y-32101830D01*
X242352086Y-32013717D01*
X242300277Y-31939292D01*
X242227855Y-31883692D01*
X242139182Y-31852052D01*
X242077731Y-31846722D01*
X241980964Y-31863627D01*
X241897511Y-31909311D01*
X241832580Y-31979676D01*
X241791374Y-32070620D01*
X241790788Y-32072766D01*
X241782866Y-32160212D01*
X241683947Y-32160212D01*
X241680800Y-32116307D01*
X241687662Y-32063961D01*
X241722142Y-31962915D01*
X241781165Y-31879457D01*
X241859339Y-31815339D01*
X241951272Y-31772310D01*
X242051570Y-31752123D01*
X242154842Y-31756528D01*
G36*
X241711833Y-31180579D02*
X241882911Y-31208242D01*
X242026976Y-31259699D01*
X242094176Y-31294455D01*
X242156663Y-31331968D01*
X242207587Y-31367549D01*
X242240094Y-31396510D01*
X242248266Y-31411128D01*
X242232680Y-31418698D01*
X242190902Y-31428385D01*
X242130407Y-31438610D01*
X242095223Y-31443463D01*
X241932874Y-31473851D01*
X241798392Y-31520597D01*
X241689199Y-31585229D01*
X241602716Y-31669274D01*
X241536365Y-31774259D01*
X241536251Y-31774490D01*
X241512271Y-31826408D01*
X241495547Y-31873525D01*
X241484066Y-31925219D01*
X241475813Y-31990866D01*
X241468775Y-32079846D01*
X241467905Y-32092718D01*
X241449700Y-32261966D01*
X241419785Y-32405340D01*
X241378749Y-32521132D01*
X241327181Y-32607633D01*
X241272459Y-32658893D01*
X241244154Y-32682891D01*
X241236336Y-32712119D01*
X241240873Y-32747667D01*
X241262006Y-32835729D01*
X241294790Y-32942580D01*
X241335222Y-33056981D01*
X241379294Y-33167692D01*
X241423003Y-33263471D01*
X241428689Y-33274708D01*
X241516494Y-33426889D01*
X241609213Y-33547683D01*
X241710767Y-33639556D01*
X241825076Y-33704973D01*
X241956059Y-33746398D01*
X242107635Y-33766299D01*
X242214400Y-33768902D01*
X242385094Y-33758100D01*
X242567879Y-33727909D01*
X242764974Y-33677621D01*
X242978599Y-33606530D01*
X243210974Y-33513928D01*
X243464318Y-33399110D01*
X243628333Y-33318750D01*
X243885038Y-33195961D01*
X244124725Y-33094678D01*
X244354280Y-33012418D01*
X244580586Y-32946697D01*
X244793850Y-32898307D01*
X244931020Y-32877095D01*
X245080885Y-32864194D01*
X245234507Y-32859608D01*
X245382951Y-32863339D01*
X245517281Y-32875388D01*
X245628562Y-32895758D01*
X245637542Y-32898108D01*
X245716839Y-32923035D01*
X245799215Y-32954839D01*
X245878440Y-32990381D01*
X245948287Y-33026523D01*
X246002526Y-33060125D01*
X246034930Y-33088049D01*
X246041333Y-33101587D01*
X246025526Y-33106278D01*
X245982613Y-33110275D01*
X245919351Y-33113124D01*
X245850833Y-33114331D01*
X245731040Y-33119518D01*
X245618058Y-33134858D01*
X245504628Y-33162393D01*
X245383491Y-33204164D01*
X245247390Y-33262213D01*
X245135399Y-33315558D01*
X245038105Y-33365151D01*
X244937027Y-33419690D01*
X244838047Y-33475700D01*
X244747052Y-33529707D01*
X244669924Y-33578238D01*
X244612547Y-33617819D01*
X244585066Y-33640465D01*
X244571052Y-33656475D01*
X244581342Y-33656728D01*
X244605656Y-33648149D01*
X244650258Y-33629303D01*
X244704976Y-33603530D01*
X244720537Y-33595731D01*
X244774494Y-33572905D01*
X244803595Y-33572768D01*
X244808591Y-33595848D01*
X244790233Y-33642673D01*
X244789494Y-33644127D01*
X244749966Y-33702181D01*
X244687423Y-33771078D01*
X244608338Y-33845007D01*
X244519186Y-33918158D01*
X244426440Y-33984718D01*
X244371897Y-34018992D01*
X244103023Y-34161205D01*
X243818851Y-34280476D01*
X243526384Y-34374505D01*
X243232623Y-34440989D01*
X242987517Y-34474091D01*
X242912320Y-34481537D01*
X242850456Y-34488864D01*
X242809182Y-34495133D01*
X242795815Y-34498807D01*
X242805027Y-34505296D01*
X242841431Y-34511323D01*
X242898351Y-34516557D01*
X242969111Y-34520664D01*
X243047037Y-34523311D01*
X243125453Y-34524166D01*
X243197684Y-34522894D01*
X243237300Y-34520831D01*
X243304055Y-34517448D01*
X243351391Y-34517773D01*
X243373552Y-34521641D01*
X243373546Y-34524716D01*
X243349220Y-34536347D01*
X243298793Y-34553613D01*
X243229172Y-34574585D01*
X243147269Y-34597331D01*
X243059990Y-34619923D01*
X242974246Y-34640429D01*
X242908666Y-34654589D01*
X242834561Y-34665754D01*
X242736790Y-34675055D01*
X242623831Y-34682225D01*
X242504162Y-34686997D01*
X242386259Y-34689102D01*
X242278599Y-34688274D01*
X242189660Y-34684245D01*
X242139635Y-34678851D01*
X241900391Y-34624337D01*
X241673406Y-34538858D01*
X241460635Y-34423713D01*
X241264033Y-34280199D01*
X241085556Y-34109613D01*
X240927158Y-33913252D01*
X240879384Y-33842642D01*
X240793632Y-33698185D01*
X240712512Y-33539510D01*
X240643417Y-33381684D01*
X240612771Y-33299400D01*
X240591103Y-33237166D01*
X240573750Y-33188596D01*
X240563510Y-33161473D01*
X240562098Y-33158452D01*
X240546140Y-33161653D01*
X240512303Y-33176688D01*
X240506547Y-33179618D01*
X240459737Y-33198332D01*
X240418807Y-33206265D01*
X240418360Y-33206267D01*
X240393988Y-33204076D01*
X240392804Y-33191354D01*
X240409083Y-33164482D01*
X240433280Y-33119998D01*
X240462655Y-33055389D01*
X240492091Y-32982792D01*
X240516474Y-32914348D01*
X240521995Y-32896584D01*
X240523855Y-32880103D01*
X240512718Y-32882397D01*
X240485942Y-32905495D01*
X240440881Y-32951427D01*
X240415851Y-32978031D01*
X240351363Y-33043179D01*
X240280867Y-33108224D01*
X240215908Y-33162712D01*
X240192061Y-33180645D01*
X240136800Y-33216940D01*
X240068182Y-33257447D01*
X239993458Y-33298427D01*
X239919881Y-33336140D01*
X239854704Y-33366847D01*
X239805180Y-33386807D01*
X239781129Y-33392534D01*
X239760655Y-33383956D01*
X239769107Y-33358495D01*
X239806292Y-33316554D01*
X239826812Y-33297374D01*
X239914284Y-33204183D01*
X240002160Y-33083570D01*
X240056592Y-32994600D01*
X240105081Y-32909934D01*
X240004040Y-32996677D01*
X239799136Y-33157253D01*
X239586518Y-33294822D01*
X239372494Y-33405528D01*
X239257523Y-33453170D01*
X239191799Y-33475994D01*
X239119520Y-33498077D01*
X239048374Y-33517461D01*
X238986048Y-33532187D01*
X238940230Y-33540294D01*
X238918606Y-33539823D01*
X238918374Y-33539619D01*
X238928353Y-33527518D01*
X238960707Y-33499841D01*
X239010308Y-33460773D01*
X239014308Y-33457770D01*
X239098756Y-33457770D01*
X239111858Y-33457813D01*
X239150194Y-33446091D01*
X239216673Y-33421927D01*
X239221046Y-33420282D01*
X239435884Y-33325089D01*
X239649282Y-33203483D01*
X239851143Y-33061793D01*
X240013263Y-32923601D01*
X240086976Y-32856331D01*
X240138816Y-32814539D01*
X240169617Y-32798571D01*
X240180210Y-32808774D01*
X240171426Y-32845495D01*
X240144098Y-32909083D01*
X240116023Y-32966501D01*
X240076380Y-33041373D01*
X240034537Y-33110738D01*
X239984153Y-33184317D01*
X239918885Y-33271827D01*
X239904926Y-33289992D01*
X239906546Y-33296288D01*
X239930815Y-33287244D01*
X239972056Y-33266078D01*
X240024590Y-33236011D01*
X240082740Y-33200262D01*
X240140827Y-33162053D01*
X240182400Y-33132641D01*
X240331313Y-33004422D01*
X240463301Y-32853872D01*
X240531895Y-32754626D01*
X240567500Y-32698791D01*
X240596329Y-32655987D01*
X240613864Y-32632822D01*
X240616719Y-32630533D01*
X240620836Y-32645476D01*
X240616089Y-32685738D01*
X240604210Y-32744473D01*
X240586930Y-32814835D01*
X240565979Y-32889977D01*
X240543091Y-32963051D01*
X240519994Y-33027212D01*
X240510745Y-33049634D01*
X240492331Y-33097221D01*
X240484168Y-33129483D01*
X240486562Y-33138534D01*
X240508703Y-33125444D01*
X240544555Y-33090248D01*
X240589100Y-33039056D01*
X240637319Y-32977977D01*
X240684192Y-32913120D01*
X240724701Y-32850595D01*
X240728873Y-32843578D01*
X240789692Y-32730282D01*
X240855336Y-32590484D01*
X240923195Y-32430723D01*
X240990659Y-32257537D01*
X241055119Y-32077465D01*
X241113965Y-31897046D01*
X241136635Y-31821866D01*
X241162767Y-31732865D01*
X241117083Y-31743605D01*
X241048439Y-31764030D01*
X240960422Y-31796310D01*
X240863398Y-31836101D01*
X240767737Y-31879059D01*
X240683805Y-31920840D01*
X240651841Y-31938553D01*
X240438944Y-32079873D01*
X240233681Y-32252485D01*
X240035290Y-32457103D01*
X239843008Y-32694439D01*
X239840155Y-32698267D01*
X239641974Y-32944478D01*
X239435316Y-33162552D01*
X239273141Y-33308572D01*
X239212366Y-33359322D01*
X239160542Y-33402628D01*
X239123577Y-33433552D01*
X239107979Y-33446642D01*
X239098756Y-33457770D01*
X239014308Y-33457770D01*
X239068531Y-33417066D01*
X239188096Y-33321551D01*
X239319303Y-33203512D01*
X239456007Y-33069248D01*
X239592068Y-32925058D01*
X239721343Y-32777241D01*
X239837688Y-32632095D01*
X239850308Y-32615398D01*
X239906575Y-32538909D01*
X239952435Y-32473573D01*
X239985308Y-32423327D01*
X240002617Y-32392110D01*
X240001992Y-32383774D01*
X239910987Y-32411774D01*
X239797052Y-32436035D01*
X239671037Y-32455197D01*
X239543793Y-32467901D01*
X239426173Y-32472788D01*
X239329028Y-32468498D01*
X239327266Y-32468297D01*
X239225666Y-32456547D01*
X239386533Y-32419904D01*
X239465751Y-32399787D01*
X239542667Y-32376654D01*
X239611169Y-32352803D01*
X239665143Y-32330536D01*
X239698476Y-32312151D01*
X239705157Y-32300047D01*
X239685248Y-32298301D01*
X239642965Y-32302716D01*
X239607096Y-32308719D01*
X239545538Y-32316444D01*
X239462504Y-32321451D01*
X239366314Y-32323822D01*
X239265284Y-32323638D01*
X239167735Y-32320980D01*
X239081985Y-32315931D01*
X239016351Y-32308572D01*
X238988600Y-32302643D01*
X238920866Y-32282156D01*
X239094317Y-32253609D01*
X239174916Y-32238221D01*
X239249770Y-32220195D01*
X239308107Y-32202299D01*
X239330209Y-32193027D01*
X239392650Y-32160993D01*
X239186901Y-32169467D01*
X239010571Y-32168500D01*
X238856143Y-32150606D01*
X238725858Y-32116339D01*
X238621957Y-32066252D01*
X238597667Y-32046334D01*
X238674356Y-32046334D01*
X238741894Y-32074982D01*
X238877738Y-32116541D01*
X239035280Y-32136195D01*
X239210101Y-32133603D01*
X239327239Y-32120376D01*
X239389485Y-32112399D01*
X239437762Y-32108607D01*
X239463217Y-32109640D01*
X239464770Y-32110459D01*
X239466355Y-32132890D01*
X239446613Y-32165152D01*
X239412416Y-32198323D01*
X239381798Y-32218230D01*
X239329977Y-32241276D01*
X239268017Y-32263833D01*
X239251066Y-32269118D01*
X239222070Y-32278296D01*
X239211038Y-32284226D01*
X239221312Y-32287269D01*
X239256233Y-32287782D01*
X239319143Y-32286126D01*
X239386533Y-32283683D01*
X239479493Y-32278384D01*
X239570987Y-32270086D01*
X239649777Y-32259981D01*
X239699799Y-32250507D01*
X239759661Y-32236891D01*
X239810208Y-32227510D01*
X239834881Y-32224737D01*
X239854953Y-32226501D01*
X239853151Y-32237445D01*
X239828078Y-32264396D01*
X239826415Y-32266061D01*
X239790242Y-32295465D01*
X239735689Y-32332289D01*
X239674552Y-32368574D01*
X239674399Y-32368658D01*
X239564333Y-32429328D01*
X239663853Y-32418377D01*
X239842326Y-32387531D01*
X239997291Y-32335950D01*
X240133370Y-32261763D01*
X240224733Y-32191116D01*
X240291281Y-32135179D01*
X240369421Y-32073441D01*
X240442612Y-32018956D01*
X240444866Y-32017351D01*
X240532780Y-31959285D01*
X240628746Y-31903417D01*
X240728792Y-31851247D01*
X240828947Y-31804278D01*
X240925238Y-31764009D01*
X241013693Y-31731941D01*
X241090340Y-31709575D01*
X241151207Y-31698413D01*
X241192322Y-31699954D01*
X241209713Y-31715701D01*
X241208440Y-31728834D01*
X241199789Y-31756934D01*
X241183794Y-31809028D01*
X241163028Y-31876726D01*
X241147632Y-31926949D01*
X241057817Y-32201558D01*
X240965685Y-32447139D01*
X240871740Y-32662564D01*
X240776484Y-32846707D01*
X240680422Y-32998442D01*
X240652111Y-33036708D01*
X240593657Y-33112683D01*
X240639541Y-33248375D01*
X240736871Y-33492608D01*
X240857279Y-33720587D01*
X240998415Y-33929417D01*
X241157931Y-34116201D01*
X241333478Y-34278045D01*
X241522707Y-34412054D01*
X241633699Y-34473823D01*
X241850207Y-34564077D01*
X242080864Y-34623869D01*
X242324844Y-34653110D01*
X242581319Y-34651714D01*
X242849463Y-34619593D01*
X242908666Y-34608644D01*
X243103400Y-34570439D01*
X242951000Y-34557969D01*
X242859777Y-34548436D01*
X242760273Y-34534836D01*
X242672304Y-34519914D01*
X242663133Y-34518098D01*
X242585182Y-34502790D01*
X242489377Y-34484642D01*
X242391240Y-34466572D01*
X242346090Y-34458469D01*
X242123538Y-34404246D01*
X241923328Y-34324596D01*
X241745535Y-34219612D01*
X241590233Y-34089383D01*
X241457498Y-33934001D01*
X241347405Y-33753557D01*
X241260028Y-33548142D01*
X241195444Y-33317848D01*
X241153726Y-33062765D01*
X241147518Y-33002179D01*
X241140435Y-32900968D01*
X241138838Y-32850667D01*
X241182367Y-32850667D01*
X241194535Y-33071102D01*
X241231626Y-33292919D01*
X241291436Y-33506604D01*
X241371760Y-33702644D01*
X241386745Y-33732466D01*
X241497049Y-33911606D01*
X241629498Y-34065214D01*
X241784206Y-34193373D01*
X241961289Y-34296165D01*
X242160862Y-34373673D01*
X242341400Y-34418426D01*
X242427210Y-34429622D01*
X242538583Y-34436201D01*
X242667560Y-34438375D01*
X242806181Y-34436357D01*
X242946490Y-34430359D01*
X243080526Y-34420592D01*
X243200331Y-34407269D01*
X243285183Y-34393276D01*
X243463862Y-34350737D01*
X243647282Y-34295126D01*
X243830802Y-34228698D01*
X244009780Y-34153708D01*
X244179574Y-34072413D01*
X244335543Y-33987065D01*
X244473044Y-33899922D01*
X244587435Y-33813237D01*
X244674076Y-33729266D01*
X244689067Y-33711235D01*
X244719871Y-33671454D01*
X244730671Y-33652663D01*
X244722742Y-33649508D01*
X244702474Y-33655045D01*
X244659219Y-33671368D01*
X244607983Y-33694383D01*
X244601999Y-33697326D01*
X244493812Y-33746069D01*
X244359269Y-33798516D01*
X244205360Y-33852454D01*
X244039075Y-33905669D01*
X243867404Y-33955949D01*
X243697338Y-34001079D01*
X243535866Y-34038847D01*
X243498789Y-34046647D01*
X243420516Y-34062154D01*
X243352584Y-34073817D01*
X243287846Y-34082197D01*
X243219154Y-34087853D01*
X243139361Y-34091344D01*
X243041318Y-34093230D01*
X242917878Y-34094069D01*
X242891733Y-34094154D01*
X242764810Y-34094249D01*
X242665689Y-34093408D01*
X242588308Y-34091190D01*
X242526606Y-34087156D01*
X242474520Y-34080866D01*
X242425990Y-34071881D01*
X242374954Y-34059761D01*
X242358333Y-34055470D01*
X242138841Y-33983886D01*
X241942701Y-33889426D01*
X241772802Y-33773740D01*
X241849895Y-33773740D01*
X241864302Y-33789498D01*
X241908911Y-33819208D01*
X241944396Y-33840469D01*
X242124435Y-33931120D01*
X242318920Y-33999386D01*
X242534720Y-34047617D01*
X242564325Y-34052479D01*
X242644699Y-34060442D01*
X242750459Y-34064001D01*
X242873456Y-34063468D01*
X243005540Y-34059156D01*
X243138562Y-34051379D01*
X243264370Y-34040448D01*
X243374817Y-34026677D01*
X243416666Y-34019758D01*
X243566214Y-33989053D01*
X243732901Y-33949008D01*
X243903763Y-33903092D01*
X244065832Y-33854774D01*
X244195152Y-33811493D01*
X244347959Y-33742145D01*
X244459389Y-33671934D01*
X244534266Y-33671934D01*
X244542733Y-33680400D01*
X244551199Y-33671934D01*
X244542733Y-33663467D01*
X244534266Y-33671934D01*
X244459389Y-33671934D01*
X244474999Y-33662099D01*
X244736147Y-33486005D01*
X244994310Y-33336828D01*
X245118466Y-33273865D01*
X245286010Y-33197611D01*
X245434512Y-33141425D01*
X245570597Y-33103279D01*
X245700887Y-33081143D01*
X245766365Y-33075419D01*
X245841123Y-33069489D01*
X245885093Y-33061638D01*
X245897971Y-33050205D01*
X245879455Y-33033531D01*
X245829243Y-33009956D01*
X245748695Y-32978444D01*
X245630903Y-32940716D01*
X245508425Y-32915883D01*
X245371610Y-32902474D01*
X245226872Y-32898961D01*
X245038359Y-32906759D01*
X244847027Y-32930310D01*
X244649318Y-32970658D01*
X244441676Y-33028843D01*
X244220543Y-33105909D01*
X243982359Y-33202897D01*
X243723569Y-33320850D01*
X243626504Y-33367750D01*
X243469923Y-33443664D01*
X243337221Y-33506093D01*
X243222418Y-33557533D01*
X243119533Y-33600479D01*
X243022586Y-33637427D01*
X242925597Y-33670871D01*
X242822585Y-33703307D01*
X242821466Y-33703646D01*
X242637443Y-33752385D01*
X242456759Y-33786837D01*
X242285004Y-33806518D01*
X242127765Y-33810945D01*
X241990630Y-33799635D01*
X241910721Y-33782423D01*
X241865447Y-33771519D01*
X241849895Y-33773740D01*
X241772802Y-33773740D01*
X241769099Y-33771219D01*
X241617218Y-33628393D01*
X241486242Y-33460077D01*
X241375356Y-33265397D01*
X241283743Y-33043483D01*
X241222851Y-32842200D01*
X241183131Y-32689800D01*
X241182367Y-32850667D01*
X241138838Y-32850667D01*
X241137183Y-32798554D01*
X241137497Y-32700487D01*
X241141114Y-32612320D01*
X241147769Y-32539605D01*
X241157198Y-32487894D01*
X241169139Y-32462739D01*
X241173230Y-32461200D01*
X241188247Y-32477267D01*
X241201035Y-32522008D01*
X241206336Y-32555951D01*
X241218174Y-32650701D01*
X241260735Y-32610984D01*
X241320470Y-32535890D01*
X241367834Y-32433056D01*
X241403216Y-32301235D01*
X241427007Y-32139182D01*
X241433829Y-32059057D01*
X241447445Y-31925694D01*
X241469795Y-31818778D01*
X241504171Y-31731329D01*
X241553864Y-31656369D01*
X241622167Y-31586918D01*
X241677940Y-31541547D01*
X241773143Y-31485018D01*
X241892604Y-31439920D01*
X242027772Y-31409276D01*
X242068039Y-31403604D01*
X242167211Y-31391512D01*
X242102864Y-31347787D01*
X241972251Y-31279306D01*
X241819812Y-31236572D01*
X241645427Y-31219553D01*
X241621733Y-31219230D01*
X241551529Y-31220764D01*
X241478919Y-31225463D01*
X241409216Y-31232492D01*
X241347733Y-31241018D01*
X241299783Y-31250206D01*
X241270681Y-31259222D01*
X241265739Y-31267231D01*
X241283066Y-31272404D01*
X241333305Y-31287361D01*
X241356323Y-31310165D01*
X241348935Y-31337380D01*
X241339813Y-31356002D01*
X241358434Y-31360534D01*
X241380640Y-31372571D01*
X241381673Y-31388968D01*
X241372672Y-31402392D01*
X241348016Y-31414122D01*
X241302716Y-31425544D01*
X241231783Y-31438043D01*
X241172998Y-31446904D01*
X240993210Y-31479168D01*
X240828531Y-31523051D01*
X240665737Y-31582706D01*
X240499483Y-31658406D01*
X240323346Y-31736826D01*
X240127300Y-31810088D01*
X239917986Y-31876619D01*
X239702048Y-31934842D01*
X239486129Y-31983182D01*
X239276873Y-32020065D01*
X239080921Y-32043913D01*
X238904916Y-32053153D01*
X238838563Y-32052299D01*
X238674356Y-32046334D01*
X238597667Y-32046334D01*
X238558259Y-32014020D01*
X238530938Y-31977120D01*
X238531536Y-31957073D01*
X238557708Y-31955534D01*
X238607105Y-31974160D01*
X238611593Y-31976372D01*
X238645271Y-31991306D01*
X238680666Y-32001425D01*
X238725075Y-32007574D01*
X238785798Y-32010598D01*
X238870133Y-32011342D01*
X238912400Y-32011189D01*
X239117327Y-32000218D01*
X239341902Y-31970700D01*
X239578744Y-31924491D01*
X239820473Y-31863450D01*
X240059708Y-31789435D01*
X240289069Y-31704305D01*
X240495666Y-31612605D01*
X240707056Y-31520610D01*
X240911485Y-31454993D01*
X241118750Y-31412702D01*
X241152208Y-31407979D01*
X241222499Y-31398097D01*
X241262762Y-31390653D01*
X241276637Y-31384394D01*
X241267760Y-31378069D01*
X241252271Y-31373525D01*
X241216220Y-31358825D01*
X241198443Y-31341798D01*
X241203578Y-31329132D01*
X241219566Y-31326408D01*
X241228381Y-31320553D01*
X241215333Y-31309734D01*
X241182460Y-31298961D01*
X241133695Y-31293297D01*
X241123046Y-31293059D01*
X241081329Y-31289985D01*
X241068885Y-31281979D01*
X241081669Y-31270195D01*
X241115639Y-31255786D01*
X241166752Y-31239905D01*
X241230965Y-31223706D01*
X241304234Y-31208343D01*
X241382516Y-31194969D01*
X241461767Y-31184737D01*
X241520133Y-31179774D01*
X241711833Y-31180579D01*
X241711833Y-31180579D01*
G37*
X241711833Y-31180579D02*
X241882911Y-31208242D01*
X242026976Y-31259699D01*
X242094176Y-31294455D01*
X242156663Y-31331968D01*
X242207587Y-31367549D01*
X242240094Y-31396510D01*
X242248266Y-31411128D01*
X242232680Y-31418698D01*
X242190902Y-31428385D01*
X242130407Y-31438610D01*
X242095223Y-31443463D01*
X241932874Y-31473851D01*
X241798392Y-31520597D01*
X241689199Y-31585229D01*
X241602716Y-31669274D01*
X241536365Y-31774259D01*
X241536251Y-31774490D01*
X241512271Y-31826408D01*
X241495547Y-31873525D01*
X241484066Y-31925219D01*
X241475813Y-31990866D01*
X241468775Y-32079846D01*
X241467905Y-32092718D01*
X241449700Y-32261966D01*
X241419785Y-32405340D01*
X241378749Y-32521132D01*
X241327181Y-32607633D01*
X241272459Y-32658893D01*
X241244154Y-32682891D01*
X241236336Y-32712119D01*
X241240873Y-32747667D01*
X241262006Y-32835729D01*
X241294790Y-32942580D01*
X241335222Y-33056981D01*
X241379294Y-33167692D01*
X241423003Y-33263471D01*
X241428689Y-33274708D01*
X241516494Y-33426889D01*
X241609213Y-33547683D01*
X241710767Y-33639556D01*
X241825076Y-33704973D01*
X241956059Y-33746398D01*
X242107635Y-33766299D01*
X242214400Y-33768902D01*
X242385094Y-33758100D01*
X242567879Y-33727909D01*
X242764974Y-33677621D01*
X242978599Y-33606530D01*
X243210974Y-33513928D01*
X243464318Y-33399110D01*
X243628333Y-33318750D01*
X243885038Y-33195961D01*
X244124725Y-33094678D01*
X244354280Y-33012418D01*
X244580586Y-32946697D01*
X244793850Y-32898307D01*
X244931020Y-32877095D01*
X245080885Y-32864194D01*
X245234507Y-32859608D01*
X245382951Y-32863339D01*
X245517281Y-32875388D01*
X245628562Y-32895758D01*
X245637542Y-32898108D01*
X245716839Y-32923035D01*
X245799215Y-32954839D01*
X245878440Y-32990381D01*
X245948287Y-33026523D01*
X246002526Y-33060125D01*
X246034930Y-33088049D01*
X246041333Y-33101587D01*
X246025526Y-33106278D01*
X245982613Y-33110275D01*
X245919351Y-33113124D01*
X245850833Y-33114331D01*
X245731040Y-33119518D01*
X245618058Y-33134858D01*
X245504628Y-33162393D01*
X245383491Y-33204164D01*
X245247390Y-33262213D01*
X245135399Y-33315558D01*
X245038105Y-33365151D01*
X244937027Y-33419690D01*
X244838047Y-33475700D01*
X244747052Y-33529707D01*
X244669924Y-33578238D01*
X244612547Y-33617819D01*
X244585066Y-33640465D01*
X244571052Y-33656475D01*
X244581342Y-33656728D01*
X244605656Y-33648149D01*
X244650258Y-33629303D01*
X244704976Y-33603530D01*
X244720537Y-33595731D01*
X244774494Y-33572905D01*
X244803595Y-33572768D01*
X244808591Y-33595848D01*
X244790233Y-33642673D01*
X244789494Y-33644127D01*
X244749966Y-33702181D01*
X244687423Y-33771078D01*
X244608338Y-33845007D01*
X244519186Y-33918158D01*
X244426440Y-33984718D01*
X244371897Y-34018992D01*
X244103023Y-34161205D01*
X243818851Y-34280476D01*
X243526384Y-34374505D01*
X243232623Y-34440989D01*
X242987517Y-34474091D01*
X242912320Y-34481537D01*
X242850456Y-34488864D01*
X242809182Y-34495133D01*
X242795815Y-34498807D01*
X242805027Y-34505296D01*
X242841431Y-34511323D01*
X242898351Y-34516557D01*
X242969111Y-34520664D01*
X243047037Y-34523311D01*
X243125453Y-34524166D01*
X243197684Y-34522894D01*
X243237300Y-34520831D01*
X243304055Y-34517448D01*
X243351391Y-34517773D01*
X243373552Y-34521641D01*
X243373546Y-34524716D01*
X243349220Y-34536347D01*
X243298793Y-34553613D01*
X243229172Y-34574585D01*
X243147269Y-34597331D01*
X243059990Y-34619923D01*
X242974246Y-34640429D01*
X242908666Y-34654589D01*
X242834561Y-34665754D01*
X242736790Y-34675055D01*
X242623831Y-34682225D01*
X242504162Y-34686997D01*
X242386259Y-34689102D01*
X242278599Y-34688274D01*
X242189660Y-34684245D01*
X242139635Y-34678851D01*
X241900391Y-34624337D01*
X241673406Y-34538858D01*
X241460635Y-34423713D01*
X241264033Y-34280199D01*
X241085556Y-34109613D01*
X240927158Y-33913252D01*
X240879384Y-33842642D01*
X240793632Y-33698185D01*
X240712512Y-33539510D01*
X240643417Y-33381684D01*
X240612771Y-33299400D01*
X240591103Y-33237166D01*
X240573750Y-33188596D01*
X240563510Y-33161473D01*
X240562098Y-33158452D01*
X240546140Y-33161653D01*
X240512303Y-33176688D01*
X240506547Y-33179618D01*
X240459737Y-33198332D01*
X240418807Y-33206265D01*
X240418360Y-33206267D01*
X240393988Y-33204076D01*
X240392804Y-33191354D01*
X240409083Y-33164482D01*
X240433280Y-33119998D01*
X240462655Y-33055389D01*
X240492091Y-32982792D01*
X240516474Y-32914348D01*
X240521995Y-32896584D01*
X240523855Y-32880103D01*
X240512718Y-32882397D01*
X240485942Y-32905495D01*
X240440881Y-32951427D01*
X240415851Y-32978031D01*
X240351363Y-33043179D01*
X240280867Y-33108224D01*
X240215908Y-33162712D01*
X240192061Y-33180645D01*
X240136800Y-33216940D01*
X240068182Y-33257447D01*
X239993458Y-33298427D01*
X239919881Y-33336140D01*
X239854704Y-33366847D01*
X239805180Y-33386807D01*
X239781129Y-33392534D01*
X239760655Y-33383956D01*
X239769107Y-33358495D01*
X239806292Y-33316554D01*
X239826812Y-33297374D01*
X239914284Y-33204183D01*
X240002160Y-33083570D01*
X240056592Y-32994600D01*
X240105081Y-32909934D01*
X240004040Y-32996677D01*
X239799136Y-33157253D01*
X239586518Y-33294822D01*
X239372494Y-33405528D01*
X239257523Y-33453170D01*
X239191799Y-33475994D01*
X239119520Y-33498077D01*
X239048374Y-33517461D01*
X238986048Y-33532187D01*
X238940230Y-33540294D01*
X238918606Y-33539823D01*
X238918374Y-33539619D01*
X238928353Y-33527518D01*
X238960707Y-33499841D01*
X239010308Y-33460773D01*
X239014308Y-33457770D01*
X239098756Y-33457770D01*
X239111858Y-33457813D01*
X239150194Y-33446091D01*
X239216673Y-33421927D01*
X239221046Y-33420282D01*
X239435884Y-33325089D01*
X239649282Y-33203483D01*
X239851143Y-33061793D01*
X240013263Y-32923601D01*
X240086976Y-32856331D01*
X240138816Y-32814539D01*
X240169617Y-32798571D01*
X240180210Y-32808774D01*
X240171426Y-32845495D01*
X240144098Y-32909083D01*
X240116023Y-32966501D01*
X240076380Y-33041373D01*
X240034537Y-33110738D01*
X239984153Y-33184317D01*
X239918885Y-33271827D01*
X239904926Y-33289992D01*
X239906546Y-33296288D01*
X239930815Y-33287244D01*
X239972056Y-33266078D01*
X240024590Y-33236011D01*
X240082740Y-33200262D01*
X240140827Y-33162053D01*
X240182400Y-33132641D01*
X240331313Y-33004422D01*
X240463301Y-32853872D01*
X240531895Y-32754626D01*
X240567500Y-32698791D01*
X240596329Y-32655987D01*
X240613864Y-32632822D01*
X240616719Y-32630533D01*
X240620836Y-32645476D01*
X240616089Y-32685738D01*
X240604210Y-32744473D01*
X240586930Y-32814835D01*
X240565979Y-32889977D01*
X240543091Y-32963051D01*
X240519994Y-33027212D01*
X240510745Y-33049634D01*
X240492331Y-33097221D01*
X240484168Y-33129483D01*
X240486562Y-33138534D01*
X240508703Y-33125444D01*
X240544555Y-33090248D01*
X240589100Y-33039056D01*
X240637319Y-32977977D01*
X240684192Y-32913120D01*
X240724701Y-32850595D01*
X240728873Y-32843578D01*
X240789692Y-32730282D01*
X240855336Y-32590484D01*
X240923195Y-32430723D01*
X240990659Y-32257537D01*
X241055119Y-32077465D01*
X241113965Y-31897046D01*
X241136635Y-31821866D01*
X241162767Y-31732865D01*
X241117083Y-31743605D01*
X241048439Y-31764030D01*
X240960422Y-31796310D01*
X240863398Y-31836101D01*
X240767737Y-31879059D01*
X240683805Y-31920840D01*
X240651841Y-31938553D01*
X240438944Y-32079873D01*
X240233681Y-32252485D01*
X240035290Y-32457103D01*
X239843008Y-32694439D01*
X239840155Y-32698267D01*
X239641974Y-32944478D01*
X239435316Y-33162552D01*
X239273141Y-33308572D01*
X239212366Y-33359322D01*
X239160542Y-33402628D01*
X239123577Y-33433552D01*
X239107979Y-33446642D01*
X239098756Y-33457770D01*
X239014308Y-33457770D01*
X239068531Y-33417066D01*
X239188096Y-33321551D01*
X239319303Y-33203512D01*
X239456007Y-33069248D01*
X239592068Y-32925058D01*
X239721343Y-32777241D01*
X239837688Y-32632095D01*
X239850308Y-32615398D01*
X239906575Y-32538909D01*
X239952435Y-32473573D01*
X239985308Y-32423327D01*
X240002617Y-32392110D01*
X240001992Y-32383774D01*
X239910987Y-32411774D01*
X239797052Y-32436035D01*
X239671037Y-32455197D01*
X239543793Y-32467901D01*
X239426173Y-32472788D01*
X239329028Y-32468498D01*
X239327266Y-32468297D01*
X239225666Y-32456547D01*
X239386533Y-32419904D01*
X239465751Y-32399787D01*
X239542667Y-32376654D01*
X239611169Y-32352803D01*
X239665143Y-32330536D01*
X239698476Y-32312151D01*
X239705157Y-32300047D01*
X239685248Y-32298301D01*
X239642965Y-32302716D01*
X239607096Y-32308719D01*
X239545538Y-32316444D01*
X239462504Y-32321451D01*
X239366314Y-32323822D01*
X239265284Y-32323638D01*
X239167735Y-32320980D01*
X239081985Y-32315931D01*
X239016351Y-32308572D01*
X238988600Y-32302643D01*
X238920866Y-32282156D01*
X239094317Y-32253609D01*
X239174916Y-32238221D01*
X239249770Y-32220195D01*
X239308107Y-32202299D01*
X239330209Y-32193027D01*
X239392650Y-32160993D01*
X239186901Y-32169467D01*
X239010571Y-32168500D01*
X238856143Y-32150606D01*
X238725858Y-32116339D01*
X238621957Y-32066252D01*
X238597667Y-32046334D01*
X238674356Y-32046334D01*
X238741894Y-32074982D01*
X238877738Y-32116541D01*
X239035280Y-32136195D01*
X239210101Y-32133603D01*
X239327239Y-32120376D01*
X239389485Y-32112399D01*
X239437762Y-32108607D01*
X239463217Y-32109640D01*
X239464770Y-32110459D01*
X239466355Y-32132890D01*
X239446613Y-32165152D01*
X239412416Y-32198323D01*
X239381798Y-32218230D01*
X239329977Y-32241276D01*
X239268017Y-32263833D01*
X239251066Y-32269118D01*
X239222070Y-32278296D01*
X239211038Y-32284226D01*
X239221312Y-32287269D01*
X239256233Y-32287782D01*
X239319143Y-32286126D01*
X239386533Y-32283683D01*
X239479493Y-32278384D01*
X239570987Y-32270086D01*
X239649777Y-32259981D01*
X239699799Y-32250507D01*
X239759661Y-32236891D01*
X239810208Y-32227510D01*
X239834881Y-32224737D01*
X239854953Y-32226501D01*
X239853151Y-32237445D01*
X239828078Y-32264396D01*
X239826415Y-32266061D01*
X239790242Y-32295465D01*
X239735689Y-32332289D01*
X239674552Y-32368574D01*
X239674399Y-32368658D01*
X239564333Y-32429328D01*
X239663853Y-32418377D01*
X239842326Y-32387531D01*
X239997291Y-32335950D01*
X240133370Y-32261763D01*
X240224733Y-32191116D01*
X240291281Y-32135179D01*
X240369421Y-32073441D01*
X240442612Y-32018956D01*
X240444866Y-32017351D01*
X240532780Y-31959285D01*
X240628746Y-31903417D01*
X240728792Y-31851247D01*
X240828947Y-31804278D01*
X240925238Y-31764009D01*
X241013693Y-31731941D01*
X241090340Y-31709575D01*
X241151207Y-31698413D01*
X241192322Y-31699954D01*
X241209713Y-31715701D01*
X241208440Y-31728834D01*
X241199789Y-31756934D01*
X241183794Y-31809028D01*
X241163028Y-31876726D01*
X241147632Y-31926949D01*
X241057817Y-32201558D01*
X240965685Y-32447139D01*
X240871740Y-32662564D01*
X240776484Y-32846707D01*
X240680422Y-32998442D01*
X240652111Y-33036708D01*
X240593657Y-33112683D01*
X240639541Y-33248375D01*
X240736871Y-33492608D01*
X240857279Y-33720587D01*
X240998415Y-33929417D01*
X241157931Y-34116201D01*
X241333478Y-34278045D01*
X241522707Y-34412054D01*
X241633699Y-34473823D01*
X241850207Y-34564077D01*
X242080864Y-34623869D01*
X242324844Y-34653110D01*
X242581319Y-34651714D01*
X242849463Y-34619593D01*
X242908666Y-34608644D01*
X243103400Y-34570439D01*
X242951000Y-34557969D01*
X242859777Y-34548436D01*
X242760273Y-34534836D01*
X242672304Y-34519914D01*
X242663133Y-34518098D01*
X242585182Y-34502790D01*
X242489377Y-34484642D01*
X242391240Y-34466572D01*
X242346090Y-34458469D01*
X242123538Y-34404246D01*
X241923328Y-34324596D01*
X241745535Y-34219612D01*
X241590233Y-34089383D01*
X241457498Y-33934001D01*
X241347405Y-33753557D01*
X241260028Y-33548142D01*
X241195444Y-33317848D01*
X241153726Y-33062765D01*
X241147518Y-33002179D01*
X241140435Y-32900968D01*
X241138838Y-32850667D01*
X241182367Y-32850667D01*
X241194535Y-33071102D01*
X241231626Y-33292919D01*
X241291436Y-33506604D01*
X241371760Y-33702644D01*
X241386745Y-33732466D01*
X241497049Y-33911606D01*
X241629498Y-34065214D01*
X241784206Y-34193373D01*
X241961289Y-34296165D01*
X242160862Y-34373673D01*
X242341400Y-34418426D01*
X242427210Y-34429622D01*
X242538583Y-34436201D01*
X242667560Y-34438375D01*
X242806181Y-34436357D01*
X242946490Y-34430359D01*
X243080526Y-34420592D01*
X243200331Y-34407269D01*
X243285183Y-34393276D01*
X243463862Y-34350737D01*
X243647282Y-34295126D01*
X243830802Y-34228698D01*
X244009780Y-34153708D01*
X244179574Y-34072413D01*
X244335543Y-33987065D01*
X244473044Y-33899922D01*
X244587435Y-33813237D01*
X244674076Y-33729266D01*
X244689067Y-33711235D01*
X244719871Y-33671454D01*
X244730671Y-33652663D01*
X244722742Y-33649508D01*
X244702474Y-33655045D01*
X244659219Y-33671368D01*
X244607983Y-33694383D01*
X244601999Y-33697326D01*
X244493812Y-33746069D01*
X244359269Y-33798516D01*
X244205360Y-33852454D01*
X244039075Y-33905669D01*
X243867404Y-33955949D01*
X243697338Y-34001079D01*
X243535866Y-34038847D01*
X243498789Y-34046647D01*
X243420516Y-34062154D01*
X243352584Y-34073817D01*
X243287846Y-34082197D01*
X243219154Y-34087853D01*
X243139361Y-34091344D01*
X243041318Y-34093230D01*
X242917878Y-34094069D01*
X242891733Y-34094154D01*
X242764810Y-34094249D01*
X242665689Y-34093408D01*
X242588308Y-34091190D01*
X242526606Y-34087156D01*
X242474520Y-34080866D01*
X242425990Y-34071881D01*
X242374954Y-34059761D01*
X242358333Y-34055470D01*
X242138841Y-33983886D01*
X241942701Y-33889426D01*
X241772802Y-33773740D01*
X241849895Y-33773740D01*
X241864302Y-33789498D01*
X241908911Y-33819208D01*
X241944396Y-33840469D01*
X242124435Y-33931120D01*
X242318920Y-33999386D01*
X242534720Y-34047617D01*
X242564325Y-34052479D01*
X242644699Y-34060442D01*
X242750459Y-34064001D01*
X242873456Y-34063468D01*
X243005540Y-34059156D01*
X243138562Y-34051379D01*
X243264370Y-34040448D01*
X243374817Y-34026677D01*
X243416666Y-34019758D01*
X243566214Y-33989053D01*
X243732901Y-33949008D01*
X243903763Y-33903092D01*
X244065832Y-33854774D01*
X244195152Y-33811493D01*
X244347959Y-33742145D01*
X244459389Y-33671934D01*
X244534266Y-33671934D01*
X244542733Y-33680400D01*
X244551199Y-33671934D01*
X244542733Y-33663467D01*
X244534266Y-33671934D01*
X244459389Y-33671934D01*
X244474999Y-33662099D01*
X244736147Y-33486005D01*
X244994310Y-33336828D01*
X245118466Y-33273865D01*
X245286010Y-33197611D01*
X245434512Y-33141425D01*
X245570597Y-33103279D01*
X245700887Y-33081143D01*
X245766365Y-33075419D01*
X245841123Y-33069489D01*
X245885093Y-33061638D01*
X245897971Y-33050205D01*
X245879455Y-33033531D01*
X245829243Y-33009956D01*
X245748695Y-32978444D01*
X245630903Y-32940716D01*
X245508425Y-32915883D01*
X245371610Y-32902474D01*
X245226872Y-32898961D01*
X245038359Y-32906759D01*
X244847027Y-32930310D01*
X244649318Y-32970658D01*
X244441676Y-33028843D01*
X244220543Y-33105909D01*
X243982359Y-33202897D01*
X243723569Y-33320850D01*
X243626504Y-33367750D01*
X243469923Y-33443664D01*
X243337221Y-33506093D01*
X243222418Y-33557533D01*
X243119533Y-33600479D01*
X243022586Y-33637427D01*
X242925597Y-33670871D01*
X242822585Y-33703307D01*
X242821466Y-33703646D01*
X242637443Y-33752385D01*
X242456759Y-33786837D01*
X242285004Y-33806518D01*
X242127765Y-33810945D01*
X241990630Y-33799635D01*
X241910721Y-33782423D01*
X241865447Y-33771519D01*
X241849895Y-33773740D01*
X241772802Y-33773740D01*
X241769099Y-33771219D01*
X241617218Y-33628393D01*
X241486242Y-33460077D01*
X241375356Y-33265397D01*
X241283743Y-33043483D01*
X241222851Y-32842200D01*
X241183131Y-32689800D01*
X241182367Y-32850667D01*
X241138838Y-32850667D01*
X241137183Y-32798554D01*
X241137497Y-32700487D01*
X241141114Y-32612320D01*
X241147769Y-32539605D01*
X241157198Y-32487894D01*
X241169139Y-32462739D01*
X241173230Y-32461200D01*
X241188247Y-32477267D01*
X241201035Y-32522008D01*
X241206336Y-32555951D01*
X241218174Y-32650701D01*
X241260735Y-32610984D01*
X241320470Y-32535890D01*
X241367834Y-32433056D01*
X241403216Y-32301235D01*
X241427007Y-32139182D01*
X241433829Y-32059057D01*
X241447445Y-31925694D01*
X241469795Y-31818778D01*
X241504171Y-31731329D01*
X241553864Y-31656369D01*
X241622167Y-31586918D01*
X241677940Y-31541547D01*
X241773143Y-31485018D01*
X241892604Y-31439920D01*
X242027772Y-31409276D01*
X242068039Y-31403604D01*
X242167211Y-31391512D01*
X242102864Y-31347787D01*
X241972251Y-31279306D01*
X241819812Y-31236572D01*
X241645427Y-31219553D01*
X241621733Y-31219230D01*
X241551529Y-31220764D01*
X241478919Y-31225463D01*
X241409216Y-31232492D01*
X241347733Y-31241018D01*
X241299783Y-31250206D01*
X241270681Y-31259222D01*
X241265739Y-31267231D01*
X241283066Y-31272404D01*
X241333305Y-31287361D01*
X241356323Y-31310165D01*
X241348935Y-31337380D01*
X241339813Y-31356002D01*
X241358434Y-31360534D01*
X241380640Y-31372571D01*
X241381673Y-31388968D01*
X241372672Y-31402392D01*
X241348016Y-31414122D01*
X241302716Y-31425544D01*
X241231783Y-31438043D01*
X241172998Y-31446904D01*
X240993210Y-31479168D01*
X240828531Y-31523051D01*
X240665737Y-31582706D01*
X240499483Y-31658406D01*
X240323346Y-31736826D01*
X240127300Y-31810088D01*
X239917986Y-31876619D01*
X239702048Y-31934842D01*
X239486129Y-31983182D01*
X239276873Y-32020065D01*
X239080921Y-32043913D01*
X238904916Y-32053153D01*
X238838563Y-32052299D01*
X238674356Y-32046334D01*
X238597667Y-32046334D01*
X238558259Y-32014020D01*
X238530938Y-31977120D01*
X238531536Y-31957073D01*
X238557708Y-31955534D01*
X238607105Y-31974160D01*
X238611593Y-31976372D01*
X238645271Y-31991306D01*
X238680666Y-32001425D01*
X238725075Y-32007574D01*
X238785798Y-32010598D01*
X238870133Y-32011342D01*
X238912400Y-32011189D01*
X239117327Y-32000218D01*
X239341902Y-31970700D01*
X239578744Y-31924491D01*
X239820473Y-31863450D01*
X240059708Y-31789435D01*
X240289069Y-31704305D01*
X240495666Y-31612605D01*
X240707056Y-31520610D01*
X240911485Y-31454993D01*
X241118750Y-31412702D01*
X241152208Y-31407979D01*
X241222499Y-31398097D01*
X241262762Y-31390653D01*
X241276637Y-31384394D01*
X241267760Y-31378069D01*
X241252271Y-31373525D01*
X241216220Y-31358825D01*
X241198443Y-31341798D01*
X241203578Y-31329132D01*
X241219566Y-31326408D01*
X241228381Y-31320553D01*
X241215333Y-31309734D01*
X241182460Y-31298961D01*
X241133695Y-31293297D01*
X241123046Y-31293059D01*
X241081329Y-31289985D01*
X241068885Y-31281979D01*
X241081669Y-31270195D01*
X241115639Y-31255786D01*
X241166752Y-31239905D01*
X241230965Y-31223706D01*
X241304234Y-31208343D01*
X241382516Y-31194969D01*
X241461767Y-31184737D01*
X241520133Y-31179774D01*
X241711833Y-31180579D01*
G04 #@! TO.C,REF\002A\002A*
D12*
X163766666Y-37492380D02*
X163433333Y-37016190D01*
X163195238Y-37492380D02*
X163195238Y-36492380D01*
X163576190Y-36492380D01*
X163671428Y-36540000D01*
X163719047Y-36587619D01*
X163766666Y-36682857D01*
X163766666Y-36825714D01*
X163719047Y-36920952D01*
X163671428Y-36968571D01*
X163576190Y-37016190D01*
X163195238Y-37016190D01*
X164195238Y-36968571D02*
X164528571Y-36968571D01*
X164671428Y-37492380D02*
X164195238Y-37492380D01*
X164195238Y-36492380D01*
X164671428Y-36492380D01*
X165433333Y-36968571D02*
X165100000Y-36968571D01*
X165100000Y-37492380D02*
X165100000Y-36492380D01*
X165576190Y-36492380D01*
X166100000Y-36492380D02*
X166100000Y-36730476D01*
X165861904Y-36635238D02*
X166100000Y-36730476D01*
X166338095Y-36635238D01*
X165957142Y-36920952D02*
X166100000Y-36730476D01*
X166242857Y-36920952D01*
X166861904Y-36492380D02*
X166861904Y-36730476D01*
X166623809Y-36635238D02*
X166861904Y-36730476D01*
X167100000Y-36635238D01*
X166719047Y-36920952D02*
X166861904Y-36730476D01*
X167004761Y-36920952D01*
G04 #@! TO.C,NANO1*
X212632857Y-34435714D02*
X211432857Y-34435714D01*
X212632857Y-33750000D01*
X211432857Y-33750000D01*
X212290000Y-33235714D02*
X212290000Y-32664285D01*
X212632857Y-33350000D02*
X211432857Y-32950000D01*
X212632857Y-32550000D01*
X212632857Y-32150000D02*
X211432857Y-32150000D01*
X212632857Y-31464285D01*
X211432857Y-31464285D01*
X211432857Y-30664285D02*
X211432857Y-30435714D01*
X211490000Y-30321428D01*
X211604285Y-30207142D01*
X211832857Y-30150000D01*
X212232857Y-30150000D01*
X212461428Y-30207142D01*
X212575714Y-30321428D01*
X212632857Y-30435714D01*
X212632857Y-30664285D01*
X212575714Y-30778571D01*
X212461428Y-30892857D01*
X212232857Y-30950000D01*
X211832857Y-30950000D01*
X211604285Y-30892857D01*
X211490000Y-30778571D01*
X211432857Y-30664285D01*
X212632857Y-29007142D02*
X212632857Y-29692857D01*
X212632857Y-29350000D02*
X211432857Y-29350000D01*
X211604285Y-29464285D01*
X211718571Y-29578571D01*
X211775714Y-29692857D01*
G04 #@! TO.C,NANO3*
X239884285Y-42452857D02*
X239884285Y-41252857D01*
X240570000Y-42452857D01*
X240570000Y-41252857D01*
X241084285Y-42110000D02*
X241655714Y-42110000D01*
X240970000Y-42452857D02*
X241370000Y-41252857D01*
X241770000Y-42452857D01*
X242170000Y-42452857D02*
X242170000Y-41252857D01*
X242855714Y-42452857D01*
X242855714Y-41252857D01*
X243655714Y-41252857D02*
X243884285Y-41252857D01*
X243998571Y-41310000D01*
X244112857Y-41424285D01*
X244170000Y-41652857D01*
X244170000Y-42052857D01*
X244112857Y-42281428D01*
X243998571Y-42395714D01*
X243884285Y-42452857D01*
X243655714Y-42452857D01*
X243541428Y-42395714D01*
X243427142Y-42281428D01*
X243370000Y-42052857D01*
X243370000Y-41652857D01*
X243427142Y-41424285D01*
X243541428Y-41310000D01*
X243655714Y-41252857D01*
X244570000Y-41252857D02*
X245312857Y-41252857D01*
X244912857Y-41710000D01*
X245084285Y-41710000D01*
X245198571Y-41767142D01*
X245255714Y-41824285D01*
X245312857Y-41938571D01*
X245312857Y-42224285D01*
X245255714Y-42338571D01*
X245198571Y-42395714D01*
X245084285Y-42452857D01*
X244741428Y-42452857D01*
X244627142Y-42395714D01*
X244570000Y-42338571D01*
G04 #@! TO.C,NANO2*
X212632857Y-53485714D02*
X211432857Y-53485714D01*
X212632857Y-52800000D01*
X211432857Y-52800000D01*
X212290000Y-52285714D02*
X212290000Y-51714285D01*
X212632857Y-52400000D02*
X211432857Y-52000000D01*
X212632857Y-51600000D01*
X212632857Y-51200000D02*
X211432857Y-51200000D01*
X212632857Y-50514285D01*
X211432857Y-50514285D01*
X211432857Y-49714285D02*
X211432857Y-49485714D01*
X211490000Y-49371428D01*
X211604285Y-49257142D01*
X211832857Y-49200000D01*
X212232857Y-49200000D01*
X212461428Y-49257142D01*
X212575714Y-49371428D01*
X212632857Y-49485714D01*
X212632857Y-49714285D01*
X212575714Y-49828571D01*
X212461428Y-49942857D01*
X212232857Y-50000000D01*
X211832857Y-50000000D01*
X211604285Y-49942857D01*
X211490000Y-49828571D01*
X211432857Y-49714285D01*
X211547142Y-48742857D02*
X211490000Y-48685714D01*
X211432857Y-48571428D01*
X211432857Y-48285714D01*
X211490000Y-48171428D01*
X211547142Y-48114285D01*
X211661428Y-48057142D01*
X211775714Y-48057142D01*
X211947142Y-48114285D01*
X212632857Y-48800000D01*
X212632857Y-48057142D01*
G04 #@! TO.C,BUCK1*
X217868571Y-46378571D02*
X217916190Y-46235714D01*
X217963809Y-46188095D01*
X218059047Y-46140476D01*
X218201904Y-46140476D01*
X218297142Y-46188095D01*
X218344761Y-46235714D01*
X218392380Y-46330952D01*
X218392380Y-46711904D01*
X217392380Y-46711904D01*
X217392380Y-46378571D01*
X217440000Y-46283333D01*
X217487619Y-46235714D01*
X217582857Y-46188095D01*
X217678095Y-46188095D01*
X217773333Y-46235714D01*
X217820952Y-46283333D01*
X217868571Y-46378571D01*
X217868571Y-46711904D01*
X217392380Y-45711904D02*
X218201904Y-45711904D01*
X218297142Y-45664285D01*
X218344761Y-45616666D01*
X218392380Y-45521428D01*
X218392380Y-45330952D01*
X218344761Y-45235714D01*
X218297142Y-45188095D01*
X218201904Y-45140476D01*
X217392380Y-45140476D01*
X218297142Y-44092857D02*
X218344761Y-44140476D01*
X218392380Y-44283333D01*
X218392380Y-44378571D01*
X218344761Y-44521428D01*
X218249523Y-44616666D01*
X218154285Y-44664285D01*
X217963809Y-44711904D01*
X217820952Y-44711904D01*
X217630476Y-44664285D01*
X217535238Y-44616666D01*
X217440000Y-44521428D01*
X217392380Y-44378571D01*
X217392380Y-44283333D01*
X217440000Y-44140476D01*
X217487619Y-44092857D01*
X218392380Y-43664285D02*
X217392380Y-43664285D01*
X218392380Y-43092857D02*
X217820952Y-43521428D01*
X217392380Y-43092857D02*
X217963809Y-43664285D01*
X218392380Y-42140476D02*
X218392380Y-42711904D01*
X218392380Y-42426190D02*
X217392380Y-42426190D01*
X217535238Y-42521428D01*
X217630476Y-42616666D01*
X217678095Y-42711904D01*
X229322380Y-48593333D02*
X230036666Y-48593333D01*
X230179523Y-48640952D01*
X230274761Y-48736190D01*
X230322380Y-48879047D01*
X230322380Y-48974285D01*
X230322380Y-47593333D02*
X230322380Y-48164761D01*
X230322380Y-47879047D02*
X229322380Y-47879047D01*
X229465238Y-47974285D01*
X229560476Y-48069523D01*
X229608095Y-48164761D01*
G04 #@! TO.C,CAN1*
X234537142Y-87479047D02*
X234584761Y-87526666D01*
X234632380Y-87669523D01*
X234632380Y-87764761D01*
X234584761Y-87907619D01*
X234489523Y-88002857D01*
X234394285Y-88050476D01*
X234203809Y-88098095D01*
X234060952Y-88098095D01*
X233870476Y-88050476D01*
X233775238Y-88002857D01*
X233680000Y-87907619D01*
X233632380Y-87764761D01*
X233632380Y-87669523D01*
X233680000Y-87526666D01*
X233727619Y-87479047D01*
X234346666Y-87098095D02*
X234346666Y-86621904D01*
X234632380Y-87193333D02*
X233632380Y-86860000D01*
X234632380Y-86526666D01*
X234632380Y-86193333D02*
X233632380Y-86193333D01*
X234632380Y-85621904D01*
X233632380Y-85621904D01*
X234632380Y-84621904D02*
X234632380Y-85193333D01*
X234632380Y-84907619D02*
X233632380Y-84907619D01*
X233775238Y-85002857D01*
X233870476Y-85098095D01*
X233918095Y-85193333D01*
X228100000Y-65531904D02*
X228052380Y-65627142D01*
X228052380Y-65770000D01*
X228100000Y-65912857D01*
X228195238Y-66008095D01*
X228290476Y-66055714D01*
X228480952Y-66103333D01*
X228623809Y-66103333D01*
X228814285Y-66055714D01*
X228909523Y-66008095D01*
X229004761Y-65912857D01*
X229052380Y-65770000D01*
X229052380Y-65674761D01*
X229004761Y-65531904D01*
X228957142Y-65484285D01*
X228623809Y-65484285D01*
X228623809Y-65674761D01*
X229052380Y-65055714D02*
X228052380Y-65055714D01*
X229052380Y-64484285D01*
X228052380Y-64484285D01*
X229052380Y-64008095D02*
X228052380Y-64008095D01*
X228052380Y-63770000D01*
X228100000Y-63627142D01*
X228195238Y-63531904D01*
X228290476Y-63484285D01*
X228480952Y-63436666D01*
X228623809Y-63436666D01*
X228814285Y-63484285D01*
X228909523Y-63531904D01*
X229004761Y-63627142D01*
X229052380Y-63770000D01*
X229052380Y-64008095D01*
X225512380Y-66103333D02*
X226512380Y-65770000D01*
X225512380Y-65436666D01*
X226417142Y-64531904D02*
X226464761Y-64579523D01*
X226512380Y-64722380D01*
X226512380Y-64817619D01*
X226464761Y-64960476D01*
X226369523Y-65055714D01*
X226274285Y-65103333D01*
X226083809Y-65150952D01*
X225940952Y-65150952D01*
X225750476Y-65103333D01*
X225655238Y-65055714D01*
X225560000Y-64960476D01*
X225512380Y-64817619D01*
X225512380Y-64722380D01*
X225560000Y-64579523D01*
X225607619Y-64531904D01*
X226417142Y-63531904D02*
X226464761Y-63579523D01*
X226512380Y-63722380D01*
X226512380Y-63817619D01*
X226464761Y-63960476D01*
X226369523Y-64055714D01*
X226274285Y-64103333D01*
X226083809Y-64150952D01*
X225940952Y-64150952D01*
X225750476Y-64103333D01*
X225655238Y-64055714D01*
X225560000Y-63960476D01*
X225512380Y-63817619D01*
X225512380Y-63722380D01*
X225560000Y-63579523D01*
X225607619Y-63531904D01*
X223972380Y-65555714D02*
X222972380Y-65555714D01*
X223972380Y-64984285D01*
X222972380Y-64984285D01*
X223877142Y-63936666D02*
X223924761Y-63984285D01*
X223972380Y-64127142D01*
X223972380Y-64222380D01*
X223924761Y-64365238D01*
X223829523Y-64460476D01*
X223734285Y-64508095D01*
X223543809Y-64555714D01*
X223400952Y-64555714D01*
X223210476Y-64508095D01*
X223115238Y-64460476D01*
X223020000Y-64365238D01*
X222972380Y-64222380D01*
X222972380Y-64127142D01*
X223020000Y-63984285D01*
X223067619Y-63936666D01*
X221432380Y-65555714D02*
X220432380Y-65555714D01*
X221432380Y-64984285D01*
X220432380Y-64984285D01*
X221337142Y-63936666D02*
X221384761Y-63984285D01*
X221432380Y-64127142D01*
X221432380Y-64222380D01*
X221384761Y-64365238D01*
X221289523Y-64460476D01*
X221194285Y-64508095D01*
X221003809Y-64555714D01*
X220860952Y-64555714D01*
X220670476Y-64508095D01*
X220575238Y-64460476D01*
X220480000Y-64365238D01*
X220432380Y-64222380D01*
X220432380Y-64127142D01*
X220480000Y-63984285D01*
X220527619Y-63936666D01*
X218892380Y-65555714D02*
X217892380Y-65555714D01*
X218892380Y-64984285D01*
X217892380Y-64984285D01*
X218797142Y-63936666D02*
X218844761Y-63984285D01*
X218892380Y-64127142D01*
X218892380Y-64222380D01*
X218844761Y-64365238D01*
X218749523Y-64460476D01*
X218654285Y-64508095D01*
X218463809Y-64555714D01*
X218320952Y-64555714D01*
X218130476Y-64508095D01*
X218035238Y-64460476D01*
X217940000Y-64365238D01*
X217892380Y-64222380D01*
X217892380Y-64127142D01*
X217940000Y-63984285D01*
X217987619Y-63936666D01*
X216352380Y-65555714D02*
X215352380Y-65555714D01*
X216352380Y-64984285D01*
X215352380Y-64984285D01*
X216257142Y-63936666D02*
X216304761Y-63984285D01*
X216352380Y-64127142D01*
X216352380Y-64222380D01*
X216304761Y-64365238D01*
X216209523Y-64460476D01*
X216114285Y-64508095D01*
X215923809Y-64555714D01*
X215780952Y-64555714D01*
X215590476Y-64508095D01*
X215495238Y-64460476D01*
X215400000Y-64365238D01*
X215352380Y-64222380D01*
X215352380Y-64127142D01*
X215400000Y-63984285D01*
X215447619Y-63936666D01*
X213812380Y-65674761D02*
X212812380Y-65674761D01*
X213812380Y-65198571D02*
X212812380Y-65198571D01*
X213812380Y-64627142D01*
X212812380Y-64627142D01*
X212812380Y-64293809D02*
X212812380Y-63722380D01*
X213812380Y-64008095D02*
X212812380Y-64008095D01*
X211272380Y-65555714D02*
X210272380Y-65555714D01*
X211272380Y-64984285D01*
X210272380Y-64984285D01*
X211177142Y-63936666D02*
X211224761Y-63984285D01*
X211272380Y-64127142D01*
X211272380Y-64222380D01*
X211224761Y-64365238D01*
X211129523Y-64460476D01*
X211034285Y-64508095D01*
X210843809Y-64555714D01*
X210700952Y-64555714D01*
X210510476Y-64508095D01*
X210415238Y-64460476D01*
X210320000Y-64365238D01*
X210272380Y-64222380D01*
X210272380Y-64127142D01*
X210320000Y-63984285D01*
X210367619Y-63936666D01*
X228100000Y-83311904D02*
X228052380Y-83407142D01*
X228052380Y-83550000D01*
X228100000Y-83692857D01*
X228195238Y-83788095D01*
X228290476Y-83835714D01*
X228480952Y-83883333D01*
X228623809Y-83883333D01*
X228814285Y-83835714D01*
X228909523Y-83788095D01*
X229004761Y-83692857D01*
X229052380Y-83550000D01*
X229052380Y-83454761D01*
X229004761Y-83311904D01*
X228957142Y-83264285D01*
X228623809Y-83264285D01*
X228623809Y-83454761D01*
X229052380Y-82835714D02*
X228052380Y-82835714D01*
X229052380Y-82264285D01*
X228052380Y-82264285D01*
X229052380Y-81788095D02*
X228052380Y-81788095D01*
X228052380Y-81550000D01*
X228100000Y-81407142D01*
X228195238Y-81311904D01*
X228290476Y-81264285D01*
X228480952Y-81216666D01*
X228623809Y-81216666D01*
X228814285Y-81264285D01*
X228909523Y-81311904D01*
X229004761Y-81407142D01*
X229052380Y-81550000D01*
X229052380Y-81788095D01*
X225512380Y-84026190D02*
X225512380Y-83407142D01*
X225893333Y-83740476D01*
X225893333Y-83597619D01*
X225940952Y-83502380D01*
X225988571Y-83454761D01*
X226083809Y-83407142D01*
X226321904Y-83407142D01*
X226417142Y-83454761D01*
X226464761Y-83502380D01*
X226512380Y-83597619D01*
X226512380Y-83883333D01*
X226464761Y-83978571D01*
X226417142Y-84026190D01*
X226417142Y-82978571D02*
X226464761Y-82930952D01*
X226512380Y-82978571D01*
X226464761Y-83026190D01*
X226417142Y-82978571D01*
X226512380Y-82978571D01*
X225512380Y-82597619D02*
X225512380Y-81978571D01*
X225893333Y-82311904D01*
X225893333Y-82169047D01*
X225940952Y-82073809D01*
X225988571Y-82026190D01*
X226083809Y-81978571D01*
X226321904Y-81978571D01*
X226417142Y-82026190D01*
X226464761Y-82073809D01*
X226512380Y-82169047D01*
X226512380Y-82454761D01*
X226464761Y-82550000D01*
X226417142Y-82597619D01*
X225512380Y-81692857D02*
X226512380Y-81359523D01*
X225512380Y-81026190D01*
X223924761Y-83573809D02*
X223972380Y-83430952D01*
X223972380Y-83192857D01*
X223924761Y-83097619D01*
X223877142Y-83050000D01*
X223781904Y-83002380D01*
X223686666Y-83002380D01*
X223591428Y-83050000D01*
X223543809Y-83097619D01*
X223496190Y-83192857D01*
X223448571Y-83383333D01*
X223400952Y-83478571D01*
X223353333Y-83526190D01*
X223258095Y-83573809D01*
X223162857Y-83573809D01*
X223067619Y-83526190D01*
X223020000Y-83478571D01*
X222972380Y-83383333D01*
X222972380Y-83145238D01*
X223020000Y-83002380D01*
X223972380Y-82573809D02*
X222972380Y-82573809D01*
X222972380Y-82335714D01*
X223020000Y-82192857D01*
X223115238Y-82097619D01*
X223210476Y-82050000D01*
X223400952Y-82002380D01*
X223543809Y-82002380D01*
X223734285Y-82050000D01*
X223829523Y-82097619D01*
X223924761Y-82192857D01*
X223972380Y-82335714D01*
X223972380Y-82573809D01*
X223972380Y-81573809D02*
X222972380Y-81573809D01*
X221384761Y-83859523D02*
X221432380Y-83716666D01*
X221432380Y-83478571D01*
X221384761Y-83383333D01*
X221337142Y-83335714D01*
X221241904Y-83288095D01*
X221146666Y-83288095D01*
X221051428Y-83335714D01*
X221003809Y-83383333D01*
X220956190Y-83478571D01*
X220908571Y-83669047D01*
X220860952Y-83764285D01*
X220813333Y-83811904D01*
X220718095Y-83859523D01*
X220622857Y-83859523D01*
X220527619Y-83811904D01*
X220480000Y-83764285D01*
X220432380Y-83669047D01*
X220432380Y-83430952D01*
X220480000Y-83288095D01*
X221432380Y-82859523D02*
X220432380Y-82859523D01*
X220432380Y-82621428D01*
X220480000Y-82478571D01*
X220575238Y-82383333D01*
X220670476Y-82335714D01*
X220860952Y-82288095D01*
X221003809Y-82288095D01*
X221194285Y-82335714D01*
X221289523Y-82383333D01*
X221384761Y-82478571D01*
X221432380Y-82621428D01*
X221432380Y-82859523D01*
X220432380Y-81669047D02*
X220432380Y-81478571D01*
X220480000Y-81383333D01*
X220575238Y-81288095D01*
X220765714Y-81240476D01*
X221099047Y-81240476D01*
X221289523Y-81288095D01*
X221384761Y-81383333D01*
X221432380Y-81478571D01*
X221432380Y-81669047D01*
X221384761Y-81764285D01*
X221289523Y-81859523D01*
X221099047Y-81907142D01*
X220765714Y-81907142D01*
X220575238Y-81859523D01*
X220480000Y-81764285D01*
X220432380Y-81669047D01*
X218844761Y-83835714D02*
X218892380Y-83692857D01*
X218892380Y-83454761D01*
X218844761Y-83359523D01*
X218797142Y-83311904D01*
X218701904Y-83264285D01*
X218606666Y-83264285D01*
X218511428Y-83311904D01*
X218463809Y-83359523D01*
X218416190Y-83454761D01*
X218368571Y-83645238D01*
X218320952Y-83740476D01*
X218273333Y-83788095D01*
X218178095Y-83835714D01*
X218082857Y-83835714D01*
X217987619Y-83788095D01*
X217940000Y-83740476D01*
X217892380Y-83645238D01*
X217892380Y-83407142D01*
X217940000Y-83264285D01*
X218797142Y-82264285D02*
X218844761Y-82311904D01*
X218892380Y-82454761D01*
X218892380Y-82550000D01*
X218844761Y-82692857D01*
X218749523Y-82788095D01*
X218654285Y-82835714D01*
X218463809Y-82883333D01*
X218320952Y-82883333D01*
X218130476Y-82835714D01*
X218035238Y-82788095D01*
X217940000Y-82692857D01*
X217892380Y-82550000D01*
X217892380Y-82454761D01*
X217940000Y-82311904D01*
X217987619Y-82264285D01*
X218892380Y-81835714D02*
X217892380Y-81835714D01*
X218892380Y-81264285D02*
X218320952Y-81692857D01*
X217892380Y-81264285D02*
X218463809Y-81835714D01*
X216257142Y-82716666D02*
X216304761Y-82764285D01*
X216352380Y-82907142D01*
X216352380Y-83002380D01*
X216304761Y-83145238D01*
X216209523Y-83240476D01*
X216114285Y-83288095D01*
X215923809Y-83335714D01*
X215780952Y-83335714D01*
X215590476Y-83288095D01*
X215495238Y-83240476D01*
X215400000Y-83145238D01*
X215352380Y-83002380D01*
X215352380Y-82907142D01*
X215400000Y-82764285D01*
X215447619Y-82716666D01*
X216304761Y-82335714D02*
X216352380Y-82192857D01*
X216352380Y-81954761D01*
X216304761Y-81859523D01*
X216257142Y-81811904D01*
X216161904Y-81764285D01*
X216066666Y-81764285D01*
X215971428Y-81811904D01*
X215923809Y-81859523D01*
X215876190Y-81954761D01*
X215828571Y-82145238D01*
X215780952Y-82240476D01*
X215733333Y-82288095D01*
X215638095Y-82335714D01*
X215542857Y-82335714D01*
X215447619Y-82288095D01*
X215400000Y-82240476D01*
X215352380Y-82145238D01*
X215352380Y-81907142D01*
X215400000Y-81764285D01*
X213812380Y-83097619D02*
X213336190Y-83430952D01*
X213812380Y-83669047D02*
X212812380Y-83669047D01*
X212812380Y-83288095D01*
X212860000Y-83192857D01*
X212907619Y-83145238D01*
X213002857Y-83097619D01*
X213145714Y-83097619D01*
X213240952Y-83145238D01*
X213288571Y-83192857D01*
X213336190Y-83288095D01*
X213336190Y-83669047D01*
X213764761Y-82716666D02*
X213812380Y-82573809D01*
X213812380Y-82335714D01*
X213764761Y-82240476D01*
X213717142Y-82192857D01*
X213621904Y-82145238D01*
X213526666Y-82145238D01*
X213431428Y-82192857D01*
X213383809Y-82240476D01*
X213336190Y-82335714D01*
X213288571Y-82526190D01*
X213240952Y-82621428D01*
X213193333Y-82669047D01*
X213098095Y-82716666D01*
X213002857Y-82716666D01*
X212907619Y-82669047D01*
X212860000Y-82621428D01*
X212812380Y-82526190D01*
X212812380Y-82288095D01*
X212860000Y-82145238D01*
X212812380Y-81859523D02*
X212812380Y-81288095D01*
X213812380Y-81573809D02*
X212812380Y-81573809D01*
X211272380Y-83335714D02*
X210272380Y-83335714D01*
X211272380Y-82764285D01*
X210272380Y-82764285D01*
X211177142Y-81716666D02*
X211224761Y-81764285D01*
X211272380Y-81907142D01*
X211272380Y-82002380D01*
X211224761Y-82145238D01*
X211129523Y-82240476D01*
X211034285Y-82288095D01*
X210843809Y-82335714D01*
X210700952Y-82335714D01*
X210510476Y-82288095D01*
X210415238Y-82240476D01*
X210320000Y-82145238D01*
X210272380Y-82002380D01*
X210272380Y-81907142D01*
X210320000Y-81764285D01*
X210367619Y-81716666D01*
G04 #@! TO.C,RTD1*
X193992380Y-87407619D02*
X193516190Y-87740952D01*
X193992380Y-87979047D02*
X192992380Y-87979047D01*
X192992380Y-87598095D01*
X193040000Y-87502857D01*
X193087619Y-87455238D01*
X193182857Y-87407619D01*
X193325714Y-87407619D01*
X193420952Y-87455238D01*
X193468571Y-87502857D01*
X193516190Y-87598095D01*
X193516190Y-87979047D01*
X192992380Y-87121904D02*
X192992380Y-86550476D01*
X193992380Y-86836190D02*
X192992380Y-86836190D01*
X193992380Y-86217142D02*
X192992380Y-86217142D01*
X192992380Y-85979047D01*
X193040000Y-85836190D01*
X193135238Y-85740952D01*
X193230476Y-85693333D01*
X193420952Y-85645714D01*
X193563809Y-85645714D01*
X193754285Y-85693333D01*
X193849523Y-85740952D01*
X193944761Y-85836190D01*
X193992380Y-85979047D01*
X193992380Y-86217142D01*
X193992380Y-84693333D02*
X193992380Y-85264761D01*
X193992380Y-84979047D02*
X192992380Y-84979047D01*
X193135238Y-85074285D01*
X193230476Y-85169523D01*
X193278095Y-85264761D01*
G04 #@! TO.C,REF\002A\002A*
X217106666Y-26062380D02*
X216773333Y-25586190D01*
X216535238Y-26062380D02*
X216535238Y-25062380D01*
X216916190Y-25062380D01*
X217011428Y-25110000D01*
X217059047Y-25157619D01*
X217106666Y-25252857D01*
X217106666Y-25395714D01*
X217059047Y-25490952D01*
X217011428Y-25538571D01*
X216916190Y-25586190D01*
X216535238Y-25586190D01*
X217535238Y-25538571D02*
X217868571Y-25538571D01*
X218011428Y-26062380D02*
X217535238Y-26062380D01*
X217535238Y-25062380D01*
X218011428Y-25062380D01*
X218773333Y-25538571D02*
X218440000Y-25538571D01*
X218440000Y-26062380D02*
X218440000Y-25062380D01*
X218916190Y-25062380D01*
X219440000Y-25062380D02*
X219440000Y-25300476D01*
X219201904Y-25205238D02*
X219440000Y-25300476D01*
X219678095Y-25205238D01*
X219297142Y-25490952D02*
X219440000Y-25300476D01*
X219582857Y-25490952D01*
X220201904Y-25062380D02*
X220201904Y-25300476D01*
X219963809Y-25205238D02*
X220201904Y-25300476D01*
X220440000Y-25205238D01*
X220059047Y-25490952D02*
X220201904Y-25300476D01*
X220344761Y-25490952D01*
X228536666Y-33372380D02*
X228203333Y-32896190D01*
X227965238Y-33372380D02*
X227965238Y-32372380D01*
X228346190Y-32372380D01*
X228441428Y-32420000D01*
X228489047Y-32467619D01*
X228536666Y-32562857D01*
X228536666Y-32705714D01*
X228489047Y-32800952D01*
X228441428Y-32848571D01*
X228346190Y-32896190D01*
X227965238Y-32896190D01*
X228965238Y-32848571D02*
X229298571Y-32848571D01*
X229441428Y-33372380D02*
X228965238Y-33372380D01*
X228965238Y-32372380D01*
X229441428Y-32372380D01*
X230203333Y-32848571D02*
X229870000Y-32848571D01*
X229870000Y-33372380D02*
X229870000Y-32372380D01*
X230346190Y-32372380D01*
X230870000Y-32372380D02*
X230870000Y-32610476D01*
X230631904Y-32515238D02*
X230870000Y-32610476D01*
X231108095Y-32515238D01*
X230727142Y-32800952D02*
X230870000Y-32610476D01*
X231012857Y-32800952D01*
X231631904Y-32372380D02*
X231631904Y-32610476D01*
X231393809Y-32515238D02*
X231631904Y-32610476D01*
X231870000Y-32515238D01*
X231489047Y-32800952D02*
X231631904Y-32610476D01*
X231774761Y-32800952D01*
X234569047Y-37571428D02*
X235330952Y-37571428D01*
X234950000Y-37952380D02*
X234950000Y-37190476D01*
X224403095Y-37000000D02*
X224307857Y-36952380D01*
X224165000Y-36952380D01*
X224022142Y-37000000D01*
X223926904Y-37095238D01*
X223879285Y-37190476D01*
X223831666Y-37380952D01*
X223831666Y-37523809D01*
X223879285Y-37714285D01*
X223926904Y-37809523D01*
X224022142Y-37904761D01*
X224165000Y-37952380D01*
X224260238Y-37952380D01*
X224403095Y-37904761D01*
X224450714Y-37857142D01*
X224450714Y-37523809D01*
X224260238Y-37523809D01*
X224879285Y-37952380D02*
X224879285Y-36952380D01*
X225450714Y-37952380D01*
X225450714Y-36952380D01*
X225926904Y-37952380D02*
X225926904Y-36952380D01*
X226165000Y-36952380D01*
X226307857Y-37000000D01*
X226403095Y-37095238D01*
X226450714Y-37190476D01*
X226498333Y-37380952D01*
X226498333Y-37523809D01*
X226450714Y-37714285D01*
X226403095Y-37809523D01*
X226307857Y-37904761D01*
X226165000Y-37952380D01*
X225926904Y-37952380D01*
G04 #@! TD*
M02*
