M48
;DRILL file {KiCad (5.0.0)} date 11/14/18 12:30:49
;FORMAT={-:-/ absolute / inch / decimal}
FMAT,2
INCH,TZ
T1C0.0300
T2C0.0315
T3C0.0394
T4C0.0669
%
G90
G05
M72
T1
X8.3Y-2.45
X8.3Y-3.35
X8.4Y-2.45
X8.4Y-3.35
X8.5Y-2.45
X8.5Y-3.35
X8.6Y-2.45
X8.6Y-3.35
X8.7Y-2.45
X8.7Y-3.35
X8.8Y-2.45
X8.8Y-3.35
X8.9Y-2.45
X8.9Y-3.35
X9.Y-2.45
X9.Y-3.35
X7.5Y-2.5555
X7.5Y-2.6547
X7.5Y-2.7539
X7.5Y-2.8531
X7.5Y-2.9524
X7.5Y-3.0516
X7.5Y-3.1508
X7.5Y-3.25
T2
X9.25Y-1.85
X9.25Y-1.95
X9.25Y-2.05
X9.25Y-2.15
X9.25Y-2.25
X9.25Y-2.35
X9.25Y-2.45
X9.25Y-2.55
X9.25Y-2.65
X9.25Y-2.75
X9.25Y-2.85
X9.25Y-2.95
X9.25Y-3.05
X9.25Y-3.15
X9.25Y-3.25
X9.85Y-1.85
X9.85Y-1.95
X9.85Y-2.05
X9.85Y-2.15
X9.85Y-2.25
X9.85Y-2.35
X9.85Y-2.45
X9.85Y-2.55
X9.85Y-2.65
X9.85Y-2.75
X9.85Y-2.85
X9.85Y-2.95
X9.85Y-3.05
X9.85Y-3.15
X9.85Y-3.25
X6.75Y-0.95
X6.75Y-1.55
X6.85Y-0.95
X6.85Y-1.55
X6.95Y-0.95
X6.95Y-1.55
X7.05Y-0.95
X7.05Y-1.55
X7.15Y-0.95
X7.15Y-1.55
X7.25Y-0.95
X7.25Y-1.55
X7.35Y-0.95
X7.35Y-1.55
X7.45Y-0.95
X7.45Y-1.55
X7.55Y-0.95
X7.55Y-1.55
X7.65Y-0.95
X7.65Y-1.55
X7.75Y-0.95
X7.75Y-1.55
X7.85Y-0.95
X7.85Y-1.55
X7.95Y-0.95
X7.95Y-1.55
X8.05Y-0.95
X8.05Y-1.55
X8.15Y-0.95
X8.15Y-1.55
X6.75Y-1.7
X6.75Y-2.3
X6.85Y-1.7
X6.85Y-2.3
X6.95Y-1.7
X6.95Y-2.3
X7.05Y-1.7
X7.05Y-2.3
X7.15Y-1.7
X7.15Y-2.3
X7.25Y-1.7
X7.25Y-2.3
X7.35Y-1.7
X7.35Y-2.3
X7.45Y-1.7
X7.45Y-2.3
X7.55Y-1.7
X7.55Y-2.3
X7.65Y-1.7
X7.65Y-2.3
X7.75Y-1.7
X7.75Y-2.3
X7.85Y-1.7
X7.85Y-2.3
X7.95Y-1.7
X7.95Y-2.3
X8.05Y-1.7
X8.05Y-2.3
X8.15Y-1.7
X8.15Y-2.3
T3
X8.6Y-1.1
X8.6Y-1.2
X8.6Y-1.3
X6.5Y-1.55
X6.5Y-1.65
X6.5Y-1.75
X8.85Y-1.0827
X9.2831Y-1.0827
X9.85Y-1.1
X9.85Y-1.2
X9.85Y-1.3
X9.85Y-1.4
X8.6Y-1.75
X8.7Y-1.75
X8.8Y-1.75
X8.9Y-1.75
X9.Y-1.75
T4
X8.9681Y-1.4764
X9.165Y-1.4764
T0
M30
