G04 #@! TF.GenerationSoftware,KiCad,Pcbnew,6.0.0-rc1-unknown-7c960aa~66~ubuntu18.04.1*
G04 #@! TF.CreationDate,2018-10-18T20:47:30-04:00*
G04 #@! TF.ProjectId,Tach Circuit,5461636820436972637569742E6B6963,rev?*
G04 #@! TF.SameCoordinates,Original*
G04 #@! TF.FileFunction,Legend,Top*
G04 #@! TF.FilePolarity,Positive*
%FSLAX46Y46*%
G04 Gerber Fmt 4.6, Leading zero omitted, Abs format (unit mm)*
G04 Created by KiCad (PCBNEW 6.0.0-rc1-unknown-7c960aa~66~ubuntu18.04.1) date Thu 18 Oct 2018 08:47:30 PM EDT*
%MOMM*%
%LPD*%
G01*
G04 APERTURE LIST*
%ADD10C,0.150000*%
%ADD11C,0.120000*%
%ADD12C,0.100000*%
G04 APERTURE END LIST*
D10*
X164552380Y85011428D02*
X164552380Y85582857D01*
X165552380Y85297142D02*
X164552380Y85297142D01*
X165552380Y86344761D02*
X165028571Y86344761D01*
X164933333Y86297142D01*
X164885714Y86201904D01*
X164885714Y86011428D01*
X164933333Y85916190D01*
X165504761Y86344761D02*
X165552380Y86249523D01*
X165552380Y86011428D01*
X165504761Y85916190D01*
X165409523Y85868571D01*
X165314285Y85868571D01*
X165219047Y85916190D01*
X165171428Y86011428D01*
X165171428Y86249523D01*
X165123809Y86344761D01*
X165504761Y87249523D02*
X165552380Y87154285D01*
X165552380Y86963809D01*
X165504761Y86868571D01*
X165457142Y86820952D01*
X165361904Y86773333D01*
X165076190Y86773333D01*
X164980952Y86820952D01*
X164933333Y86868571D01*
X164885714Y86963809D01*
X164885714Y87154285D01*
X164933333Y87249523D01*
X165552380Y87678095D02*
X164552380Y87678095D01*
X165552380Y88106666D02*
X165028571Y88106666D01*
X164933333Y88059047D01*
X164885714Y87963809D01*
X164885714Y87820952D01*
X164933333Y87725714D01*
X164980952Y87678095D01*
X165457142Y89916190D02*
X165504761Y89868571D01*
X165552380Y89725714D01*
X165552380Y89630476D01*
X165504761Y89487619D01*
X165409523Y89392380D01*
X165314285Y89344761D01*
X165123809Y89297142D01*
X164980952Y89297142D01*
X164790476Y89344761D01*
X164695238Y89392380D01*
X164600000Y89487619D01*
X164552380Y89630476D01*
X164552380Y89725714D01*
X164600000Y89868571D01*
X164647619Y89916190D01*
X165552380Y90344761D02*
X164885714Y90344761D01*
X164552380Y90344761D02*
X164600000Y90297142D01*
X164647619Y90344761D01*
X164600000Y90392380D01*
X164552380Y90344761D01*
X164647619Y90344761D01*
X165552380Y90820952D02*
X164885714Y90820952D01*
X165076190Y90820952D02*
X164980952Y90868571D01*
X164933333Y90916190D01*
X164885714Y91011428D01*
X164885714Y91106666D01*
X165504761Y91868571D02*
X165552380Y91773333D01*
X165552380Y91582857D01*
X165504761Y91487619D01*
X165457142Y91440000D01*
X165361904Y91392380D01*
X165076190Y91392380D01*
X164980952Y91440000D01*
X164933333Y91487619D01*
X164885714Y91582857D01*
X164885714Y91773333D01*
X164933333Y91868571D01*
X164885714Y92725714D02*
X165552380Y92725714D01*
X164885714Y92297142D02*
X165409523Y92297142D01*
X165504761Y92344761D01*
X165552380Y92440000D01*
X165552380Y92582857D01*
X165504761Y92678095D01*
X165457142Y92725714D01*
X165552380Y93201904D02*
X164885714Y93201904D01*
X164552380Y93201904D02*
X164600000Y93154285D01*
X164647619Y93201904D01*
X164600000Y93249523D01*
X164552380Y93201904D01*
X164647619Y93201904D01*
X164885714Y93535238D02*
X164885714Y93916190D01*
X164552380Y93678095D02*
X165409523Y93678095D01*
X165504761Y93725714D01*
X165552380Y93820952D01*
X165552380Y93916190D01*
X165552380Y95011428D02*
X164552380Y95011428D01*
X165266666Y95344761D01*
X164552380Y95678095D01*
X165552380Y95678095D01*
X165552380Y96154285D02*
X164552380Y96154285D01*
X165171428Y96249523D02*
X165552380Y96535238D01*
X164885714Y96535238D02*
X165266666Y96154285D01*
X165552380Y97725714D02*
X164552380Y97725714D01*
D11*
G04 #@! TO.C,D3*
X128870000Y86560000D02*
X128870000Y83620000D01*
X129110000Y86560000D02*
X129110000Y83620000D01*
X128990000Y86560000D02*
X128990000Y83620000D01*
X133530000Y83620000D02*
X133530000Y83750000D01*
X128090000Y83620000D02*
X133530000Y83620000D01*
X128090000Y83750000D02*
X128090000Y83620000D01*
X133530000Y86560000D02*
X133530000Y86430000D01*
X128090000Y86560000D02*
X133530000Y86560000D01*
X128090000Y86430000D02*
X128090000Y86560000D01*
G04 #@! TO.C,D2*
X133320000Y87480000D02*
X133320000Y90320000D01*
X133080000Y87480000D02*
X133080000Y90320000D01*
X133200000Y87480000D02*
X133200000Y90320000D01*
X130360000Y90320000D02*
X130360000Y90140000D01*
X133800000Y90320000D02*
X130360000Y90320000D01*
X133800000Y90140000D02*
X133800000Y90320000D01*
X130360000Y87480000D02*
X130360000Y87660000D01*
X133800000Y87480000D02*
X130360000Y87480000D01*
X133800000Y87660000D02*
X133800000Y87480000D01*
G04 #@! TO.C,D1*
X136960000Y98390000D02*
X139900000Y98390000D01*
X136960000Y98630000D02*
X139900000Y98630000D01*
X136960000Y98510000D02*
X139900000Y98510000D01*
X139900000Y103050000D02*
X139770000Y103050000D01*
X139900000Y97610000D02*
X139900000Y103050000D01*
X139770000Y97610000D02*
X139900000Y97610000D01*
X136960000Y103050000D02*
X137090000Y103050000D01*
X136960000Y97610000D02*
X136960000Y103050000D01*
X137090000Y97610000D02*
X136960000Y97610000D01*
G04 #@! TO.C,D0*
X134820000Y102270000D02*
X131880000Y102270000D01*
X134820000Y102030000D02*
X131880000Y102030000D01*
X134820000Y102150000D02*
X131880000Y102150000D01*
X131880000Y97610000D02*
X132010000Y97610000D01*
X131880000Y103050000D02*
X131880000Y97610000D01*
X132010000Y103050000D02*
X131880000Y103050000D01*
X134820000Y97610000D02*
X134690000Y97610000D01*
X134820000Y103050000D02*
X134820000Y97610000D01*
X134690000Y103050000D02*
X134820000Y103050000D01*
G04 #@! TO.C,VCC1*
X160966385Y100103263D02*
X159636385Y100103263D01*
X160966385Y101433263D02*
X160966385Y100103263D01*
X160966385Y102703263D02*
X158306385Y102703263D01*
X158306385Y102703263D02*
X158306385Y105303263D01*
X160966385Y102703263D02*
X160966385Y105303263D01*
X160966385Y105303263D02*
X158306385Y105303263D01*
G04 #@! TO.C,GND1*
X165616385Y100103263D02*
X164286385Y100103263D01*
X165616385Y101433263D02*
X165616385Y100103263D01*
X165616385Y102703263D02*
X162956385Y102703263D01*
X162956385Y102703263D02*
X162956385Y105303263D01*
X165616385Y102703263D02*
X165616385Y105303263D01*
X165616385Y105303263D02*
X162956385Y105303263D01*
G04 #@! TO.C,R2*
X144101078Y104850000D02*
X143583922Y104850000D01*
X144101078Y103430000D02*
X143583922Y103430000D01*
G04 #@! TO.C,R1*
X134028922Y92000000D02*
X134546078Y92000000D01*
X134028922Y93420000D02*
X134546078Y93420000D01*
G04 #@! TO.C,R0*
X128830000Y93758578D02*
X128830000Y93241422D01*
X130250000Y93758578D02*
X130250000Y93241422D01*
G04 #@! TO.C,Q1*
X141538478Y90738478D02*
G75*
G03X137100000Y88900000I-1838478J-1838478D01*
G01*
X141538478Y87061522D02*
G75*
G02X137100000Y88900000I-1838478J1838478D01*
G01*
X141550000Y87100000D02*
X141550000Y90700000D01*
G04 #@! TO.C,Out1*
X159960000Y90230000D02*
X161290000Y90230000D01*
X159960000Y88900000D02*
X159960000Y90230000D01*
X159960000Y87630000D02*
X162620000Y87630000D01*
X162620000Y87630000D02*
X162620000Y85030000D01*
X159960000Y87630000D02*
X159960000Y85030000D01*
X159960000Y85030000D02*
X162620000Y85030000D01*
G04 #@! TO.C,In2*
X130245061Y99120000D02*
X130245061Y97790000D01*
X128915061Y99120000D02*
X130245061Y99120000D01*
X127645061Y99120000D02*
X127645061Y96460000D01*
X127645061Y96460000D02*
X125045061Y96460000D01*
X127645061Y99120000D02*
X125045061Y99120000D01*
X125045061Y99120000D02*
X125045061Y96460000D01*
G04 #@! TO.C,In1*
X130245061Y104200000D02*
X130245061Y102870000D01*
X128915061Y104200000D02*
X130245061Y104200000D01*
X127645061Y104200000D02*
X127645061Y101540000D01*
X127645061Y101540000D02*
X125045061Y101540000D01*
X127645061Y104200000D02*
X125045061Y104200000D01*
X125045061Y104200000D02*
X125045061Y101540000D01*
G04 #@! TO.C,DNP1*
X144521422Y84380000D02*
X145038578Y84380000D01*
X144521422Y85800000D02*
X145038578Y85800000D01*
D12*
G04 #@! TO.C,DIP1*
X155870000Y104880000D02*
X155470000Y104880000D01*
X155870000Y104480000D02*
X155870000Y104880000D01*
X149890000Y105070000D02*
X148890000Y104070000D01*
X150190000Y105070000D02*
X149890000Y105070000D01*
X148890000Y104070000D02*
X148520000Y104070000D01*
X148510000Y104070000D02*
X148260000Y104070000D01*
X155790000Y83970000D02*
X155790000Y84170000D01*
X155490000Y83970000D02*
X155790000Y83970000D01*
X148890000Y83970000D02*
X149190000Y83970000D01*
X148890000Y84170000D02*
X148890000Y83970000D01*
D11*
G04 #@! TO.C,C2*
X159420000Y98830000D02*
X163160000Y98830000D01*
X159420000Y91590000D02*
X163160000Y91590000D01*
X163160000Y91590000D02*
X163160000Y98830000D01*
X159420000Y91590000D02*
X159420000Y98830000D01*
G04 #@! TO.C,C1*
X143855000Y88440000D02*
X142910000Y88440000D01*
X146650000Y88440000D02*
X145705000Y88440000D01*
X143855000Y99680000D02*
X142910000Y99680000D01*
X146650000Y99680000D02*
X145705000Y99680000D01*
X142910000Y99680000D02*
X142910000Y88440000D01*
X146650000Y99680000D02*
X146650000Y88440000D01*
G04 #@! TO.C,D3*
D10*
X136421904Y84637619D02*
X136421904Y85637619D01*
X136660000Y85637619D01*
X136802857Y85590000D01*
X136898095Y85494761D01*
X136945714Y85399523D01*
X136993333Y85209047D01*
X136993333Y85066190D01*
X136945714Y84875714D01*
X136898095Y84780476D01*
X136802857Y84685238D01*
X136660000Y84637619D01*
X136421904Y84637619D01*
X137326666Y85637619D02*
X137945714Y85637619D01*
X137612380Y85256666D01*
X137755238Y85256666D01*
X137850476Y85209047D01*
X137898095Y85161428D01*
X137945714Y85066190D01*
X137945714Y84828095D01*
X137898095Y84732857D01*
X137850476Y84685238D01*
X137755238Y84637619D01*
X137469523Y84637619D01*
X137374285Y84685238D01*
X137326666Y84732857D01*
G04 #@! TO.C,D2*
X126261904Y88447619D02*
X126261904Y89447619D01*
X126500000Y89447619D01*
X126642857Y89400000D01*
X126738095Y89304761D01*
X126785714Y89209523D01*
X126833333Y89019047D01*
X126833333Y88876190D01*
X126785714Y88685714D01*
X126738095Y88590476D01*
X126642857Y88495238D01*
X126500000Y88447619D01*
X126261904Y88447619D01*
X127214285Y89352380D02*
X127261904Y89400000D01*
X127357142Y89447619D01*
X127595238Y89447619D01*
X127690476Y89400000D01*
X127738095Y89352380D01*
X127785714Y89257142D01*
X127785714Y89161904D01*
X127738095Y89019047D01*
X127166666Y88447619D01*
X127785714Y88447619D01*
G04 #@! TO.C,D1*
X141422380Y99591904D02*
X140422380Y99591904D01*
X140422380Y99830000D01*
X140470000Y99972857D01*
X140565238Y100068095D01*
X140660476Y100115714D01*
X140850952Y100163333D01*
X140993809Y100163333D01*
X141184285Y100115714D01*
X141279523Y100068095D01*
X141374761Y99972857D01*
X141422380Y99830000D01*
X141422380Y99591904D01*
X141422380Y101115714D02*
X141422380Y100544285D01*
X141422380Y100830000D02*
X140422380Y100830000D01*
X140565238Y100734761D01*
X140660476Y100639523D01*
X140708095Y100544285D01*
G04 #@! TO.C,D0*
X136272380Y99591904D02*
X135272380Y99591904D01*
X135272380Y99830000D01*
X135320000Y99972857D01*
X135415238Y100068095D01*
X135510476Y100115714D01*
X135700952Y100163333D01*
X135843809Y100163333D01*
X136034285Y100115714D01*
X136129523Y100068095D01*
X136224761Y99972857D01*
X136272380Y99830000D01*
X136272380Y99591904D01*
X135272380Y100782380D02*
X135272380Y100877619D01*
X135320000Y100972857D01*
X135367619Y101020476D01*
X135462857Y101068095D01*
X135653333Y101115714D01*
X135891428Y101115714D01*
X136081904Y101068095D01*
X136177142Y101020476D01*
X136224761Y100972857D01*
X136272380Y100877619D01*
X136272380Y100782380D01*
X136224761Y100687142D01*
X136177142Y100639523D01*
X136081904Y100591904D01*
X135891428Y100544285D01*
X135653333Y100544285D01*
X135462857Y100591904D01*
X135367619Y100639523D01*
X135320000Y100687142D01*
X135272380Y100782380D01*
G04 #@! TO.C,R2*
X143675833Y102037619D02*
X143342500Y102513809D01*
X143104404Y102037619D02*
X143104404Y103037619D01*
X143485357Y103037619D01*
X143580595Y102990000D01*
X143628214Y102942380D01*
X143675833Y102847142D01*
X143675833Y102704285D01*
X143628214Y102609047D01*
X143580595Y102561428D01*
X143485357Y102513809D01*
X143104404Y102513809D01*
X144056785Y102942380D02*
X144104404Y102990000D01*
X144199642Y103037619D01*
X144437738Y103037619D01*
X144532976Y102990000D01*
X144580595Y102942380D01*
X144628214Y102847142D01*
X144628214Y102751904D01*
X144580595Y102609047D01*
X144009166Y102037619D01*
X144628214Y102037619D01*
G04 #@! TO.C,R1*
D12*
X133875000Y93910714D02*
X133625000Y94267857D01*
X133446428Y93910714D02*
X133446428Y94660714D01*
X133732142Y94660714D01*
X133803571Y94625000D01*
X133839285Y94589285D01*
X133875000Y94517857D01*
X133875000Y94410714D01*
X133839285Y94339285D01*
X133803571Y94303571D01*
X133732142Y94267857D01*
X133446428Y94267857D01*
X134589285Y93910714D02*
X134160714Y93910714D01*
X134375000Y93910714D02*
X134375000Y94660714D01*
X134303571Y94553571D01*
X134232142Y94482142D01*
X134160714Y94446428D01*
G04 #@! TO.C,R0*
X128339285Y92585000D02*
X127982142Y92335000D01*
X128339285Y92156428D02*
X127589285Y92156428D01*
X127589285Y92442142D01*
X127625000Y92513571D01*
X127660714Y92549285D01*
X127732142Y92585000D01*
X127839285Y92585000D01*
X127910714Y92549285D01*
X127946428Y92513571D01*
X127982142Y92442142D01*
X127982142Y92156428D01*
X127589285Y93049285D02*
X127589285Y93120714D01*
X127625000Y93192142D01*
X127660714Y93227857D01*
X127732142Y93263571D01*
X127875000Y93299285D01*
X128053571Y93299285D01*
X128196428Y93263571D01*
X128267857Y93227857D01*
X128303571Y93192142D01*
X128339285Y93120714D01*
X128339285Y93049285D01*
X128303571Y92977857D01*
X128267857Y92942142D01*
X128196428Y92906428D01*
X128053571Y92870714D01*
X127875000Y92870714D01*
X127732142Y92906428D01*
X127660714Y92942142D01*
X127625000Y92977857D01*
X127589285Y93049285D01*
G04 #@! TO.C,Q1*
D10*
X138334761Y91952380D02*
X138239523Y92000000D01*
X138144285Y92095238D01*
X138001428Y92238095D01*
X137906190Y92285714D01*
X137810952Y92285714D01*
X137858571Y92047619D02*
X137763333Y92095238D01*
X137668095Y92190476D01*
X137620476Y92380952D01*
X137620476Y92714285D01*
X137668095Y92904761D01*
X137763333Y93000000D01*
X137858571Y93047619D01*
X138049047Y93047619D01*
X138144285Y93000000D01*
X138239523Y92904761D01*
X138287142Y92714285D01*
X138287142Y92380952D01*
X138239523Y92190476D01*
X138144285Y92095238D01*
X138049047Y92047619D01*
X137858571Y92047619D01*
X139239523Y92047619D02*
X138668095Y92047619D01*
X138953809Y92047619D02*
X138953809Y93047619D01*
X138858571Y92904761D01*
X138763333Y92809523D01*
X138668095Y92761904D01*
G04 #@! TO.C,Out1*
X158202380Y86320476D02*
X158202380Y86510952D01*
X158250000Y86606190D01*
X158345238Y86701428D01*
X158535714Y86749047D01*
X158869047Y86749047D01*
X159059523Y86701428D01*
X159154761Y86606190D01*
X159202380Y86510952D01*
X159202380Y86320476D01*
X159154761Y86225238D01*
X159059523Y86130000D01*
X158869047Y86082380D01*
X158535714Y86082380D01*
X158345238Y86130000D01*
X158250000Y86225238D01*
X158202380Y86320476D01*
X158535714Y87606190D02*
X159202380Y87606190D01*
X158535714Y87177619D02*
X159059523Y87177619D01*
X159154761Y87225238D01*
X159202380Y87320476D01*
X159202380Y87463333D01*
X159154761Y87558571D01*
X159107142Y87606190D01*
X158535714Y87939523D02*
X158535714Y88320476D01*
X158202380Y88082380D02*
X159059523Y88082380D01*
X159154761Y88130000D01*
X159202380Y88225238D01*
X159202380Y88320476D01*
X159202380Y89177619D02*
X159202380Y88606190D01*
X159202380Y88891904D02*
X158202380Y88891904D01*
X158345238Y88796666D01*
X158440476Y88701428D01*
X158488095Y88606190D01*
G04 #@! TO.C,In2*
X126071428Y94797619D02*
X126071428Y95797619D01*
X126547619Y95464285D02*
X126547619Y94797619D01*
X126547619Y95369047D02*
X126595238Y95416666D01*
X126690476Y95464285D01*
X126833333Y95464285D01*
X126928571Y95416666D01*
X126976190Y95321428D01*
X126976190Y94797619D01*
X127404761Y95702380D02*
X127452380Y95750000D01*
X127547619Y95797619D01*
X127785714Y95797619D01*
X127880952Y95750000D01*
X127928571Y95702380D01*
X127976190Y95607142D01*
X127976190Y95511904D01*
X127928571Y95369047D01*
X127357142Y94797619D01*
X127976190Y94797619D01*
G04 #@! TO.C,In1*
X124801428Y99877619D02*
X124801428Y100877619D01*
X125277619Y100544285D02*
X125277619Y99877619D01*
X125277619Y100449047D02*
X125325238Y100496666D01*
X125420476Y100544285D01*
X125563333Y100544285D01*
X125658571Y100496666D01*
X125706190Y100401428D01*
X125706190Y99877619D01*
X126706190Y99877619D02*
X126134761Y99877619D01*
X126420476Y99877619D02*
X126420476Y100877619D01*
X126325238Y100734761D01*
X126230000Y100639523D01*
X126134761Y100591904D01*
G04 #@! TO.C,DNP1*
X143018095Y86287619D02*
X143018095Y87287619D01*
X143256190Y87287619D01*
X143399047Y87240000D01*
X143494285Y87144761D01*
X143541904Y87049523D01*
X143589523Y86859047D01*
X143589523Y86716190D01*
X143541904Y86525714D01*
X143494285Y86430476D01*
X143399047Y86335238D01*
X143256190Y86287619D01*
X143018095Y86287619D01*
X144018095Y86287619D02*
X144018095Y87287619D01*
X144589523Y86287619D01*
X144589523Y87287619D01*
X145065714Y86287619D02*
X145065714Y87287619D01*
X145446666Y87287619D01*
X145541904Y87240000D01*
X145589523Y87192380D01*
X145637142Y87097142D01*
X145637142Y86954285D01*
X145589523Y86859047D01*
X145541904Y86811428D01*
X145446666Y86763809D01*
X145065714Y86763809D01*
X146589523Y86287619D02*
X146018095Y86287619D01*
X146303809Y86287619D02*
X146303809Y87287619D01*
X146208571Y87144761D01*
X146113333Y87049523D01*
X146018095Y87001904D01*
G04 #@! TO.C,DIP1*
X146952380Y100123809D02*
X145952380Y100123809D01*
X145952380Y100361904D01*
X146000000Y100504761D01*
X146095238Y100600000D01*
X146190476Y100647619D01*
X146380952Y100695238D01*
X146523809Y100695238D01*
X146714285Y100647619D01*
X146809523Y100600000D01*
X146904761Y100504761D01*
X146952380Y100361904D01*
X146952380Y100123809D01*
X146952380Y101123809D02*
X145952380Y101123809D01*
X146952380Y101600000D02*
X145952380Y101600000D01*
X145952380Y101980952D01*
X146000000Y102076190D01*
X146047619Y102123809D01*
X146142857Y102171428D01*
X146285714Y102171428D01*
X146380952Y102123809D01*
X146428571Y102076190D01*
X146476190Y101980952D01*
X146476190Y101600000D01*
X146952380Y103123809D02*
X146952380Y102552380D01*
X146952380Y102838095D02*
X145952380Y102838095D01*
X146095238Y102742857D01*
X146190476Y102647619D01*
X146238095Y102552380D01*
G04 #@! TO.C,C2*
X158857142Y95043333D02*
X158904761Y94995714D01*
X158952380Y94852857D01*
X158952380Y94757619D01*
X158904761Y94614761D01*
X158809523Y94519523D01*
X158714285Y94471904D01*
X158523809Y94424285D01*
X158380952Y94424285D01*
X158190476Y94471904D01*
X158095238Y94519523D01*
X158000000Y94614761D01*
X157952380Y94757619D01*
X157952380Y94852857D01*
X158000000Y94995714D01*
X158047619Y95043333D01*
X158047619Y95424285D02*
X158000000Y95471904D01*
X157952380Y95567142D01*
X157952380Y95805238D01*
X158000000Y95900476D01*
X158047619Y95948095D01*
X158142857Y95995714D01*
X158238095Y95995714D01*
X158380952Y95948095D01*
X158952380Y95376666D01*
X158952380Y95995714D01*
G04 #@! TO.C,C1*
X142357142Y93893333D02*
X142404761Y93845714D01*
X142452380Y93702857D01*
X142452380Y93607619D01*
X142404761Y93464761D01*
X142309523Y93369523D01*
X142214285Y93321904D01*
X142023809Y93274285D01*
X141880952Y93274285D01*
X141690476Y93321904D01*
X141595238Y93369523D01*
X141500000Y93464761D01*
X141452380Y93607619D01*
X141452380Y93702857D01*
X141500000Y93845714D01*
X141547619Y93893333D01*
X142452380Y94845714D02*
X142452380Y94274285D01*
X142452380Y94560000D02*
X141452380Y94560000D01*
X141595238Y94464761D01*
X141690476Y94369523D01*
X141738095Y94274285D01*
G04 #@! TD*
M02*
