G04 #@! TF.GenerationSoftware,KiCad,Pcbnew,6.0.0-rc1-unknown-7c960aa~66~ubuntu18.04.1*
G04 #@! TF.CreationDate,2018-10-18T20:47:30-04:00*
G04 #@! TF.ProjectId,Tach Circuit,5461636820436972637569742E6B6963,rev?*
G04 #@! TF.SameCoordinates,Original*
G04 #@! TF.FileFunction,Soldermask,Top*
G04 #@! TF.FilePolarity,Negative*
%FSLAX46Y46*%
G04 Gerber Fmt 4.6, Leading zero omitted, Abs format (unit mm)*
G04 Created by KiCad (PCBNEW 6.0.0-rc1-unknown-7c960aa~66~ubuntu18.04.1) date Thu 18 Oct 2018 08:47:30 PM EDT*
%MOMM*%
%LPD*%
G01*
G04 APERTURE LIST*
%ADD10C,0.100000*%
G04 APERTURE END LIST*
D10*
G36*
X134744180Y86234338D02*
X134845635Y86224346D01*
X135062600Y86158530D01*
X135062602Y86158529D01*
X135062605Y86158528D01*
X135262556Y86051653D01*
X135437818Y85907818D01*
X135581653Y85732556D01*
X135688528Y85532605D01*
X135688529Y85532602D01*
X135688530Y85532600D01*
X135754346Y85315635D01*
X135776569Y85090000D01*
X135754346Y84864365D01*
X135747492Y84841772D01*
X135688528Y84647395D01*
X135581653Y84447444D01*
X135437818Y84272182D01*
X135262556Y84128347D01*
X135062605Y84021472D01*
X135062602Y84021471D01*
X135062600Y84021470D01*
X134845635Y83955654D01*
X134744180Y83945662D01*
X134676545Y83939000D01*
X134563455Y83939000D01*
X134495820Y83945662D01*
X134394365Y83955654D01*
X134177400Y84021470D01*
X134177398Y84021471D01*
X134177395Y84021472D01*
X133977444Y84128347D01*
X133802182Y84272182D01*
X133658347Y84447444D01*
X133551472Y84647395D01*
X133492508Y84841772D01*
X133485654Y84864365D01*
X133463431Y85090000D01*
X133485654Y85315635D01*
X133551470Y85532600D01*
X133551471Y85532602D01*
X133551472Y85532605D01*
X133658347Y85732556D01*
X133802182Y85907818D01*
X133977444Y86051653D01*
X134177395Y86158528D01*
X134177398Y86158529D01*
X134177400Y86158530D01*
X134394365Y86224346D01*
X134495820Y86234338D01*
X134563455Y86241000D01*
X134676545Y86241000D01*
X134744180Y86234338D01*
X134744180Y86234338D01*
G37*
G36*
X128151000Y83939000D02*
X125849000Y83939000D01*
X125849000Y86241000D01*
X128151000Y86241000D01*
X128151000Y83939000D01*
X128151000Y83939000D01*
G37*
G36*
X156458228Y85908297D02*
X156613100Y85844147D01*
X156752481Y85751015D01*
X156871015Y85632481D01*
X156964147Y85493100D01*
X157028297Y85338228D01*
X157061000Y85173816D01*
X157061000Y85006184D01*
X157028297Y84841772D01*
X156964147Y84686900D01*
X156871015Y84547519D01*
X156752481Y84428985D01*
X156613100Y84335853D01*
X156458228Y84271703D01*
X156293816Y84239000D01*
X156126184Y84239000D01*
X155961772Y84271703D01*
X155806900Y84335853D01*
X155667519Y84428985D01*
X155548985Y84547519D01*
X155455853Y84686900D01*
X155391703Y84841772D01*
X155359000Y85006184D01*
X155359000Y85173816D01*
X155391703Y85338228D01*
X155455853Y85493100D01*
X155548985Y85632481D01*
X155667519Y85751015D01*
X155806900Y85844147D01*
X155961772Y85908297D01*
X156126184Y85941000D01*
X156293816Y85941000D01*
X156458228Y85908297D01*
X156458228Y85908297D01*
G37*
G36*
X148838228Y85908297D02*
X148993100Y85844147D01*
X149132481Y85751015D01*
X149251015Y85632481D01*
X149344147Y85493100D01*
X149408297Y85338228D01*
X149441000Y85173816D01*
X149441000Y85006184D01*
X149408297Y84841772D01*
X149344147Y84686900D01*
X149251015Y84547519D01*
X149132481Y84428985D01*
X148993100Y84335853D01*
X148838228Y84271703D01*
X148673816Y84239000D01*
X148506184Y84239000D01*
X148341772Y84271703D01*
X148186900Y84335853D01*
X148047519Y84428985D01*
X147928985Y84547519D01*
X147835853Y84686900D01*
X147771703Y84841772D01*
X147739000Y85006184D01*
X147739000Y85173816D01*
X147771703Y85338228D01*
X147835853Y85493100D01*
X147928985Y85632481D01*
X148047519Y85751015D01*
X148186900Y85844147D01*
X148341772Y85908297D01*
X148506184Y85941000D01*
X148673816Y85941000D01*
X148838228Y85908297D01*
X148838228Y85908297D01*
G37*
G36*
X144214466Y85836435D02*
X144253137Y85824704D01*
X144288779Y85805652D01*
X144320017Y85780017D01*
X144345652Y85748779D01*
X144364704Y85713137D01*
X144376435Y85674466D01*
X144381000Y85628112D01*
X144381000Y84551888D01*
X144376435Y84505534D01*
X144364704Y84466863D01*
X144345652Y84431221D01*
X144320017Y84399983D01*
X144288779Y84374348D01*
X144253137Y84355296D01*
X144214466Y84343565D01*
X144168112Y84339000D01*
X143516888Y84339000D01*
X143470534Y84343565D01*
X143431863Y84355296D01*
X143396221Y84374348D01*
X143364983Y84399983D01*
X143339348Y84431221D01*
X143320296Y84466863D01*
X143308565Y84505534D01*
X143304000Y84551888D01*
X143304000Y85628112D01*
X143308565Y85674466D01*
X143320296Y85713137D01*
X143339348Y85748779D01*
X143364983Y85780017D01*
X143396221Y85805652D01*
X143431863Y85824704D01*
X143470534Y85836435D01*
X143516888Y85841000D01*
X144168112Y85841000D01*
X144214466Y85836435D01*
X144214466Y85836435D01*
G37*
G36*
X146089466Y85836435D02*
X146128137Y85824704D01*
X146163779Y85805652D01*
X146195017Y85780017D01*
X146220652Y85748779D01*
X146239704Y85713137D01*
X146251435Y85674466D01*
X146256000Y85628112D01*
X146256000Y84551888D01*
X146251435Y84505534D01*
X146239704Y84466863D01*
X146220652Y84431221D01*
X146195017Y84399983D01*
X146163779Y84374348D01*
X146128137Y84355296D01*
X146089466Y84343565D01*
X146043112Y84339000D01*
X145391888Y84339000D01*
X145345534Y84343565D01*
X145306863Y84355296D01*
X145271221Y84374348D01*
X145239983Y84399983D01*
X145214348Y84431221D01*
X145195296Y84466863D01*
X145183565Y84505534D01*
X145179000Y84551888D01*
X145179000Y85628112D01*
X145183565Y85674466D01*
X145195296Y85713137D01*
X145214348Y85748779D01*
X145239983Y85780017D01*
X145271221Y85805652D01*
X145306863Y85824704D01*
X145345534Y85836435D01*
X145391888Y85841000D01*
X146043112Y85841000D01*
X146089466Y85836435D01*
X146089466Y85836435D01*
G37*
G36*
X161400442Y87254482D02*
X161466627Y87247963D01*
X161579853Y87213616D01*
X161636467Y87196443D01*
X161775087Y87122348D01*
X161792991Y87112778D01*
X161823769Y87087519D01*
X161930186Y87000186D01*
X162013448Y86898729D01*
X162042778Y86862991D01*
X162042779Y86862989D01*
X162126443Y86706467D01*
X162126443Y86706466D01*
X162177963Y86536627D01*
X162195359Y86360000D01*
X162177963Y86183373D01*
X162170426Y86158528D01*
X162126443Y86013533D01*
X162070192Y85908297D01*
X162042778Y85857009D01*
X162025893Y85836435D01*
X161930186Y85719814D01*
X161828729Y85636552D01*
X161792991Y85607222D01*
X161792989Y85607221D01*
X161636467Y85523557D01*
X161579853Y85506384D01*
X161466627Y85472037D01*
X161400442Y85465518D01*
X161334260Y85459000D01*
X161245740Y85459000D01*
X161179558Y85465518D01*
X161113373Y85472037D01*
X161000147Y85506384D01*
X160943533Y85523557D01*
X160787011Y85607221D01*
X160787009Y85607222D01*
X160751271Y85636552D01*
X160649814Y85719814D01*
X160554107Y85836435D01*
X160537222Y85857009D01*
X160509808Y85908297D01*
X160453557Y86013533D01*
X160409574Y86158528D01*
X160402037Y86183373D01*
X160384641Y86360000D01*
X160402037Y86536627D01*
X160453557Y86706466D01*
X160453557Y86706467D01*
X160537221Y86862989D01*
X160537222Y86862991D01*
X160566552Y86898729D01*
X160649814Y87000186D01*
X160756231Y87087519D01*
X160787009Y87112778D01*
X160804913Y87122348D01*
X160943533Y87196443D01*
X161000147Y87213616D01*
X161113373Y87247963D01*
X161179558Y87254482D01*
X161245740Y87261000D01*
X161334260Y87261000D01*
X161400442Y87254482D01*
X161400442Y87254482D01*
G37*
G36*
X148838228Y88448297D02*
X148993100Y88384147D01*
X149132481Y88291015D01*
X149251015Y88172481D01*
X149344147Y88033100D01*
X149408297Y87878228D01*
X149441000Y87713816D01*
X149441000Y87546184D01*
X149408297Y87381772D01*
X149344147Y87226900D01*
X149251015Y87087519D01*
X149132481Y86968985D01*
X148993100Y86875853D01*
X148838228Y86811703D01*
X148673816Y86779000D01*
X148506184Y86779000D01*
X148341772Y86811703D01*
X148186900Y86875853D01*
X148047519Y86968985D01*
X147928985Y87087519D01*
X147835853Y87226900D01*
X147771703Y87381772D01*
X147739000Y87546184D01*
X147739000Y87713816D01*
X147771703Y87878228D01*
X147835853Y88033100D01*
X147928985Y88172481D01*
X148047519Y88291015D01*
X148186900Y88384147D01*
X148341772Y88448297D01*
X148506184Y88481000D01*
X148673816Y88481000D01*
X148838228Y88448297D01*
X148838228Y88448297D01*
G37*
G36*
X156458228Y88448297D02*
X156613100Y88384147D01*
X156752481Y88291015D01*
X156871015Y88172481D01*
X156964147Y88033100D01*
X157028297Y87878228D01*
X157061000Y87713816D01*
X157061000Y87546184D01*
X157028297Y87381772D01*
X156964147Y87226900D01*
X156871015Y87087519D01*
X156752481Y86968985D01*
X156613100Y86875853D01*
X156458228Y86811703D01*
X156293816Y86779000D01*
X156126184Y86779000D01*
X155961772Y86811703D01*
X155806900Y86875853D01*
X155667519Y86968985D01*
X155548985Y87087519D01*
X155455853Y87226900D01*
X155391703Y87381772D01*
X155359000Y87546184D01*
X155359000Y87713816D01*
X155391703Y87878228D01*
X155455853Y88033100D01*
X155548985Y88172481D01*
X155667519Y88291015D01*
X155806900Y88384147D01*
X155961772Y88448297D01*
X156126184Y88481000D01*
X156293816Y88481000D01*
X156458228Y88448297D01*
X156458228Y88448297D01*
G37*
G36*
X140037916Y90737666D02*
X140146492Y90704729D01*
X140246557Y90651244D01*
X140334264Y90579264D01*
X140406244Y90491557D01*
X140459729Y90391492D01*
X140492666Y90282916D01*
X140503787Y90170000D01*
X140492666Y90057084D01*
X140459729Y89948508D01*
X140420810Y89875695D01*
X140406244Y89848443D01*
X140334264Y89760736D01*
X140246557Y89688756D01*
X140165143Y89645240D01*
X140144768Y89631627D01*
X140127441Y89614299D01*
X140113827Y89593925D01*
X140104450Y89571286D01*
X140099669Y89547253D01*
X140099669Y89522748D01*
X140104449Y89498715D01*
X140113827Y89476076D01*
X140127440Y89455701D01*
X140144768Y89438374D01*
X140165143Y89424760D01*
X140246557Y89381244D01*
X140334264Y89309264D01*
X140406244Y89221557D01*
X140459729Y89121492D01*
X140492666Y89012916D01*
X140503787Y88900000D01*
X140492666Y88787084D01*
X140459729Y88678508D01*
X140459726Y88678503D01*
X140406244Y88578443D01*
X140334264Y88490736D01*
X140257365Y88427626D01*
X140240038Y88410299D01*
X140226424Y88389924D01*
X140217046Y88367285D01*
X140212266Y88343252D01*
X140212266Y88318748D01*
X140217047Y88294714D01*
X140226424Y88272075D01*
X140240038Y88251701D01*
X140257365Y88234374D01*
X140277740Y88220760D01*
X140300379Y88211382D01*
X140336664Y88206000D01*
X140501000Y88206000D01*
X140501000Y87054000D01*
X138899000Y87054000D01*
X138899000Y88206000D01*
X139063336Y88206000D01*
X139087722Y88208402D01*
X139111171Y88215515D01*
X139132782Y88227066D01*
X139151724Y88242612D01*
X139167270Y88261554D01*
X139178821Y88283165D01*
X139185934Y88306614D01*
X139188336Y88331000D01*
X139185934Y88355386D01*
X139178821Y88378835D01*
X139167270Y88400446D01*
X139142635Y88427626D01*
X139065736Y88490736D01*
X138993756Y88578443D01*
X138940274Y88678503D01*
X138940271Y88678508D01*
X138907334Y88787084D01*
X138896213Y88900000D01*
X138907334Y89012916D01*
X138940271Y89121492D01*
X138993756Y89221557D01*
X139065736Y89309264D01*
X139153443Y89381244D01*
X139234857Y89424760D01*
X139255232Y89438373D01*
X139272559Y89455701D01*
X139286173Y89476075D01*
X139295550Y89498714D01*
X139300331Y89522747D01*
X139300331Y89547252D01*
X139295551Y89571285D01*
X139286173Y89593924D01*
X139272560Y89614299D01*
X139255232Y89631626D01*
X139234857Y89645240D01*
X139153443Y89688756D01*
X139065736Y89760736D01*
X138993756Y89848443D01*
X138979190Y89875695D01*
X138940271Y89948508D01*
X138907334Y90057084D01*
X138896213Y90170000D01*
X138907334Y90282916D01*
X138940271Y90391492D01*
X138993756Y90491557D01*
X139065736Y90579264D01*
X139153443Y90651244D01*
X139253508Y90704729D01*
X139362084Y90737666D01*
X139446702Y90746000D01*
X139953298Y90746000D01*
X140037916Y90737666D01*
X140037916Y90737666D01*
G37*
G36*
X129616932Y89948508D02*
X129746032Y89935793D01*
X129944146Y89875695D01*
X130126729Y89778103D01*
X130286765Y89646765D01*
X130418103Y89486729D01*
X130515695Y89304146D01*
X130575793Y89106032D01*
X130596085Y88900000D01*
X130575793Y88693968D01*
X130515695Y88495854D01*
X130418103Y88313271D01*
X130286765Y88153235D01*
X130126729Y88021897D01*
X129944146Y87924305D01*
X129746032Y87864207D01*
X129622510Y87852041D01*
X129591631Y87849000D01*
X129488369Y87849000D01*
X129457490Y87852041D01*
X129333968Y87864207D01*
X129135854Y87924305D01*
X128953271Y88021897D01*
X128793235Y88153235D01*
X128661897Y88313271D01*
X128564305Y88495854D01*
X128504207Y88693968D01*
X128483915Y88900000D01*
X128504207Y89106032D01*
X128564305Y89304146D01*
X128661897Y89486729D01*
X128793235Y89646765D01*
X128953271Y89778103D01*
X129135854Y89875695D01*
X129333968Y89935793D01*
X129463068Y89948508D01*
X129488369Y89951000D01*
X129591631Y89951000D01*
X129616932Y89948508D01*
X129616932Y89948508D01*
G37*
G36*
X135671000Y87849000D02*
X133569000Y87849000D01*
X133569000Y89951000D01*
X135671000Y89951000D01*
X135671000Y87849000D01*
X135671000Y87849000D01*
G37*
G36*
X162191000Y87999000D02*
X160389000Y87999000D01*
X160389000Y89801000D01*
X162191000Y89801000D01*
X162191000Y87999000D01*
X162191000Y87999000D01*
G37*
G36*
X145028228Y89878297D02*
X145183100Y89814147D01*
X145322481Y89721015D01*
X145441015Y89602481D01*
X145534147Y89463100D01*
X145598297Y89308228D01*
X145631000Y89143816D01*
X145631000Y88976184D01*
X145598297Y88811772D01*
X145534147Y88656900D01*
X145441015Y88517519D01*
X145322481Y88398985D01*
X145183100Y88305853D01*
X145028228Y88241703D01*
X144863816Y88209000D01*
X144696184Y88209000D01*
X144531772Y88241703D01*
X144376900Y88305853D01*
X144237519Y88398985D01*
X144118985Y88517519D01*
X144025853Y88656900D01*
X143961703Y88811772D01*
X143929000Y88976184D01*
X143929000Y89143816D01*
X143961703Y89308228D01*
X144025853Y89463100D01*
X144118985Y89602481D01*
X144237519Y89721015D01*
X144376900Y89814147D01*
X144531772Y89878297D01*
X144696184Y89911000D01*
X144863816Y89911000D01*
X145028228Y89878297D01*
X145028228Y89878297D01*
G37*
G36*
X156458228Y90988297D02*
X156613100Y90924147D01*
X156752481Y90831015D01*
X156871015Y90712481D01*
X156964147Y90573100D01*
X157028297Y90418228D01*
X157061000Y90253816D01*
X157061000Y90086184D01*
X157028297Y89921772D01*
X156964147Y89766900D01*
X156871015Y89627519D01*
X156752481Y89508985D01*
X156613100Y89415853D01*
X156458228Y89351703D01*
X156293816Y89319000D01*
X156126184Y89319000D01*
X155961772Y89351703D01*
X155806900Y89415853D01*
X155667519Y89508985D01*
X155548985Y89627519D01*
X155455853Y89766900D01*
X155391703Y89921772D01*
X155359000Y90086184D01*
X155359000Y90253816D01*
X155391703Y90418228D01*
X155455853Y90573100D01*
X155548985Y90712481D01*
X155667519Y90831015D01*
X155806900Y90924147D01*
X155961772Y90988297D01*
X156126184Y91021000D01*
X156293816Y91021000D01*
X156458228Y90988297D01*
X156458228Y90988297D01*
G37*
G36*
X148838228Y90988297D02*
X148993100Y90924147D01*
X149132481Y90831015D01*
X149251015Y90712481D01*
X149344147Y90573100D01*
X149408297Y90418228D01*
X149441000Y90253816D01*
X149441000Y90086184D01*
X149408297Y89921772D01*
X149344147Y89766900D01*
X149251015Y89627519D01*
X149132481Y89508985D01*
X148993100Y89415853D01*
X148838228Y89351703D01*
X148673816Y89319000D01*
X148506184Y89319000D01*
X148341772Y89351703D01*
X148186900Y89415853D01*
X148047519Y89508985D01*
X147928985Y89627519D01*
X147835853Y89766900D01*
X147771703Y89921772D01*
X147739000Y90086184D01*
X147739000Y90253816D01*
X147771703Y90418228D01*
X147835853Y90573100D01*
X147928985Y90712481D01*
X148047519Y90831015D01*
X148186900Y90924147D01*
X148341772Y90988297D01*
X148506184Y91021000D01*
X148673816Y91021000D01*
X148838228Y90988297D01*
X148838228Y90988297D01*
G37*
G36*
X161538228Y93528297D02*
X161693100Y93464147D01*
X161832481Y93371015D01*
X161951015Y93252481D01*
X162044147Y93113100D01*
X162108297Y92958228D01*
X162141000Y92793816D01*
X162141000Y92626184D01*
X162108297Y92461772D01*
X162044147Y92306900D01*
X161951015Y92167519D01*
X161832481Y92048985D01*
X161693100Y91955853D01*
X161538228Y91891703D01*
X161373816Y91859000D01*
X161206184Y91859000D01*
X161041772Y91891703D01*
X160886900Y91955853D01*
X160747519Y92048985D01*
X160628985Y92167519D01*
X160535853Y92306900D01*
X160471703Y92461772D01*
X160439000Y92626184D01*
X160439000Y92793816D01*
X160471703Y92958228D01*
X160535853Y93113100D01*
X160628985Y93252481D01*
X160747519Y93371015D01*
X160886900Y93464147D01*
X161041772Y93528297D01*
X161206184Y93561000D01*
X161373816Y93561000D01*
X161538228Y93528297D01*
X161538228Y93528297D01*
G37*
G36*
X148838228Y93528297D02*
X148993100Y93464147D01*
X149132481Y93371015D01*
X149251015Y93252481D01*
X149344147Y93113100D01*
X149408297Y92958228D01*
X149441000Y92793816D01*
X149441000Y92626184D01*
X149408297Y92461772D01*
X149344147Y92306900D01*
X149251015Y92167519D01*
X149132481Y92048985D01*
X148993100Y91955853D01*
X148838228Y91891703D01*
X148673816Y91859000D01*
X148506184Y91859000D01*
X148341772Y91891703D01*
X148186900Y91955853D01*
X148047519Y92048985D01*
X147928985Y92167519D01*
X147835853Y92306900D01*
X147771703Y92461772D01*
X147739000Y92626184D01*
X147739000Y92793816D01*
X147771703Y92958228D01*
X147835853Y93113100D01*
X147928985Y93252481D01*
X148047519Y93371015D01*
X148186900Y93464147D01*
X148341772Y93528297D01*
X148506184Y93561000D01*
X148673816Y93561000D01*
X148838228Y93528297D01*
X148838228Y93528297D01*
G37*
G36*
X156458228Y93528297D02*
X156613100Y93464147D01*
X156752481Y93371015D01*
X156871015Y93252481D01*
X156964147Y93113100D01*
X157028297Y92958228D01*
X157061000Y92793816D01*
X157061000Y92626184D01*
X157028297Y92461772D01*
X156964147Y92306900D01*
X156871015Y92167519D01*
X156752481Y92048985D01*
X156613100Y91955853D01*
X156458228Y91891703D01*
X156293816Y91859000D01*
X156126184Y91859000D01*
X155961772Y91891703D01*
X155806900Y91955853D01*
X155667519Y92048985D01*
X155548985Y92167519D01*
X155455853Y92306900D01*
X155391703Y92461772D01*
X155359000Y92626184D01*
X155359000Y92793816D01*
X155391703Y92958228D01*
X155455853Y93113100D01*
X155548985Y93252481D01*
X155667519Y93371015D01*
X155806900Y93464147D01*
X155961772Y93528297D01*
X156126184Y93561000D01*
X156293816Y93561000D01*
X156458228Y93528297D01*
X156458228Y93528297D01*
G37*
G36*
X135596966Y93456435D02*
X135635637Y93444704D01*
X135671279Y93425652D01*
X135702517Y93400017D01*
X135728152Y93368779D01*
X135747204Y93333137D01*
X135758935Y93294466D01*
X135763500Y93248112D01*
X135763500Y92171888D01*
X135758935Y92125534D01*
X135747204Y92086863D01*
X135728152Y92051221D01*
X135702517Y92019983D01*
X135671279Y91994348D01*
X135635637Y91975296D01*
X135596966Y91963565D01*
X135550612Y91959000D01*
X134899388Y91959000D01*
X134853034Y91963565D01*
X134814363Y91975296D01*
X134778721Y91994348D01*
X134747483Y92019983D01*
X134721848Y92051221D01*
X134702796Y92086863D01*
X134691065Y92125534D01*
X134686500Y92171888D01*
X134686500Y93248112D01*
X134691065Y93294466D01*
X134702796Y93333137D01*
X134721848Y93368779D01*
X134747483Y93400017D01*
X134778721Y93425652D01*
X134814363Y93444704D01*
X134853034Y93456435D01*
X134899388Y93461000D01*
X135550612Y93461000D01*
X135596966Y93456435D01*
X135596966Y93456435D01*
G37*
G36*
X133721966Y93456435D02*
X133760637Y93444704D01*
X133796279Y93425652D01*
X133827517Y93400017D01*
X133853152Y93368779D01*
X133872204Y93333137D01*
X133883935Y93294466D01*
X133888500Y93248112D01*
X133888500Y92171888D01*
X133883935Y92125534D01*
X133872204Y92086863D01*
X133853152Y92051221D01*
X133827517Y92019983D01*
X133796279Y91994348D01*
X133760637Y91975296D01*
X133721966Y91963565D01*
X133675612Y91959000D01*
X133024388Y91959000D01*
X132978034Y91963565D01*
X132939363Y91975296D01*
X132903721Y91994348D01*
X132872483Y92019983D01*
X132846848Y92051221D01*
X132827796Y92086863D01*
X132816065Y92125534D01*
X132811500Y92171888D01*
X132811500Y93248112D01*
X132816065Y93294466D01*
X132827796Y93333137D01*
X132846848Y93368779D01*
X132872483Y93400017D01*
X132903721Y93425652D01*
X132939363Y93444704D01*
X132978034Y93456435D01*
X133024388Y93461000D01*
X133675612Y93461000D01*
X133721966Y93456435D01*
X133721966Y93456435D01*
G37*
G36*
X130124466Y93096435D02*
X130163137Y93084704D01*
X130198779Y93065652D01*
X130230017Y93040017D01*
X130255652Y93008779D01*
X130274704Y92973137D01*
X130286435Y92934466D01*
X130291000Y92888112D01*
X130291000Y92236888D01*
X130286435Y92190534D01*
X130274704Y92151863D01*
X130255652Y92116221D01*
X130230017Y92084983D01*
X130198779Y92059348D01*
X130163137Y92040296D01*
X130124466Y92028565D01*
X130078112Y92024000D01*
X129001888Y92024000D01*
X128955534Y92028565D01*
X128916863Y92040296D01*
X128881221Y92059348D01*
X128849983Y92084983D01*
X128824348Y92116221D01*
X128805296Y92151863D01*
X128793565Y92190534D01*
X128789000Y92236888D01*
X128789000Y92888112D01*
X128793565Y92934466D01*
X128805296Y92973137D01*
X128824348Y93008779D01*
X128849983Y93040017D01*
X128881221Y93065652D01*
X128916863Y93084704D01*
X128955534Y93096435D01*
X129001888Y93101000D01*
X130078112Y93101000D01*
X130124466Y93096435D01*
X130124466Y93096435D01*
G37*
G36*
X130124466Y94971435D02*
X130163137Y94959704D01*
X130198779Y94940652D01*
X130230017Y94915017D01*
X130255652Y94883779D01*
X130274704Y94848137D01*
X130286435Y94809466D01*
X130291000Y94763112D01*
X130291000Y94111888D01*
X130286435Y94065534D01*
X130274704Y94026863D01*
X130255652Y93991221D01*
X130230017Y93959983D01*
X130198779Y93934348D01*
X130163137Y93915296D01*
X130124466Y93903565D01*
X130078112Y93899000D01*
X129001888Y93899000D01*
X128955534Y93903565D01*
X128916863Y93915296D01*
X128881221Y93934348D01*
X128849983Y93959983D01*
X128824348Y93991221D01*
X128805296Y94026863D01*
X128793565Y94065534D01*
X128789000Y94111888D01*
X128789000Y94763112D01*
X128793565Y94809466D01*
X128805296Y94848137D01*
X128824348Y94883779D01*
X128849983Y94915017D01*
X128881221Y94940652D01*
X128916863Y94959704D01*
X128955534Y94971435D01*
X129001888Y94976000D01*
X130078112Y94976000D01*
X130124466Y94971435D01*
X130124466Y94971435D01*
G37*
G36*
X156458228Y96068297D02*
X156613100Y96004147D01*
X156752481Y95911015D01*
X156871015Y95792481D01*
X156964147Y95653100D01*
X157028297Y95498228D01*
X157061000Y95333816D01*
X157061000Y95166184D01*
X157028297Y95001772D01*
X156964147Y94846900D01*
X156871015Y94707519D01*
X156752481Y94588985D01*
X156613100Y94495853D01*
X156458228Y94431703D01*
X156293816Y94399000D01*
X156126184Y94399000D01*
X155961772Y94431703D01*
X155806900Y94495853D01*
X155667519Y94588985D01*
X155548985Y94707519D01*
X155455853Y94846900D01*
X155391703Y95001772D01*
X155359000Y95166184D01*
X155359000Y95333816D01*
X155391703Y95498228D01*
X155455853Y95653100D01*
X155548985Y95792481D01*
X155667519Y95911015D01*
X155806900Y96004147D01*
X155961772Y96068297D01*
X156126184Y96101000D01*
X156293816Y96101000D01*
X156458228Y96068297D01*
X156458228Y96068297D01*
G37*
G36*
X148838228Y96068297D02*
X148993100Y96004147D01*
X149132481Y95911015D01*
X149251015Y95792481D01*
X149344147Y95653100D01*
X149408297Y95498228D01*
X149441000Y95333816D01*
X149441000Y95166184D01*
X149408297Y95001772D01*
X149344147Y94846900D01*
X149251015Y94707519D01*
X149132481Y94588985D01*
X148993100Y94495853D01*
X148838228Y94431703D01*
X148673816Y94399000D01*
X148506184Y94399000D01*
X148341772Y94431703D01*
X148186900Y94495853D01*
X148047519Y94588985D01*
X147928985Y94707519D01*
X147835853Y94846900D01*
X147771703Y95001772D01*
X147739000Y95166184D01*
X147739000Y95333816D01*
X147771703Y95498228D01*
X147835853Y95653100D01*
X147928985Y95792481D01*
X148047519Y95911015D01*
X148186900Y96004147D01*
X148341772Y96068297D01*
X148506184Y96101000D01*
X148673816Y96101000D01*
X148838228Y96068297D01*
X148838228Y96068297D01*
G37*
G36*
X139581000Y95369000D02*
X137279000Y95369000D01*
X137279000Y97671000D01*
X139581000Y97671000D01*
X139581000Y95369000D01*
X139581000Y95369000D01*
G37*
G36*
X133474180Y97664338D02*
X133575635Y97654346D01*
X133792600Y97588530D01*
X133792602Y97588529D01*
X133792605Y97588528D01*
X133992556Y97481653D01*
X134167818Y97337818D01*
X134311653Y97162556D01*
X134418528Y96962605D01*
X134418529Y96962602D01*
X134418530Y96962600D01*
X134484346Y96745635D01*
X134506569Y96520000D01*
X134484346Y96294365D01*
X134418530Y96077400D01*
X134418528Y96077395D01*
X134311653Y95877444D01*
X134167818Y95702182D01*
X133992556Y95558347D01*
X133792605Y95451472D01*
X133792602Y95451471D01*
X133792600Y95451470D01*
X133575635Y95385654D01*
X133474180Y95375662D01*
X133406545Y95369000D01*
X133293455Y95369000D01*
X133225820Y95375662D01*
X133124365Y95385654D01*
X132907400Y95451470D01*
X132907398Y95451471D01*
X132907395Y95451472D01*
X132707444Y95558347D01*
X132532182Y95702182D01*
X132388347Y95877444D01*
X132281472Y96077395D01*
X132281470Y96077400D01*
X132215654Y96294365D01*
X132193431Y96520000D01*
X132215654Y96745635D01*
X132281470Y96962600D01*
X132281471Y96962602D01*
X132281472Y96962605D01*
X132388347Y97162556D01*
X132532182Y97337818D01*
X132707444Y97481653D01*
X132907395Y97588528D01*
X132907398Y97588529D01*
X132907400Y97588530D01*
X133124365Y97654346D01*
X133225820Y97664338D01*
X133293455Y97671000D01*
X133406545Y97671000D01*
X133474180Y97664338D01*
X133474180Y97664338D01*
G37*
G36*
X161538228Y98528297D02*
X161693100Y98464147D01*
X161832481Y98371015D01*
X161951015Y98252481D01*
X162044147Y98113100D01*
X162108297Y97958228D01*
X162141000Y97793816D01*
X162141000Y97626184D01*
X162108297Y97461772D01*
X162044147Y97306900D01*
X161951015Y97167519D01*
X161832481Y97048985D01*
X161693100Y96955853D01*
X161538228Y96891703D01*
X161373816Y96859000D01*
X161206184Y96859000D01*
X161041772Y96891703D01*
X160886900Y96955853D01*
X160747519Y97048985D01*
X160628985Y97167519D01*
X160535853Y97306900D01*
X160471703Y97461772D01*
X160439000Y97626184D01*
X160439000Y97793816D01*
X160471703Y97958228D01*
X160535853Y98113100D01*
X160628985Y98252481D01*
X160747519Y98371015D01*
X160886900Y98464147D01*
X161041772Y98528297D01*
X161206184Y98561000D01*
X161373816Y98561000D01*
X161538228Y98528297D01*
X161538228Y98528297D01*
G37*
G36*
X129816061Y96889000D02*
X128014061Y96889000D01*
X128014061Y98691000D01*
X129816061Y98691000D01*
X129816061Y96889000D01*
X129816061Y96889000D01*
G37*
G36*
X126485503Y98684482D02*
X126551688Y98677963D01*
X126664914Y98643616D01*
X126721528Y98626443D01*
X126843961Y98561000D01*
X126878052Y98542778D01*
X126895697Y98528297D01*
X127015247Y98430186D01*
X127063807Y98371014D01*
X127127839Y98292991D01*
X127127840Y98292989D01*
X127211504Y98136467D01*
X127211504Y98136466D01*
X127263024Y97966627D01*
X127280420Y97790000D01*
X127263024Y97613373D01*
X127255487Y97588528D01*
X127211504Y97443533D01*
X127154997Y97337818D01*
X127127839Y97287009D01*
X127098509Y97251271D01*
X127015247Y97149814D01*
X126913790Y97066552D01*
X126878052Y97037222D01*
X126878050Y97037221D01*
X126721528Y96953557D01*
X126673539Y96939000D01*
X126551688Y96902037D01*
X126485503Y96895518D01*
X126419321Y96889000D01*
X126330801Y96889000D01*
X126264619Y96895518D01*
X126198434Y96902037D01*
X126076583Y96939000D01*
X126028594Y96953557D01*
X125872072Y97037221D01*
X125872070Y97037222D01*
X125836332Y97066552D01*
X125734875Y97149814D01*
X125651613Y97251271D01*
X125622283Y97287009D01*
X125595125Y97337818D01*
X125538618Y97443533D01*
X125494635Y97588528D01*
X125487098Y97613373D01*
X125469702Y97790000D01*
X125487098Y97966627D01*
X125538618Y98136466D01*
X125538618Y98136467D01*
X125622282Y98292989D01*
X125622283Y98292991D01*
X125686315Y98371014D01*
X125734875Y98430186D01*
X125854425Y98528297D01*
X125872070Y98542778D01*
X125906161Y98561000D01*
X126028594Y98626443D01*
X126085208Y98643616D01*
X126198434Y98677963D01*
X126264619Y98684482D01*
X126330801Y98691000D01*
X126419321Y98691000D01*
X126485503Y98684482D01*
X126485503Y98684482D01*
G37*
G36*
X148838228Y98608297D02*
X148993100Y98544147D01*
X149132481Y98451015D01*
X149251015Y98332481D01*
X149344147Y98193100D01*
X149408297Y98038228D01*
X149441000Y97873816D01*
X149441000Y97706184D01*
X149408297Y97541772D01*
X149344147Y97386900D01*
X149251015Y97247519D01*
X149132481Y97128985D01*
X148993100Y97035853D01*
X148838228Y96971703D01*
X148673816Y96939000D01*
X148506184Y96939000D01*
X148341772Y96971703D01*
X148186900Y97035853D01*
X148047519Y97128985D01*
X147928985Y97247519D01*
X147835853Y97386900D01*
X147771703Y97541772D01*
X147739000Y97706184D01*
X147739000Y97873816D01*
X147771703Y98038228D01*
X147835853Y98193100D01*
X147928985Y98332481D01*
X148047519Y98451015D01*
X148186900Y98544147D01*
X148341772Y98608297D01*
X148506184Y98641000D01*
X148673816Y98641000D01*
X148838228Y98608297D01*
X148838228Y98608297D01*
G37*
G36*
X156458228Y98608297D02*
X156613100Y98544147D01*
X156752481Y98451015D01*
X156871015Y98332481D01*
X156964147Y98193100D01*
X157028297Y98038228D01*
X157061000Y97873816D01*
X157061000Y97706184D01*
X157028297Y97541772D01*
X156964147Y97386900D01*
X156871015Y97247519D01*
X156752481Y97128985D01*
X156613100Y97035853D01*
X156458228Y96971703D01*
X156293816Y96939000D01*
X156126184Y96939000D01*
X155961772Y96971703D01*
X155806900Y97035853D01*
X155667519Y97128985D01*
X155548985Y97247519D01*
X155455853Y97386900D01*
X155391703Y97541772D01*
X155359000Y97706184D01*
X155359000Y97873816D01*
X155391703Y98038228D01*
X155455853Y98193100D01*
X155548985Y98332481D01*
X155667519Y98451015D01*
X155806900Y98544147D01*
X155961772Y98608297D01*
X156126184Y98641000D01*
X156293816Y98641000D01*
X156458228Y98608297D01*
X156458228Y98608297D01*
G37*
G36*
X145028228Y99878297D02*
X145183100Y99814147D01*
X145322481Y99721015D01*
X145441015Y99602481D01*
X145534147Y99463100D01*
X145598297Y99308228D01*
X145631000Y99143816D01*
X145631000Y98976184D01*
X145598297Y98811772D01*
X145534147Y98656900D01*
X145441015Y98517519D01*
X145322481Y98398985D01*
X145183100Y98305853D01*
X145028228Y98241703D01*
X144863816Y98209000D01*
X144696184Y98209000D01*
X144531772Y98241703D01*
X144376900Y98305853D01*
X144237519Y98398985D01*
X144118985Y98517519D01*
X144025853Y98656900D01*
X143961703Y98811772D01*
X143929000Y98976184D01*
X143929000Y99143816D01*
X143961703Y99308228D01*
X144025853Y99463100D01*
X144118985Y99602481D01*
X144237519Y99721015D01*
X144376900Y99814147D01*
X144531772Y99878297D01*
X144696184Y99911000D01*
X144863816Y99911000D01*
X145028228Y99878297D01*
X145028228Y99878297D01*
G37*
G36*
X156458228Y101148297D02*
X156613100Y101084147D01*
X156752481Y100991015D01*
X156871015Y100872481D01*
X156964147Y100733100D01*
X157028297Y100578228D01*
X157061000Y100413816D01*
X157061000Y100246184D01*
X157028297Y100081772D01*
X156964147Y99926900D01*
X156871015Y99787519D01*
X156752481Y99668985D01*
X156613100Y99575853D01*
X156458228Y99511703D01*
X156293816Y99479000D01*
X156126184Y99479000D01*
X155961772Y99511703D01*
X155806900Y99575853D01*
X155667519Y99668985D01*
X155548985Y99787519D01*
X155455853Y99926900D01*
X155391703Y100081772D01*
X155359000Y100246184D01*
X155359000Y100413816D01*
X155391703Y100578228D01*
X155455853Y100733100D01*
X155548985Y100872481D01*
X155667519Y100991015D01*
X155806900Y101084147D01*
X155961772Y101148297D01*
X156126184Y101181000D01*
X156293816Y101181000D01*
X156458228Y101148297D01*
X156458228Y101148297D01*
G37*
G36*
X148838228Y101148297D02*
X148993100Y101084147D01*
X149132481Y100991015D01*
X149251015Y100872481D01*
X149344147Y100733100D01*
X149408297Y100578228D01*
X149441000Y100413816D01*
X149441000Y100246184D01*
X149408297Y100081772D01*
X149344147Y99926900D01*
X149251015Y99787519D01*
X149132481Y99668985D01*
X148993100Y99575853D01*
X148838228Y99511703D01*
X148673816Y99479000D01*
X148506184Y99479000D01*
X148341772Y99511703D01*
X148186900Y99575853D01*
X148047519Y99668985D01*
X147928985Y99787519D01*
X147835853Y99926900D01*
X147771703Y100081772D01*
X147739000Y100246184D01*
X147739000Y100413816D01*
X147771703Y100578228D01*
X147835853Y100733100D01*
X147928985Y100872481D01*
X148047519Y100991015D01*
X148186900Y101084147D01*
X148341772Y101148297D01*
X148506184Y101181000D01*
X148673816Y101181000D01*
X148838228Y101148297D01*
X148838228Y101148297D01*
G37*
G36*
X165187385Y100532263D02*
X163385385Y100532263D01*
X163385385Y102334263D01*
X165187385Y102334263D01*
X165187385Y100532263D01*
X165187385Y100532263D01*
G37*
G36*
X160537385Y100532263D02*
X158735385Y100532263D01*
X158735385Y102334263D01*
X160537385Y102334263D01*
X160537385Y100532263D01*
X160537385Y100532263D01*
G37*
G36*
X129816061Y101969000D02*
X128014061Y101969000D01*
X128014061Y103771000D01*
X129816061Y103771000D01*
X129816061Y101969000D01*
X129816061Y101969000D01*
G37*
G36*
X126485504Y103764481D02*
X126551688Y103757963D01*
X126664914Y103723616D01*
X126721528Y103706443D01*
X126811689Y103658250D01*
X126878052Y103622778D01*
X126903506Y103601888D01*
X127015247Y103510186D01*
X127085691Y103424348D01*
X127127839Y103372991D01*
X127127840Y103372989D01*
X127211504Y103216467D01*
X127211504Y103216466D01*
X127263024Y103046627D01*
X127280420Y102870000D01*
X127263024Y102693373D01*
X127241304Y102621772D01*
X127211504Y102523533D01*
X127137409Y102384913D01*
X127127839Y102367009D01*
X127100965Y102334263D01*
X127015247Y102229814D01*
X126913790Y102146552D01*
X126878052Y102117222D01*
X126878050Y102117221D01*
X126721528Y102033557D01*
X126673539Y102019000D01*
X126551688Y101982037D01*
X126485503Y101975518D01*
X126419321Y101969000D01*
X126330801Y101969000D01*
X126264619Y101975518D01*
X126198434Y101982037D01*
X126076583Y102019000D01*
X126028594Y102033557D01*
X125872072Y102117221D01*
X125872070Y102117222D01*
X125836332Y102146552D01*
X125734875Y102229814D01*
X125649157Y102334263D01*
X125622283Y102367009D01*
X125612713Y102384913D01*
X125538618Y102523533D01*
X125508818Y102621772D01*
X125487098Y102693373D01*
X125469702Y102870000D01*
X125487098Y103046627D01*
X125538618Y103216466D01*
X125538618Y103216467D01*
X125622282Y103372989D01*
X125622283Y103372991D01*
X125664431Y103424348D01*
X125734875Y103510186D01*
X125846616Y103601888D01*
X125872070Y103622778D01*
X125938433Y103658250D01*
X126028594Y103706443D01*
X126085208Y103723616D01*
X126198434Y103757963D01*
X126264618Y103764481D01*
X126330801Y103771000D01*
X126419321Y103771000D01*
X126485504Y103764481D01*
X126485504Y103764481D01*
G37*
G36*
X156458228Y103688297D02*
X156613100Y103624147D01*
X156752481Y103531015D01*
X156871015Y103412481D01*
X156964147Y103273100D01*
X157028297Y103118228D01*
X157061000Y102953816D01*
X157061000Y102786184D01*
X157028297Y102621772D01*
X156964147Y102466900D01*
X156871015Y102327519D01*
X156752481Y102208985D01*
X156613100Y102115853D01*
X156458228Y102051703D01*
X156293816Y102019000D01*
X156126184Y102019000D01*
X155961772Y102051703D01*
X155806900Y102115853D01*
X155667519Y102208985D01*
X155548985Y102327519D01*
X155455853Y102466900D01*
X155391703Y102621772D01*
X155359000Y102786184D01*
X155359000Y102953816D01*
X155391703Y103118228D01*
X155455853Y103273100D01*
X155548985Y103412481D01*
X155667519Y103531015D01*
X155806900Y103624147D01*
X155961772Y103688297D01*
X156126184Y103721000D01*
X156293816Y103721000D01*
X156458228Y103688297D01*
X156458228Y103688297D01*
G37*
G36*
X149441000Y102019000D02*
X147739000Y102019000D01*
X147739000Y103721000D01*
X149441000Y103721000D01*
X149441000Y102019000D01*
X149441000Y102019000D01*
G37*
G36*
X138554180Y105284338D02*
X138655635Y105274346D01*
X138872600Y105208530D01*
X138872602Y105208529D01*
X138872605Y105208528D01*
X139072556Y105101653D01*
X139247818Y104957818D01*
X139391653Y104782556D01*
X139498528Y104582605D01*
X139498529Y104582602D01*
X139498530Y104582600D01*
X139564346Y104365635D01*
X139586569Y104140000D01*
X139564346Y103914365D01*
X139501273Y103706443D01*
X139498528Y103697395D01*
X139391653Y103497444D01*
X139247818Y103322182D01*
X139072556Y103178347D01*
X138872605Y103071472D01*
X138872602Y103071471D01*
X138872600Y103071470D01*
X138655635Y103005654D01*
X138554180Y102995662D01*
X138486545Y102989000D01*
X138373455Y102989000D01*
X138305820Y102995662D01*
X138204365Y103005654D01*
X137987400Y103071470D01*
X137987398Y103071471D01*
X137987395Y103071472D01*
X137787444Y103178347D01*
X137612182Y103322182D01*
X137468347Y103497444D01*
X137361472Y103697395D01*
X137358727Y103706443D01*
X137295654Y103914365D01*
X137273431Y104140000D01*
X137295654Y104365635D01*
X137361470Y104582600D01*
X137361471Y104582602D01*
X137361472Y104582605D01*
X137468347Y104782556D01*
X137612182Y104957818D01*
X137787444Y105101653D01*
X137987395Y105208528D01*
X137987398Y105208529D01*
X137987400Y105208530D01*
X138204365Y105274346D01*
X138305820Y105284338D01*
X138373455Y105291000D01*
X138486545Y105291000D01*
X138554180Y105284338D01*
X138554180Y105284338D01*
G37*
G36*
X134501000Y102989000D02*
X132199000Y102989000D01*
X132199000Y105291000D01*
X134501000Y105291000D01*
X134501000Y102989000D01*
X134501000Y102989000D01*
G37*
G36*
X159746828Y104867744D02*
X159813012Y104861226D01*
X159915894Y104830017D01*
X159982852Y104809706D01*
X160033645Y104782556D01*
X160139376Y104726041D01*
X160175114Y104696711D01*
X160276571Y104613449D01*
X160359833Y104511992D01*
X160389163Y104476254D01*
X160389164Y104476252D01*
X160472828Y104319730D01*
X160472828Y104319729D01*
X160524348Y104149890D01*
X160541744Y103973263D01*
X160524348Y103796636D01*
X160501404Y103721000D01*
X160472828Y103626796D01*
X160459514Y103601888D01*
X160389163Y103470272D01*
X160387184Y103467861D01*
X160276571Y103333077D01*
X160175114Y103249815D01*
X160139376Y103220485D01*
X160139374Y103220484D01*
X159982852Y103136820D01*
X159926238Y103119647D01*
X159813012Y103085300D01*
X159746828Y103078782D01*
X159680645Y103072263D01*
X159592125Y103072263D01*
X159525942Y103078782D01*
X159459758Y103085300D01*
X159346532Y103119647D01*
X159289918Y103136820D01*
X159133396Y103220484D01*
X159133394Y103220485D01*
X159097656Y103249815D01*
X158996199Y103333077D01*
X158885586Y103467861D01*
X158883607Y103470272D01*
X158813256Y103601888D01*
X158799942Y103626796D01*
X158771366Y103721000D01*
X158748422Y103796636D01*
X158731026Y103973263D01*
X158748422Y104149890D01*
X158799942Y104319729D01*
X158799942Y104319730D01*
X158883606Y104476252D01*
X158883607Y104476254D01*
X158912937Y104511992D01*
X158996199Y104613449D01*
X159097656Y104696711D01*
X159133394Y104726041D01*
X159239125Y104782556D01*
X159289918Y104809706D01*
X159356876Y104830017D01*
X159459758Y104861226D01*
X159525942Y104867744D01*
X159592125Y104874263D01*
X159680645Y104874263D01*
X159746828Y104867744D01*
X159746828Y104867744D01*
G37*
G36*
X164396828Y104867744D02*
X164463012Y104861226D01*
X164565894Y104830017D01*
X164632852Y104809706D01*
X164683645Y104782556D01*
X164789376Y104726041D01*
X164825114Y104696711D01*
X164926571Y104613449D01*
X165009833Y104511992D01*
X165039163Y104476254D01*
X165039164Y104476252D01*
X165122828Y104319730D01*
X165122828Y104319729D01*
X165174348Y104149890D01*
X165191744Y103973263D01*
X165174348Y103796636D01*
X165151404Y103721000D01*
X165122828Y103626796D01*
X165109514Y103601888D01*
X165039163Y103470272D01*
X165037184Y103467861D01*
X164926571Y103333077D01*
X164825114Y103249815D01*
X164789376Y103220485D01*
X164789374Y103220484D01*
X164632852Y103136820D01*
X164576238Y103119647D01*
X164463012Y103085300D01*
X164396828Y103078782D01*
X164330645Y103072263D01*
X164242125Y103072263D01*
X164175942Y103078782D01*
X164109758Y103085300D01*
X163996532Y103119647D01*
X163939918Y103136820D01*
X163783396Y103220484D01*
X163783394Y103220485D01*
X163747656Y103249815D01*
X163646199Y103333077D01*
X163535586Y103467861D01*
X163533607Y103470272D01*
X163463256Y103601888D01*
X163449942Y103626796D01*
X163421366Y103721000D01*
X163398422Y103796636D01*
X163381026Y103973263D01*
X163398422Y104149890D01*
X163449942Y104319729D01*
X163449942Y104319730D01*
X163533606Y104476252D01*
X163533607Y104476254D01*
X163562937Y104511992D01*
X163646199Y104613449D01*
X163747656Y104696711D01*
X163783394Y104726041D01*
X163889125Y104782556D01*
X163939918Y104809706D01*
X164006876Y104830017D01*
X164109758Y104861226D01*
X164175942Y104867744D01*
X164242125Y104874263D01*
X164330645Y104874263D01*
X164396828Y104867744D01*
X164396828Y104867744D01*
G37*
G36*
X145151966Y104886435D02*
X145190637Y104874704D01*
X145226279Y104855652D01*
X145257517Y104830017D01*
X145283152Y104798779D01*
X145302204Y104763137D01*
X145313935Y104724466D01*
X145318500Y104678112D01*
X145318500Y103601888D01*
X145313935Y103555534D01*
X145302204Y103516863D01*
X145283152Y103481221D01*
X145257517Y103449983D01*
X145226279Y103424348D01*
X145190637Y103405296D01*
X145151966Y103393565D01*
X145105612Y103389000D01*
X144454388Y103389000D01*
X144408034Y103393565D01*
X144369363Y103405296D01*
X144333721Y103424348D01*
X144302483Y103449983D01*
X144276848Y103481221D01*
X144257796Y103516863D01*
X144246065Y103555534D01*
X144241500Y103601888D01*
X144241500Y104678112D01*
X144246065Y104724466D01*
X144257796Y104763137D01*
X144276848Y104798779D01*
X144302483Y104830017D01*
X144333721Y104855652D01*
X144369363Y104874704D01*
X144408034Y104886435D01*
X144454388Y104891000D01*
X145105612Y104891000D01*
X145151966Y104886435D01*
X145151966Y104886435D01*
G37*
G36*
X143276966Y104886435D02*
X143315637Y104874704D01*
X143351279Y104855652D01*
X143382517Y104830017D01*
X143408152Y104798779D01*
X143427204Y104763137D01*
X143438935Y104724466D01*
X143443500Y104678112D01*
X143443500Y103601888D01*
X143438935Y103555534D01*
X143427204Y103516863D01*
X143408152Y103481221D01*
X143382517Y103449983D01*
X143351279Y103424348D01*
X143315637Y103405296D01*
X143276966Y103393565D01*
X143230612Y103389000D01*
X142579388Y103389000D01*
X142533034Y103393565D01*
X142494363Y103405296D01*
X142458721Y103424348D01*
X142427483Y103449983D01*
X142401848Y103481221D01*
X142382796Y103516863D01*
X142371065Y103555534D01*
X142366500Y103601888D01*
X142366500Y104678112D01*
X142371065Y104724466D01*
X142382796Y104763137D01*
X142401848Y104798779D01*
X142427483Y104830017D01*
X142458721Y104855652D01*
X142494363Y104874704D01*
X142533034Y104886435D01*
X142579388Y104891000D01*
X143230612Y104891000D01*
X143276966Y104886435D01*
X143276966Y104886435D01*
G37*
M02*
