M48
;DRILL file {KiCad 6.0.0-rc1-unknown-7c960aa~66~ubuntu18.04.1} date Thu 18 Oct 2018 08:48:21 PM EDT
;FORMAT={-:-/ absolute / inch / decimal}
FMAT,2
INCH
T1C0.0236
T2C0.0295
T3C0.0315
T4C0.0394
T5C0.0433
%
G90
G05
M72
T1
X5.7677Y4.1
T2
X5.5Y3.55
X5.5Y3.5
X5.5Y3.45
T3
X6.35Y3.8469
X6.35Y3.65
X5.7Y3.9
X5.7Y3.5063
T4
X5.1Y3.5
X5.3Y3.5
X6.468Y4.0934
X6.468Y3.9934
X6.2849Y4.0934
X6.2849Y3.9934
X4.9754Y3.85
X5.0754Y3.85
X4.9754Y4.05
X5.0754Y4.05
X6.35Y3.5
X6.35Y3.4
X5.85Y4.05
X5.85Y3.95
X5.85Y3.85
X5.85Y3.75
X5.85Y3.65
X5.85Y3.55
X5.85Y3.45
X5.85Y3.35
X6.15Y4.05
X6.15Y3.95
X6.15Y3.85
X6.15Y3.75
X6.15Y3.65
X6.15Y3.55
X6.15Y3.45
X6.15Y3.35
T5
X5.0Y3.35
X5.3Y3.35
X5.45Y4.1
X5.45Y3.8
X5.25Y4.1
X5.25Y3.8
T0
M30
