M48
INCH,TZ
T1C0.0157
T2C0.0295
T3C0.0300
T4C0.0315
T5C0.0394
T6C0.0433
T7C0.0669
%
G90
G05
T1
X25500Y-19500
X25500Y-21500
X25500Y-23500
X25500Y-25500
X25500Y-27500
X25500Y-29500
X25500Y-31500
X25500Y-33000
X26000Y-8500
X27000Y-20000
X27000Y-24500
X27000Y-26500
X27000Y-32500
X27500Y-7500
X27500Y-25500
X27500Y-27500
X27500Y-31500
X28500Y-9000
X28500Y-15500
X28500Y-20000
X28500Y-23500
X29500Y-8000
X29500Y-9500
X29500Y-25500
X29500Y-27500
X29500Y-31500
X30500Y-13000
X30500Y-19500
X30500Y-23500
X31500Y-25500
X31500Y-27500
X31500Y-31500
X32000Y-8500
X32000Y-9500
X32000Y-11500
X32500Y-19500
X32500Y-23500
X33500Y-13000
X33500Y-25500
X33500Y-27500
X33500Y-29500
X33500Y-31500
X34000Y-8500
X34000Y-9500
X34000Y-11500
X34500Y-19500
X34500Y-21500
X34500Y-23500
X35000Y-14500
X36000Y-8500
X36000Y-9500
X36000Y-11500
X36500Y-25500
X36500Y-27500
X36500Y-29500
X36500Y-31500
X37000Y-17500
X37000Y-19500
X37000Y-21500
X37000Y-23500
X37500Y-14500
X38000Y-8500
X38000Y-9500
X38000Y-11500
X38500Y-15500
X38500Y-23500
X38500Y-27500
X38500Y-31500
X39000Y-17500
X39000Y-19500
X39000Y-21500
X39500Y-25500
X40000Y-8500
X40000Y-9500
X40000Y-11500
X40000Y-15500
X40500Y-17500
X40500Y-17500
X40500Y-17500
X40500Y-19000
X40500Y-21000
X40500Y-23000
X40500Y-27500
X40500Y-31500
X41500Y-25000
X42000Y-8500
X42000Y-9500
X42000Y-11500
X42000Y-12500
X42000Y-13500
X42000Y-14500
X42000Y-15500
X42000Y-20500
X42000Y-21500
X42000Y-22500
X42000Y-28500
X42000Y-29500
X42000Y-30500
X42500Y-27500
X43000Y-10500
X43000Y-12500
X43000Y-13500
X43000Y-14500
X43000Y-16500
X43000Y-17500
X43000Y-18500
X43000Y-20500
X43000Y-21500
X43000Y-22500
X43000Y-24500
X43000Y-26500
X43000Y-28500
X43000Y-29500
X43000Y-30500
X43000Y-32500
X43500Y-25000
X44000Y-8500
X44000Y-11500
X44000Y-13000
X44000Y-21000
X44000Y-27000
X44000Y-29000
X44500Y-30500
X45000Y-16500
X45000Y-17500
X45500Y-25000
X46000Y-9500
X46000Y-10500
X46000Y-11500
X46000Y-19000
X46000Y-32500
X47000Y-20500
X47000Y-30500
X47500Y-16500
X47500Y-25000
X48000Y-11500
X48000Y-19000
X48000Y-32500
X49000Y-21000
X49500Y-16500
X49500Y-18500
X49500Y-25500
X49500Y-28500
X49500Y-30500
X50000Y-10500
X50500Y-31500
X50500Y-32500
X51000Y-21000
X51500Y-8000
X51500Y-9000
X51500Y-16500
X51500Y-18500
X51500Y-21500
X51500Y-23500
X51500Y-25500
X51500Y-27500
X52500Y-31500
X53500Y-9000
X53500Y-16500
X53500Y-18500
X53500Y-20500
X53500Y-23000
X53500Y-31000
X53500Y-32000
X54500Y-24000
X54500Y-26000
X54500Y-28000
X55000Y-8000
X55500Y-18500
X55500Y-20500
X56000Y-32000
X57000Y-8000
X57500Y-18500
X57500Y-20500
X57500Y-22500
X58000Y-11000
X58000Y-13000
X58500Y-8000
X58500Y-9500
X58500Y-15000
X59000Y-17000
X59000Y-33000
X59500Y-22500
X61500Y-20869
X61500Y-23000
X61500Y-25000
X61500Y-27000
X61500Y-29000
X61500Y-31000
X61500Y-33000
T2
X49000Y-19000
X49000Y-19500
X49000Y-20000
T3
X46000Y-8500
X46000Y-17500
X47000Y-8500
X47000Y-17500
X48000Y-8500
X48000Y-17500
X49000Y-8500
X49000Y-17500
X50000Y-8500
X50000Y-17500
X51000Y-8500
X51000Y-17500
X52000Y-8500
X52000Y-17500
X53000Y-8500
X53000Y-17500
T4
X51500Y-30000
X51500Y-33000
X52500Y-30000
X52500Y-33000
X53500Y-30000
X53500Y-33000
X54500Y-30000
X54500Y-33000
X55500Y-30000
X55500Y-33000
X56500Y-30000
X56500Y-33000
X57500Y-30000
X57500Y-33000
X28000Y-26500
X28000Y-32500
X29000Y-26500
X29000Y-32500
X30000Y-26500
X30000Y-32500
X31000Y-26500
X31000Y-32500
X32000Y-26500
X32000Y-32500
X33000Y-26500
X33000Y-32500
X34000Y-26500
X34000Y-32500
X35000Y-26500
X35000Y-32500
X36000Y-26500
X36000Y-32500
X37000Y-26500
X37000Y-32500
X38000Y-26500
X38000Y-32500
X39000Y-26500
X39000Y-32500
X40000Y-26500
X40000Y-32500
X41000Y-26500
X41000Y-32500
X42000Y-26500
X42000Y-32500
X28000Y-10500
X28000Y-16500
X29000Y-10500
X29000Y-16500
X30000Y-10500
X30000Y-16500
X31000Y-10500
X31000Y-16500
X32000Y-10500
X32000Y-16500
X33000Y-10500
X33000Y-16500
X34000Y-10500
X34000Y-16500
X35000Y-10500
X35000Y-16500
X36000Y-10500
X36000Y-16500
X37000Y-10500
X37000Y-16500
X38000Y-10500
X38000Y-16500
X39000Y-10500
X39000Y-16500
X40000Y-10500
X40000Y-16500
X41000Y-10500
X41000Y-16500
X42000Y-10500
X42000Y-16500
X28000Y-18500
X28000Y-24500
X29000Y-18500
X29000Y-24500
X30000Y-18500
X30000Y-24500
X31000Y-18500
X31000Y-24500
X32000Y-18500
X32000Y-24500
X33000Y-18500
X33000Y-24500
X34000Y-18500
X34000Y-24500
X35000Y-18500
X35000Y-24500
X36000Y-18500
X36000Y-24500
X37000Y-18500
X37000Y-24500
X38000Y-18500
X38000Y-24500
X39000Y-18500
X39000Y-24500
X40000Y-18500
X40000Y-24500
X41000Y-18500
X41000Y-24500
X42000Y-18500
X42000Y-24500
X53000Y-22031
X53000Y-24000
X51500Y-20000
X55437Y-20000
T5
X25500Y-8000
X25500Y-9000
X25500Y-10000
X25500Y-11000
X61500Y-12500
X61500Y-14500
X45500Y-27000
X46500Y-27000
X47500Y-27000
X48500Y-27000
X49500Y-27000
X25500Y-16500
X25500Y-17500
X25500Y-18500
X59500Y-8000
X59500Y-9000
X61000Y-8000
X61000Y-9000
X45169Y-32937
X49500Y-32937
T6
X61500Y-16000
X61500Y-19000
X59500Y-15500
X59500Y-18500
X59500Y-11000
X59500Y-14000
T7
X46350Y-29000
X48319Y-29000
T0
M30
