G04 #@! TF.GenerationSoftware,KiCad,Pcbnew,6.0.0-rc1-unknown-7c960aa~66~ubuntu18.04.1*
G04 #@! TF.CreationDate,2019-03-26T19:59:12-04:00*
G04 #@! TF.ProjectId,backdash_v1.5,6261636B646173685F76312E352E6B69,rev?*
G04 #@! TF.SameCoordinates,Original*
G04 #@! TF.FileFunction,Paste,Top*
G04 #@! TF.FilePolarity,Positive*
%FSLAX46Y46*%
G04 Gerber Fmt 4.6, Leading zero omitted, Abs format (unit mm)*
G04 Created by KiCad (PCBNEW 6.0.0-rc1-unknown-7c960aa~66~ubuntu18.04.1) date Tue 26 Mar 2019 07:59:12 PM EDT*
%MOMM*%
%LPD*%
G01*
G04 APERTURE LIST*
%ADD10C,0.100000*%
%ADD11C,0.975000*%
G04 APERTURE END LIST*
D10*
G04 #@! TO.C,R3*
G36*
X119860142Y-48711174D02*
X119883803Y-48714684D01*
X119907007Y-48720496D01*
X119929529Y-48728554D01*
X119951153Y-48738782D01*
X119971670Y-48751079D01*
X119990883Y-48765329D01*
X120008607Y-48781393D01*
X120024671Y-48799117D01*
X120038921Y-48818330D01*
X120051218Y-48838847D01*
X120061446Y-48860471D01*
X120069504Y-48882993D01*
X120075316Y-48906197D01*
X120078826Y-48929858D01*
X120080000Y-48953750D01*
X120080000Y-49441250D01*
X120078826Y-49465142D01*
X120075316Y-49488803D01*
X120069504Y-49512007D01*
X120061446Y-49534529D01*
X120051218Y-49556153D01*
X120038921Y-49576670D01*
X120024671Y-49595883D01*
X120008607Y-49613607D01*
X119990883Y-49629671D01*
X119971670Y-49643921D01*
X119951153Y-49656218D01*
X119929529Y-49666446D01*
X119907007Y-49674504D01*
X119883803Y-49680316D01*
X119860142Y-49683826D01*
X119836250Y-49685000D01*
X118923750Y-49685000D01*
X118899858Y-49683826D01*
X118876197Y-49680316D01*
X118852993Y-49674504D01*
X118830471Y-49666446D01*
X118808847Y-49656218D01*
X118788330Y-49643921D01*
X118769117Y-49629671D01*
X118751393Y-49613607D01*
X118735329Y-49595883D01*
X118721079Y-49576670D01*
X118708782Y-49556153D01*
X118698554Y-49534529D01*
X118690496Y-49512007D01*
X118684684Y-49488803D01*
X118681174Y-49465142D01*
X118680000Y-49441250D01*
X118680000Y-48953750D01*
X118681174Y-48929858D01*
X118684684Y-48906197D01*
X118690496Y-48882993D01*
X118698554Y-48860471D01*
X118708782Y-48838847D01*
X118721079Y-48818330D01*
X118735329Y-48799117D01*
X118751393Y-48781393D01*
X118769117Y-48765329D01*
X118788330Y-48751079D01*
X118808847Y-48738782D01*
X118830471Y-48728554D01*
X118852993Y-48720496D01*
X118876197Y-48714684D01*
X118899858Y-48711174D01*
X118923750Y-48710000D01*
X119836250Y-48710000D01*
X119860142Y-48711174D01*
X119860142Y-48711174D01*
G37*
D11*
X119380000Y-49197500D03*
D10*
G36*
X119860142Y-46836174D02*
X119883803Y-46839684D01*
X119907007Y-46845496D01*
X119929529Y-46853554D01*
X119951153Y-46863782D01*
X119971670Y-46876079D01*
X119990883Y-46890329D01*
X120008607Y-46906393D01*
X120024671Y-46924117D01*
X120038921Y-46943330D01*
X120051218Y-46963847D01*
X120061446Y-46985471D01*
X120069504Y-47007993D01*
X120075316Y-47031197D01*
X120078826Y-47054858D01*
X120080000Y-47078750D01*
X120080000Y-47566250D01*
X120078826Y-47590142D01*
X120075316Y-47613803D01*
X120069504Y-47637007D01*
X120061446Y-47659529D01*
X120051218Y-47681153D01*
X120038921Y-47701670D01*
X120024671Y-47720883D01*
X120008607Y-47738607D01*
X119990883Y-47754671D01*
X119971670Y-47768921D01*
X119951153Y-47781218D01*
X119929529Y-47791446D01*
X119907007Y-47799504D01*
X119883803Y-47805316D01*
X119860142Y-47808826D01*
X119836250Y-47810000D01*
X118923750Y-47810000D01*
X118899858Y-47808826D01*
X118876197Y-47805316D01*
X118852993Y-47799504D01*
X118830471Y-47791446D01*
X118808847Y-47781218D01*
X118788330Y-47768921D01*
X118769117Y-47754671D01*
X118751393Y-47738607D01*
X118735329Y-47720883D01*
X118721079Y-47701670D01*
X118708782Y-47681153D01*
X118698554Y-47659529D01*
X118690496Y-47637007D01*
X118684684Y-47613803D01*
X118681174Y-47590142D01*
X118680000Y-47566250D01*
X118680000Y-47078750D01*
X118681174Y-47054858D01*
X118684684Y-47031197D01*
X118690496Y-47007993D01*
X118698554Y-46985471D01*
X118708782Y-46963847D01*
X118721079Y-46943330D01*
X118735329Y-46924117D01*
X118751393Y-46906393D01*
X118769117Y-46890329D01*
X118788330Y-46876079D01*
X118808847Y-46863782D01*
X118830471Y-46853554D01*
X118852993Y-46845496D01*
X118876197Y-46839684D01*
X118899858Y-46836174D01*
X118923750Y-46835000D01*
X119836250Y-46835000D01*
X119860142Y-46836174D01*
X119860142Y-46836174D01*
G37*
D11*
X119380000Y-47322500D03*
G04 #@! TD*
D10*
G04 #@! TO.C,R2*
G36*
X156690142Y-28391174D02*
X156713803Y-28394684D01*
X156737007Y-28400496D01*
X156759529Y-28408554D01*
X156781153Y-28418782D01*
X156801670Y-28431079D01*
X156820883Y-28445329D01*
X156838607Y-28461393D01*
X156854671Y-28479117D01*
X156868921Y-28498330D01*
X156881218Y-28518847D01*
X156891446Y-28540471D01*
X156899504Y-28562993D01*
X156905316Y-28586197D01*
X156908826Y-28609858D01*
X156910000Y-28633750D01*
X156910000Y-29121250D01*
X156908826Y-29145142D01*
X156905316Y-29168803D01*
X156899504Y-29192007D01*
X156891446Y-29214529D01*
X156881218Y-29236153D01*
X156868921Y-29256670D01*
X156854671Y-29275883D01*
X156838607Y-29293607D01*
X156820883Y-29309671D01*
X156801670Y-29323921D01*
X156781153Y-29336218D01*
X156759529Y-29346446D01*
X156737007Y-29354504D01*
X156713803Y-29360316D01*
X156690142Y-29363826D01*
X156666250Y-29365000D01*
X155753750Y-29365000D01*
X155729858Y-29363826D01*
X155706197Y-29360316D01*
X155682993Y-29354504D01*
X155660471Y-29346446D01*
X155638847Y-29336218D01*
X155618330Y-29323921D01*
X155599117Y-29309671D01*
X155581393Y-29293607D01*
X155565329Y-29275883D01*
X155551079Y-29256670D01*
X155538782Y-29236153D01*
X155528554Y-29214529D01*
X155520496Y-29192007D01*
X155514684Y-29168803D01*
X155511174Y-29145142D01*
X155510000Y-29121250D01*
X155510000Y-28633750D01*
X155511174Y-28609858D01*
X155514684Y-28586197D01*
X155520496Y-28562993D01*
X155528554Y-28540471D01*
X155538782Y-28518847D01*
X155551079Y-28498330D01*
X155565329Y-28479117D01*
X155581393Y-28461393D01*
X155599117Y-28445329D01*
X155618330Y-28431079D01*
X155638847Y-28418782D01*
X155660471Y-28408554D01*
X155682993Y-28400496D01*
X155706197Y-28394684D01*
X155729858Y-28391174D01*
X155753750Y-28390000D01*
X156666250Y-28390000D01*
X156690142Y-28391174D01*
X156690142Y-28391174D01*
G37*
D11*
X156210000Y-28877500D03*
D10*
G36*
X156690142Y-26516174D02*
X156713803Y-26519684D01*
X156737007Y-26525496D01*
X156759529Y-26533554D01*
X156781153Y-26543782D01*
X156801670Y-26556079D01*
X156820883Y-26570329D01*
X156838607Y-26586393D01*
X156854671Y-26604117D01*
X156868921Y-26623330D01*
X156881218Y-26643847D01*
X156891446Y-26665471D01*
X156899504Y-26687993D01*
X156905316Y-26711197D01*
X156908826Y-26734858D01*
X156910000Y-26758750D01*
X156910000Y-27246250D01*
X156908826Y-27270142D01*
X156905316Y-27293803D01*
X156899504Y-27317007D01*
X156891446Y-27339529D01*
X156881218Y-27361153D01*
X156868921Y-27381670D01*
X156854671Y-27400883D01*
X156838607Y-27418607D01*
X156820883Y-27434671D01*
X156801670Y-27448921D01*
X156781153Y-27461218D01*
X156759529Y-27471446D01*
X156737007Y-27479504D01*
X156713803Y-27485316D01*
X156690142Y-27488826D01*
X156666250Y-27490000D01*
X155753750Y-27490000D01*
X155729858Y-27488826D01*
X155706197Y-27485316D01*
X155682993Y-27479504D01*
X155660471Y-27471446D01*
X155638847Y-27461218D01*
X155618330Y-27448921D01*
X155599117Y-27434671D01*
X155581393Y-27418607D01*
X155565329Y-27400883D01*
X155551079Y-27381670D01*
X155538782Y-27361153D01*
X155528554Y-27339529D01*
X155520496Y-27317007D01*
X155514684Y-27293803D01*
X155511174Y-27270142D01*
X155510000Y-27246250D01*
X155510000Y-26758750D01*
X155511174Y-26734858D01*
X155514684Y-26711197D01*
X155520496Y-26687993D01*
X155528554Y-26665471D01*
X155538782Y-26643847D01*
X155551079Y-26623330D01*
X155565329Y-26604117D01*
X155581393Y-26586393D01*
X155599117Y-26570329D01*
X155618330Y-26556079D01*
X155638847Y-26543782D01*
X155660471Y-26533554D01*
X155682993Y-26525496D01*
X155706197Y-26519684D01*
X155729858Y-26516174D01*
X155753750Y-26515000D01*
X156666250Y-26515000D01*
X156690142Y-26516174D01*
X156690142Y-26516174D01*
G37*
D11*
X156210000Y-27002500D03*
G04 #@! TD*
D10*
G04 #@! TO.C,R1*
G36*
X151610142Y-50646174D02*
X151633803Y-50649684D01*
X151657007Y-50655496D01*
X151679529Y-50663554D01*
X151701153Y-50673782D01*
X151721670Y-50686079D01*
X151740883Y-50700329D01*
X151758607Y-50716393D01*
X151774671Y-50734117D01*
X151788921Y-50753330D01*
X151801218Y-50773847D01*
X151811446Y-50795471D01*
X151819504Y-50817993D01*
X151825316Y-50841197D01*
X151828826Y-50864858D01*
X151830000Y-50888750D01*
X151830000Y-51376250D01*
X151828826Y-51400142D01*
X151825316Y-51423803D01*
X151819504Y-51447007D01*
X151811446Y-51469529D01*
X151801218Y-51491153D01*
X151788921Y-51511670D01*
X151774671Y-51530883D01*
X151758607Y-51548607D01*
X151740883Y-51564671D01*
X151721670Y-51578921D01*
X151701153Y-51591218D01*
X151679529Y-51601446D01*
X151657007Y-51609504D01*
X151633803Y-51615316D01*
X151610142Y-51618826D01*
X151586250Y-51620000D01*
X150673750Y-51620000D01*
X150649858Y-51618826D01*
X150626197Y-51615316D01*
X150602993Y-51609504D01*
X150580471Y-51601446D01*
X150558847Y-51591218D01*
X150538330Y-51578921D01*
X150519117Y-51564671D01*
X150501393Y-51548607D01*
X150485329Y-51530883D01*
X150471079Y-51511670D01*
X150458782Y-51491153D01*
X150448554Y-51469529D01*
X150440496Y-51447007D01*
X150434684Y-51423803D01*
X150431174Y-51400142D01*
X150430000Y-51376250D01*
X150430000Y-50888750D01*
X150431174Y-50864858D01*
X150434684Y-50841197D01*
X150440496Y-50817993D01*
X150448554Y-50795471D01*
X150458782Y-50773847D01*
X150471079Y-50753330D01*
X150485329Y-50734117D01*
X150501393Y-50716393D01*
X150519117Y-50700329D01*
X150538330Y-50686079D01*
X150558847Y-50673782D01*
X150580471Y-50663554D01*
X150602993Y-50655496D01*
X150626197Y-50649684D01*
X150649858Y-50646174D01*
X150673750Y-50645000D01*
X151586250Y-50645000D01*
X151610142Y-50646174D01*
X151610142Y-50646174D01*
G37*
D11*
X151130000Y-51132500D03*
D10*
G36*
X151610142Y-52521174D02*
X151633803Y-52524684D01*
X151657007Y-52530496D01*
X151679529Y-52538554D01*
X151701153Y-52548782D01*
X151721670Y-52561079D01*
X151740883Y-52575329D01*
X151758607Y-52591393D01*
X151774671Y-52609117D01*
X151788921Y-52628330D01*
X151801218Y-52648847D01*
X151811446Y-52670471D01*
X151819504Y-52692993D01*
X151825316Y-52716197D01*
X151828826Y-52739858D01*
X151830000Y-52763750D01*
X151830000Y-53251250D01*
X151828826Y-53275142D01*
X151825316Y-53298803D01*
X151819504Y-53322007D01*
X151811446Y-53344529D01*
X151801218Y-53366153D01*
X151788921Y-53386670D01*
X151774671Y-53405883D01*
X151758607Y-53423607D01*
X151740883Y-53439671D01*
X151721670Y-53453921D01*
X151701153Y-53466218D01*
X151679529Y-53476446D01*
X151657007Y-53484504D01*
X151633803Y-53490316D01*
X151610142Y-53493826D01*
X151586250Y-53495000D01*
X150673750Y-53495000D01*
X150649858Y-53493826D01*
X150626197Y-53490316D01*
X150602993Y-53484504D01*
X150580471Y-53476446D01*
X150558847Y-53466218D01*
X150538330Y-53453921D01*
X150519117Y-53439671D01*
X150501393Y-53423607D01*
X150485329Y-53405883D01*
X150471079Y-53386670D01*
X150458782Y-53366153D01*
X150448554Y-53344529D01*
X150440496Y-53322007D01*
X150434684Y-53298803D01*
X150431174Y-53275142D01*
X150430000Y-53251250D01*
X150430000Y-52763750D01*
X150431174Y-52739858D01*
X150434684Y-52716197D01*
X150440496Y-52692993D01*
X150448554Y-52670471D01*
X150458782Y-52648847D01*
X150471079Y-52628330D01*
X150485329Y-52609117D01*
X150501393Y-52591393D01*
X150519117Y-52575329D01*
X150538330Y-52561079D01*
X150558847Y-52548782D01*
X150580471Y-52538554D01*
X150602993Y-52530496D01*
X150626197Y-52524684D01*
X150649858Y-52521174D01*
X150673750Y-52520000D01*
X151586250Y-52520000D01*
X151610142Y-52521174D01*
X151610142Y-52521174D01*
G37*
D11*
X151130000Y-53007500D03*
G04 #@! TD*
D10*
G04 #@! TO.C,DNP1*
G36*
X156690142Y-52521174D02*
X156713803Y-52524684D01*
X156737007Y-52530496D01*
X156759529Y-52538554D01*
X156781153Y-52548782D01*
X156801670Y-52561079D01*
X156820883Y-52575329D01*
X156838607Y-52591393D01*
X156854671Y-52609117D01*
X156868921Y-52628330D01*
X156881218Y-52648847D01*
X156891446Y-52670471D01*
X156899504Y-52692993D01*
X156905316Y-52716197D01*
X156908826Y-52739858D01*
X156910000Y-52763750D01*
X156910000Y-53251250D01*
X156908826Y-53275142D01*
X156905316Y-53298803D01*
X156899504Y-53322007D01*
X156891446Y-53344529D01*
X156881218Y-53366153D01*
X156868921Y-53386670D01*
X156854671Y-53405883D01*
X156838607Y-53423607D01*
X156820883Y-53439671D01*
X156801670Y-53453921D01*
X156781153Y-53466218D01*
X156759529Y-53476446D01*
X156737007Y-53484504D01*
X156713803Y-53490316D01*
X156690142Y-53493826D01*
X156666250Y-53495000D01*
X155753750Y-53495000D01*
X155729858Y-53493826D01*
X155706197Y-53490316D01*
X155682993Y-53484504D01*
X155660471Y-53476446D01*
X155638847Y-53466218D01*
X155618330Y-53453921D01*
X155599117Y-53439671D01*
X155581393Y-53423607D01*
X155565329Y-53405883D01*
X155551079Y-53386670D01*
X155538782Y-53366153D01*
X155528554Y-53344529D01*
X155520496Y-53322007D01*
X155514684Y-53298803D01*
X155511174Y-53275142D01*
X155510000Y-53251250D01*
X155510000Y-52763750D01*
X155511174Y-52739858D01*
X155514684Y-52716197D01*
X155520496Y-52692993D01*
X155528554Y-52670471D01*
X155538782Y-52648847D01*
X155551079Y-52628330D01*
X155565329Y-52609117D01*
X155581393Y-52591393D01*
X155599117Y-52575329D01*
X155618330Y-52561079D01*
X155638847Y-52548782D01*
X155660471Y-52538554D01*
X155682993Y-52530496D01*
X155706197Y-52524684D01*
X155729858Y-52521174D01*
X155753750Y-52520000D01*
X156666250Y-52520000D01*
X156690142Y-52521174D01*
X156690142Y-52521174D01*
G37*
D11*
X156210000Y-53007500D03*
D10*
G36*
X156690142Y-50646174D02*
X156713803Y-50649684D01*
X156737007Y-50655496D01*
X156759529Y-50663554D01*
X156781153Y-50673782D01*
X156801670Y-50686079D01*
X156820883Y-50700329D01*
X156838607Y-50716393D01*
X156854671Y-50734117D01*
X156868921Y-50753330D01*
X156881218Y-50773847D01*
X156891446Y-50795471D01*
X156899504Y-50817993D01*
X156905316Y-50841197D01*
X156908826Y-50864858D01*
X156910000Y-50888750D01*
X156910000Y-51376250D01*
X156908826Y-51400142D01*
X156905316Y-51423803D01*
X156899504Y-51447007D01*
X156891446Y-51469529D01*
X156881218Y-51491153D01*
X156868921Y-51511670D01*
X156854671Y-51530883D01*
X156838607Y-51548607D01*
X156820883Y-51564671D01*
X156801670Y-51578921D01*
X156781153Y-51591218D01*
X156759529Y-51601446D01*
X156737007Y-51609504D01*
X156713803Y-51615316D01*
X156690142Y-51618826D01*
X156666250Y-51620000D01*
X155753750Y-51620000D01*
X155729858Y-51618826D01*
X155706197Y-51615316D01*
X155682993Y-51609504D01*
X155660471Y-51601446D01*
X155638847Y-51591218D01*
X155618330Y-51578921D01*
X155599117Y-51564671D01*
X155581393Y-51548607D01*
X155565329Y-51530883D01*
X155551079Y-51511670D01*
X155538782Y-51491153D01*
X155528554Y-51469529D01*
X155520496Y-51447007D01*
X155514684Y-51423803D01*
X155511174Y-51400142D01*
X155510000Y-51376250D01*
X155510000Y-50888750D01*
X155511174Y-50864858D01*
X155514684Y-50841197D01*
X155520496Y-50817993D01*
X155528554Y-50795471D01*
X155538782Y-50773847D01*
X155551079Y-50753330D01*
X155565329Y-50734117D01*
X155581393Y-50716393D01*
X155599117Y-50700329D01*
X155618330Y-50686079D01*
X155638847Y-50673782D01*
X155660471Y-50663554D01*
X155682993Y-50655496D01*
X155706197Y-50649684D01*
X155729858Y-50646174D01*
X155753750Y-50645000D01*
X156666250Y-50645000D01*
X156690142Y-50646174D01*
X156690142Y-50646174D01*
G37*
D11*
X156210000Y-51132500D03*
G04 #@! TD*
M02*
