G04 #@! TF.GenerationSoftware,KiCad,Pcbnew,6.0.0-rc1-unknown-7c960aa~66~ubuntu18.04.1*
G04 #@! TF.CreationDate,2019-03-26T19:59:12-04:00*
G04 #@! TF.ProjectId,backdash_v1.5,6261636B646173685F76312E352E6B69,rev?*
G04 #@! TF.SameCoordinates,Original*
G04 #@! TF.FileFunction,Copper,L1,Top,Signal*
G04 #@! TF.FilePolarity,Positive*
%FSLAX46Y46*%
G04 Gerber Fmt 4.6, Leading zero omitted, Abs format (unit mm)*
G04 Created by KiCad (PCBNEW 6.0.0-rc1-unknown-7c960aa~66~ubuntu18.04.1) date Tue 26 Mar 2019 07:59:12 PM EDT*
%MOMM*%
%LPD*%
G01*
G04 APERTURE LIST*
G04 #@! TA.AperFunction,ComponentPad*
%ADD10C,1.574800*%
G04 #@! TD*
G04 #@! TA.AperFunction,ComponentPad*
%ADD11C,1.524000*%
G04 #@! TD*
G04 #@! TA.AperFunction,ComponentPad*
%ADD12O,1.700000X1.700000*%
G04 #@! TD*
G04 #@! TA.AperFunction,ComponentPad*
%ADD13R,1.700000X1.700000*%
G04 #@! TD*
G04 #@! TA.AperFunction,ComponentPad*
%ADD14C,2.200000*%
G04 #@! TD*
G04 #@! TA.AperFunction,Conductor*
%ADD15C,0.100000*%
G04 #@! TD*
G04 #@! TA.AperFunction,SMDPad,CuDef*
%ADD16C,0.975000*%
G04 #@! TD*
G04 #@! TA.AperFunction,ComponentPad*
%ADD17R,1.500000X1.050000*%
G04 #@! TD*
G04 #@! TA.AperFunction,ComponentPad*
%ADD18O,1.500000X1.050000*%
G04 #@! TD*
G04 #@! TA.AperFunction,ComponentPad*
%ADD19O,1.600000X1.600000*%
G04 #@! TD*
G04 #@! TA.AperFunction,ComponentPad*
%ADD20R,1.600000X1.600000*%
G04 #@! TD*
G04 #@! TA.AperFunction,ComponentPad*
%ADD21O,2.200000X2.200000*%
G04 #@! TD*
G04 #@! TA.AperFunction,ComponentPad*
%ADD22R,2.200000X2.200000*%
G04 #@! TD*
G04 #@! TA.AperFunction,ComponentPad*
%ADD23O,2.000000X2.000000*%
G04 #@! TD*
G04 #@! TA.AperFunction,ComponentPad*
%ADD24R,2.000000X2.000000*%
G04 #@! TD*
G04 #@! TA.AperFunction,ComponentPad*
%ADD25C,1.600000*%
G04 #@! TD*
G04 #@! TA.AperFunction,ViaPad*
%ADD26C,0.800000*%
G04 #@! TD*
G04 #@! TA.AperFunction,Conductor*
%ADD27C,0.508000*%
G04 #@! TD*
G04 #@! TA.AperFunction,Conductor*
%ADD28C,1.000000*%
G04 #@! TD*
G04 #@! TA.AperFunction,Conductor*
%ADD29C,0.254000*%
G04 #@! TD*
G04 APERTURE END LIST*
D10*
G04 #@! TO.P,NANO2 // Wheel,30*
G04 #@! TO.N,Net-(NANO2-Pad30)*
X106680000Y-62230000D03*
G04 #@! TO.P,NANO2 // Wheel,1*
G04 #@! TO.N,Net-(NANO2-Pad1)*
X106680000Y-46990000D03*
G04 #@! TO.P,NANO2 // Wheel,29*
G04 #@! TO.N,/GND*
X104140000Y-62230000D03*
G04 #@! TO.P,NANO2 // Wheel,2*
G04 #@! TO.N,Net-(NANO2-Pad2)*
X104140000Y-46990000D03*
G04 #@! TO.P,NANO2 // Wheel,28*
G04 #@! TO.N,/RST*
X101600000Y-62230000D03*
G04 #@! TO.P,NANO2 // Wheel,3*
X101600000Y-46990000D03*
G04 #@! TO.P,NANO2 // Wheel,27*
G04 #@! TO.N,/VCC*
X99060000Y-62230000D03*
G04 #@! TO.P,NANO2 // Wheel,4*
G04 #@! TO.N,/GND*
X99060000Y-46990000D03*
G04 #@! TO.P,NANO2 // Wheel,26*
G04 #@! TO.N,Net-(NANO2-Pad26)*
X96520000Y-62230000D03*
G04 #@! TO.P,NANO2 // Wheel,5*
G04 #@! TO.N,Net-(NANO2-Pad5)*
X96520000Y-46990000D03*
G04 #@! TO.P,NANO2 // Wheel,25*
G04 #@! TO.N,Net-(NANO2-Pad25)*
X93980000Y-62230000D03*
G04 #@! TO.P,NANO2 // Wheel,6*
G04 #@! TO.N,Net-(NANO2-Pad6)*
X93980000Y-46990000D03*
G04 #@! TO.P,NANO2 // Wheel,24*
G04 #@! TO.N,/A5*
X91440000Y-62230000D03*
G04 #@! TO.P,NANO2 // Wheel,7*
G04 #@! TO.N,Net-(NANO2-Pad7)*
X91440000Y-46990000D03*
G04 #@! TO.P,NANO2 // Wheel,23*
G04 #@! TO.N,/A4*
X88900000Y-62230000D03*
G04 #@! TO.P,NANO2 // Wheel,8*
G04 #@! TO.N,Net-(NANO2-Pad8)*
X88900000Y-46990000D03*
G04 #@! TO.P,NANO2 // Wheel,22*
G04 #@! TO.N,Net-(NANO2-Pad22)*
X86360000Y-62230000D03*
G04 #@! TO.P,NANO2 // Wheel,9*
G04 #@! TO.N,Net-(NANO2-Pad9)*
X86360000Y-46990000D03*
G04 #@! TO.P,NANO2 // Wheel,21*
G04 #@! TO.N,Net-(NANO2-Pad21)*
X83820000Y-62230000D03*
G04 #@! TO.P,NANO2 // Wheel,10*
G04 #@! TO.N,Net-(NANO2-Pad10)*
X83820000Y-46990000D03*
G04 #@! TO.P,NANO2 // Wheel,20*
G04 #@! TO.N,Net-(NANO2-Pad20)*
X81280000Y-62230000D03*
G04 #@! TO.P,NANO2 // Wheel,11*
G04 #@! TO.N,Net-(NANO2-Pad11)*
X81280000Y-46990000D03*
G04 #@! TO.P,NANO2 // Wheel,19*
G04 #@! TO.N,Net-(NANO2-Pad19)*
X78740000Y-62230000D03*
G04 #@! TO.P,NANO2 // Wheel,12*
G04 #@! TO.N,Net-(NANO2-Pad12)*
X78740000Y-46990000D03*
G04 #@! TO.P,NANO2 // Wheel,18*
G04 #@! TO.N,Net-(NANO2-Pad18)*
X76200000Y-62230000D03*
G04 #@! TO.P,NANO2 // Wheel,13*
G04 #@! TO.N,/D10*
X76200000Y-46990000D03*
G04 #@! TO.P,NANO2 // Wheel,17*
G04 #@! TO.N,Net-(NANO2-Pad17)*
X73660000Y-62230000D03*
G04 #@! TO.P,NANO2 // Wheel,14*
G04 #@! TO.N,Net-(NANO2-Pad14)*
X73660000Y-46990000D03*
G04 #@! TO.P,NANO2 // Wheel,16*
G04 #@! TO.N,Net-(NANO2-Pad16)*
X71120000Y-62230000D03*
G04 #@! TO.P,NANO2 // Wheel,15*
G04 #@! TO.N,Net-(NANO2-Pad15)*
X71120000Y-46990000D03*
G04 #@! TD*
D11*
G04 #@! TO.P,CAN1,16*
G04 #@! TO.N,/GND*
X116840000Y-44450000D03*
G04 #@! TO.P,CAN1,15*
G04 #@! TO.N,/VCC*
X119380000Y-44450000D03*
G04 #@! TO.P,CAN1,14*
G04 #@! TO.N,Net-(CAN1-Pad14)*
X121920000Y-44450000D03*
G04 #@! TO.P,CAN1,13*
G04 #@! TO.N,Net-(CAN1-Pad13)*
X124460000Y-44450000D03*
G04 #@! TO.P,CAN1,12*
G04 #@! TO.N,Net-(CAN1-Pad12)*
X127000000Y-44450000D03*
G04 #@! TO.P,CAN1,11*
G04 #@! TO.N,Net-(CAN1-Pad11)*
X129540000Y-44450000D03*
G04 #@! TO.P,CAN1,10*
G04 #@! TO.N,/INT*
X132080000Y-44450000D03*
G04 #@! TO.P,CAN1,9*
G04 #@! TO.N,Net-(CAN1-Pad9)*
X134620000Y-44450000D03*
G04 #@! TO.P,CAN1,1*
G04 #@! TO.N,/GND*
X116840000Y-21590000D03*
G04 #@! TO.P,CAN1,2*
G04 #@! TO.N,Net-(CAN1-Pad2)*
X119380000Y-21590000D03*
G04 #@! TO.P,CAN1,3*
G04 #@! TO.N,/SDI*
X121920000Y-21590000D03*
G04 #@! TO.P,CAN1,4*
G04 #@! TO.N,/SDO*
X124460000Y-21590000D03*
G04 #@! TO.P,CAN1,5*
G04 #@! TO.N,/SCK*
X127000000Y-21590000D03*
G04 #@! TO.P,CAN1,6*
G04 #@! TO.N,/CS*
X129540000Y-21590000D03*
G04 #@! TO.P,CAN1,7*
G04 #@! TO.N,/RST*
X132080000Y-21590000D03*
G04 #@! TO.P,CAN1,8*
G04 #@! TO.N,Net-(CAN1-Pad8)*
X134620000Y-21590000D03*
G04 #@! TD*
D12*
G04 #@! TO.P,BUCK1,2*
G04 #@! TO.N,Net-(BUCK1-Pad2)*
X118110000Y-68580000D03*
G04 #@! TO.P,BUCK1,4*
G04 #@! TO.N,/GND*
X123190000Y-68580000D03*
D13*
G04 #@! TO.P,BUCK1,1*
G04 #@! TO.N,Net-(BUCK1-Pad1)*
X115570000Y-68580000D03*
D12*
G04 #@! TO.P,BUCK1,3*
G04 #@! TO.N,/+*
X120650000Y-68580000D03*
G04 #@! TO.P,BUCK1,5*
G04 #@! TO.N,/VCC*
X125730000Y-68580000D03*
G04 #@! TD*
D11*
G04 #@! TO.P,DC1,4*
G04 #@! TO.N,Net-(DC1-Pad4)*
X125730000Y-83660000D03*
G04 #@! TO.P,DC1,3*
G04 #@! TO.N,Net-(DC1-Pad3)*
X114730000Y-83660000D03*
D14*
G04 #@! TO.P,DC1,1*
G04 #@! TO.N,/GND*
X122730000Y-73660000D03*
G04 #@! TO.P,DC1,2*
G04 #@! TO.N,/+*
X117730000Y-73660000D03*
G04 #@! TD*
D10*
G04 #@! TO.P,NANO3 // CVT,15*
G04 #@! TO.N,/SDO*
X71120000Y-26670000D03*
G04 #@! TO.P,NANO3 // CVT,16*
G04 #@! TO.N,/SCK*
X71120000Y-41910000D03*
G04 #@! TO.P,NANO3 // CVT,14*
G04 #@! TO.N,/SDI*
X73660000Y-26670000D03*
G04 #@! TO.P,NANO3 // CVT,17*
G04 #@! TO.N,Net-(NANO3-Pad17)*
X73660000Y-41910000D03*
G04 #@! TO.P,NANO3 // CVT,13*
G04 #@! TO.N,/CS*
X76200000Y-26670000D03*
G04 #@! TO.P,NANO3 // CVT,18*
G04 #@! TO.N,/REF*
X76200000Y-41910000D03*
G04 #@! TO.P,NANO3 // CVT,12*
G04 #@! TO.N,Net-(NANO3-Pad12)*
X78740000Y-26670000D03*
G04 #@! TO.P,NANO3 // CVT,19*
G04 #@! TO.N,Net-(NANO3-Pad19)*
X78740000Y-41910000D03*
G04 #@! TO.P,NANO3 // CVT,11*
G04 #@! TO.N,Net-(NANO3-Pad11)*
X81280000Y-26670000D03*
G04 #@! TO.P,NANO3 // CVT,20*
G04 #@! TO.N,Net-(NANO3-Pad20)*
X81280000Y-41910000D03*
G04 #@! TO.P,NANO3 // CVT,10*
G04 #@! TO.N,Net-(NANO3-Pad10)*
X83820000Y-26670000D03*
G04 #@! TO.P,NANO3 // CVT,21*
G04 #@! TO.N,Net-(NANO3-Pad21)*
X83820000Y-41910000D03*
G04 #@! TO.P,NANO3 // CVT,9*
G04 #@! TO.N,Net-(NANO3-Pad9)*
X86360000Y-26670000D03*
G04 #@! TO.P,NANO3 // CVT,22*
G04 #@! TO.N,Net-(NANO3-Pad22)*
X86360000Y-41910000D03*
G04 #@! TO.P,NANO3 // CVT,8*
G04 #@! TO.N,Net-(NANO3-Pad8)*
X88900000Y-26670000D03*
G04 #@! TO.P,NANO3 // CVT,23*
G04 #@! TO.N,/A4*
X88900000Y-41910000D03*
G04 #@! TO.P,NANO3 // CVT,7*
G04 #@! TO.N,Net-(NANO3-Pad7)*
X91440000Y-26670000D03*
G04 #@! TO.P,NANO3 // CVT,24*
G04 #@! TO.N,/A5*
X91440000Y-41910000D03*
G04 #@! TO.P,NANO3 // CVT,6*
G04 #@! TO.N,Net-(NANO3-Pad6)*
X93980000Y-26670000D03*
G04 #@! TO.P,NANO3 // CVT,25*
G04 #@! TO.N,Net-(NANO3-Pad25)*
X93980000Y-41910000D03*
G04 #@! TO.P,NANO3 // CVT,5*
G04 #@! TO.N,Net-(NANO3-Pad5)*
X96520000Y-26670000D03*
G04 #@! TO.P,NANO3 // CVT,26*
G04 #@! TO.N,Net-(NANO3-Pad26)*
X96520000Y-41910000D03*
G04 #@! TO.P,NANO3 // CVT,4*
G04 #@! TO.N,/GND*
X99060000Y-26670000D03*
G04 #@! TO.P,NANO3 // CVT,27*
G04 #@! TO.N,/VCC*
X99060000Y-41910000D03*
G04 #@! TO.P,NANO3 // CVT,3*
G04 #@! TO.N,/RST*
X101600000Y-26670000D03*
G04 #@! TO.P,NANO3 // CVT,28*
X101600000Y-41910000D03*
G04 #@! TO.P,NANO3 // CVT,2*
G04 #@! TO.N,Net-(NANO3-Pad2)*
X104140000Y-26670000D03*
G04 #@! TO.P,NANO3 // CVT,29*
G04 #@! TO.N,/GND*
X104140000Y-41910000D03*
G04 #@! TO.P,NANO3 // CVT,1*
G04 #@! TO.N,Net-(NANO3-Pad1)*
X106680000Y-26670000D03*
G04 #@! TO.P,NANO3 // CVT,30*
G04 #@! TO.N,Net-(NANO3-Pad30)*
X106680000Y-41910000D03*
G04 #@! TD*
D12*
G04 #@! TO.P,Wheel1,3*
G04 #@! TO.N,/GND*
X64770000Y-46990000D03*
G04 #@! TO.P,Wheel1,2*
G04 #@! TO.N,/D10*
X64770000Y-44450000D03*
D13*
G04 #@! TO.P,Wheel1,1*
G04 #@! TO.N,/VCC*
X64770000Y-41910000D03*
G04 #@! TD*
D15*
G04 #@! TO.N,Net-(C1-Pad1)*
G04 #@! TO.C,R3*
G36*
X119860142Y-48711174D02*
X119883803Y-48714684D01*
X119907007Y-48720496D01*
X119929529Y-48728554D01*
X119951153Y-48738782D01*
X119971670Y-48751079D01*
X119990883Y-48765329D01*
X120008607Y-48781393D01*
X120024671Y-48799117D01*
X120038921Y-48818330D01*
X120051218Y-48838847D01*
X120061446Y-48860471D01*
X120069504Y-48882993D01*
X120075316Y-48906197D01*
X120078826Y-48929858D01*
X120080000Y-48953750D01*
X120080000Y-49441250D01*
X120078826Y-49465142D01*
X120075316Y-49488803D01*
X120069504Y-49512007D01*
X120061446Y-49534529D01*
X120051218Y-49556153D01*
X120038921Y-49576670D01*
X120024671Y-49595883D01*
X120008607Y-49613607D01*
X119990883Y-49629671D01*
X119971670Y-49643921D01*
X119951153Y-49656218D01*
X119929529Y-49666446D01*
X119907007Y-49674504D01*
X119883803Y-49680316D01*
X119860142Y-49683826D01*
X119836250Y-49685000D01*
X118923750Y-49685000D01*
X118899858Y-49683826D01*
X118876197Y-49680316D01*
X118852993Y-49674504D01*
X118830471Y-49666446D01*
X118808847Y-49656218D01*
X118788330Y-49643921D01*
X118769117Y-49629671D01*
X118751393Y-49613607D01*
X118735329Y-49595883D01*
X118721079Y-49576670D01*
X118708782Y-49556153D01*
X118698554Y-49534529D01*
X118690496Y-49512007D01*
X118684684Y-49488803D01*
X118681174Y-49465142D01*
X118680000Y-49441250D01*
X118680000Y-48953750D01*
X118681174Y-48929858D01*
X118684684Y-48906197D01*
X118690496Y-48882993D01*
X118698554Y-48860471D01*
X118708782Y-48838847D01*
X118721079Y-48818330D01*
X118735329Y-48799117D01*
X118751393Y-48781393D01*
X118769117Y-48765329D01*
X118788330Y-48751079D01*
X118808847Y-48738782D01*
X118830471Y-48728554D01*
X118852993Y-48720496D01*
X118876197Y-48714684D01*
X118899858Y-48711174D01*
X118923750Y-48710000D01*
X119836250Y-48710000D01*
X119860142Y-48711174D01*
X119860142Y-48711174D01*
G37*
D16*
G04 #@! TD*
G04 #@! TO.P,R3,2*
G04 #@! TO.N,Net-(C1-Pad1)*
X119380000Y-49197500D03*
D15*
G04 #@! TO.N,/VCC*
G04 #@! TO.C,R3*
G36*
X119860142Y-46836174D02*
X119883803Y-46839684D01*
X119907007Y-46845496D01*
X119929529Y-46853554D01*
X119951153Y-46863782D01*
X119971670Y-46876079D01*
X119990883Y-46890329D01*
X120008607Y-46906393D01*
X120024671Y-46924117D01*
X120038921Y-46943330D01*
X120051218Y-46963847D01*
X120061446Y-46985471D01*
X120069504Y-47007993D01*
X120075316Y-47031197D01*
X120078826Y-47054858D01*
X120080000Y-47078750D01*
X120080000Y-47566250D01*
X120078826Y-47590142D01*
X120075316Y-47613803D01*
X120069504Y-47637007D01*
X120061446Y-47659529D01*
X120051218Y-47681153D01*
X120038921Y-47701670D01*
X120024671Y-47720883D01*
X120008607Y-47738607D01*
X119990883Y-47754671D01*
X119971670Y-47768921D01*
X119951153Y-47781218D01*
X119929529Y-47791446D01*
X119907007Y-47799504D01*
X119883803Y-47805316D01*
X119860142Y-47808826D01*
X119836250Y-47810000D01*
X118923750Y-47810000D01*
X118899858Y-47808826D01*
X118876197Y-47805316D01*
X118852993Y-47799504D01*
X118830471Y-47791446D01*
X118808847Y-47781218D01*
X118788330Y-47768921D01*
X118769117Y-47754671D01*
X118751393Y-47738607D01*
X118735329Y-47720883D01*
X118721079Y-47701670D01*
X118708782Y-47681153D01*
X118698554Y-47659529D01*
X118690496Y-47637007D01*
X118684684Y-47613803D01*
X118681174Y-47590142D01*
X118680000Y-47566250D01*
X118680000Y-47078750D01*
X118681174Y-47054858D01*
X118684684Y-47031197D01*
X118690496Y-47007993D01*
X118698554Y-46985471D01*
X118708782Y-46963847D01*
X118721079Y-46943330D01*
X118735329Y-46924117D01*
X118751393Y-46906393D01*
X118769117Y-46890329D01*
X118788330Y-46876079D01*
X118808847Y-46863782D01*
X118830471Y-46853554D01*
X118852993Y-46845496D01*
X118876197Y-46839684D01*
X118899858Y-46836174D01*
X118923750Y-46835000D01*
X119836250Y-46835000D01*
X119860142Y-46836174D01*
X119860142Y-46836174D01*
G37*
D16*
G04 #@! TD*
G04 #@! TO.P,R3,1*
G04 #@! TO.N,/VCC*
X119380000Y-47322500D03*
D15*
G04 #@! TO.N,Net-(D3-Pad2)*
G04 #@! TO.C,R2*
G36*
X156690142Y-28391174D02*
X156713803Y-28394684D01*
X156737007Y-28400496D01*
X156759529Y-28408554D01*
X156781153Y-28418782D01*
X156801670Y-28431079D01*
X156820883Y-28445329D01*
X156838607Y-28461393D01*
X156854671Y-28479117D01*
X156868921Y-28498330D01*
X156881218Y-28518847D01*
X156891446Y-28540471D01*
X156899504Y-28562993D01*
X156905316Y-28586197D01*
X156908826Y-28609858D01*
X156910000Y-28633750D01*
X156910000Y-29121250D01*
X156908826Y-29145142D01*
X156905316Y-29168803D01*
X156899504Y-29192007D01*
X156891446Y-29214529D01*
X156881218Y-29236153D01*
X156868921Y-29256670D01*
X156854671Y-29275883D01*
X156838607Y-29293607D01*
X156820883Y-29309671D01*
X156801670Y-29323921D01*
X156781153Y-29336218D01*
X156759529Y-29346446D01*
X156737007Y-29354504D01*
X156713803Y-29360316D01*
X156690142Y-29363826D01*
X156666250Y-29365000D01*
X155753750Y-29365000D01*
X155729858Y-29363826D01*
X155706197Y-29360316D01*
X155682993Y-29354504D01*
X155660471Y-29346446D01*
X155638847Y-29336218D01*
X155618330Y-29323921D01*
X155599117Y-29309671D01*
X155581393Y-29293607D01*
X155565329Y-29275883D01*
X155551079Y-29256670D01*
X155538782Y-29236153D01*
X155528554Y-29214529D01*
X155520496Y-29192007D01*
X155514684Y-29168803D01*
X155511174Y-29145142D01*
X155510000Y-29121250D01*
X155510000Y-28633750D01*
X155511174Y-28609858D01*
X155514684Y-28586197D01*
X155520496Y-28562993D01*
X155528554Y-28540471D01*
X155538782Y-28518847D01*
X155551079Y-28498330D01*
X155565329Y-28479117D01*
X155581393Y-28461393D01*
X155599117Y-28445329D01*
X155618330Y-28431079D01*
X155638847Y-28418782D01*
X155660471Y-28408554D01*
X155682993Y-28400496D01*
X155706197Y-28394684D01*
X155729858Y-28391174D01*
X155753750Y-28390000D01*
X156666250Y-28390000D01*
X156690142Y-28391174D01*
X156690142Y-28391174D01*
G37*
D16*
G04 #@! TD*
G04 #@! TO.P,R2,2*
G04 #@! TO.N,Net-(D3-Pad2)*
X156210000Y-28877500D03*
D15*
G04 #@! TO.N,Net-(D1-Pad2)*
G04 #@! TO.C,R2*
G36*
X156690142Y-26516174D02*
X156713803Y-26519684D01*
X156737007Y-26525496D01*
X156759529Y-26533554D01*
X156781153Y-26543782D01*
X156801670Y-26556079D01*
X156820883Y-26570329D01*
X156838607Y-26586393D01*
X156854671Y-26604117D01*
X156868921Y-26623330D01*
X156881218Y-26643847D01*
X156891446Y-26665471D01*
X156899504Y-26687993D01*
X156905316Y-26711197D01*
X156908826Y-26734858D01*
X156910000Y-26758750D01*
X156910000Y-27246250D01*
X156908826Y-27270142D01*
X156905316Y-27293803D01*
X156899504Y-27317007D01*
X156891446Y-27339529D01*
X156881218Y-27361153D01*
X156868921Y-27381670D01*
X156854671Y-27400883D01*
X156838607Y-27418607D01*
X156820883Y-27434671D01*
X156801670Y-27448921D01*
X156781153Y-27461218D01*
X156759529Y-27471446D01*
X156737007Y-27479504D01*
X156713803Y-27485316D01*
X156690142Y-27488826D01*
X156666250Y-27490000D01*
X155753750Y-27490000D01*
X155729858Y-27488826D01*
X155706197Y-27485316D01*
X155682993Y-27479504D01*
X155660471Y-27471446D01*
X155638847Y-27461218D01*
X155618330Y-27448921D01*
X155599117Y-27434671D01*
X155581393Y-27418607D01*
X155565329Y-27400883D01*
X155551079Y-27381670D01*
X155538782Y-27361153D01*
X155528554Y-27339529D01*
X155520496Y-27317007D01*
X155514684Y-27293803D01*
X155511174Y-27270142D01*
X155510000Y-27246250D01*
X155510000Y-26758750D01*
X155511174Y-26734858D01*
X155514684Y-26711197D01*
X155520496Y-26687993D01*
X155528554Y-26665471D01*
X155538782Y-26643847D01*
X155551079Y-26623330D01*
X155565329Y-26604117D01*
X155581393Y-26586393D01*
X155599117Y-26570329D01*
X155618330Y-26556079D01*
X155638847Y-26543782D01*
X155660471Y-26533554D01*
X155682993Y-26525496D01*
X155706197Y-26519684D01*
X155729858Y-26516174D01*
X155753750Y-26515000D01*
X156666250Y-26515000D01*
X156690142Y-26516174D01*
X156690142Y-26516174D01*
G37*
D16*
G04 #@! TD*
G04 #@! TO.P,R2,1*
G04 #@! TO.N,Net-(D1-Pad2)*
X156210000Y-27002500D03*
D15*
G04 #@! TO.N,Net-(D2-Pad1)*
G04 #@! TO.C,R1*
G36*
X151610142Y-50646174D02*
X151633803Y-50649684D01*
X151657007Y-50655496D01*
X151679529Y-50663554D01*
X151701153Y-50673782D01*
X151721670Y-50686079D01*
X151740883Y-50700329D01*
X151758607Y-50716393D01*
X151774671Y-50734117D01*
X151788921Y-50753330D01*
X151801218Y-50773847D01*
X151811446Y-50795471D01*
X151819504Y-50817993D01*
X151825316Y-50841197D01*
X151828826Y-50864858D01*
X151830000Y-50888750D01*
X151830000Y-51376250D01*
X151828826Y-51400142D01*
X151825316Y-51423803D01*
X151819504Y-51447007D01*
X151811446Y-51469529D01*
X151801218Y-51491153D01*
X151788921Y-51511670D01*
X151774671Y-51530883D01*
X151758607Y-51548607D01*
X151740883Y-51564671D01*
X151721670Y-51578921D01*
X151701153Y-51591218D01*
X151679529Y-51601446D01*
X151657007Y-51609504D01*
X151633803Y-51615316D01*
X151610142Y-51618826D01*
X151586250Y-51620000D01*
X150673750Y-51620000D01*
X150649858Y-51618826D01*
X150626197Y-51615316D01*
X150602993Y-51609504D01*
X150580471Y-51601446D01*
X150558847Y-51591218D01*
X150538330Y-51578921D01*
X150519117Y-51564671D01*
X150501393Y-51548607D01*
X150485329Y-51530883D01*
X150471079Y-51511670D01*
X150458782Y-51491153D01*
X150448554Y-51469529D01*
X150440496Y-51447007D01*
X150434684Y-51423803D01*
X150431174Y-51400142D01*
X150430000Y-51376250D01*
X150430000Y-50888750D01*
X150431174Y-50864858D01*
X150434684Y-50841197D01*
X150440496Y-50817993D01*
X150448554Y-50795471D01*
X150458782Y-50773847D01*
X150471079Y-50753330D01*
X150485329Y-50734117D01*
X150501393Y-50716393D01*
X150519117Y-50700329D01*
X150538330Y-50686079D01*
X150558847Y-50673782D01*
X150580471Y-50663554D01*
X150602993Y-50655496D01*
X150626197Y-50649684D01*
X150649858Y-50646174D01*
X150673750Y-50645000D01*
X151586250Y-50645000D01*
X151610142Y-50646174D01*
X151610142Y-50646174D01*
G37*
D16*
G04 #@! TD*
G04 #@! TO.P,R1,2*
G04 #@! TO.N,Net-(D2-Pad1)*
X151130000Y-51132500D03*
D15*
G04 #@! TO.N,Net-(D3-Pad2)*
G04 #@! TO.C,R1*
G36*
X151610142Y-52521174D02*
X151633803Y-52524684D01*
X151657007Y-52530496D01*
X151679529Y-52538554D01*
X151701153Y-52548782D01*
X151721670Y-52561079D01*
X151740883Y-52575329D01*
X151758607Y-52591393D01*
X151774671Y-52609117D01*
X151788921Y-52628330D01*
X151801218Y-52648847D01*
X151811446Y-52670471D01*
X151819504Y-52692993D01*
X151825316Y-52716197D01*
X151828826Y-52739858D01*
X151830000Y-52763750D01*
X151830000Y-53251250D01*
X151828826Y-53275142D01*
X151825316Y-53298803D01*
X151819504Y-53322007D01*
X151811446Y-53344529D01*
X151801218Y-53366153D01*
X151788921Y-53386670D01*
X151774671Y-53405883D01*
X151758607Y-53423607D01*
X151740883Y-53439671D01*
X151721670Y-53453921D01*
X151701153Y-53466218D01*
X151679529Y-53476446D01*
X151657007Y-53484504D01*
X151633803Y-53490316D01*
X151610142Y-53493826D01*
X151586250Y-53495000D01*
X150673750Y-53495000D01*
X150649858Y-53493826D01*
X150626197Y-53490316D01*
X150602993Y-53484504D01*
X150580471Y-53476446D01*
X150558847Y-53466218D01*
X150538330Y-53453921D01*
X150519117Y-53439671D01*
X150501393Y-53423607D01*
X150485329Y-53405883D01*
X150471079Y-53386670D01*
X150458782Y-53366153D01*
X150448554Y-53344529D01*
X150440496Y-53322007D01*
X150434684Y-53298803D01*
X150431174Y-53275142D01*
X150430000Y-53251250D01*
X150430000Y-52763750D01*
X150431174Y-52739858D01*
X150434684Y-52716197D01*
X150440496Y-52692993D01*
X150448554Y-52670471D01*
X150458782Y-52648847D01*
X150471079Y-52628330D01*
X150485329Y-52609117D01*
X150501393Y-52591393D01*
X150519117Y-52575329D01*
X150538330Y-52561079D01*
X150558847Y-52548782D01*
X150580471Y-52538554D01*
X150602993Y-52530496D01*
X150626197Y-52524684D01*
X150649858Y-52521174D01*
X150673750Y-52520000D01*
X151586250Y-52520000D01*
X151610142Y-52521174D01*
X151610142Y-52521174D01*
G37*
D16*
G04 #@! TD*
G04 #@! TO.P,R1,1*
G04 #@! TO.N,Net-(D3-Pad2)*
X151130000Y-53007500D03*
D17*
G04 #@! TO.P,Q1,1*
G04 #@! TO.N,/GND*
X124460000Y-48260000D03*
D18*
G04 #@! TO.P,Q1,3*
G04 #@! TO.N,Net-(C1-Pad1)*
X124460000Y-50800000D03*
G04 #@! TO.P,Q1,2*
G04 #@! TO.N,Net-(D3-Pad1)*
X124460000Y-49530000D03*
G04 #@! TD*
D10*
G04 #@! TO.P,NANO1 // Tach,30*
G04 #@! TO.N,Net-(NANO1-Pad30)*
X106680000Y-82550000D03*
G04 #@! TO.P,NANO1 // Tach,1*
G04 #@! TO.N,Net-(NANO1-Pad1)*
X106680000Y-67310000D03*
G04 #@! TO.P,NANO1 // Tach,29*
G04 #@! TO.N,/GND*
X104140000Y-82550000D03*
G04 #@! TO.P,NANO1 // Tach,2*
G04 #@! TO.N,Net-(NANO1-Pad2)*
X104140000Y-67310000D03*
G04 #@! TO.P,NANO1 // Tach,28*
G04 #@! TO.N,/RST*
X101600000Y-82550000D03*
G04 #@! TO.P,NANO1 // Tach,3*
X101600000Y-67310000D03*
G04 #@! TO.P,NANO1 // Tach,27*
G04 #@! TO.N,/VCC*
X99060000Y-82550000D03*
G04 #@! TO.P,NANO1 // Tach,4*
G04 #@! TO.N,/GND*
X99060000Y-67310000D03*
G04 #@! TO.P,NANO1 // Tach,26*
G04 #@! TO.N,Net-(NANO1-Pad26)*
X96520000Y-82550000D03*
G04 #@! TO.P,NANO1 // Tach,5*
G04 #@! TO.N,Net-(NANO1-Pad5)*
X96520000Y-67310000D03*
G04 #@! TO.P,NANO1 // Tach,25*
G04 #@! TO.N,Net-(NANO1-Pad25)*
X93980000Y-82550000D03*
G04 #@! TO.P,NANO1 // Tach,6*
G04 #@! TO.N,Net-(NANO1-Pad6)*
X93980000Y-67310000D03*
G04 #@! TO.P,NANO1 // Tach,24*
G04 #@! TO.N,/A5*
X91440000Y-82550000D03*
G04 #@! TO.P,NANO1 // Tach,7*
G04 #@! TO.N,Net-(NANO1-Pad7)*
X91440000Y-67310000D03*
G04 #@! TO.P,NANO1 // Tach,23*
G04 #@! TO.N,/A4*
X88900000Y-82550000D03*
G04 #@! TO.P,NANO1 // Tach,8*
G04 #@! TO.N,Net-(NANO1-Pad8)*
X88900000Y-67310000D03*
G04 #@! TO.P,NANO1 // Tach,22*
G04 #@! TO.N,Net-(NANO1-Pad22)*
X86360000Y-82550000D03*
G04 #@! TO.P,NANO1 // Tach,9*
G04 #@! TO.N,Net-(NANO1-Pad9)*
X86360000Y-67310000D03*
G04 #@! TO.P,NANO1 // Tach,21*
G04 #@! TO.N,Net-(NANO1-Pad21)*
X83820000Y-82550000D03*
G04 #@! TO.P,NANO1 // Tach,10*
G04 #@! TO.N,Net-(NANO1-Pad10)*
X83820000Y-67310000D03*
G04 #@! TO.P,NANO1 // Tach,20*
G04 #@! TO.N,Net-(NANO1-Pad20)*
X81280000Y-82550000D03*
G04 #@! TO.P,NANO1 // Tach,11*
G04 #@! TO.N,Net-(NANO1-Pad11)*
X81280000Y-67310000D03*
G04 #@! TO.P,NANO1 // Tach,19*
G04 #@! TO.N,/A0*
X78740000Y-82550000D03*
G04 #@! TO.P,NANO1 // Tach,12*
G04 #@! TO.N,Net-(NANO1-Pad12)*
X78740000Y-67310000D03*
G04 #@! TO.P,NANO1 // Tach,18*
G04 #@! TO.N,Net-(NANO1-Pad18)*
X76200000Y-82550000D03*
G04 #@! TO.P,NANO1 // Tach,13*
G04 #@! TO.N,Net-(NANO1-Pad13)*
X76200000Y-67310000D03*
G04 #@! TO.P,NANO1 // Tach,17*
G04 #@! TO.N,Net-(NANO1-Pad17)*
X73660000Y-82550000D03*
G04 #@! TO.P,NANO1 // Tach,14*
G04 #@! TO.N,Net-(NANO1-Pad14)*
X73660000Y-67310000D03*
G04 #@! TO.P,NANO1 // Tach,16*
G04 #@! TO.N,Net-(NANO1-Pad16)*
X71120000Y-82550000D03*
G04 #@! TO.P,NANO1 // Tach,15*
G04 #@! TO.N,Net-(NANO1-Pad15)*
X71120000Y-67310000D03*
G04 #@! TD*
D12*
G04 #@! TO.P,In2,2*
G04 #@! TO.N,N/C*
X154940000Y-20320000D03*
D13*
G04 #@! TO.P,In2,1*
G04 #@! TO.N,Net-(D1-Pad2)*
X154940000Y-22860000D03*
G04 #@! TD*
D12*
G04 #@! TO.P,In1,2*
G04 #@! TO.N,N/C*
X151130000Y-20320000D03*
D13*
G04 #@! TO.P,In1,1*
G04 #@! TO.N,Net-(D1-Pad1)*
X151130000Y-22860000D03*
G04 #@! TD*
D15*
G04 #@! TO.N,/GND*
G04 #@! TO.C,DNP1*
G36*
X156690142Y-52521174D02*
X156713803Y-52524684D01*
X156737007Y-52530496D01*
X156759529Y-52538554D01*
X156781153Y-52548782D01*
X156801670Y-52561079D01*
X156820883Y-52575329D01*
X156838607Y-52591393D01*
X156854671Y-52609117D01*
X156868921Y-52628330D01*
X156881218Y-52648847D01*
X156891446Y-52670471D01*
X156899504Y-52692993D01*
X156905316Y-52716197D01*
X156908826Y-52739858D01*
X156910000Y-52763750D01*
X156910000Y-53251250D01*
X156908826Y-53275142D01*
X156905316Y-53298803D01*
X156899504Y-53322007D01*
X156891446Y-53344529D01*
X156881218Y-53366153D01*
X156868921Y-53386670D01*
X156854671Y-53405883D01*
X156838607Y-53423607D01*
X156820883Y-53439671D01*
X156801670Y-53453921D01*
X156781153Y-53466218D01*
X156759529Y-53476446D01*
X156737007Y-53484504D01*
X156713803Y-53490316D01*
X156690142Y-53493826D01*
X156666250Y-53495000D01*
X155753750Y-53495000D01*
X155729858Y-53493826D01*
X155706197Y-53490316D01*
X155682993Y-53484504D01*
X155660471Y-53476446D01*
X155638847Y-53466218D01*
X155618330Y-53453921D01*
X155599117Y-53439671D01*
X155581393Y-53423607D01*
X155565329Y-53405883D01*
X155551079Y-53386670D01*
X155538782Y-53366153D01*
X155528554Y-53344529D01*
X155520496Y-53322007D01*
X155514684Y-53298803D01*
X155511174Y-53275142D01*
X155510000Y-53251250D01*
X155510000Y-52763750D01*
X155511174Y-52739858D01*
X155514684Y-52716197D01*
X155520496Y-52692993D01*
X155528554Y-52670471D01*
X155538782Y-52648847D01*
X155551079Y-52628330D01*
X155565329Y-52609117D01*
X155581393Y-52591393D01*
X155599117Y-52575329D01*
X155618330Y-52561079D01*
X155638847Y-52548782D01*
X155660471Y-52538554D01*
X155682993Y-52530496D01*
X155706197Y-52524684D01*
X155729858Y-52521174D01*
X155753750Y-52520000D01*
X156666250Y-52520000D01*
X156690142Y-52521174D01*
X156690142Y-52521174D01*
G37*
D16*
G04 #@! TD*
G04 #@! TO.P,DNP1,2*
G04 #@! TO.N,/GND*
X156210000Y-53007500D03*
D15*
G04 #@! TO.N,Net-(D4-Pad2)*
G04 #@! TO.C,DNP1*
G36*
X156690142Y-50646174D02*
X156713803Y-50649684D01*
X156737007Y-50655496D01*
X156759529Y-50663554D01*
X156781153Y-50673782D01*
X156801670Y-50686079D01*
X156820883Y-50700329D01*
X156838607Y-50716393D01*
X156854671Y-50734117D01*
X156868921Y-50753330D01*
X156881218Y-50773847D01*
X156891446Y-50795471D01*
X156899504Y-50817993D01*
X156905316Y-50841197D01*
X156908826Y-50864858D01*
X156910000Y-50888750D01*
X156910000Y-51376250D01*
X156908826Y-51400142D01*
X156905316Y-51423803D01*
X156899504Y-51447007D01*
X156891446Y-51469529D01*
X156881218Y-51491153D01*
X156868921Y-51511670D01*
X156854671Y-51530883D01*
X156838607Y-51548607D01*
X156820883Y-51564671D01*
X156801670Y-51578921D01*
X156781153Y-51591218D01*
X156759529Y-51601446D01*
X156737007Y-51609504D01*
X156713803Y-51615316D01*
X156690142Y-51618826D01*
X156666250Y-51620000D01*
X155753750Y-51620000D01*
X155729858Y-51618826D01*
X155706197Y-51615316D01*
X155682993Y-51609504D01*
X155660471Y-51601446D01*
X155638847Y-51591218D01*
X155618330Y-51578921D01*
X155599117Y-51564671D01*
X155581393Y-51548607D01*
X155565329Y-51530883D01*
X155551079Y-51511670D01*
X155538782Y-51491153D01*
X155528554Y-51469529D01*
X155520496Y-51447007D01*
X155514684Y-51423803D01*
X155511174Y-51400142D01*
X155510000Y-51376250D01*
X155510000Y-50888750D01*
X155511174Y-50864858D01*
X155514684Y-50841197D01*
X155520496Y-50817993D01*
X155528554Y-50795471D01*
X155538782Y-50773847D01*
X155551079Y-50753330D01*
X155565329Y-50734117D01*
X155581393Y-50716393D01*
X155599117Y-50700329D01*
X155618330Y-50686079D01*
X155638847Y-50673782D01*
X155660471Y-50663554D01*
X155682993Y-50655496D01*
X155706197Y-50649684D01*
X155729858Y-50646174D01*
X155753750Y-50645000D01*
X156666250Y-50645000D01*
X156690142Y-50646174D01*
X156690142Y-50646174D01*
G37*
D16*
G04 #@! TD*
G04 #@! TO.P,DNP1,1*
G04 #@! TO.N,Net-(D4-Pad2)*
X156210000Y-51132500D03*
D19*
G04 #@! TO.P,DIP1,14*
G04 #@! TO.N,/VCC*
X130810000Y-76200000D03*
G04 #@! TO.P,DIP1,7*
G04 #@! TO.N,/GND*
X146050000Y-83820000D03*
G04 #@! TO.P,DIP1,13*
G04 #@! TO.N,Net-(C1-Pad1)*
X133350000Y-76200000D03*
G04 #@! TO.P,DIP1,6*
G04 #@! TO.N,Net-(DIP1-Pad6)*
X143510000Y-83820000D03*
G04 #@! TO.P,DIP1,12*
G04 #@! TO.N,/A0*
X135890000Y-76200000D03*
G04 #@! TO.P,DIP1,5*
G04 #@! TO.N,Net-(DIP1-Pad5)*
X140970000Y-83820000D03*
G04 #@! TO.P,DIP1,11*
G04 #@! TO.N,Net-(DIP1-Pad11)*
X138430000Y-76200000D03*
G04 #@! TO.P,DIP1,4*
G04 #@! TO.N,Net-(DIP1-Pad4)*
X138430000Y-83820000D03*
G04 #@! TO.P,DIP1,10*
G04 #@! TO.N,Net-(DIP1-Pad10)*
X140970000Y-76200000D03*
G04 #@! TO.P,DIP1,3*
G04 #@! TO.N,Net-(DIP1-Pad3)*
X135890000Y-83820000D03*
G04 #@! TO.P,DIP1,9*
G04 #@! TO.N,Net-(DIP1-Pad9)*
X143510000Y-76200000D03*
G04 #@! TO.P,DIP1,2*
G04 #@! TO.N,Net-(DIP1-Pad2)*
X133350000Y-83820000D03*
G04 #@! TO.P,DIP1,8*
G04 #@! TO.N,Net-(DIP1-Pad8)*
X146050000Y-76200000D03*
D20*
G04 #@! TO.P,DIP1,1*
G04 #@! TO.N,Net-(C1-Pad1)*
X130810000Y-83820000D03*
G04 #@! TD*
D21*
G04 #@! TO.P,D4,2*
G04 #@! TO.N,Net-(D4-Pad2)*
X156210000Y-48260000D03*
D22*
G04 #@! TO.P,D4,1*
G04 #@! TO.N,Net-(D3-Pad1)*
X156210000Y-40640000D03*
G04 #@! TD*
D23*
G04 #@! TO.P,D3,2*
G04 #@! TO.N,Net-(D3-Pad2)*
X156210000Y-31750000D03*
D24*
G04 #@! TO.P,D3,1*
G04 #@! TO.N,Net-(D3-Pad1)*
X156210000Y-36830000D03*
G04 #@! TD*
D21*
G04 #@! TO.P,D2,2*
G04 #@! TO.N,Net-(D1-Pad1)*
X151130000Y-39370000D03*
D22*
G04 #@! TO.P,D2,1*
G04 #@! TO.N,Net-(D2-Pad1)*
X151130000Y-46990000D03*
G04 #@! TD*
D21*
G04 #@! TO.P,D1,2*
G04 #@! TO.N,Net-(D1-Pad2)*
X151130000Y-27940000D03*
D22*
G04 #@! TO.P,D1,1*
G04 #@! TO.N,Net-(D1-Pad1)*
X151130000Y-35560000D03*
G04 #@! TD*
D12*
G04 #@! TO.P,CVT1,4*
G04 #@! TO.N,/GND*
X64770000Y-20320000D03*
G04 #@! TO.P,CVT1,3*
G04 #@! TO.N,/A5*
X64770000Y-22860000D03*
G04 #@! TO.P,CVT1,2*
G04 #@! TO.N,/A4*
X64770000Y-25400000D03*
D13*
G04 #@! TO.P,CVT1,1*
G04 #@! TO.N,/VCC*
X64770000Y-27940000D03*
G04 #@! TD*
D25*
G04 #@! TO.P,C2,2*
G04 #@! TO.N,/GND*
X134620000Y-55960000D03*
G04 #@! TO.P,C2,1*
G04 #@! TO.N,/A0*
X134620000Y-60960000D03*
G04 #@! TD*
G04 #@! TO.P,C1,2*
G04 #@! TO.N,/GND*
X140810000Y-50800000D03*
G04 #@! TO.P,C1,1*
G04 #@! TO.N,Net-(C1-Pad1)*
X130810000Y-50800000D03*
G04 #@! TD*
D26*
G04 #@! TO.N,/GND*
X92710000Y-80010000D03*
X149860000Y-83820000D03*
X156210000Y-83820000D03*
X156210000Y-78740000D03*
X156210000Y-73660000D03*
X156210000Y-68580000D03*
X156210000Y-63500000D03*
X156210000Y-58420000D03*
X156210000Y-53007500D03*
X146050000Y-52070000D03*
X151130000Y-57150000D03*
X146050000Y-57150000D03*
X135890000Y-52070000D03*
X135890000Y-58420000D03*
X138430000Y-60960000D03*
X138430000Y-66040000D03*
X138430000Y-71120000D03*
X130810000Y-69850000D03*
X130810000Y-64770000D03*
X130810000Y-59690000D03*
X130810000Y-54610000D03*
X129540000Y-53340000D03*
X124460000Y-53340000D03*
X119380000Y-52070000D03*
X121920000Y-48260000D03*
X119380000Y-77470000D03*
X125730000Y-77470000D03*
X125730000Y-72390000D03*
X116840000Y-82550000D03*
X121920000Y-82550000D03*
X92710000Y-74930000D03*
X92710000Y-69850000D03*
X97790000Y-69850000D03*
X102870000Y-69850000D03*
X107950000Y-69850000D03*
X111760000Y-68580000D03*
X97790000Y-80010000D03*
X102870000Y-80010000D03*
X113030000Y-77470000D03*
X120650000Y-63500000D03*
X115570000Y-63500000D03*
X110490000Y-63500000D03*
X105410000Y-63500000D03*
X102870000Y-58420000D03*
X102870000Y-53340000D03*
X102870000Y-48260000D03*
X116840000Y-48260000D03*
X135890000Y-46990000D03*
X140970000Y-46990000D03*
X146050000Y-46990000D03*
X149860000Y-43180000D03*
X64770000Y-49530000D03*
X64770000Y-54610000D03*
X64770000Y-59690000D03*
X64770000Y-64770000D03*
X64770000Y-69850000D03*
X64770000Y-74930000D03*
X64770000Y-80010000D03*
X85090000Y-80010000D03*
X85090000Y-74930000D03*
X85090000Y-69850000D03*
X85090000Y-64770000D03*
X92710000Y-64770000D03*
X100330000Y-64770000D03*
X99060000Y-54610000D03*
X97790000Y-59690000D03*
X87630000Y-59690000D03*
X87630000Y-54610000D03*
X80010000Y-64770000D03*
X74930000Y-64770000D03*
X69850000Y-64770000D03*
X82550000Y-59690000D03*
X77470000Y-59690000D03*
X72390000Y-59690000D03*
X80010000Y-69850000D03*
X74930000Y-69850000D03*
X69850000Y-69850000D03*
X80010000Y-80010000D03*
X74930000Y-80010000D03*
X69850000Y-80010000D03*
X93980000Y-59690000D03*
X93980000Y-54610000D03*
X88900000Y-36830000D03*
X81280000Y-29210000D03*
X85090000Y-33020000D03*
X86360000Y-29210000D03*
X91440000Y-29210000D03*
X96520000Y-29210000D03*
X101600000Y-29210000D03*
X106680000Y-29210000D03*
X111760000Y-29210000D03*
X116840000Y-29210000D03*
X121920000Y-29210000D03*
X127000000Y-26670000D03*
X130810000Y-22860000D03*
X130810000Y-46990000D03*
X125730000Y-46990000D03*
X125730000Y-41910000D03*
X130810000Y-41910000D03*
X135890000Y-41910000D03*
X147320000Y-33020000D03*
X148590000Y-38100000D03*
X147320000Y-27940000D03*
X148590000Y-24130000D03*
X148590000Y-20320000D03*
X144780000Y-20320000D03*
X139700000Y-20320000D03*
X135890000Y-22860000D03*
X74930000Y-20320000D03*
X72390000Y-22860000D03*
X66040000Y-21590000D03*
X95250000Y-36830000D03*
X101600000Y-39370000D03*
X109220000Y-41910000D03*
X114300000Y-41910000D03*
X120650000Y-41910000D03*
X109220000Y-36830000D03*
X106680000Y-36830000D03*
X106680000Y-34290000D03*
X106680000Y-31750000D03*
X109220000Y-31750000D03*
X109220000Y-34290000D03*
X109220000Y-26670000D03*
X106680000Y-52070000D03*
X106680000Y-54610000D03*
X106680000Y-57150000D03*
X109220000Y-57150000D03*
X109220000Y-54610000D03*
X109220000Y-52070000D03*
X109220000Y-62230000D03*
X68580000Y-62230000D03*
X68580000Y-67310000D03*
X68580000Y-82550000D03*
X64770000Y-83820000D03*
X109220000Y-82550000D03*
X109220000Y-77470000D03*
X111760000Y-73660000D03*
X111760000Y-53340000D03*
X111760000Y-33020000D03*
X109220000Y-72390000D03*
X109220000Y-67310000D03*
X109220000Y-74930000D03*
X106680000Y-74930000D03*
X106680000Y-77470000D03*
X106680000Y-72390000D03*
X93980000Y-44450000D03*
X99060000Y-44450000D03*
X72390000Y-50800000D03*
X68580000Y-50800000D03*
X77470000Y-49530000D03*
X82550000Y-49530000D03*
X87630000Y-49530000D03*
X93980000Y-49530000D03*
X99060000Y-49530000D03*
X102870000Y-44450000D03*
X102870000Y-44450000D03*
X102870000Y-44450000D03*
X109220000Y-44450000D03*
X114300000Y-44450000D03*
X109220000Y-46990000D03*
X106680000Y-39370000D03*
X128270000Y-82550000D03*
X135890000Y-78740000D03*
X135890000Y-81280000D03*
X142240000Y-81280000D03*
X140970000Y-52070000D03*
X116840000Y-26670000D03*
X116840000Y-24130000D03*
X106680000Y-24130000D03*
X101600000Y-24130000D03*
X96520000Y-24130000D03*
X91440000Y-24130000D03*
X86360000Y-24130000D03*
X81280000Y-24130000D03*
X81280000Y-21590000D03*
X86360000Y-21590000D03*
X91440000Y-21590000D03*
X96520000Y-21590000D03*
X101600000Y-21590000D03*
X106680000Y-21590000D03*
X111760000Y-21590000D03*
X74930000Y-24130000D03*
X130810000Y-20320000D03*
G04 #@! TO.N,/VCC*
X97790000Y-39370000D03*
X72390000Y-39370000D03*
X125730000Y-64770000D03*
G04 #@! TO.N,/A0*
X133350000Y-80010000D03*
X128270000Y-80010000D03*
G04 #@! TO.N,/SCK*
X69850000Y-19050000D03*
X77470000Y-33020000D03*
G04 #@! TD*
D27*
G04 #@! TO.N,/GND*
X156210000Y-53007500D02*
X156210000Y-53007500D01*
X155272500Y-53007500D02*
X152400000Y-55880000D01*
X152400000Y-55880000D02*
X149860000Y-55880000D01*
X144780000Y-50800000D02*
X140810000Y-50800000D01*
X149860000Y-55880000D02*
X146050000Y-52070000D01*
X140810000Y-50800000D02*
X138430000Y-50800000D01*
X134620000Y-54610000D02*
X134620000Y-55960000D01*
X138430000Y-50800000D02*
X134620000Y-54610000D01*
X156210000Y-53007500D02*
X155272500Y-53007500D01*
X146050000Y-52070000D02*
X144780000Y-50800000D01*
G04 #@! TO.N,/VCC*
X64770000Y-27940000D02*
X63500000Y-29210000D01*
X63500000Y-29210000D02*
X63500000Y-40640000D01*
X63500000Y-40640000D02*
X64770000Y-41910000D01*
X64770000Y-41910000D02*
X66128000Y-41910000D01*
X66128000Y-41910000D02*
X67310000Y-41910000D01*
X67310000Y-41910000D02*
X68580000Y-41910000D01*
X68580000Y-41910000D02*
X71120000Y-39370000D01*
X71120000Y-39370000D02*
X72390000Y-39370000D01*
X72390000Y-39370000D02*
X72390000Y-39370000D01*
X97790000Y-39370000D02*
X99060000Y-40640000D01*
X99060000Y-40640000D02*
X99060000Y-41910000D01*
X118618001Y-43688001D02*
X119380000Y-44450000D01*
X118110000Y-43180000D02*
X118618001Y-43688001D01*
X100330000Y-43180000D02*
X118110000Y-43180000D01*
X99060000Y-41910000D02*
X100330000Y-43180000D01*
X123218599Y-66068599D02*
X125730000Y-68580000D01*
X104168599Y-66068599D02*
X123218599Y-66068599D01*
X100330000Y-43180000D02*
X100330000Y-57150000D01*
X100330000Y-57150000D02*
X99060000Y-58420000D01*
X130810000Y-73660000D02*
X125730000Y-68580000D01*
X130810000Y-76200000D02*
X130810000Y-73660000D01*
X109898521Y-83791401D02*
X123839922Y-69850000D01*
X99060000Y-82550000D02*
X100301401Y-83791401D01*
X100301401Y-83791401D02*
X109898521Y-83791401D01*
X123839922Y-69850000D02*
X125730000Y-69850000D01*
X125730000Y-69850000D02*
X125730000Y-68580000D01*
X119380000Y-44450000D02*
X119380000Y-47322500D01*
X99060000Y-58420000D02*
X99060000Y-62230000D01*
X99060000Y-62230000D02*
X102870000Y-66040000D01*
X104140000Y-66040000D02*
X104168599Y-66068599D01*
X102870000Y-66040000D02*
X104140000Y-66040000D01*
G04 #@! TO.N,/A5*
X64770000Y-22860000D02*
X72390000Y-30480000D01*
X80010000Y-30480000D02*
X91440000Y-41910000D01*
X72390000Y-30480000D02*
X80010000Y-30480000D01*
X90170000Y-81280000D02*
X91440000Y-82550000D01*
X92710000Y-60960000D02*
X91440000Y-62230000D01*
X91440000Y-41910000D02*
X92710000Y-43180000D01*
X92710000Y-43180000D02*
X92710000Y-60960000D01*
X91440000Y-62230000D02*
X90170000Y-63500000D01*
X90170000Y-63500000D02*
X90170000Y-81280000D01*
G04 #@! TO.N,/A4*
X71120000Y-31750000D02*
X64770000Y-25400000D01*
X88900000Y-41910000D02*
X78740000Y-31750000D01*
X78740000Y-31750000D02*
X71120000Y-31750000D01*
X87630000Y-81280000D02*
X88900000Y-82550000D01*
X90170000Y-60960000D02*
X88900000Y-62230000D01*
X88900000Y-41910000D02*
X90170000Y-43180000D01*
X90170000Y-43180000D02*
X90170000Y-60960000D01*
X88900000Y-62230000D02*
X87630000Y-63500000D01*
X87630000Y-63500000D02*
X87630000Y-81280000D01*
G04 #@! TO.N,/A0*
X128270000Y-80010000D02*
X115570000Y-80010000D01*
X115570000Y-80010000D02*
X110490000Y-85090000D01*
X81280000Y-85090000D02*
X78740000Y-82550000D01*
X110490000Y-85090000D02*
X81280000Y-85090000D01*
X133350000Y-78740000D02*
X135890000Y-76200000D01*
X133350000Y-80010000D02*
X133350000Y-78740000D01*
X134620000Y-60960000D02*
X135890000Y-62230000D01*
X135890000Y-62230000D02*
X135890000Y-76200000D01*
G04 #@! TO.N,/D10*
X74930000Y-48260000D02*
X76200000Y-46990000D01*
X64770000Y-44450000D02*
X68580000Y-48260000D01*
X68580000Y-48260000D02*
X74930000Y-48260000D01*
G04 #@! TO.N,/SDI*
X120703999Y-22806001D02*
X121920000Y-21590000D01*
X120703999Y-22806001D02*
X77523999Y-22806001D01*
X73660000Y-26670000D02*
X74930000Y-25400000D01*
X77523999Y-22806001D02*
X74930000Y-25400000D01*
X74930000Y-25400000D02*
X74983999Y-25346001D01*
G04 #@! TO.N,/SCK*
X127000000Y-21590000D02*
X124460000Y-19050000D01*
X69850000Y-19050000D02*
X124460000Y-19050000D01*
X71120000Y-41910000D02*
X72390000Y-40640000D01*
X72390000Y-40640000D02*
X80010000Y-40640000D01*
X80010000Y-40640000D02*
X81280000Y-39370000D01*
X81280000Y-39370000D02*
X81280000Y-36830000D01*
X81280000Y-36830000D02*
X78740000Y-34290000D01*
X78740000Y-34290000D02*
X77470000Y-33020000D01*
G04 #@! TO.N,Net-(C1-Pad1)*
X130810000Y-78740000D02*
X133350000Y-76200000D01*
X130810000Y-83820000D02*
X130810000Y-78740000D01*
X120982500Y-50800000D02*
X124460000Y-50800000D01*
X119380000Y-49197500D02*
X120982500Y-50800000D01*
X124460000Y-50800000D02*
X130810000Y-50800000D01*
X133350000Y-53340000D02*
X133350000Y-76200000D01*
X130810000Y-50800000D02*
X133350000Y-53340000D01*
G04 #@! TO.N,/CS*
X77441401Y-27940000D02*
X76200000Y-26698599D01*
X129540000Y-21590000D02*
X123190000Y-27940000D01*
X123190000Y-27940000D02*
X77441401Y-27940000D01*
G04 #@! TO.N,/SDO*
X77416001Y-20373999D02*
X74876001Y-22913999D01*
X124460000Y-21590000D02*
X123243999Y-20373999D01*
X74876001Y-22913999D02*
X71120000Y-26670000D01*
X123243999Y-20373999D02*
X77416001Y-20373999D01*
G04 #@! TO.N,Net-(D1-Pad2)*
X154940000Y-22860000D02*
X156210000Y-24130000D01*
X156210000Y-24130000D02*
X156210000Y-27002500D01*
X156210000Y-27002500D02*
X155272500Y-27940000D01*
X155272500Y-27940000D02*
X151130000Y-27940000D01*
G04 #@! TO.N,Net-(D1-Pad1)*
X151130000Y-33952000D02*
X151130000Y-35560000D01*
X149575999Y-32397999D02*
X151130000Y-33952000D01*
X151130000Y-24218000D02*
X149575999Y-25772001D01*
X149575999Y-25772001D02*
X149575999Y-32397999D01*
X151130000Y-22860000D02*
X151130000Y-24218000D01*
X151130000Y-35560000D02*
X151130000Y-39370000D01*
G04 #@! TO.N,Net-(D2-Pad1)*
X151130000Y-46990000D02*
X151130000Y-51132500D01*
G04 #@! TO.N,Net-(D3-Pad2)*
X156210000Y-28877500D02*
X156210000Y-31750000D01*
X152684001Y-35275999D02*
X152684001Y-51453499D01*
X151686237Y-52451263D02*
X151130000Y-53007500D01*
X152684001Y-51453499D02*
X151686237Y-52451263D01*
X156210000Y-31750000D02*
X152684001Y-35275999D01*
G04 #@! TO.N,Net-(D3-Pad1)*
X156210000Y-36830000D02*
X156210000Y-40640000D01*
X156210000Y-42248000D02*
X156210000Y-40640000D01*
X153392011Y-45065989D02*
X156210000Y-42248000D01*
X148590000Y-50800000D02*
X148590000Y-53340000D01*
X147320000Y-49530000D02*
X148590000Y-50800000D01*
X124460000Y-49530000D02*
X147320000Y-49530000D01*
X148590000Y-53340000D02*
X149860000Y-54610000D01*
X149860000Y-54610000D02*
X151214282Y-54610000D01*
X151214282Y-54610000D02*
X152400000Y-54610000D01*
X153392011Y-52070000D02*
X153392011Y-53617989D01*
X153392011Y-52070000D02*
X153392011Y-45065989D01*
X153392011Y-52432271D02*
X153392011Y-52070000D01*
X153392011Y-53617989D02*
X152400000Y-54610000D01*
G04 #@! TO.N,Net-(D4-Pad2)*
X156210000Y-48260000D02*
X156210000Y-50800000D01*
D28*
G04 #@! TO.N,/+*
X117730000Y-71120000D02*
X120650000Y-68200000D01*
X117730000Y-73660000D02*
X117730000Y-71500000D01*
G04 #@! TD*
D29*
G04 #@! TO.N,/VCC*
G36*
X130683000Y-63735000D02*
X130604126Y-63735000D01*
X130223720Y-63892569D01*
X129932569Y-64183720D01*
X129775000Y-64564126D01*
X129775000Y-64975874D01*
X129932569Y-65356280D01*
X130223720Y-65647431D01*
X130604126Y-65805000D01*
X130683000Y-65805000D01*
X130683000Y-68815000D01*
X130604126Y-68815000D01*
X130223720Y-68972569D01*
X129932569Y-69263720D01*
X129775000Y-69644126D01*
X129775000Y-70055874D01*
X129932569Y-70436280D01*
X130223720Y-70727431D01*
X130604126Y-70885000D01*
X130683000Y-70885000D01*
X130683000Y-70993000D01*
X124587000Y-70993000D01*
X124587000Y-69162170D01*
X124588839Y-69159418D01*
X124704092Y-68580000D01*
X124588839Y-68000582D01*
X124587000Y-67997830D01*
X124587000Y-63627000D01*
X130683000Y-63627000D01*
X130683000Y-63735000D01*
X130683000Y-63735000D01*
G37*
X130683000Y-63735000D02*
X130604126Y-63735000D01*
X130223720Y-63892569D01*
X129932569Y-64183720D01*
X129775000Y-64564126D01*
X129775000Y-64975874D01*
X129932569Y-65356280D01*
X130223720Y-65647431D01*
X130604126Y-65805000D01*
X130683000Y-65805000D01*
X130683000Y-68815000D01*
X130604126Y-68815000D01*
X130223720Y-68972569D01*
X129932569Y-69263720D01*
X129775000Y-69644126D01*
X129775000Y-70055874D01*
X129932569Y-70436280D01*
X130223720Y-70727431D01*
X130604126Y-70885000D01*
X130683000Y-70885000D01*
X130683000Y-70993000D01*
X124587000Y-70993000D01*
X124587000Y-69162170D01*
X124588839Y-69159418D01*
X124704092Y-68580000D01*
X124588839Y-68000582D01*
X124587000Y-67997830D01*
X124587000Y-63627000D01*
X130683000Y-63627000D01*
X130683000Y-63735000D01*
G04 #@! TO.N,/GND*
G36*
X157353000Y-46937062D02*
X156886963Y-46625666D01*
X156380880Y-46525000D01*
X156039120Y-46525000D01*
X155533037Y-46625666D01*
X154959135Y-47009135D01*
X154575666Y-47583037D01*
X154441010Y-48260000D01*
X154575666Y-48936963D01*
X154959135Y-49510865D01*
X155321001Y-49752656D01*
X155321001Y-50126674D01*
X155123584Y-50258584D01*
X154930398Y-50547706D01*
X154862560Y-50888750D01*
X154862560Y-51376250D01*
X154930398Y-51717294D01*
X155123584Y-52006416D01*
X155412706Y-52199602D01*
X155753750Y-52267440D01*
X156666250Y-52267440D01*
X157007294Y-52199602D01*
X157296416Y-52006416D01*
X157353000Y-51921732D01*
X157353000Y-83767394D01*
X156157394Y-84963000D01*
X144382311Y-84963000D01*
X144544577Y-84854577D01*
X144861740Y-84379909D01*
X144973113Y-83820000D01*
X144861740Y-83260091D01*
X144544577Y-82785423D01*
X144069909Y-82468260D01*
X143651333Y-82385000D01*
X143368667Y-82385000D01*
X142950091Y-82468260D01*
X142475423Y-82785423D01*
X142240000Y-83137758D01*
X142004577Y-82785423D01*
X141529909Y-82468260D01*
X141111333Y-82385000D01*
X140828667Y-82385000D01*
X140410091Y-82468260D01*
X139935423Y-82785423D01*
X139700000Y-83137758D01*
X139464577Y-82785423D01*
X138989909Y-82468260D01*
X138571333Y-82385000D01*
X138288667Y-82385000D01*
X137870091Y-82468260D01*
X137395423Y-82785423D01*
X137160000Y-83137758D01*
X136924577Y-82785423D01*
X136449909Y-82468260D01*
X136031333Y-82385000D01*
X135748667Y-82385000D01*
X135330091Y-82468260D01*
X134855423Y-82785423D01*
X134620000Y-83137758D01*
X134384577Y-82785423D01*
X133909909Y-82468260D01*
X133491333Y-82385000D01*
X133208667Y-82385000D01*
X132790091Y-82468260D01*
X132315423Y-82785423D01*
X132234785Y-82906106D01*
X132208157Y-82772235D01*
X132067809Y-82562191D01*
X131857765Y-82421843D01*
X131699000Y-82390263D01*
X131699000Y-79108235D01*
X133178280Y-77628956D01*
X133199574Y-77633191D01*
X132783294Y-78049471D01*
X132709068Y-78099067D01*
X132659472Y-78173293D01*
X132659471Y-78173294D01*
X132512582Y-78393130D01*
X132443584Y-78740000D01*
X132461001Y-78827559D01*
X132461000Y-79451649D01*
X132315000Y-79804126D01*
X132315000Y-80215874D01*
X132472569Y-80596280D01*
X132763720Y-80887431D01*
X133144126Y-81045000D01*
X133555874Y-81045000D01*
X133936280Y-80887431D01*
X134227431Y-80596280D01*
X134385000Y-80215874D01*
X134385000Y-79804126D01*
X134239000Y-79451650D01*
X134239000Y-79108235D01*
X135718280Y-77628956D01*
X135748667Y-77635000D01*
X136031333Y-77635000D01*
X136449909Y-77551740D01*
X136924577Y-77234577D01*
X137160000Y-76882242D01*
X137395423Y-77234577D01*
X137870091Y-77551740D01*
X138288667Y-77635000D01*
X138571333Y-77635000D01*
X138989909Y-77551740D01*
X139464577Y-77234577D01*
X139700000Y-76882242D01*
X139935423Y-77234577D01*
X140410091Y-77551740D01*
X140828667Y-77635000D01*
X141111333Y-77635000D01*
X141529909Y-77551740D01*
X142004577Y-77234577D01*
X142240000Y-76882242D01*
X142475423Y-77234577D01*
X142950091Y-77551740D01*
X143368667Y-77635000D01*
X143651333Y-77635000D01*
X144069909Y-77551740D01*
X144544577Y-77234577D01*
X144780000Y-76882242D01*
X145015423Y-77234577D01*
X145490091Y-77551740D01*
X145908667Y-77635000D01*
X146191333Y-77635000D01*
X146609909Y-77551740D01*
X147084577Y-77234577D01*
X147401740Y-76759909D01*
X147513113Y-76200000D01*
X147401740Y-75640091D01*
X147084577Y-75165423D01*
X146609909Y-74848260D01*
X146191333Y-74765000D01*
X145908667Y-74765000D01*
X145490091Y-74848260D01*
X145015423Y-75165423D01*
X144780000Y-75517758D01*
X144544577Y-75165423D01*
X144069909Y-74848260D01*
X143651333Y-74765000D01*
X143368667Y-74765000D01*
X142950091Y-74848260D01*
X142475423Y-75165423D01*
X142240000Y-75517758D01*
X142004577Y-75165423D01*
X141529909Y-74848260D01*
X141111333Y-74765000D01*
X140828667Y-74765000D01*
X140410091Y-74848260D01*
X139935423Y-75165423D01*
X139700000Y-75517758D01*
X139464577Y-75165423D01*
X138989909Y-74848260D01*
X138571333Y-74765000D01*
X138288667Y-74765000D01*
X137870091Y-74848260D01*
X137395423Y-75165423D01*
X137160000Y-75517758D01*
X136924577Y-75165423D01*
X136779000Y-75068152D01*
X136779000Y-62317550D01*
X136796415Y-62229999D01*
X136779000Y-62142448D01*
X136779000Y-62142444D01*
X136727419Y-61883130D01*
X136530933Y-61589067D01*
X136456707Y-61539471D01*
X136055000Y-61137764D01*
X136055000Y-60674561D01*
X135836534Y-60147138D01*
X135432862Y-59743466D01*
X134905439Y-59525000D01*
X134334561Y-59525000D01*
X134239000Y-59564583D01*
X134239000Y-53427550D01*
X134256415Y-53339999D01*
X134239000Y-53252448D01*
X134239000Y-53252444D01*
X134187419Y-52993130D01*
X133990933Y-52699067D01*
X133916707Y-52649471D01*
X132245000Y-50977765D01*
X132245000Y-50514561D01*
X132205417Y-50419000D01*
X146951765Y-50419000D01*
X147701000Y-51168236D01*
X147701001Y-53252441D01*
X147683584Y-53340000D01*
X147738881Y-53617990D01*
X147752582Y-53686870D01*
X147949068Y-53980933D01*
X148023294Y-54030529D01*
X149169471Y-55176707D01*
X149219067Y-55250933D01*
X149513130Y-55447419D01*
X149772444Y-55499000D01*
X149772448Y-55499000D01*
X149859999Y-55516415D01*
X149947550Y-55499000D01*
X152312445Y-55499000D01*
X152400000Y-55516416D01*
X152487555Y-55499000D01*
X152487556Y-55499000D01*
X152746870Y-55447419D01*
X153040933Y-55250933D01*
X153090531Y-55176704D01*
X153958717Y-54308518D01*
X154032944Y-54258922D01*
X154229430Y-53964859D01*
X154281011Y-53705545D01*
X154281011Y-53705541D01*
X154298426Y-53617990D01*
X154281011Y-53530439D01*
X154281011Y-45434224D01*
X156776707Y-42938529D01*
X156850933Y-42888933D01*
X157047419Y-42594870D01*
X157088680Y-42387440D01*
X157310000Y-42387440D01*
X157353000Y-42378887D01*
X157353000Y-46937062D01*
X157353000Y-46937062D01*
G37*
X157353000Y-46937062D02*
X156886963Y-46625666D01*
X156380880Y-46525000D01*
X156039120Y-46525000D01*
X155533037Y-46625666D01*
X154959135Y-47009135D01*
X154575666Y-47583037D01*
X154441010Y-48260000D01*
X154575666Y-48936963D01*
X154959135Y-49510865D01*
X155321001Y-49752656D01*
X155321001Y-50126674D01*
X155123584Y-50258584D01*
X154930398Y-50547706D01*
X154862560Y-50888750D01*
X154862560Y-51376250D01*
X154930398Y-51717294D01*
X155123584Y-52006416D01*
X155412706Y-52199602D01*
X155753750Y-52267440D01*
X156666250Y-52267440D01*
X157007294Y-52199602D01*
X157296416Y-52006416D01*
X157353000Y-51921732D01*
X157353000Y-83767394D01*
X156157394Y-84963000D01*
X144382311Y-84963000D01*
X144544577Y-84854577D01*
X144861740Y-84379909D01*
X144973113Y-83820000D01*
X144861740Y-83260091D01*
X144544577Y-82785423D01*
X144069909Y-82468260D01*
X143651333Y-82385000D01*
X143368667Y-82385000D01*
X142950091Y-82468260D01*
X142475423Y-82785423D01*
X142240000Y-83137758D01*
X142004577Y-82785423D01*
X141529909Y-82468260D01*
X141111333Y-82385000D01*
X140828667Y-82385000D01*
X140410091Y-82468260D01*
X139935423Y-82785423D01*
X139700000Y-83137758D01*
X139464577Y-82785423D01*
X138989909Y-82468260D01*
X138571333Y-82385000D01*
X138288667Y-82385000D01*
X137870091Y-82468260D01*
X137395423Y-82785423D01*
X137160000Y-83137758D01*
X136924577Y-82785423D01*
X136449909Y-82468260D01*
X136031333Y-82385000D01*
X135748667Y-82385000D01*
X135330091Y-82468260D01*
X134855423Y-82785423D01*
X134620000Y-83137758D01*
X134384577Y-82785423D01*
X133909909Y-82468260D01*
X133491333Y-82385000D01*
X133208667Y-82385000D01*
X132790091Y-82468260D01*
X132315423Y-82785423D01*
X132234785Y-82906106D01*
X132208157Y-82772235D01*
X132067809Y-82562191D01*
X131857765Y-82421843D01*
X131699000Y-82390263D01*
X131699000Y-79108235D01*
X133178280Y-77628956D01*
X133199574Y-77633191D01*
X132783294Y-78049471D01*
X132709068Y-78099067D01*
X132659472Y-78173293D01*
X132659471Y-78173294D01*
X132512582Y-78393130D01*
X132443584Y-78740000D01*
X132461001Y-78827559D01*
X132461000Y-79451649D01*
X132315000Y-79804126D01*
X132315000Y-80215874D01*
X132472569Y-80596280D01*
X132763720Y-80887431D01*
X133144126Y-81045000D01*
X133555874Y-81045000D01*
X133936280Y-80887431D01*
X134227431Y-80596280D01*
X134385000Y-80215874D01*
X134385000Y-79804126D01*
X134239000Y-79451650D01*
X134239000Y-79108235D01*
X135718280Y-77628956D01*
X135748667Y-77635000D01*
X136031333Y-77635000D01*
X136449909Y-77551740D01*
X136924577Y-77234577D01*
X137160000Y-76882242D01*
X137395423Y-77234577D01*
X137870091Y-77551740D01*
X138288667Y-77635000D01*
X138571333Y-77635000D01*
X138989909Y-77551740D01*
X139464577Y-77234577D01*
X139700000Y-76882242D01*
X139935423Y-77234577D01*
X140410091Y-77551740D01*
X140828667Y-77635000D01*
X141111333Y-77635000D01*
X141529909Y-77551740D01*
X142004577Y-77234577D01*
X142240000Y-76882242D01*
X142475423Y-77234577D01*
X142950091Y-77551740D01*
X143368667Y-77635000D01*
X143651333Y-77635000D01*
X144069909Y-77551740D01*
X144544577Y-77234577D01*
X144780000Y-76882242D01*
X145015423Y-77234577D01*
X145490091Y-77551740D01*
X145908667Y-77635000D01*
X146191333Y-77635000D01*
X146609909Y-77551740D01*
X147084577Y-77234577D01*
X147401740Y-76759909D01*
X147513113Y-76200000D01*
X147401740Y-75640091D01*
X147084577Y-75165423D01*
X146609909Y-74848260D01*
X146191333Y-74765000D01*
X145908667Y-74765000D01*
X145490091Y-74848260D01*
X145015423Y-75165423D01*
X144780000Y-75517758D01*
X144544577Y-75165423D01*
X144069909Y-74848260D01*
X143651333Y-74765000D01*
X143368667Y-74765000D01*
X142950091Y-74848260D01*
X142475423Y-75165423D01*
X142240000Y-75517758D01*
X142004577Y-75165423D01*
X141529909Y-74848260D01*
X141111333Y-74765000D01*
X140828667Y-74765000D01*
X140410091Y-74848260D01*
X139935423Y-75165423D01*
X139700000Y-75517758D01*
X139464577Y-75165423D01*
X138989909Y-74848260D01*
X138571333Y-74765000D01*
X138288667Y-74765000D01*
X137870091Y-74848260D01*
X137395423Y-75165423D01*
X137160000Y-75517758D01*
X136924577Y-75165423D01*
X136779000Y-75068152D01*
X136779000Y-62317550D01*
X136796415Y-62229999D01*
X136779000Y-62142448D01*
X136779000Y-62142444D01*
X136727419Y-61883130D01*
X136530933Y-61589067D01*
X136456707Y-61539471D01*
X136055000Y-61137764D01*
X136055000Y-60674561D01*
X135836534Y-60147138D01*
X135432862Y-59743466D01*
X134905439Y-59525000D01*
X134334561Y-59525000D01*
X134239000Y-59564583D01*
X134239000Y-53427550D01*
X134256415Y-53339999D01*
X134239000Y-53252448D01*
X134239000Y-53252444D01*
X134187419Y-52993130D01*
X133990933Y-52699067D01*
X133916707Y-52649471D01*
X132245000Y-50977765D01*
X132245000Y-50514561D01*
X132205417Y-50419000D01*
X146951765Y-50419000D01*
X147701000Y-51168236D01*
X147701001Y-53252441D01*
X147683584Y-53340000D01*
X147738881Y-53617990D01*
X147752582Y-53686870D01*
X147949068Y-53980933D01*
X148023294Y-54030529D01*
X149169471Y-55176707D01*
X149219067Y-55250933D01*
X149513130Y-55447419D01*
X149772444Y-55499000D01*
X149772448Y-55499000D01*
X149859999Y-55516415D01*
X149947550Y-55499000D01*
X152312445Y-55499000D01*
X152400000Y-55516416D01*
X152487555Y-55499000D01*
X152487556Y-55499000D01*
X152746870Y-55447419D01*
X153040933Y-55250933D01*
X153090531Y-55176704D01*
X153958717Y-54308518D01*
X154032944Y-54258922D01*
X154229430Y-53964859D01*
X154281011Y-53705545D01*
X154281011Y-53705541D01*
X154298426Y-53617990D01*
X154281011Y-53530439D01*
X154281011Y-45434224D01*
X156776707Y-42938529D01*
X156850933Y-42888933D01*
X157047419Y-42594870D01*
X157088680Y-42387440D01*
X157310000Y-42387440D01*
X157353000Y-42378887D01*
X157353000Y-46937062D01*
G36*
X63699375Y-45520625D02*
X64190582Y-45848839D01*
X64623744Y-45935000D01*
X64916256Y-45935000D01*
X64984242Y-45921477D01*
X67889471Y-48826707D01*
X67939067Y-48900933D01*
X68034783Y-48964888D01*
X68233129Y-49097419D01*
X68580000Y-49166416D01*
X68667556Y-49149000D01*
X74842445Y-49149000D01*
X74930000Y-49166416D01*
X75017555Y-49149000D01*
X75017556Y-49149000D01*
X75276870Y-49097419D01*
X75570933Y-48900933D01*
X75620531Y-48826704D01*
X76034835Y-48412400D01*
X76482933Y-48412400D01*
X77005725Y-48195852D01*
X77405852Y-47795725D01*
X77470000Y-47640858D01*
X77534148Y-47795725D01*
X77934275Y-48195852D01*
X78457067Y-48412400D01*
X79022933Y-48412400D01*
X79545725Y-48195852D01*
X79945852Y-47795725D01*
X80010000Y-47640858D01*
X80074148Y-47795725D01*
X80474275Y-48195852D01*
X80997067Y-48412400D01*
X81562933Y-48412400D01*
X82085725Y-48195852D01*
X82485852Y-47795725D01*
X82550000Y-47640858D01*
X82614148Y-47795725D01*
X83014275Y-48195852D01*
X83537067Y-48412400D01*
X84102933Y-48412400D01*
X84625725Y-48195852D01*
X85025852Y-47795725D01*
X85090000Y-47640858D01*
X85154148Y-47795725D01*
X85554275Y-48195852D01*
X86077067Y-48412400D01*
X86642933Y-48412400D01*
X87165725Y-48195852D01*
X87565852Y-47795725D01*
X87630000Y-47640858D01*
X87694148Y-47795725D01*
X88094275Y-48195852D01*
X88617067Y-48412400D01*
X89182933Y-48412400D01*
X89281000Y-48371779D01*
X89281001Y-60591763D01*
X89065164Y-60807600D01*
X88617067Y-60807600D01*
X88094275Y-61024148D01*
X87694148Y-61424275D01*
X87630000Y-61579142D01*
X87565852Y-61424275D01*
X87165725Y-61024148D01*
X86642933Y-60807600D01*
X86077067Y-60807600D01*
X85554275Y-61024148D01*
X85154148Y-61424275D01*
X85090000Y-61579142D01*
X85025852Y-61424275D01*
X84625725Y-61024148D01*
X84102933Y-60807600D01*
X83537067Y-60807600D01*
X83014275Y-61024148D01*
X82614148Y-61424275D01*
X82550000Y-61579142D01*
X82485852Y-61424275D01*
X82085725Y-61024148D01*
X81562933Y-60807600D01*
X80997067Y-60807600D01*
X80474275Y-61024148D01*
X80074148Y-61424275D01*
X80010000Y-61579142D01*
X79945852Y-61424275D01*
X79545725Y-61024148D01*
X79022933Y-60807600D01*
X78457067Y-60807600D01*
X77934275Y-61024148D01*
X77534148Y-61424275D01*
X77470000Y-61579142D01*
X77405852Y-61424275D01*
X77005725Y-61024148D01*
X76482933Y-60807600D01*
X75917067Y-60807600D01*
X75394275Y-61024148D01*
X74994148Y-61424275D01*
X74930000Y-61579142D01*
X74865852Y-61424275D01*
X74465725Y-61024148D01*
X73942933Y-60807600D01*
X73377067Y-60807600D01*
X72854275Y-61024148D01*
X72454148Y-61424275D01*
X72390000Y-61579142D01*
X72325852Y-61424275D01*
X71925725Y-61024148D01*
X71402933Y-60807600D01*
X70837067Y-60807600D01*
X70314275Y-61024148D01*
X69914148Y-61424275D01*
X69697600Y-61947067D01*
X69697600Y-62512933D01*
X69914148Y-63035725D01*
X70314275Y-63435852D01*
X70837067Y-63652400D01*
X71402933Y-63652400D01*
X71925725Y-63435852D01*
X72325852Y-63035725D01*
X72390000Y-62880858D01*
X72454148Y-63035725D01*
X72854275Y-63435852D01*
X73377067Y-63652400D01*
X73942933Y-63652400D01*
X74465725Y-63435852D01*
X74865852Y-63035725D01*
X74930000Y-62880858D01*
X74994148Y-63035725D01*
X75394275Y-63435852D01*
X75917067Y-63652400D01*
X76482933Y-63652400D01*
X77005725Y-63435852D01*
X77405852Y-63035725D01*
X77470000Y-62880858D01*
X77534148Y-63035725D01*
X77934275Y-63435852D01*
X78457067Y-63652400D01*
X79022933Y-63652400D01*
X79545725Y-63435852D01*
X79945852Y-63035725D01*
X80010000Y-62880858D01*
X80074148Y-63035725D01*
X80474275Y-63435852D01*
X80997067Y-63652400D01*
X81562933Y-63652400D01*
X82085725Y-63435852D01*
X82485852Y-63035725D01*
X82550000Y-62880858D01*
X82614148Y-63035725D01*
X83014275Y-63435852D01*
X83537067Y-63652400D01*
X84102933Y-63652400D01*
X84625725Y-63435852D01*
X85025852Y-63035725D01*
X85090000Y-62880858D01*
X85154148Y-63035725D01*
X85554275Y-63435852D01*
X86077067Y-63652400D01*
X86642933Y-63652400D01*
X86741000Y-63611779D01*
X86741000Y-65928221D01*
X86642933Y-65887600D01*
X86077067Y-65887600D01*
X85554275Y-66104148D01*
X85154148Y-66504275D01*
X85090000Y-66659142D01*
X85025852Y-66504275D01*
X84625725Y-66104148D01*
X84102933Y-65887600D01*
X83537067Y-65887600D01*
X83014275Y-66104148D01*
X82614148Y-66504275D01*
X82550000Y-66659142D01*
X82485852Y-66504275D01*
X82085725Y-66104148D01*
X81562933Y-65887600D01*
X80997067Y-65887600D01*
X80474275Y-66104148D01*
X80074148Y-66504275D01*
X80010000Y-66659142D01*
X79945852Y-66504275D01*
X79545725Y-66104148D01*
X79022933Y-65887600D01*
X78457067Y-65887600D01*
X77934275Y-66104148D01*
X77534148Y-66504275D01*
X77470000Y-66659142D01*
X77405852Y-66504275D01*
X77005725Y-66104148D01*
X76482933Y-65887600D01*
X75917067Y-65887600D01*
X75394275Y-66104148D01*
X74994148Y-66504275D01*
X74930000Y-66659142D01*
X74865852Y-66504275D01*
X74465725Y-66104148D01*
X73942933Y-65887600D01*
X73377067Y-65887600D01*
X72854275Y-66104148D01*
X72454148Y-66504275D01*
X72390000Y-66659142D01*
X72325852Y-66504275D01*
X71925725Y-66104148D01*
X71402933Y-65887600D01*
X70837067Y-65887600D01*
X70314275Y-66104148D01*
X69914148Y-66504275D01*
X69697600Y-67027067D01*
X69697600Y-67592933D01*
X69914148Y-68115725D01*
X70314275Y-68515852D01*
X70837067Y-68732400D01*
X71402933Y-68732400D01*
X71925725Y-68515852D01*
X72325852Y-68115725D01*
X72390000Y-67960858D01*
X72454148Y-68115725D01*
X72854275Y-68515852D01*
X73377067Y-68732400D01*
X73942933Y-68732400D01*
X74465725Y-68515852D01*
X74865852Y-68115725D01*
X74930000Y-67960858D01*
X74994148Y-68115725D01*
X75394275Y-68515852D01*
X75917067Y-68732400D01*
X76482933Y-68732400D01*
X77005725Y-68515852D01*
X77405852Y-68115725D01*
X77470000Y-67960858D01*
X77534148Y-68115725D01*
X77934275Y-68515852D01*
X78457067Y-68732400D01*
X79022933Y-68732400D01*
X79545725Y-68515852D01*
X79945852Y-68115725D01*
X80010000Y-67960858D01*
X80074148Y-68115725D01*
X80474275Y-68515852D01*
X80997067Y-68732400D01*
X81562933Y-68732400D01*
X82085725Y-68515852D01*
X82485852Y-68115725D01*
X82550000Y-67960858D01*
X82614148Y-68115725D01*
X83014275Y-68515852D01*
X83537067Y-68732400D01*
X84102933Y-68732400D01*
X84625725Y-68515852D01*
X85025852Y-68115725D01*
X85090000Y-67960858D01*
X85154148Y-68115725D01*
X85554275Y-68515852D01*
X86077067Y-68732400D01*
X86642933Y-68732400D01*
X86741000Y-68691779D01*
X86741001Y-81168221D01*
X86642933Y-81127600D01*
X86077067Y-81127600D01*
X85554275Y-81344148D01*
X85154148Y-81744275D01*
X85090000Y-81899142D01*
X85025852Y-81744275D01*
X84625725Y-81344148D01*
X84102933Y-81127600D01*
X83537067Y-81127600D01*
X83014275Y-81344148D01*
X82614148Y-81744275D01*
X82550000Y-81899142D01*
X82485852Y-81744275D01*
X82085725Y-81344148D01*
X81562933Y-81127600D01*
X80997067Y-81127600D01*
X80474275Y-81344148D01*
X80074148Y-81744275D01*
X80010000Y-81899142D01*
X79945852Y-81744275D01*
X79545725Y-81344148D01*
X79022933Y-81127600D01*
X78457067Y-81127600D01*
X77934275Y-81344148D01*
X77534148Y-81744275D01*
X77470000Y-81899142D01*
X77405852Y-81744275D01*
X77005725Y-81344148D01*
X76482933Y-81127600D01*
X75917067Y-81127600D01*
X75394275Y-81344148D01*
X74994148Y-81744275D01*
X74930000Y-81899142D01*
X74865852Y-81744275D01*
X74465725Y-81344148D01*
X73942933Y-81127600D01*
X73377067Y-81127600D01*
X72854275Y-81344148D01*
X72454148Y-81744275D01*
X72390000Y-81899142D01*
X72325852Y-81744275D01*
X71925725Y-81344148D01*
X71402933Y-81127600D01*
X70837067Y-81127600D01*
X70314275Y-81344148D01*
X69914148Y-81744275D01*
X69697600Y-82267067D01*
X69697600Y-82832933D01*
X69914148Y-83355725D01*
X70314275Y-83755852D01*
X70837067Y-83972400D01*
X71402933Y-83972400D01*
X71925725Y-83755852D01*
X72325852Y-83355725D01*
X72390000Y-83200858D01*
X72454148Y-83355725D01*
X72854275Y-83755852D01*
X73377067Y-83972400D01*
X73942933Y-83972400D01*
X74465725Y-83755852D01*
X74865852Y-83355725D01*
X74930000Y-83200858D01*
X74994148Y-83355725D01*
X75394275Y-83755852D01*
X75917067Y-83972400D01*
X76482933Y-83972400D01*
X77005725Y-83755852D01*
X77405852Y-83355725D01*
X77470000Y-83200858D01*
X77534148Y-83355725D01*
X77934275Y-83755852D01*
X78457067Y-83972400D01*
X78905165Y-83972400D01*
X79895764Y-84963000D01*
X64822606Y-84963000D01*
X63627000Y-83767394D01*
X63627000Y-45412308D01*
X63699375Y-45520625D01*
X63699375Y-45520625D01*
G37*
X63699375Y-45520625D02*
X64190582Y-45848839D01*
X64623744Y-45935000D01*
X64916256Y-45935000D01*
X64984242Y-45921477D01*
X67889471Y-48826707D01*
X67939067Y-48900933D01*
X68034783Y-48964888D01*
X68233129Y-49097419D01*
X68580000Y-49166416D01*
X68667556Y-49149000D01*
X74842445Y-49149000D01*
X74930000Y-49166416D01*
X75017555Y-49149000D01*
X75017556Y-49149000D01*
X75276870Y-49097419D01*
X75570933Y-48900933D01*
X75620531Y-48826704D01*
X76034835Y-48412400D01*
X76482933Y-48412400D01*
X77005725Y-48195852D01*
X77405852Y-47795725D01*
X77470000Y-47640858D01*
X77534148Y-47795725D01*
X77934275Y-48195852D01*
X78457067Y-48412400D01*
X79022933Y-48412400D01*
X79545725Y-48195852D01*
X79945852Y-47795725D01*
X80010000Y-47640858D01*
X80074148Y-47795725D01*
X80474275Y-48195852D01*
X80997067Y-48412400D01*
X81562933Y-48412400D01*
X82085725Y-48195852D01*
X82485852Y-47795725D01*
X82550000Y-47640858D01*
X82614148Y-47795725D01*
X83014275Y-48195852D01*
X83537067Y-48412400D01*
X84102933Y-48412400D01*
X84625725Y-48195852D01*
X85025852Y-47795725D01*
X85090000Y-47640858D01*
X85154148Y-47795725D01*
X85554275Y-48195852D01*
X86077067Y-48412400D01*
X86642933Y-48412400D01*
X87165725Y-48195852D01*
X87565852Y-47795725D01*
X87630000Y-47640858D01*
X87694148Y-47795725D01*
X88094275Y-48195852D01*
X88617067Y-48412400D01*
X89182933Y-48412400D01*
X89281000Y-48371779D01*
X89281001Y-60591763D01*
X89065164Y-60807600D01*
X88617067Y-60807600D01*
X88094275Y-61024148D01*
X87694148Y-61424275D01*
X87630000Y-61579142D01*
X87565852Y-61424275D01*
X87165725Y-61024148D01*
X86642933Y-60807600D01*
X86077067Y-60807600D01*
X85554275Y-61024148D01*
X85154148Y-61424275D01*
X85090000Y-61579142D01*
X85025852Y-61424275D01*
X84625725Y-61024148D01*
X84102933Y-60807600D01*
X83537067Y-60807600D01*
X83014275Y-61024148D01*
X82614148Y-61424275D01*
X82550000Y-61579142D01*
X82485852Y-61424275D01*
X82085725Y-61024148D01*
X81562933Y-60807600D01*
X80997067Y-60807600D01*
X80474275Y-61024148D01*
X80074148Y-61424275D01*
X80010000Y-61579142D01*
X79945852Y-61424275D01*
X79545725Y-61024148D01*
X79022933Y-60807600D01*
X78457067Y-60807600D01*
X77934275Y-61024148D01*
X77534148Y-61424275D01*
X77470000Y-61579142D01*
X77405852Y-61424275D01*
X77005725Y-61024148D01*
X76482933Y-60807600D01*
X75917067Y-60807600D01*
X75394275Y-61024148D01*
X74994148Y-61424275D01*
X74930000Y-61579142D01*
X74865852Y-61424275D01*
X74465725Y-61024148D01*
X73942933Y-60807600D01*
X73377067Y-60807600D01*
X72854275Y-61024148D01*
X72454148Y-61424275D01*
X72390000Y-61579142D01*
X72325852Y-61424275D01*
X71925725Y-61024148D01*
X71402933Y-60807600D01*
X70837067Y-60807600D01*
X70314275Y-61024148D01*
X69914148Y-61424275D01*
X69697600Y-61947067D01*
X69697600Y-62512933D01*
X69914148Y-63035725D01*
X70314275Y-63435852D01*
X70837067Y-63652400D01*
X71402933Y-63652400D01*
X71925725Y-63435852D01*
X72325852Y-63035725D01*
X72390000Y-62880858D01*
X72454148Y-63035725D01*
X72854275Y-63435852D01*
X73377067Y-63652400D01*
X73942933Y-63652400D01*
X74465725Y-63435852D01*
X74865852Y-63035725D01*
X74930000Y-62880858D01*
X74994148Y-63035725D01*
X75394275Y-63435852D01*
X75917067Y-63652400D01*
X76482933Y-63652400D01*
X77005725Y-63435852D01*
X77405852Y-63035725D01*
X77470000Y-62880858D01*
X77534148Y-63035725D01*
X77934275Y-63435852D01*
X78457067Y-63652400D01*
X79022933Y-63652400D01*
X79545725Y-63435852D01*
X79945852Y-63035725D01*
X80010000Y-62880858D01*
X80074148Y-63035725D01*
X80474275Y-63435852D01*
X80997067Y-63652400D01*
X81562933Y-63652400D01*
X82085725Y-63435852D01*
X82485852Y-63035725D01*
X82550000Y-62880858D01*
X82614148Y-63035725D01*
X83014275Y-63435852D01*
X83537067Y-63652400D01*
X84102933Y-63652400D01*
X84625725Y-63435852D01*
X85025852Y-63035725D01*
X85090000Y-62880858D01*
X85154148Y-63035725D01*
X85554275Y-63435852D01*
X86077067Y-63652400D01*
X86642933Y-63652400D01*
X86741000Y-63611779D01*
X86741000Y-65928221D01*
X86642933Y-65887600D01*
X86077067Y-65887600D01*
X85554275Y-66104148D01*
X85154148Y-66504275D01*
X85090000Y-66659142D01*
X85025852Y-66504275D01*
X84625725Y-66104148D01*
X84102933Y-65887600D01*
X83537067Y-65887600D01*
X83014275Y-66104148D01*
X82614148Y-66504275D01*
X82550000Y-66659142D01*
X82485852Y-66504275D01*
X82085725Y-66104148D01*
X81562933Y-65887600D01*
X80997067Y-65887600D01*
X80474275Y-66104148D01*
X80074148Y-66504275D01*
X80010000Y-66659142D01*
X79945852Y-66504275D01*
X79545725Y-66104148D01*
X79022933Y-65887600D01*
X78457067Y-65887600D01*
X77934275Y-66104148D01*
X77534148Y-66504275D01*
X77470000Y-66659142D01*
X77405852Y-66504275D01*
X77005725Y-66104148D01*
X76482933Y-65887600D01*
X75917067Y-65887600D01*
X75394275Y-66104148D01*
X74994148Y-66504275D01*
X74930000Y-66659142D01*
X74865852Y-66504275D01*
X74465725Y-66104148D01*
X73942933Y-65887600D01*
X73377067Y-65887600D01*
X72854275Y-66104148D01*
X72454148Y-66504275D01*
X72390000Y-66659142D01*
X72325852Y-66504275D01*
X71925725Y-66104148D01*
X71402933Y-65887600D01*
X70837067Y-65887600D01*
X70314275Y-66104148D01*
X69914148Y-66504275D01*
X69697600Y-67027067D01*
X69697600Y-67592933D01*
X69914148Y-68115725D01*
X70314275Y-68515852D01*
X70837067Y-68732400D01*
X71402933Y-68732400D01*
X71925725Y-68515852D01*
X72325852Y-68115725D01*
X72390000Y-67960858D01*
X72454148Y-68115725D01*
X72854275Y-68515852D01*
X73377067Y-68732400D01*
X73942933Y-68732400D01*
X74465725Y-68515852D01*
X74865852Y-68115725D01*
X74930000Y-67960858D01*
X74994148Y-68115725D01*
X75394275Y-68515852D01*
X75917067Y-68732400D01*
X76482933Y-68732400D01*
X77005725Y-68515852D01*
X77405852Y-68115725D01*
X77470000Y-67960858D01*
X77534148Y-68115725D01*
X77934275Y-68515852D01*
X78457067Y-68732400D01*
X79022933Y-68732400D01*
X79545725Y-68515852D01*
X79945852Y-68115725D01*
X80010000Y-67960858D01*
X80074148Y-68115725D01*
X80474275Y-68515852D01*
X80997067Y-68732400D01*
X81562933Y-68732400D01*
X82085725Y-68515852D01*
X82485852Y-68115725D01*
X82550000Y-67960858D01*
X82614148Y-68115725D01*
X83014275Y-68515852D01*
X83537067Y-68732400D01*
X84102933Y-68732400D01*
X84625725Y-68515852D01*
X85025852Y-68115725D01*
X85090000Y-67960858D01*
X85154148Y-68115725D01*
X85554275Y-68515852D01*
X86077067Y-68732400D01*
X86642933Y-68732400D01*
X86741000Y-68691779D01*
X86741001Y-81168221D01*
X86642933Y-81127600D01*
X86077067Y-81127600D01*
X85554275Y-81344148D01*
X85154148Y-81744275D01*
X85090000Y-81899142D01*
X85025852Y-81744275D01*
X84625725Y-81344148D01*
X84102933Y-81127600D01*
X83537067Y-81127600D01*
X83014275Y-81344148D01*
X82614148Y-81744275D01*
X82550000Y-81899142D01*
X82485852Y-81744275D01*
X82085725Y-81344148D01*
X81562933Y-81127600D01*
X80997067Y-81127600D01*
X80474275Y-81344148D01*
X80074148Y-81744275D01*
X80010000Y-81899142D01*
X79945852Y-81744275D01*
X79545725Y-81344148D01*
X79022933Y-81127600D01*
X78457067Y-81127600D01*
X77934275Y-81344148D01*
X77534148Y-81744275D01*
X77470000Y-81899142D01*
X77405852Y-81744275D01*
X77005725Y-81344148D01*
X76482933Y-81127600D01*
X75917067Y-81127600D01*
X75394275Y-81344148D01*
X74994148Y-81744275D01*
X74930000Y-81899142D01*
X74865852Y-81744275D01*
X74465725Y-81344148D01*
X73942933Y-81127600D01*
X73377067Y-81127600D01*
X72854275Y-81344148D01*
X72454148Y-81744275D01*
X72390000Y-81899142D01*
X72325852Y-81744275D01*
X71925725Y-81344148D01*
X71402933Y-81127600D01*
X70837067Y-81127600D01*
X70314275Y-81344148D01*
X69914148Y-81744275D01*
X69697600Y-82267067D01*
X69697600Y-82832933D01*
X69914148Y-83355725D01*
X70314275Y-83755852D01*
X70837067Y-83972400D01*
X71402933Y-83972400D01*
X71925725Y-83755852D01*
X72325852Y-83355725D01*
X72390000Y-83200858D01*
X72454148Y-83355725D01*
X72854275Y-83755852D01*
X73377067Y-83972400D01*
X73942933Y-83972400D01*
X74465725Y-83755852D01*
X74865852Y-83355725D01*
X74930000Y-83200858D01*
X74994148Y-83355725D01*
X75394275Y-83755852D01*
X75917067Y-83972400D01*
X76482933Y-83972400D01*
X77005725Y-83755852D01*
X77405852Y-83355725D01*
X77470000Y-83200858D01*
X77534148Y-83355725D01*
X77934275Y-83755852D01*
X78457067Y-83972400D01*
X78905165Y-83972400D01*
X79895764Y-84963000D01*
X64822606Y-84963000D01*
X63627000Y-83767394D01*
X63627000Y-45412308D01*
X63699375Y-45520625D01*
G36*
X129921001Y-74028237D02*
X129921000Y-75068151D01*
X129775423Y-75165423D01*
X129458260Y-75640091D01*
X129346887Y-76200000D01*
X129458260Y-76759909D01*
X129775423Y-77234577D01*
X130250091Y-77551740D01*
X130659574Y-77633191D01*
X130243294Y-78049471D01*
X130169068Y-78099067D01*
X130119472Y-78173293D01*
X130119471Y-78173294D01*
X129972582Y-78393130D01*
X129903584Y-78740000D01*
X129921001Y-78827559D01*
X129921000Y-82390263D01*
X129762235Y-82421843D01*
X129552191Y-82562191D01*
X129411843Y-82772235D01*
X129362560Y-83020000D01*
X129362560Y-84620000D01*
X129411843Y-84867765D01*
X129475477Y-84963000D01*
X126234818Y-84963000D01*
X126521337Y-84844320D01*
X126914320Y-84451337D01*
X127127000Y-83937881D01*
X127127000Y-83382119D01*
X126914320Y-82868663D01*
X126521337Y-82475680D01*
X126007881Y-82263000D01*
X125452119Y-82263000D01*
X124938663Y-82475680D01*
X124545680Y-82868663D01*
X124333000Y-83382119D01*
X124333000Y-83937881D01*
X124545680Y-84451337D01*
X124938663Y-84844320D01*
X125225182Y-84963000D01*
X115234818Y-84963000D01*
X115521337Y-84844320D01*
X115914320Y-84451337D01*
X116127000Y-83937881D01*
X116127000Y-83382119D01*
X115914320Y-82868663D01*
X115521337Y-82475680D01*
X115007881Y-82263000D01*
X114574236Y-82263000D01*
X115938236Y-80899000D01*
X127711650Y-80899000D01*
X128064126Y-81045000D01*
X128475874Y-81045000D01*
X128856280Y-80887431D01*
X129147431Y-80596280D01*
X129305000Y-80215874D01*
X129305000Y-79804126D01*
X129147431Y-79423720D01*
X128856280Y-79132569D01*
X128475874Y-78975000D01*
X128064126Y-78975000D01*
X127711650Y-79121000D01*
X115826157Y-79121000D01*
X124208158Y-70739000D01*
X125642444Y-70739000D01*
X125730000Y-70756416D01*
X125817556Y-70739000D01*
X126076870Y-70687419D01*
X126370933Y-70490933D01*
X126376046Y-70483281D01*
X129921001Y-74028237D01*
X129921001Y-74028237D01*
G37*
X129921001Y-74028237D02*
X129921000Y-75068151D01*
X129775423Y-75165423D01*
X129458260Y-75640091D01*
X129346887Y-76200000D01*
X129458260Y-76759909D01*
X129775423Y-77234577D01*
X130250091Y-77551740D01*
X130659574Y-77633191D01*
X130243294Y-78049471D01*
X130169068Y-78099067D01*
X130119472Y-78173293D01*
X130119471Y-78173294D01*
X129972582Y-78393130D01*
X129903584Y-78740000D01*
X129921001Y-78827559D01*
X129921000Y-82390263D01*
X129762235Y-82421843D01*
X129552191Y-82562191D01*
X129411843Y-82772235D01*
X129362560Y-83020000D01*
X129362560Y-84620000D01*
X129411843Y-84867765D01*
X129475477Y-84963000D01*
X126234818Y-84963000D01*
X126521337Y-84844320D01*
X126914320Y-84451337D01*
X127127000Y-83937881D01*
X127127000Y-83382119D01*
X126914320Y-82868663D01*
X126521337Y-82475680D01*
X126007881Y-82263000D01*
X125452119Y-82263000D01*
X124938663Y-82475680D01*
X124545680Y-82868663D01*
X124333000Y-83382119D01*
X124333000Y-83937881D01*
X124545680Y-84451337D01*
X124938663Y-84844320D01*
X125225182Y-84963000D01*
X115234818Y-84963000D01*
X115521337Y-84844320D01*
X115914320Y-84451337D01*
X116127000Y-83937881D01*
X116127000Y-83382119D01*
X115914320Y-82868663D01*
X115521337Y-82475680D01*
X115007881Y-82263000D01*
X114574236Y-82263000D01*
X115938236Y-80899000D01*
X127711650Y-80899000D01*
X128064126Y-81045000D01*
X128475874Y-81045000D01*
X128856280Y-80887431D01*
X129147431Y-80596280D01*
X129305000Y-80215874D01*
X129305000Y-79804126D01*
X129147431Y-79423720D01*
X128856280Y-79132569D01*
X128475874Y-78975000D01*
X128064126Y-78975000D01*
X127711650Y-79121000D01*
X115826157Y-79121000D01*
X124208158Y-70739000D01*
X125642444Y-70739000D01*
X125730000Y-70756416D01*
X125817556Y-70739000D01*
X126076870Y-70687419D01*
X126370933Y-70490933D01*
X126376046Y-70483281D01*
X129921001Y-74028237D01*
G36*
X97854148Y-63035725D02*
X98254275Y-63435852D01*
X98777067Y-63652400D01*
X99225165Y-63652400D01*
X101460364Y-65887600D01*
X101317067Y-65887600D01*
X100794275Y-66104148D01*
X100394148Y-66504275D01*
X100177600Y-67027067D01*
X100177600Y-67592933D01*
X100394148Y-68115725D01*
X100794275Y-68515852D01*
X101317067Y-68732400D01*
X101882933Y-68732400D01*
X102405725Y-68515852D01*
X102805852Y-68115725D01*
X102870000Y-67960858D01*
X102934148Y-68115725D01*
X103334275Y-68515852D01*
X103857067Y-68732400D01*
X104422933Y-68732400D01*
X104945725Y-68515852D01*
X105345852Y-68115725D01*
X105410000Y-67960858D01*
X105474148Y-68115725D01*
X105874275Y-68515852D01*
X106397067Y-68732400D01*
X106962933Y-68732400D01*
X107485725Y-68515852D01*
X107885852Y-68115725D01*
X108102400Y-67592933D01*
X108102400Y-67027067D01*
X108073625Y-66957599D01*
X122850364Y-66957599D01*
X124258523Y-68365759D01*
X124215908Y-68580000D01*
X124291693Y-68961000D01*
X123927472Y-68961000D01*
X123839921Y-68943585D01*
X123752370Y-68961000D01*
X123752366Y-68961000D01*
X123493052Y-69012581D01*
X123198989Y-69209067D01*
X123149393Y-69283293D01*
X119363307Y-73069379D01*
X119200862Y-72677201D01*
X118865000Y-72341339D01*
X118865000Y-71590131D01*
X120408981Y-70046151D01*
X120503744Y-70065000D01*
X120796256Y-70065000D01*
X121229418Y-69978839D01*
X121720625Y-69650625D01*
X122048839Y-69159418D01*
X122164092Y-68580000D01*
X122048839Y-68000582D01*
X121720625Y-67509375D01*
X121229418Y-67181161D01*
X121142171Y-67163806D01*
X121092854Y-67130854D01*
X120650000Y-67042765D01*
X120207145Y-67130854D01*
X120157828Y-67163807D01*
X120070582Y-67181161D01*
X119579375Y-67509375D01*
X119380000Y-67807761D01*
X119180625Y-67509375D01*
X118689418Y-67181161D01*
X118256256Y-67095000D01*
X117963744Y-67095000D01*
X117530582Y-67181161D01*
X117039375Y-67509375D01*
X117027184Y-67527619D01*
X117018157Y-67482235D01*
X116877809Y-67272191D01*
X116667765Y-67131843D01*
X116420000Y-67082560D01*
X114720000Y-67082560D01*
X114472235Y-67131843D01*
X114262191Y-67272191D01*
X114121843Y-67482235D01*
X114072560Y-67730000D01*
X114072560Y-69430000D01*
X114121843Y-69677765D01*
X114262191Y-69887809D01*
X114472235Y-70028157D01*
X114720000Y-70077440D01*
X116420000Y-70077440D01*
X116667765Y-70028157D01*
X116877809Y-69887809D01*
X117018157Y-69677765D01*
X117027184Y-69632381D01*
X117039375Y-69650625D01*
X117371995Y-69872874D01*
X116848392Y-70396477D01*
X116660854Y-70677146D01*
X116572765Y-71120000D01*
X116610559Y-71310002D01*
X116595001Y-71388217D01*
X116595001Y-72341338D01*
X116259138Y-72677201D01*
X115995000Y-73314887D01*
X115995000Y-74005113D01*
X116259138Y-74642799D01*
X116747201Y-75130862D01*
X117139379Y-75293307D01*
X109530286Y-82902401D01*
X108073625Y-82902401D01*
X108102400Y-82832933D01*
X108102400Y-82267067D01*
X107885852Y-81744275D01*
X107485725Y-81344148D01*
X106962933Y-81127600D01*
X106397067Y-81127600D01*
X105874275Y-81344148D01*
X105474148Y-81744275D01*
X105257600Y-82267067D01*
X105257600Y-82832933D01*
X105286375Y-82902401D01*
X102993625Y-82902401D01*
X103022400Y-82832933D01*
X103022400Y-82267067D01*
X102805852Y-81744275D01*
X102405725Y-81344148D01*
X101882933Y-81127600D01*
X101317067Y-81127600D01*
X100794275Y-81344148D01*
X100394148Y-81744275D01*
X100330000Y-81899142D01*
X100265852Y-81744275D01*
X99865725Y-81344148D01*
X99342933Y-81127600D01*
X98777067Y-81127600D01*
X98254275Y-81344148D01*
X97854148Y-81744275D01*
X97790000Y-81899142D01*
X97725852Y-81744275D01*
X97325725Y-81344148D01*
X96802933Y-81127600D01*
X96237067Y-81127600D01*
X95714275Y-81344148D01*
X95314148Y-81744275D01*
X95250000Y-81899142D01*
X95185852Y-81744275D01*
X94785725Y-81344148D01*
X94262933Y-81127600D01*
X93697067Y-81127600D01*
X93174275Y-81344148D01*
X92774148Y-81744275D01*
X92710000Y-81899142D01*
X92645852Y-81744275D01*
X92245725Y-81344148D01*
X91722933Y-81127600D01*
X91274835Y-81127600D01*
X91059000Y-80911765D01*
X91059000Y-68691779D01*
X91157067Y-68732400D01*
X91722933Y-68732400D01*
X92245725Y-68515852D01*
X92645852Y-68115725D01*
X92710000Y-67960858D01*
X92774148Y-68115725D01*
X93174275Y-68515852D01*
X93697067Y-68732400D01*
X94262933Y-68732400D01*
X94785725Y-68515852D01*
X95185852Y-68115725D01*
X95250000Y-67960858D01*
X95314148Y-68115725D01*
X95714275Y-68515852D01*
X96237067Y-68732400D01*
X96802933Y-68732400D01*
X97325725Y-68515852D01*
X97725852Y-68115725D01*
X97942400Y-67592933D01*
X97942400Y-67027067D01*
X97725852Y-66504275D01*
X97325725Y-66104148D01*
X96802933Y-65887600D01*
X96237067Y-65887600D01*
X95714275Y-66104148D01*
X95314148Y-66504275D01*
X95250000Y-66659142D01*
X95185852Y-66504275D01*
X94785725Y-66104148D01*
X94262933Y-65887600D01*
X93697067Y-65887600D01*
X93174275Y-66104148D01*
X92774148Y-66504275D01*
X92710000Y-66659142D01*
X92645852Y-66504275D01*
X92245725Y-66104148D01*
X91722933Y-65887600D01*
X91157067Y-65887600D01*
X91059000Y-65928221D01*
X91059000Y-63868235D01*
X91274835Y-63652400D01*
X91722933Y-63652400D01*
X92245725Y-63435852D01*
X92645852Y-63035725D01*
X92710000Y-62880858D01*
X92774148Y-63035725D01*
X93174275Y-63435852D01*
X93697067Y-63652400D01*
X94262933Y-63652400D01*
X94785725Y-63435852D01*
X95185852Y-63035725D01*
X95250000Y-62880858D01*
X95314148Y-63035725D01*
X95714275Y-63435852D01*
X96237067Y-63652400D01*
X96802933Y-63652400D01*
X97325725Y-63435852D01*
X97725852Y-63035725D01*
X97790000Y-62880858D01*
X97854148Y-63035725D01*
X97854148Y-63035725D01*
G37*
X97854148Y-63035725D02*
X98254275Y-63435852D01*
X98777067Y-63652400D01*
X99225165Y-63652400D01*
X101460364Y-65887600D01*
X101317067Y-65887600D01*
X100794275Y-66104148D01*
X100394148Y-66504275D01*
X100177600Y-67027067D01*
X100177600Y-67592933D01*
X100394148Y-68115725D01*
X100794275Y-68515852D01*
X101317067Y-68732400D01*
X101882933Y-68732400D01*
X102405725Y-68515852D01*
X102805852Y-68115725D01*
X102870000Y-67960858D01*
X102934148Y-68115725D01*
X103334275Y-68515852D01*
X103857067Y-68732400D01*
X104422933Y-68732400D01*
X104945725Y-68515852D01*
X105345852Y-68115725D01*
X105410000Y-67960858D01*
X105474148Y-68115725D01*
X105874275Y-68515852D01*
X106397067Y-68732400D01*
X106962933Y-68732400D01*
X107485725Y-68515852D01*
X107885852Y-68115725D01*
X108102400Y-67592933D01*
X108102400Y-67027067D01*
X108073625Y-66957599D01*
X122850364Y-66957599D01*
X124258523Y-68365759D01*
X124215908Y-68580000D01*
X124291693Y-68961000D01*
X123927472Y-68961000D01*
X123839921Y-68943585D01*
X123752370Y-68961000D01*
X123752366Y-68961000D01*
X123493052Y-69012581D01*
X123198989Y-69209067D01*
X123149393Y-69283293D01*
X119363307Y-73069379D01*
X119200862Y-72677201D01*
X118865000Y-72341339D01*
X118865000Y-71590131D01*
X120408981Y-70046151D01*
X120503744Y-70065000D01*
X120796256Y-70065000D01*
X121229418Y-69978839D01*
X121720625Y-69650625D01*
X122048839Y-69159418D01*
X122164092Y-68580000D01*
X122048839Y-68000582D01*
X121720625Y-67509375D01*
X121229418Y-67181161D01*
X121142171Y-67163806D01*
X121092854Y-67130854D01*
X120650000Y-67042765D01*
X120207145Y-67130854D01*
X120157828Y-67163807D01*
X120070582Y-67181161D01*
X119579375Y-67509375D01*
X119380000Y-67807761D01*
X119180625Y-67509375D01*
X118689418Y-67181161D01*
X118256256Y-67095000D01*
X117963744Y-67095000D01*
X117530582Y-67181161D01*
X117039375Y-67509375D01*
X117027184Y-67527619D01*
X117018157Y-67482235D01*
X116877809Y-67272191D01*
X116667765Y-67131843D01*
X116420000Y-67082560D01*
X114720000Y-67082560D01*
X114472235Y-67131843D01*
X114262191Y-67272191D01*
X114121843Y-67482235D01*
X114072560Y-67730000D01*
X114072560Y-69430000D01*
X114121843Y-69677765D01*
X114262191Y-69887809D01*
X114472235Y-70028157D01*
X114720000Y-70077440D01*
X116420000Y-70077440D01*
X116667765Y-70028157D01*
X116877809Y-69887809D01*
X117018157Y-69677765D01*
X117027184Y-69632381D01*
X117039375Y-69650625D01*
X117371995Y-69872874D01*
X116848392Y-70396477D01*
X116660854Y-70677146D01*
X116572765Y-71120000D01*
X116610559Y-71310002D01*
X116595001Y-71388217D01*
X116595001Y-72341338D01*
X116259138Y-72677201D01*
X115995000Y-73314887D01*
X115995000Y-74005113D01*
X116259138Y-74642799D01*
X116747201Y-75130862D01*
X117139379Y-75293307D01*
X109530286Y-82902401D01*
X108073625Y-82902401D01*
X108102400Y-82832933D01*
X108102400Y-82267067D01*
X107885852Y-81744275D01*
X107485725Y-81344148D01*
X106962933Y-81127600D01*
X106397067Y-81127600D01*
X105874275Y-81344148D01*
X105474148Y-81744275D01*
X105257600Y-82267067D01*
X105257600Y-82832933D01*
X105286375Y-82902401D01*
X102993625Y-82902401D01*
X103022400Y-82832933D01*
X103022400Y-82267067D01*
X102805852Y-81744275D01*
X102405725Y-81344148D01*
X101882933Y-81127600D01*
X101317067Y-81127600D01*
X100794275Y-81344148D01*
X100394148Y-81744275D01*
X100330000Y-81899142D01*
X100265852Y-81744275D01*
X99865725Y-81344148D01*
X99342933Y-81127600D01*
X98777067Y-81127600D01*
X98254275Y-81344148D01*
X97854148Y-81744275D01*
X97790000Y-81899142D01*
X97725852Y-81744275D01*
X97325725Y-81344148D01*
X96802933Y-81127600D01*
X96237067Y-81127600D01*
X95714275Y-81344148D01*
X95314148Y-81744275D01*
X95250000Y-81899142D01*
X95185852Y-81744275D01*
X94785725Y-81344148D01*
X94262933Y-81127600D01*
X93697067Y-81127600D01*
X93174275Y-81344148D01*
X92774148Y-81744275D01*
X92710000Y-81899142D01*
X92645852Y-81744275D01*
X92245725Y-81344148D01*
X91722933Y-81127600D01*
X91274835Y-81127600D01*
X91059000Y-80911765D01*
X91059000Y-68691779D01*
X91157067Y-68732400D01*
X91722933Y-68732400D01*
X92245725Y-68515852D01*
X92645852Y-68115725D01*
X92710000Y-67960858D01*
X92774148Y-68115725D01*
X93174275Y-68515852D01*
X93697067Y-68732400D01*
X94262933Y-68732400D01*
X94785725Y-68515852D01*
X95185852Y-68115725D01*
X95250000Y-67960858D01*
X95314148Y-68115725D01*
X95714275Y-68515852D01*
X96237067Y-68732400D01*
X96802933Y-68732400D01*
X97325725Y-68515852D01*
X97725852Y-68115725D01*
X97942400Y-67592933D01*
X97942400Y-67027067D01*
X97725852Y-66504275D01*
X97325725Y-66104148D01*
X96802933Y-65887600D01*
X96237067Y-65887600D01*
X95714275Y-66104148D01*
X95314148Y-66504275D01*
X95250000Y-66659142D01*
X95185852Y-66504275D01*
X94785725Y-66104148D01*
X94262933Y-65887600D01*
X93697067Y-65887600D01*
X93174275Y-66104148D01*
X92774148Y-66504275D01*
X92710000Y-66659142D01*
X92645852Y-66504275D01*
X92245725Y-66104148D01*
X91722933Y-65887600D01*
X91157067Y-65887600D01*
X91059000Y-65928221D01*
X91059000Y-63868235D01*
X91274835Y-63652400D01*
X91722933Y-63652400D01*
X92245725Y-63435852D01*
X92645852Y-63035725D01*
X92710000Y-62880858D01*
X92774148Y-63035725D01*
X93174275Y-63435852D01*
X93697067Y-63652400D01*
X94262933Y-63652400D01*
X94785725Y-63435852D01*
X95185852Y-63035725D01*
X95250000Y-62880858D01*
X95314148Y-63035725D01*
X95714275Y-63435852D01*
X96237067Y-63652400D01*
X96802933Y-63652400D01*
X97325725Y-63435852D01*
X97725852Y-63035725D01*
X97790000Y-62880858D01*
X97854148Y-63035725D01*
G36*
X117983000Y-44310235D02*
X117983000Y-44727881D01*
X118195680Y-45241337D01*
X118491000Y-45536657D01*
X118491001Y-46316674D01*
X118293584Y-46448584D01*
X118100398Y-46737706D01*
X118032560Y-47078750D01*
X118032560Y-47566250D01*
X118100398Y-47907294D01*
X118293584Y-48196416D01*
X118388744Y-48260000D01*
X118293584Y-48323584D01*
X118100398Y-48612706D01*
X118032560Y-48953750D01*
X118032560Y-49441250D01*
X118100398Y-49782294D01*
X118293584Y-50071416D01*
X118582706Y-50264602D01*
X118923750Y-50332440D01*
X119257705Y-50332440D01*
X120291970Y-51366706D01*
X120341567Y-51440933D01*
X120635630Y-51637419D01*
X120894944Y-51689000D01*
X120894948Y-51689000D01*
X120982499Y-51706415D01*
X121070050Y-51689000D01*
X123477539Y-51689000D01*
X123782391Y-51892695D01*
X124120754Y-51960000D01*
X124799246Y-51960000D01*
X125137609Y-51892695D01*
X125442461Y-51689000D01*
X129669604Y-51689000D01*
X129997138Y-52016534D01*
X130524561Y-52235000D01*
X130987765Y-52235000D01*
X132461000Y-53708236D01*
X132461001Y-75068151D01*
X132315423Y-75165423D01*
X132080000Y-75517758D01*
X131844577Y-75165423D01*
X131699000Y-75068152D01*
X131699000Y-73747555D01*
X131716416Y-73660000D01*
X131647768Y-73314887D01*
X131647419Y-73313130D01*
X131450933Y-73019067D01*
X131376707Y-72969471D01*
X127201477Y-68794242D01*
X127244092Y-68580000D01*
X127128839Y-68000582D01*
X126800625Y-67509375D01*
X126309418Y-67181161D01*
X125876256Y-67095000D01*
X125583744Y-67095000D01*
X125515759Y-67108523D01*
X123909130Y-65501895D01*
X123859532Y-65427666D01*
X123565469Y-65231180D01*
X123306155Y-65179599D01*
X123306154Y-65179599D01*
X123218599Y-65162183D01*
X123131044Y-65179599D01*
X104371332Y-65179599D01*
X104227556Y-65151000D01*
X104227555Y-65151000D01*
X104140000Y-65133584D01*
X104052445Y-65151000D01*
X103238236Y-65151000D01*
X102651362Y-64564126D01*
X124695000Y-64564126D01*
X124695000Y-64975874D01*
X124852569Y-65356280D01*
X125143720Y-65647431D01*
X125524126Y-65805000D01*
X125935874Y-65805000D01*
X126316280Y-65647431D01*
X126607431Y-65356280D01*
X126765000Y-64975874D01*
X126765000Y-64564126D01*
X126607431Y-64183720D01*
X126316280Y-63892569D01*
X125935874Y-63735000D01*
X125524126Y-63735000D01*
X125143720Y-63892569D01*
X124852569Y-64183720D01*
X124695000Y-64564126D01*
X102651362Y-64564126D01*
X101739636Y-63652400D01*
X101882933Y-63652400D01*
X102405725Y-63435852D01*
X102805852Y-63035725D01*
X103022400Y-62512933D01*
X103022400Y-61947067D01*
X105257600Y-61947067D01*
X105257600Y-62512933D01*
X105474148Y-63035725D01*
X105874275Y-63435852D01*
X106397067Y-63652400D01*
X106962933Y-63652400D01*
X107485725Y-63435852D01*
X107885852Y-63035725D01*
X108102400Y-62512933D01*
X108102400Y-61947067D01*
X107885852Y-61424275D01*
X107485725Y-61024148D01*
X106962933Y-60807600D01*
X106397067Y-60807600D01*
X105874275Y-61024148D01*
X105474148Y-61424275D01*
X105257600Y-61947067D01*
X103022400Y-61947067D01*
X102805852Y-61424275D01*
X102405725Y-61024148D01*
X101882933Y-60807600D01*
X101317067Y-60807600D01*
X100794275Y-61024148D01*
X100394148Y-61424275D01*
X100330000Y-61579142D01*
X100265852Y-61424275D01*
X99949000Y-61107423D01*
X99949000Y-58788235D01*
X100896707Y-57840529D01*
X100970933Y-57790933D01*
X101167419Y-57496870D01*
X101219000Y-57237556D01*
X101219000Y-57237552D01*
X101236415Y-57150001D01*
X101219000Y-57062450D01*
X101219000Y-48371779D01*
X101317067Y-48412400D01*
X101882933Y-48412400D01*
X102405725Y-48195852D01*
X102805852Y-47795725D01*
X102870000Y-47640858D01*
X102934148Y-47795725D01*
X103334275Y-48195852D01*
X103857067Y-48412400D01*
X104422933Y-48412400D01*
X104945725Y-48195852D01*
X105345852Y-47795725D01*
X105410000Y-47640858D01*
X105474148Y-47795725D01*
X105874275Y-48195852D01*
X106397067Y-48412400D01*
X106962933Y-48412400D01*
X107485725Y-48195852D01*
X107885852Y-47795725D01*
X108102400Y-47272933D01*
X108102400Y-46707067D01*
X107885852Y-46184275D01*
X107485725Y-45784148D01*
X106962933Y-45567600D01*
X106397067Y-45567600D01*
X105874275Y-45784148D01*
X105474148Y-46184275D01*
X105410000Y-46339142D01*
X105345852Y-46184275D01*
X104945725Y-45784148D01*
X104422933Y-45567600D01*
X103857067Y-45567600D01*
X103334275Y-45784148D01*
X102934148Y-46184275D01*
X102870000Y-46339142D01*
X102805852Y-46184275D01*
X102405725Y-45784148D01*
X101882933Y-45567600D01*
X101317067Y-45567600D01*
X101219000Y-45608221D01*
X101219000Y-44069000D01*
X117741765Y-44069000D01*
X117983000Y-44310235D01*
X117983000Y-44310235D01*
G37*
X117983000Y-44310235D02*
X117983000Y-44727881D01*
X118195680Y-45241337D01*
X118491000Y-45536657D01*
X118491001Y-46316674D01*
X118293584Y-46448584D01*
X118100398Y-46737706D01*
X118032560Y-47078750D01*
X118032560Y-47566250D01*
X118100398Y-47907294D01*
X118293584Y-48196416D01*
X118388744Y-48260000D01*
X118293584Y-48323584D01*
X118100398Y-48612706D01*
X118032560Y-48953750D01*
X118032560Y-49441250D01*
X118100398Y-49782294D01*
X118293584Y-50071416D01*
X118582706Y-50264602D01*
X118923750Y-50332440D01*
X119257705Y-50332440D01*
X120291970Y-51366706D01*
X120341567Y-51440933D01*
X120635630Y-51637419D01*
X120894944Y-51689000D01*
X120894948Y-51689000D01*
X120982499Y-51706415D01*
X121070050Y-51689000D01*
X123477539Y-51689000D01*
X123782391Y-51892695D01*
X124120754Y-51960000D01*
X124799246Y-51960000D01*
X125137609Y-51892695D01*
X125442461Y-51689000D01*
X129669604Y-51689000D01*
X129997138Y-52016534D01*
X130524561Y-52235000D01*
X130987765Y-52235000D01*
X132461000Y-53708236D01*
X132461001Y-75068151D01*
X132315423Y-75165423D01*
X132080000Y-75517758D01*
X131844577Y-75165423D01*
X131699000Y-75068152D01*
X131699000Y-73747555D01*
X131716416Y-73660000D01*
X131647768Y-73314887D01*
X131647419Y-73313130D01*
X131450933Y-73019067D01*
X131376707Y-72969471D01*
X127201477Y-68794242D01*
X127244092Y-68580000D01*
X127128839Y-68000582D01*
X126800625Y-67509375D01*
X126309418Y-67181161D01*
X125876256Y-67095000D01*
X125583744Y-67095000D01*
X125515759Y-67108523D01*
X123909130Y-65501895D01*
X123859532Y-65427666D01*
X123565469Y-65231180D01*
X123306155Y-65179599D01*
X123306154Y-65179599D01*
X123218599Y-65162183D01*
X123131044Y-65179599D01*
X104371332Y-65179599D01*
X104227556Y-65151000D01*
X104227555Y-65151000D01*
X104140000Y-65133584D01*
X104052445Y-65151000D01*
X103238236Y-65151000D01*
X102651362Y-64564126D01*
X124695000Y-64564126D01*
X124695000Y-64975874D01*
X124852569Y-65356280D01*
X125143720Y-65647431D01*
X125524126Y-65805000D01*
X125935874Y-65805000D01*
X126316280Y-65647431D01*
X126607431Y-65356280D01*
X126765000Y-64975874D01*
X126765000Y-64564126D01*
X126607431Y-64183720D01*
X126316280Y-63892569D01*
X125935874Y-63735000D01*
X125524126Y-63735000D01*
X125143720Y-63892569D01*
X124852569Y-64183720D01*
X124695000Y-64564126D01*
X102651362Y-64564126D01*
X101739636Y-63652400D01*
X101882933Y-63652400D01*
X102405725Y-63435852D01*
X102805852Y-63035725D01*
X103022400Y-62512933D01*
X103022400Y-61947067D01*
X105257600Y-61947067D01*
X105257600Y-62512933D01*
X105474148Y-63035725D01*
X105874275Y-63435852D01*
X106397067Y-63652400D01*
X106962933Y-63652400D01*
X107485725Y-63435852D01*
X107885852Y-63035725D01*
X108102400Y-62512933D01*
X108102400Y-61947067D01*
X107885852Y-61424275D01*
X107485725Y-61024148D01*
X106962933Y-60807600D01*
X106397067Y-60807600D01*
X105874275Y-61024148D01*
X105474148Y-61424275D01*
X105257600Y-61947067D01*
X103022400Y-61947067D01*
X102805852Y-61424275D01*
X102405725Y-61024148D01*
X101882933Y-60807600D01*
X101317067Y-60807600D01*
X100794275Y-61024148D01*
X100394148Y-61424275D01*
X100330000Y-61579142D01*
X100265852Y-61424275D01*
X99949000Y-61107423D01*
X99949000Y-58788235D01*
X100896707Y-57840529D01*
X100970933Y-57790933D01*
X101167419Y-57496870D01*
X101219000Y-57237556D01*
X101219000Y-57237552D01*
X101236415Y-57150001D01*
X101219000Y-57062450D01*
X101219000Y-48371779D01*
X101317067Y-48412400D01*
X101882933Y-48412400D01*
X102405725Y-48195852D01*
X102805852Y-47795725D01*
X102870000Y-47640858D01*
X102934148Y-47795725D01*
X103334275Y-48195852D01*
X103857067Y-48412400D01*
X104422933Y-48412400D01*
X104945725Y-48195852D01*
X105345852Y-47795725D01*
X105410000Y-47640858D01*
X105474148Y-47795725D01*
X105874275Y-48195852D01*
X106397067Y-48412400D01*
X106962933Y-48412400D01*
X107485725Y-48195852D01*
X107885852Y-47795725D01*
X108102400Y-47272933D01*
X108102400Y-46707067D01*
X107885852Y-46184275D01*
X107485725Y-45784148D01*
X106962933Y-45567600D01*
X106397067Y-45567600D01*
X105874275Y-45784148D01*
X105474148Y-46184275D01*
X105410000Y-46339142D01*
X105345852Y-46184275D01*
X104945725Y-45784148D01*
X104422933Y-45567600D01*
X103857067Y-45567600D01*
X103334275Y-45784148D01*
X102934148Y-46184275D01*
X102870000Y-46339142D01*
X102805852Y-46184275D01*
X102405725Y-45784148D01*
X101882933Y-45567600D01*
X101317067Y-45567600D01*
X101219000Y-45608221D01*
X101219000Y-44069000D01*
X117741765Y-44069000D01*
X117983000Y-44310235D01*
G36*
X97854148Y-42715725D02*
X98254275Y-43115852D01*
X98777067Y-43332400D01*
X99225164Y-43332400D01*
X99441000Y-43548236D01*
X99441001Y-56781763D01*
X98493296Y-57729469D01*
X98419067Y-57779067D01*
X98222581Y-58073131D01*
X98171000Y-58332444D01*
X98153584Y-58420000D01*
X98171000Y-58507555D01*
X98171001Y-61107422D01*
X97854148Y-61424275D01*
X97790000Y-61579142D01*
X97725852Y-61424275D01*
X97325725Y-61024148D01*
X96802933Y-60807600D01*
X96237067Y-60807600D01*
X95714275Y-61024148D01*
X95314148Y-61424275D01*
X95250000Y-61579142D01*
X95185852Y-61424275D01*
X94785725Y-61024148D01*
X94262933Y-60807600D01*
X93697067Y-60807600D01*
X93599000Y-60848221D01*
X93599000Y-48371779D01*
X93697067Y-48412400D01*
X94262933Y-48412400D01*
X94785725Y-48195852D01*
X95185852Y-47795725D01*
X95250000Y-47640858D01*
X95314148Y-47795725D01*
X95714275Y-48195852D01*
X96237067Y-48412400D01*
X96802933Y-48412400D01*
X97325725Y-48195852D01*
X97725852Y-47795725D01*
X97942400Y-47272933D01*
X97942400Y-46707067D01*
X97725852Y-46184275D01*
X97325725Y-45784148D01*
X96802933Y-45567600D01*
X96237067Y-45567600D01*
X95714275Y-45784148D01*
X95314148Y-46184275D01*
X95250000Y-46339142D01*
X95185852Y-46184275D01*
X94785725Y-45784148D01*
X94262933Y-45567600D01*
X93697067Y-45567600D01*
X93599000Y-45608221D01*
X93599000Y-43291779D01*
X93697067Y-43332400D01*
X94262933Y-43332400D01*
X94785725Y-43115852D01*
X95185852Y-42715725D01*
X95250000Y-42560858D01*
X95314148Y-42715725D01*
X95714275Y-43115852D01*
X96237067Y-43332400D01*
X96802933Y-43332400D01*
X97325725Y-43115852D01*
X97725852Y-42715725D01*
X97790000Y-42560858D01*
X97854148Y-42715725D01*
X97854148Y-42715725D01*
G37*
X97854148Y-42715725D02*
X98254275Y-43115852D01*
X98777067Y-43332400D01*
X99225164Y-43332400D01*
X99441000Y-43548236D01*
X99441001Y-56781763D01*
X98493296Y-57729469D01*
X98419067Y-57779067D01*
X98222581Y-58073131D01*
X98171000Y-58332444D01*
X98153584Y-58420000D01*
X98171000Y-58507555D01*
X98171001Y-61107422D01*
X97854148Y-61424275D01*
X97790000Y-61579142D01*
X97725852Y-61424275D01*
X97325725Y-61024148D01*
X96802933Y-60807600D01*
X96237067Y-60807600D01*
X95714275Y-61024148D01*
X95314148Y-61424275D01*
X95250000Y-61579142D01*
X95185852Y-61424275D01*
X94785725Y-61024148D01*
X94262933Y-60807600D01*
X93697067Y-60807600D01*
X93599000Y-60848221D01*
X93599000Y-48371779D01*
X93697067Y-48412400D01*
X94262933Y-48412400D01*
X94785725Y-48195852D01*
X95185852Y-47795725D01*
X95250000Y-47640858D01*
X95314148Y-47795725D01*
X95714275Y-48195852D01*
X96237067Y-48412400D01*
X96802933Y-48412400D01*
X97325725Y-48195852D01*
X97725852Y-47795725D01*
X97942400Y-47272933D01*
X97942400Y-46707067D01*
X97725852Y-46184275D01*
X97325725Y-45784148D01*
X96802933Y-45567600D01*
X96237067Y-45567600D01*
X95714275Y-45784148D01*
X95314148Y-46184275D01*
X95250000Y-46339142D01*
X95185852Y-46184275D01*
X94785725Y-45784148D01*
X94262933Y-45567600D01*
X93697067Y-45567600D01*
X93599000Y-45608221D01*
X93599000Y-43291779D01*
X93697067Y-43332400D01*
X94262933Y-43332400D01*
X94785725Y-43115852D01*
X95185852Y-42715725D01*
X95250000Y-42560858D01*
X95314148Y-42715725D01*
X95714275Y-43115852D01*
X96237067Y-43332400D01*
X96802933Y-43332400D01*
X97325725Y-43115852D01*
X97725852Y-42715725D01*
X97790000Y-42560858D01*
X97854148Y-42715725D01*
G36*
X150059375Y-19249375D02*
X149731161Y-19740582D01*
X149615908Y-20320000D01*
X149731161Y-20899418D01*
X150059375Y-21390625D01*
X150077619Y-21402816D01*
X150032235Y-21411843D01*
X149822191Y-21552191D01*
X149681843Y-21762235D01*
X149632560Y-22010000D01*
X149632560Y-23710000D01*
X149681843Y-23957765D01*
X149822191Y-24167809D01*
X149882595Y-24208170D01*
X149009295Y-25081470D01*
X148935066Y-25131068D01*
X148738580Y-25425132D01*
X148686999Y-25684445D01*
X148669583Y-25772001D01*
X148686999Y-25859556D01*
X148687000Y-32310440D01*
X148669583Y-32397999D01*
X148738581Y-32744869D01*
X148861459Y-32928769D01*
X148935067Y-33038932D01*
X149009293Y-33088528D01*
X149782546Y-33861781D01*
X149782235Y-33861843D01*
X149572191Y-34002191D01*
X149431843Y-34212235D01*
X149382560Y-34460000D01*
X149382560Y-36660000D01*
X149431843Y-36907765D01*
X149572191Y-37117809D01*
X149782235Y-37258157D01*
X150030000Y-37307440D01*
X150241000Y-37307440D01*
X150241001Y-37877344D01*
X149879135Y-38119135D01*
X149495666Y-38693037D01*
X149361010Y-39370000D01*
X149495666Y-40046963D01*
X149879135Y-40620865D01*
X150453037Y-41004334D01*
X150959120Y-41105000D01*
X151300880Y-41105000D01*
X151795001Y-41006713D01*
X151795002Y-45242560D01*
X150030000Y-45242560D01*
X149782235Y-45291843D01*
X149572191Y-45432191D01*
X149431843Y-45642235D01*
X149382560Y-45890000D01*
X149382560Y-48090000D01*
X149431843Y-48337765D01*
X149572191Y-48547809D01*
X149782235Y-48688157D01*
X150030000Y-48737440D01*
X150241000Y-48737440D01*
X150241001Y-50126674D01*
X150043584Y-50258584D01*
X149850398Y-50547706D01*
X149782560Y-50888750D01*
X149782560Y-51376250D01*
X149850398Y-51717294D01*
X150043584Y-52006416D01*
X150138744Y-52070000D01*
X150043584Y-52133584D01*
X149850398Y-52422706D01*
X149782560Y-52763750D01*
X149782560Y-53251250D01*
X149788538Y-53281302D01*
X149479000Y-52971765D01*
X149479000Y-50887550D01*
X149496415Y-50799999D01*
X149479000Y-50712448D01*
X149479000Y-50712444D01*
X149427419Y-50453130D01*
X149230933Y-50159067D01*
X149156707Y-50109471D01*
X148010531Y-48963296D01*
X147960933Y-48889067D01*
X147666870Y-48692581D01*
X147407556Y-48641000D01*
X147407555Y-48641000D01*
X147320000Y-48623584D01*
X147232445Y-48641000D01*
X125442461Y-48641000D01*
X125137609Y-48437305D01*
X124799246Y-48370000D01*
X124120754Y-48370000D01*
X123782391Y-48437305D01*
X123398687Y-48693687D01*
X123142305Y-49077391D01*
X123052275Y-49530000D01*
X123128061Y-49911000D01*
X121350736Y-49911000D01*
X120727440Y-49287705D01*
X120727440Y-48953750D01*
X120659602Y-48612706D01*
X120466416Y-48323584D01*
X120371256Y-48260000D01*
X120466416Y-48196416D01*
X120659602Y-47907294D01*
X120727440Y-47566250D01*
X120727440Y-47078750D01*
X120659602Y-46737706D01*
X120466416Y-46448584D01*
X120269000Y-46316674D01*
X120269000Y-45536657D01*
X120564320Y-45241337D01*
X120650000Y-45034487D01*
X120735680Y-45241337D01*
X121128663Y-45634320D01*
X121642119Y-45847000D01*
X122197881Y-45847000D01*
X122711337Y-45634320D01*
X123104320Y-45241337D01*
X123190000Y-45034487D01*
X123275680Y-45241337D01*
X123668663Y-45634320D01*
X124182119Y-45847000D01*
X124737881Y-45847000D01*
X125251337Y-45634320D01*
X125644320Y-45241337D01*
X125730000Y-45034487D01*
X125815680Y-45241337D01*
X126208663Y-45634320D01*
X126722119Y-45847000D01*
X127277881Y-45847000D01*
X127791337Y-45634320D01*
X128184320Y-45241337D01*
X128270000Y-45034487D01*
X128355680Y-45241337D01*
X128748663Y-45634320D01*
X129262119Y-45847000D01*
X129817881Y-45847000D01*
X130331337Y-45634320D01*
X130724320Y-45241337D01*
X130810000Y-45034487D01*
X130895680Y-45241337D01*
X131288663Y-45634320D01*
X131802119Y-45847000D01*
X132357881Y-45847000D01*
X132871337Y-45634320D01*
X133264320Y-45241337D01*
X133350000Y-45034487D01*
X133435680Y-45241337D01*
X133828663Y-45634320D01*
X134342119Y-45847000D01*
X134897881Y-45847000D01*
X135411337Y-45634320D01*
X135804320Y-45241337D01*
X136017000Y-44727881D01*
X136017000Y-44172119D01*
X135804320Y-43658663D01*
X135411337Y-43265680D01*
X134897881Y-43053000D01*
X134342119Y-43053000D01*
X133828663Y-43265680D01*
X133435680Y-43658663D01*
X133350000Y-43865513D01*
X133264320Y-43658663D01*
X132871337Y-43265680D01*
X132357881Y-43053000D01*
X131802119Y-43053000D01*
X131288663Y-43265680D01*
X130895680Y-43658663D01*
X130810000Y-43865513D01*
X130724320Y-43658663D01*
X130331337Y-43265680D01*
X129817881Y-43053000D01*
X129262119Y-43053000D01*
X128748663Y-43265680D01*
X128355680Y-43658663D01*
X128270000Y-43865513D01*
X128184320Y-43658663D01*
X127791337Y-43265680D01*
X127277881Y-43053000D01*
X126722119Y-43053000D01*
X126208663Y-43265680D01*
X125815680Y-43658663D01*
X125730000Y-43865513D01*
X125644320Y-43658663D01*
X125251337Y-43265680D01*
X124737881Y-43053000D01*
X124182119Y-43053000D01*
X123668663Y-43265680D01*
X123275680Y-43658663D01*
X123190000Y-43865513D01*
X123104320Y-43658663D01*
X122711337Y-43265680D01*
X122197881Y-43053000D01*
X121642119Y-43053000D01*
X121128663Y-43265680D01*
X120735680Y-43658663D01*
X120650000Y-43865513D01*
X120564320Y-43658663D01*
X120171337Y-43265680D01*
X119657881Y-43053000D01*
X119240235Y-43053000D01*
X118800531Y-42613296D01*
X118750933Y-42539067D01*
X118456870Y-42342581D01*
X118197556Y-42291000D01*
X118197555Y-42291000D01*
X118110000Y-42273584D01*
X118022445Y-42291000D01*
X108061779Y-42291000D01*
X108102400Y-42192933D01*
X108102400Y-41627067D01*
X107885852Y-41104275D01*
X107485725Y-40704148D01*
X106962933Y-40487600D01*
X106397067Y-40487600D01*
X105874275Y-40704148D01*
X105474148Y-41104275D01*
X105257600Y-41627067D01*
X105257600Y-42192933D01*
X105298221Y-42291000D01*
X102981779Y-42291000D01*
X103022400Y-42192933D01*
X103022400Y-41627067D01*
X102805852Y-41104275D01*
X102405725Y-40704148D01*
X101882933Y-40487600D01*
X101317067Y-40487600D01*
X100794275Y-40704148D01*
X100394148Y-41104275D01*
X100330000Y-41259142D01*
X100265852Y-41104275D01*
X99949000Y-40787423D01*
X99949000Y-40727550D01*
X99966415Y-40639999D01*
X99949000Y-40552448D01*
X99949000Y-40552444D01*
X99897419Y-40293130D01*
X99700933Y-39999067D01*
X99626707Y-39949471D01*
X98813431Y-39136196D01*
X98667431Y-38783720D01*
X98376280Y-38492569D01*
X97995874Y-38335000D01*
X97584126Y-38335000D01*
X97203720Y-38492569D01*
X96912569Y-38783720D01*
X96755000Y-39164126D01*
X96755000Y-39575874D01*
X96912569Y-39956280D01*
X97203720Y-40247431D01*
X97556196Y-40393431D01*
X98060594Y-40897829D01*
X97854148Y-41104275D01*
X97790000Y-41259142D01*
X97725852Y-41104275D01*
X97325725Y-40704148D01*
X96802933Y-40487600D01*
X96237067Y-40487600D01*
X95714275Y-40704148D01*
X95314148Y-41104275D01*
X95250000Y-41259142D01*
X95185852Y-41104275D01*
X94785725Y-40704148D01*
X94262933Y-40487600D01*
X93697067Y-40487600D01*
X93174275Y-40704148D01*
X92774148Y-41104275D01*
X92710000Y-41259142D01*
X92645852Y-41104275D01*
X92245725Y-40704148D01*
X91722933Y-40487600D01*
X91274836Y-40487600D01*
X80700531Y-29913296D01*
X80650933Y-29839067D01*
X80356870Y-29642581D01*
X80097556Y-29591000D01*
X80097555Y-29591000D01*
X80010000Y-29573584D01*
X79922445Y-29591000D01*
X72758236Y-29591000D01*
X71259636Y-28092400D01*
X71402933Y-28092400D01*
X71925725Y-27875852D01*
X72325852Y-27475725D01*
X72390000Y-27320858D01*
X72454148Y-27475725D01*
X72854275Y-27875852D01*
X73377067Y-28092400D01*
X73942933Y-28092400D01*
X74465725Y-27875852D01*
X74865852Y-27475725D01*
X74930000Y-27320858D01*
X74994148Y-27475725D01*
X75394275Y-27875852D01*
X75917067Y-28092400D01*
X76336565Y-28092400D01*
X76750872Y-28506707D01*
X76800468Y-28580933D01*
X77094531Y-28777419D01*
X77353845Y-28829000D01*
X77441400Y-28846416D01*
X77528955Y-28829000D01*
X123102445Y-28829000D01*
X123190000Y-28846416D01*
X123277555Y-28829000D01*
X123277556Y-28829000D01*
X123536870Y-28777419D01*
X123830933Y-28580933D01*
X123880531Y-28506704D01*
X129400236Y-22987000D01*
X129817881Y-22987000D01*
X130331337Y-22774320D01*
X130724320Y-22381337D01*
X130810000Y-22174487D01*
X130895680Y-22381337D01*
X131288663Y-22774320D01*
X131802119Y-22987000D01*
X132357881Y-22987000D01*
X132871337Y-22774320D01*
X133264320Y-22381337D01*
X133350000Y-22174487D01*
X133435680Y-22381337D01*
X133828663Y-22774320D01*
X134342119Y-22987000D01*
X134897881Y-22987000D01*
X135411337Y-22774320D01*
X135804320Y-22381337D01*
X136017000Y-21867881D01*
X136017000Y-21312119D01*
X135804320Y-20798663D01*
X135411337Y-20405680D01*
X134897881Y-20193000D01*
X134342119Y-20193000D01*
X133828663Y-20405680D01*
X133435680Y-20798663D01*
X133350000Y-21005513D01*
X133264320Y-20798663D01*
X132871337Y-20405680D01*
X132357881Y-20193000D01*
X131802119Y-20193000D01*
X131288663Y-20405680D01*
X130895680Y-20798663D01*
X130810000Y-21005513D01*
X130724320Y-20798663D01*
X130331337Y-20405680D01*
X129817881Y-20193000D01*
X129262119Y-20193000D01*
X128748663Y-20405680D01*
X128355680Y-20798663D01*
X128270000Y-21005513D01*
X128184320Y-20798663D01*
X127791337Y-20405680D01*
X127277881Y-20193000D01*
X126860236Y-20193000D01*
X125844235Y-19177000D01*
X150167692Y-19177000D01*
X150059375Y-19249375D01*
X150059375Y-19249375D01*
G37*
X150059375Y-19249375D02*
X149731161Y-19740582D01*
X149615908Y-20320000D01*
X149731161Y-20899418D01*
X150059375Y-21390625D01*
X150077619Y-21402816D01*
X150032235Y-21411843D01*
X149822191Y-21552191D01*
X149681843Y-21762235D01*
X149632560Y-22010000D01*
X149632560Y-23710000D01*
X149681843Y-23957765D01*
X149822191Y-24167809D01*
X149882595Y-24208170D01*
X149009295Y-25081470D01*
X148935066Y-25131068D01*
X148738580Y-25425132D01*
X148686999Y-25684445D01*
X148669583Y-25772001D01*
X148686999Y-25859556D01*
X148687000Y-32310440D01*
X148669583Y-32397999D01*
X148738581Y-32744869D01*
X148861459Y-32928769D01*
X148935067Y-33038932D01*
X149009293Y-33088528D01*
X149782546Y-33861781D01*
X149782235Y-33861843D01*
X149572191Y-34002191D01*
X149431843Y-34212235D01*
X149382560Y-34460000D01*
X149382560Y-36660000D01*
X149431843Y-36907765D01*
X149572191Y-37117809D01*
X149782235Y-37258157D01*
X150030000Y-37307440D01*
X150241000Y-37307440D01*
X150241001Y-37877344D01*
X149879135Y-38119135D01*
X149495666Y-38693037D01*
X149361010Y-39370000D01*
X149495666Y-40046963D01*
X149879135Y-40620865D01*
X150453037Y-41004334D01*
X150959120Y-41105000D01*
X151300880Y-41105000D01*
X151795001Y-41006713D01*
X151795002Y-45242560D01*
X150030000Y-45242560D01*
X149782235Y-45291843D01*
X149572191Y-45432191D01*
X149431843Y-45642235D01*
X149382560Y-45890000D01*
X149382560Y-48090000D01*
X149431843Y-48337765D01*
X149572191Y-48547809D01*
X149782235Y-48688157D01*
X150030000Y-48737440D01*
X150241000Y-48737440D01*
X150241001Y-50126674D01*
X150043584Y-50258584D01*
X149850398Y-50547706D01*
X149782560Y-50888750D01*
X149782560Y-51376250D01*
X149850398Y-51717294D01*
X150043584Y-52006416D01*
X150138744Y-52070000D01*
X150043584Y-52133584D01*
X149850398Y-52422706D01*
X149782560Y-52763750D01*
X149782560Y-53251250D01*
X149788538Y-53281302D01*
X149479000Y-52971765D01*
X149479000Y-50887550D01*
X149496415Y-50799999D01*
X149479000Y-50712448D01*
X149479000Y-50712444D01*
X149427419Y-50453130D01*
X149230933Y-50159067D01*
X149156707Y-50109471D01*
X148010531Y-48963296D01*
X147960933Y-48889067D01*
X147666870Y-48692581D01*
X147407556Y-48641000D01*
X147407555Y-48641000D01*
X147320000Y-48623584D01*
X147232445Y-48641000D01*
X125442461Y-48641000D01*
X125137609Y-48437305D01*
X124799246Y-48370000D01*
X124120754Y-48370000D01*
X123782391Y-48437305D01*
X123398687Y-48693687D01*
X123142305Y-49077391D01*
X123052275Y-49530000D01*
X123128061Y-49911000D01*
X121350736Y-49911000D01*
X120727440Y-49287705D01*
X120727440Y-48953750D01*
X120659602Y-48612706D01*
X120466416Y-48323584D01*
X120371256Y-48260000D01*
X120466416Y-48196416D01*
X120659602Y-47907294D01*
X120727440Y-47566250D01*
X120727440Y-47078750D01*
X120659602Y-46737706D01*
X120466416Y-46448584D01*
X120269000Y-46316674D01*
X120269000Y-45536657D01*
X120564320Y-45241337D01*
X120650000Y-45034487D01*
X120735680Y-45241337D01*
X121128663Y-45634320D01*
X121642119Y-45847000D01*
X122197881Y-45847000D01*
X122711337Y-45634320D01*
X123104320Y-45241337D01*
X123190000Y-45034487D01*
X123275680Y-45241337D01*
X123668663Y-45634320D01*
X124182119Y-45847000D01*
X124737881Y-45847000D01*
X125251337Y-45634320D01*
X125644320Y-45241337D01*
X125730000Y-45034487D01*
X125815680Y-45241337D01*
X126208663Y-45634320D01*
X126722119Y-45847000D01*
X127277881Y-45847000D01*
X127791337Y-45634320D01*
X128184320Y-45241337D01*
X128270000Y-45034487D01*
X128355680Y-45241337D01*
X128748663Y-45634320D01*
X129262119Y-45847000D01*
X129817881Y-45847000D01*
X130331337Y-45634320D01*
X130724320Y-45241337D01*
X130810000Y-45034487D01*
X130895680Y-45241337D01*
X131288663Y-45634320D01*
X131802119Y-45847000D01*
X132357881Y-45847000D01*
X132871337Y-45634320D01*
X133264320Y-45241337D01*
X133350000Y-45034487D01*
X133435680Y-45241337D01*
X133828663Y-45634320D01*
X134342119Y-45847000D01*
X134897881Y-45847000D01*
X135411337Y-45634320D01*
X135804320Y-45241337D01*
X136017000Y-44727881D01*
X136017000Y-44172119D01*
X135804320Y-43658663D01*
X135411337Y-43265680D01*
X134897881Y-43053000D01*
X134342119Y-43053000D01*
X133828663Y-43265680D01*
X133435680Y-43658663D01*
X133350000Y-43865513D01*
X133264320Y-43658663D01*
X132871337Y-43265680D01*
X132357881Y-43053000D01*
X131802119Y-43053000D01*
X131288663Y-43265680D01*
X130895680Y-43658663D01*
X130810000Y-43865513D01*
X130724320Y-43658663D01*
X130331337Y-43265680D01*
X129817881Y-43053000D01*
X129262119Y-43053000D01*
X128748663Y-43265680D01*
X128355680Y-43658663D01*
X128270000Y-43865513D01*
X128184320Y-43658663D01*
X127791337Y-43265680D01*
X127277881Y-43053000D01*
X126722119Y-43053000D01*
X126208663Y-43265680D01*
X125815680Y-43658663D01*
X125730000Y-43865513D01*
X125644320Y-43658663D01*
X125251337Y-43265680D01*
X124737881Y-43053000D01*
X124182119Y-43053000D01*
X123668663Y-43265680D01*
X123275680Y-43658663D01*
X123190000Y-43865513D01*
X123104320Y-43658663D01*
X122711337Y-43265680D01*
X122197881Y-43053000D01*
X121642119Y-43053000D01*
X121128663Y-43265680D01*
X120735680Y-43658663D01*
X120650000Y-43865513D01*
X120564320Y-43658663D01*
X120171337Y-43265680D01*
X119657881Y-43053000D01*
X119240235Y-43053000D01*
X118800531Y-42613296D01*
X118750933Y-42539067D01*
X118456870Y-42342581D01*
X118197556Y-42291000D01*
X118197555Y-42291000D01*
X118110000Y-42273584D01*
X118022445Y-42291000D01*
X108061779Y-42291000D01*
X108102400Y-42192933D01*
X108102400Y-41627067D01*
X107885852Y-41104275D01*
X107485725Y-40704148D01*
X106962933Y-40487600D01*
X106397067Y-40487600D01*
X105874275Y-40704148D01*
X105474148Y-41104275D01*
X105257600Y-41627067D01*
X105257600Y-42192933D01*
X105298221Y-42291000D01*
X102981779Y-42291000D01*
X103022400Y-42192933D01*
X103022400Y-41627067D01*
X102805852Y-41104275D01*
X102405725Y-40704148D01*
X101882933Y-40487600D01*
X101317067Y-40487600D01*
X100794275Y-40704148D01*
X100394148Y-41104275D01*
X100330000Y-41259142D01*
X100265852Y-41104275D01*
X99949000Y-40787423D01*
X99949000Y-40727550D01*
X99966415Y-40639999D01*
X99949000Y-40552448D01*
X99949000Y-40552444D01*
X99897419Y-40293130D01*
X99700933Y-39999067D01*
X99626707Y-39949471D01*
X98813431Y-39136196D01*
X98667431Y-38783720D01*
X98376280Y-38492569D01*
X97995874Y-38335000D01*
X97584126Y-38335000D01*
X97203720Y-38492569D01*
X96912569Y-38783720D01*
X96755000Y-39164126D01*
X96755000Y-39575874D01*
X96912569Y-39956280D01*
X97203720Y-40247431D01*
X97556196Y-40393431D01*
X98060594Y-40897829D01*
X97854148Y-41104275D01*
X97790000Y-41259142D01*
X97725852Y-41104275D01*
X97325725Y-40704148D01*
X96802933Y-40487600D01*
X96237067Y-40487600D01*
X95714275Y-40704148D01*
X95314148Y-41104275D01*
X95250000Y-41259142D01*
X95185852Y-41104275D01*
X94785725Y-40704148D01*
X94262933Y-40487600D01*
X93697067Y-40487600D01*
X93174275Y-40704148D01*
X92774148Y-41104275D01*
X92710000Y-41259142D01*
X92645852Y-41104275D01*
X92245725Y-40704148D01*
X91722933Y-40487600D01*
X91274836Y-40487600D01*
X80700531Y-29913296D01*
X80650933Y-29839067D01*
X80356870Y-29642581D01*
X80097556Y-29591000D01*
X80097555Y-29591000D01*
X80010000Y-29573584D01*
X79922445Y-29591000D01*
X72758236Y-29591000D01*
X71259636Y-28092400D01*
X71402933Y-28092400D01*
X71925725Y-27875852D01*
X72325852Y-27475725D01*
X72390000Y-27320858D01*
X72454148Y-27475725D01*
X72854275Y-27875852D01*
X73377067Y-28092400D01*
X73942933Y-28092400D01*
X74465725Y-27875852D01*
X74865852Y-27475725D01*
X74930000Y-27320858D01*
X74994148Y-27475725D01*
X75394275Y-27875852D01*
X75917067Y-28092400D01*
X76336565Y-28092400D01*
X76750872Y-28506707D01*
X76800468Y-28580933D01*
X77094531Y-28777419D01*
X77353845Y-28829000D01*
X77441400Y-28846416D01*
X77528955Y-28829000D01*
X123102445Y-28829000D01*
X123190000Y-28846416D01*
X123277555Y-28829000D01*
X123277556Y-28829000D01*
X123536870Y-28777419D01*
X123830933Y-28580933D01*
X123880531Y-28506704D01*
X129400236Y-22987000D01*
X129817881Y-22987000D01*
X130331337Y-22774320D01*
X130724320Y-22381337D01*
X130810000Y-22174487D01*
X130895680Y-22381337D01*
X131288663Y-22774320D01*
X131802119Y-22987000D01*
X132357881Y-22987000D01*
X132871337Y-22774320D01*
X133264320Y-22381337D01*
X133350000Y-22174487D01*
X133435680Y-22381337D01*
X133828663Y-22774320D01*
X134342119Y-22987000D01*
X134897881Y-22987000D01*
X135411337Y-22774320D01*
X135804320Y-22381337D01*
X136017000Y-21867881D01*
X136017000Y-21312119D01*
X135804320Y-20798663D01*
X135411337Y-20405680D01*
X134897881Y-20193000D01*
X134342119Y-20193000D01*
X133828663Y-20405680D01*
X133435680Y-20798663D01*
X133350000Y-21005513D01*
X133264320Y-20798663D01*
X132871337Y-20405680D01*
X132357881Y-20193000D01*
X131802119Y-20193000D01*
X131288663Y-20405680D01*
X130895680Y-20798663D01*
X130810000Y-21005513D01*
X130724320Y-20798663D01*
X130331337Y-20405680D01*
X129817881Y-20193000D01*
X129262119Y-20193000D01*
X128748663Y-20405680D01*
X128355680Y-20798663D01*
X128270000Y-21005513D01*
X128184320Y-20798663D01*
X127791337Y-20405680D01*
X127277881Y-20193000D01*
X126860236Y-20193000D01*
X125844235Y-19177000D01*
X150167692Y-19177000D01*
X150059375Y-19249375D01*
G36*
X125815680Y-22381337D02*
X126208663Y-22774320D01*
X126722119Y-22987000D01*
X126885764Y-22987000D01*
X122821765Y-27051000D01*
X108061779Y-27051000D01*
X108102400Y-26952933D01*
X108102400Y-26387067D01*
X107885852Y-25864275D01*
X107485725Y-25464148D01*
X106962933Y-25247600D01*
X106397067Y-25247600D01*
X105874275Y-25464148D01*
X105474148Y-25864275D01*
X105410000Y-26019142D01*
X105345852Y-25864275D01*
X104945725Y-25464148D01*
X104422933Y-25247600D01*
X103857067Y-25247600D01*
X103334275Y-25464148D01*
X102934148Y-25864275D01*
X102870000Y-26019142D01*
X102805852Y-25864275D01*
X102405725Y-25464148D01*
X101882933Y-25247600D01*
X101317067Y-25247600D01*
X100794275Y-25464148D01*
X100394148Y-25864275D01*
X100177600Y-26387067D01*
X100177600Y-26952933D01*
X100218221Y-27051000D01*
X97901779Y-27051000D01*
X97942400Y-26952933D01*
X97942400Y-26387067D01*
X97725852Y-25864275D01*
X97325725Y-25464148D01*
X96802933Y-25247600D01*
X96237067Y-25247600D01*
X95714275Y-25464148D01*
X95314148Y-25864275D01*
X95250000Y-26019142D01*
X95185852Y-25864275D01*
X94785725Y-25464148D01*
X94262933Y-25247600D01*
X93697067Y-25247600D01*
X93174275Y-25464148D01*
X92774148Y-25864275D01*
X92710000Y-26019142D01*
X92645852Y-25864275D01*
X92245725Y-25464148D01*
X91722933Y-25247600D01*
X91157067Y-25247600D01*
X90634275Y-25464148D01*
X90234148Y-25864275D01*
X90170000Y-26019142D01*
X90105852Y-25864275D01*
X89705725Y-25464148D01*
X89182933Y-25247600D01*
X88617067Y-25247600D01*
X88094275Y-25464148D01*
X87694148Y-25864275D01*
X87630000Y-26019142D01*
X87565852Y-25864275D01*
X87165725Y-25464148D01*
X86642933Y-25247600D01*
X86077067Y-25247600D01*
X85554275Y-25464148D01*
X85154148Y-25864275D01*
X85090000Y-26019142D01*
X85025852Y-25864275D01*
X84625725Y-25464148D01*
X84102933Y-25247600D01*
X83537067Y-25247600D01*
X83014275Y-25464148D01*
X82614148Y-25864275D01*
X82550000Y-26019142D01*
X82485852Y-25864275D01*
X82085725Y-25464148D01*
X81562933Y-25247600D01*
X80997067Y-25247600D01*
X80474275Y-25464148D01*
X80074148Y-25864275D01*
X80010000Y-26019142D01*
X79945852Y-25864275D01*
X79545725Y-25464148D01*
X79022933Y-25247600D01*
X78457067Y-25247600D01*
X77934275Y-25464148D01*
X77534148Y-25864275D01*
X77470000Y-26019142D01*
X77405852Y-25864275D01*
X77005725Y-25464148D01*
X76482933Y-25247600D01*
X76339635Y-25247600D01*
X77892235Y-23695001D01*
X120616444Y-23695001D01*
X120703999Y-23712417D01*
X120791554Y-23695001D01*
X120791555Y-23695001D01*
X121050869Y-23643420D01*
X121344932Y-23446934D01*
X121394530Y-23372705D01*
X121780235Y-22987000D01*
X122197881Y-22987000D01*
X122711337Y-22774320D01*
X123104320Y-22381337D01*
X123190000Y-22174487D01*
X123275680Y-22381337D01*
X123668663Y-22774320D01*
X124182119Y-22987000D01*
X124737881Y-22987000D01*
X125251337Y-22774320D01*
X125644320Y-22381337D01*
X125730000Y-22174487D01*
X125815680Y-22381337D01*
X125815680Y-22381337D01*
G37*
X125815680Y-22381337D02*
X126208663Y-22774320D01*
X126722119Y-22987000D01*
X126885764Y-22987000D01*
X122821765Y-27051000D01*
X108061779Y-27051000D01*
X108102400Y-26952933D01*
X108102400Y-26387067D01*
X107885852Y-25864275D01*
X107485725Y-25464148D01*
X106962933Y-25247600D01*
X106397067Y-25247600D01*
X105874275Y-25464148D01*
X105474148Y-25864275D01*
X105410000Y-26019142D01*
X105345852Y-25864275D01*
X104945725Y-25464148D01*
X104422933Y-25247600D01*
X103857067Y-25247600D01*
X103334275Y-25464148D01*
X102934148Y-25864275D01*
X102870000Y-26019142D01*
X102805852Y-25864275D01*
X102405725Y-25464148D01*
X101882933Y-25247600D01*
X101317067Y-25247600D01*
X100794275Y-25464148D01*
X100394148Y-25864275D01*
X100177600Y-26387067D01*
X100177600Y-26952933D01*
X100218221Y-27051000D01*
X97901779Y-27051000D01*
X97942400Y-26952933D01*
X97942400Y-26387067D01*
X97725852Y-25864275D01*
X97325725Y-25464148D01*
X96802933Y-25247600D01*
X96237067Y-25247600D01*
X95714275Y-25464148D01*
X95314148Y-25864275D01*
X95250000Y-26019142D01*
X95185852Y-25864275D01*
X94785725Y-25464148D01*
X94262933Y-25247600D01*
X93697067Y-25247600D01*
X93174275Y-25464148D01*
X92774148Y-25864275D01*
X92710000Y-26019142D01*
X92645852Y-25864275D01*
X92245725Y-25464148D01*
X91722933Y-25247600D01*
X91157067Y-25247600D01*
X90634275Y-25464148D01*
X90234148Y-25864275D01*
X90170000Y-26019142D01*
X90105852Y-25864275D01*
X89705725Y-25464148D01*
X89182933Y-25247600D01*
X88617067Y-25247600D01*
X88094275Y-25464148D01*
X87694148Y-25864275D01*
X87630000Y-26019142D01*
X87565852Y-25864275D01*
X87165725Y-25464148D01*
X86642933Y-25247600D01*
X86077067Y-25247600D01*
X85554275Y-25464148D01*
X85154148Y-25864275D01*
X85090000Y-26019142D01*
X85025852Y-25864275D01*
X84625725Y-25464148D01*
X84102933Y-25247600D01*
X83537067Y-25247600D01*
X83014275Y-25464148D01*
X82614148Y-25864275D01*
X82550000Y-26019142D01*
X82485852Y-25864275D01*
X82085725Y-25464148D01*
X81562933Y-25247600D01*
X80997067Y-25247600D01*
X80474275Y-25464148D01*
X80074148Y-25864275D01*
X80010000Y-26019142D01*
X79945852Y-25864275D01*
X79545725Y-25464148D01*
X79022933Y-25247600D01*
X78457067Y-25247600D01*
X77934275Y-25464148D01*
X77534148Y-25864275D01*
X77470000Y-26019142D01*
X77405852Y-25864275D01*
X77005725Y-25464148D01*
X76482933Y-25247600D01*
X76339635Y-25247600D01*
X77892235Y-23695001D01*
X120616444Y-23695001D01*
X120703999Y-23712417D01*
X120791554Y-23695001D01*
X120791555Y-23695001D01*
X121050869Y-23643420D01*
X121344932Y-23446934D01*
X121394530Y-23372705D01*
X121780235Y-22987000D01*
X122197881Y-22987000D01*
X122711337Y-22774320D01*
X123104320Y-22381337D01*
X123190000Y-22174487D01*
X123275680Y-22381337D01*
X123668663Y-22774320D01*
X124182119Y-22987000D01*
X124737881Y-22987000D01*
X125251337Y-22774320D01*
X125644320Y-22381337D01*
X125730000Y-22174487D01*
X125815680Y-22381337D01*
G36*
X68815000Y-19255874D02*
X68972569Y-19636280D01*
X69263720Y-19927431D01*
X69644126Y-20085000D01*
X70055874Y-20085000D01*
X70408350Y-19939000D01*
X76593764Y-19939000D01*
X74309297Y-22223468D01*
X74309294Y-22223470D01*
X71285165Y-25247600D01*
X70837067Y-25247600D01*
X70314275Y-25464148D01*
X69914148Y-25864275D01*
X69697600Y-26387067D01*
X69697600Y-26530364D01*
X66241477Y-23074242D01*
X66284092Y-22860000D01*
X66168839Y-22280582D01*
X65840625Y-21789375D01*
X65349418Y-21461161D01*
X64916256Y-21375000D01*
X64623744Y-21375000D01*
X64190582Y-21461161D01*
X63699375Y-21789375D01*
X63627000Y-21897692D01*
X63627000Y-20372606D01*
X64822606Y-19177000D01*
X68815000Y-19177000D01*
X68815000Y-19255874D01*
X68815000Y-19255874D01*
G37*
X68815000Y-19255874D02*
X68972569Y-19636280D01*
X69263720Y-19927431D01*
X69644126Y-20085000D01*
X70055874Y-20085000D01*
X70408350Y-19939000D01*
X76593764Y-19939000D01*
X74309297Y-22223468D01*
X74309294Y-22223470D01*
X71285165Y-25247600D01*
X70837067Y-25247600D01*
X70314275Y-25464148D01*
X69914148Y-25864275D01*
X69697600Y-26387067D01*
X69697600Y-26530364D01*
X66241477Y-23074242D01*
X66284092Y-22860000D01*
X66168839Y-22280582D01*
X65840625Y-21789375D01*
X65349418Y-21461161D01*
X64916256Y-21375000D01*
X64623744Y-21375000D01*
X64190582Y-21461161D01*
X63699375Y-21789375D01*
X63627000Y-21897692D01*
X63627000Y-20372606D01*
X64822606Y-19177000D01*
X68815000Y-19177000D01*
X68815000Y-19255874D01*
G36*
X117983000Y-21312119D02*
X117983000Y-21867881D01*
X118003346Y-21917001D01*
X77611555Y-21917001D01*
X77523999Y-21899585D01*
X77177128Y-21968582D01*
X77015498Y-22076580D01*
X76883066Y-22165068D01*
X76833470Y-22239294D01*
X74363296Y-24709469D01*
X74363293Y-24709471D01*
X73825164Y-25247600D01*
X73799636Y-25247600D01*
X75566530Y-23480706D01*
X75566532Y-23480703D01*
X77784237Y-21262999D01*
X118003346Y-21262999D01*
X117983000Y-21312119D01*
X117983000Y-21312119D01*
G37*
X117983000Y-21312119D02*
X117983000Y-21867881D01*
X118003346Y-21917001D01*
X77611555Y-21917001D01*
X77523999Y-21899585D01*
X77177128Y-21968582D01*
X77015498Y-22076580D01*
X76883066Y-22165068D01*
X76833470Y-22239294D01*
X74363296Y-24709469D01*
X74363293Y-24709471D01*
X73825164Y-25247600D01*
X73799636Y-25247600D01*
X75566530Y-23480706D01*
X75566532Y-23480703D01*
X77784237Y-21262999D01*
X118003346Y-21262999D01*
X117983000Y-21312119D01*
G04 #@! TD*
M02*
