G04 #@! TF.GenerationSoftware,KiCad,Pcbnew,6.0.0-rc1-unknown-7c960aa~66~ubuntu18.04.1*
G04 #@! TF.CreationDate,2019-03-26T19:59:12-04:00*
G04 #@! TF.ProjectId,backdash_v1.5,6261636B646173685F76312E352E6B69,rev?*
G04 #@! TF.SameCoordinates,Original*
G04 #@! TF.FileFunction,Copper,L2,Bot,Signal*
G04 #@! TF.FilePolarity,Positive*
%FSLAX46Y46*%
G04 Gerber Fmt 4.6, Leading zero omitted, Abs format (unit mm)*
G04 Created by KiCad (PCBNEW 6.0.0-rc1-unknown-7c960aa~66~ubuntu18.04.1) date Tue 26 Mar 2019 07:59:12 PM EDT*
%MOMM*%
%LPD*%
G01*
G04 APERTURE LIST*
G04 #@! TA.AperFunction,ComponentPad*
%ADD10C,1.574800*%
G04 #@! TD*
G04 #@! TA.AperFunction,ComponentPad*
%ADD11C,1.524000*%
G04 #@! TD*
G04 #@! TA.AperFunction,ComponentPad*
%ADD12O,1.700000X1.700000*%
G04 #@! TD*
G04 #@! TA.AperFunction,ComponentPad*
%ADD13R,1.700000X1.700000*%
G04 #@! TD*
G04 #@! TA.AperFunction,ComponentPad*
%ADD14C,2.200000*%
G04 #@! TD*
G04 #@! TA.AperFunction,ComponentPad*
%ADD15R,1.500000X1.050000*%
G04 #@! TD*
G04 #@! TA.AperFunction,ComponentPad*
%ADD16O,1.500000X1.050000*%
G04 #@! TD*
G04 #@! TA.AperFunction,ComponentPad*
%ADD17O,1.600000X1.600000*%
G04 #@! TD*
G04 #@! TA.AperFunction,ComponentPad*
%ADD18R,1.600000X1.600000*%
G04 #@! TD*
G04 #@! TA.AperFunction,ComponentPad*
%ADD19O,2.200000X2.200000*%
G04 #@! TD*
G04 #@! TA.AperFunction,ComponentPad*
%ADD20R,2.200000X2.200000*%
G04 #@! TD*
G04 #@! TA.AperFunction,ComponentPad*
%ADD21O,2.000000X2.000000*%
G04 #@! TD*
G04 #@! TA.AperFunction,ComponentPad*
%ADD22R,2.000000X2.000000*%
G04 #@! TD*
G04 #@! TA.AperFunction,ComponentPad*
%ADD23C,1.600000*%
G04 #@! TD*
G04 #@! TA.AperFunction,ViaPad*
%ADD24C,0.800000*%
G04 #@! TD*
G04 #@! TA.AperFunction,Conductor*
%ADD25C,0.508000*%
G04 #@! TD*
G04 #@! TA.AperFunction,Conductor*
%ADD26C,0.254000*%
G04 #@! TD*
G04 APERTURE END LIST*
D10*
G04 #@! TO.P,NANO2 // Wheel,30*
G04 #@! TO.N,Net-(NANO2-Pad30)*
X106680000Y-62230000D03*
G04 #@! TO.P,NANO2 // Wheel,1*
G04 #@! TO.N,Net-(NANO2-Pad1)*
X106680000Y-46990000D03*
G04 #@! TO.P,NANO2 // Wheel,29*
G04 #@! TO.N,/GND*
X104140000Y-62230000D03*
G04 #@! TO.P,NANO2 // Wheel,2*
G04 #@! TO.N,Net-(NANO2-Pad2)*
X104140000Y-46990000D03*
G04 #@! TO.P,NANO2 // Wheel,28*
G04 #@! TO.N,/RST*
X101600000Y-62230000D03*
G04 #@! TO.P,NANO2 // Wheel,3*
X101600000Y-46990000D03*
G04 #@! TO.P,NANO2 // Wheel,27*
G04 #@! TO.N,/VCC*
X99060000Y-62230000D03*
G04 #@! TO.P,NANO2 // Wheel,4*
G04 #@! TO.N,/GND*
X99060000Y-46990000D03*
G04 #@! TO.P,NANO2 // Wheel,26*
G04 #@! TO.N,Net-(NANO2-Pad26)*
X96520000Y-62230000D03*
G04 #@! TO.P,NANO2 // Wheel,5*
G04 #@! TO.N,Net-(NANO2-Pad5)*
X96520000Y-46990000D03*
G04 #@! TO.P,NANO2 // Wheel,25*
G04 #@! TO.N,Net-(NANO2-Pad25)*
X93980000Y-62230000D03*
G04 #@! TO.P,NANO2 // Wheel,6*
G04 #@! TO.N,Net-(NANO2-Pad6)*
X93980000Y-46990000D03*
G04 #@! TO.P,NANO2 // Wheel,24*
G04 #@! TO.N,/A5*
X91440000Y-62230000D03*
G04 #@! TO.P,NANO2 // Wheel,7*
G04 #@! TO.N,Net-(NANO2-Pad7)*
X91440000Y-46990000D03*
G04 #@! TO.P,NANO2 // Wheel,23*
G04 #@! TO.N,/A4*
X88900000Y-62230000D03*
G04 #@! TO.P,NANO2 // Wheel,8*
G04 #@! TO.N,Net-(NANO2-Pad8)*
X88900000Y-46990000D03*
G04 #@! TO.P,NANO2 // Wheel,22*
G04 #@! TO.N,Net-(NANO2-Pad22)*
X86360000Y-62230000D03*
G04 #@! TO.P,NANO2 // Wheel,9*
G04 #@! TO.N,Net-(NANO2-Pad9)*
X86360000Y-46990000D03*
G04 #@! TO.P,NANO2 // Wheel,21*
G04 #@! TO.N,Net-(NANO2-Pad21)*
X83820000Y-62230000D03*
G04 #@! TO.P,NANO2 // Wheel,10*
G04 #@! TO.N,Net-(NANO2-Pad10)*
X83820000Y-46990000D03*
G04 #@! TO.P,NANO2 // Wheel,20*
G04 #@! TO.N,Net-(NANO2-Pad20)*
X81280000Y-62230000D03*
G04 #@! TO.P,NANO2 // Wheel,11*
G04 #@! TO.N,Net-(NANO2-Pad11)*
X81280000Y-46990000D03*
G04 #@! TO.P,NANO2 // Wheel,19*
G04 #@! TO.N,Net-(NANO2-Pad19)*
X78740000Y-62230000D03*
G04 #@! TO.P,NANO2 // Wheel,12*
G04 #@! TO.N,Net-(NANO2-Pad12)*
X78740000Y-46990000D03*
G04 #@! TO.P,NANO2 // Wheel,18*
G04 #@! TO.N,Net-(NANO2-Pad18)*
X76200000Y-62230000D03*
G04 #@! TO.P,NANO2 // Wheel,13*
G04 #@! TO.N,/D10*
X76200000Y-46990000D03*
G04 #@! TO.P,NANO2 // Wheel,17*
G04 #@! TO.N,Net-(NANO2-Pad17)*
X73660000Y-62230000D03*
G04 #@! TO.P,NANO2 // Wheel,14*
G04 #@! TO.N,Net-(NANO2-Pad14)*
X73660000Y-46990000D03*
G04 #@! TO.P,NANO2 // Wheel,16*
G04 #@! TO.N,Net-(NANO2-Pad16)*
X71120000Y-62230000D03*
G04 #@! TO.P,NANO2 // Wheel,15*
G04 #@! TO.N,Net-(NANO2-Pad15)*
X71120000Y-46990000D03*
G04 #@! TD*
D11*
G04 #@! TO.P,CAN1,16*
G04 #@! TO.N,/GND*
X116840000Y-44450000D03*
G04 #@! TO.P,CAN1,15*
G04 #@! TO.N,/VCC*
X119380000Y-44450000D03*
G04 #@! TO.P,CAN1,14*
G04 #@! TO.N,Net-(CAN1-Pad14)*
X121920000Y-44450000D03*
G04 #@! TO.P,CAN1,13*
G04 #@! TO.N,Net-(CAN1-Pad13)*
X124460000Y-44450000D03*
G04 #@! TO.P,CAN1,12*
G04 #@! TO.N,Net-(CAN1-Pad12)*
X127000000Y-44450000D03*
G04 #@! TO.P,CAN1,11*
G04 #@! TO.N,Net-(CAN1-Pad11)*
X129540000Y-44450000D03*
G04 #@! TO.P,CAN1,10*
G04 #@! TO.N,/INT*
X132080000Y-44450000D03*
G04 #@! TO.P,CAN1,9*
G04 #@! TO.N,Net-(CAN1-Pad9)*
X134620000Y-44450000D03*
G04 #@! TO.P,CAN1,1*
G04 #@! TO.N,/GND*
X116840000Y-21590000D03*
G04 #@! TO.P,CAN1,2*
G04 #@! TO.N,Net-(CAN1-Pad2)*
X119380000Y-21590000D03*
G04 #@! TO.P,CAN1,3*
G04 #@! TO.N,/SDI*
X121920000Y-21590000D03*
G04 #@! TO.P,CAN1,4*
G04 #@! TO.N,/SDO*
X124460000Y-21590000D03*
G04 #@! TO.P,CAN1,5*
G04 #@! TO.N,/SCK*
X127000000Y-21590000D03*
G04 #@! TO.P,CAN1,6*
G04 #@! TO.N,/CS*
X129540000Y-21590000D03*
G04 #@! TO.P,CAN1,7*
G04 #@! TO.N,/RST*
X132080000Y-21590000D03*
G04 #@! TO.P,CAN1,8*
G04 #@! TO.N,Net-(CAN1-Pad8)*
X134620000Y-21590000D03*
G04 #@! TD*
D12*
G04 #@! TO.P,BUCK1,2*
G04 #@! TO.N,Net-(BUCK1-Pad2)*
X118110000Y-68580000D03*
G04 #@! TO.P,BUCK1,4*
G04 #@! TO.N,/GND*
X123190000Y-68580000D03*
D13*
G04 #@! TO.P,BUCK1,1*
G04 #@! TO.N,Net-(BUCK1-Pad1)*
X115570000Y-68580000D03*
D12*
G04 #@! TO.P,BUCK1,3*
G04 #@! TO.N,/+*
X120650000Y-68580000D03*
G04 #@! TO.P,BUCK1,5*
G04 #@! TO.N,/VCC*
X125730000Y-68580000D03*
G04 #@! TD*
D11*
G04 #@! TO.P,DC1,4*
G04 #@! TO.N,Net-(DC1-Pad4)*
X125730000Y-83660000D03*
G04 #@! TO.P,DC1,3*
G04 #@! TO.N,Net-(DC1-Pad3)*
X114730000Y-83660000D03*
D14*
G04 #@! TO.P,DC1,1*
G04 #@! TO.N,/GND*
X122730000Y-73660000D03*
G04 #@! TO.P,DC1,2*
G04 #@! TO.N,/+*
X117730000Y-73660000D03*
G04 #@! TD*
D10*
G04 #@! TO.P,NANO3 // CVT,15*
G04 #@! TO.N,/SDO*
X71120000Y-26670000D03*
G04 #@! TO.P,NANO3 // CVT,16*
G04 #@! TO.N,/SCK*
X71120000Y-41910000D03*
G04 #@! TO.P,NANO3 // CVT,14*
G04 #@! TO.N,/SDI*
X73660000Y-26670000D03*
G04 #@! TO.P,NANO3 // CVT,17*
G04 #@! TO.N,Net-(NANO3-Pad17)*
X73660000Y-41910000D03*
G04 #@! TO.P,NANO3 // CVT,13*
G04 #@! TO.N,/CS*
X76200000Y-26670000D03*
G04 #@! TO.P,NANO3 // CVT,18*
G04 #@! TO.N,/REF*
X76200000Y-41910000D03*
G04 #@! TO.P,NANO3 // CVT,12*
G04 #@! TO.N,Net-(NANO3-Pad12)*
X78740000Y-26670000D03*
G04 #@! TO.P,NANO3 // CVT,19*
G04 #@! TO.N,Net-(NANO3-Pad19)*
X78740000Y-41910000D03*
G04 #@! TO.P,NANO3 // CVT,11*
G04 #@! TO.N,Net-(NANO3-Pad11)*
X81280000Y-26670000D03*
G04 #@! TO.P,NANO3 // CVT,20*
G04 #@! TO.N,Net-(NANO3-Pad20)*
X81280000Y-41910000D03*
G04 #@! TO.P,NANO3 // CVT,10*
G04 #@! TO.N,Net-(NANO3-Pad10)*
X83820000Y-26670000D03*
G04 #@! TO.P,NANO3 // CVT,21*
G04 #@! TO.N,Net-(NANO3-Pad21)*
X83820000Y-41910000D03*
G04 #@! TO.P,NANO3 // CVT,9*
G04 #@! TO.N,Net-(NANO3-Pad9)*
X86360000Y-26670000D03*
G04 #@! TO.P,NANO3 // CVT,22*
G04 #@! TO.N,Net-(NANO3-Pad22)*
X86360000Y-41910000D03*
G04 #@! TO.P,NANO3 // CVT,8*
G04 #@! TO.N,Net-(NANO3-Pad8)*
X88900000Y-26670000D03*
G04 #@! TO.P,NANO3 // CVT,23*
G04 #@! TO.N,/A4*
X88900000Y-41910000D03*
G04 #@! TO.P,NANO3 // CVT,7*
G04 #@! TO.N,Net-(NANO3-Pad7)*
X91440000Y-26670000D03*
G04 #@! TO.P,NANO3 // CVT,24*
G04 #@! TO.N,/A5*
X91440000Y-41910000D03*
G04 #@! TO.P,NANO3 // CVT,6*
G04 #@! TO.N,Net-(NANO3-Pad6)*
X93980000Y-26670000D03*
G04 #@! TO.P,NANO3 // CVT,25*
G04 #@! TO.N,Net-(NANO3-Pad25)*
X93980000Y-41910000D03*
G04 #@! TO.P,NANO3 // CVT,5*
G04 #@! TO.N,Net-(NANO3-Pad5)*
X96520000Y-26670000D03*
G04 #@! TO.P,NANO3 // CVT,26*
G04 #@! TO.N,Net-(NANO3-Pad26)*
X96520000Y-41910000D03*
G04 #@! TO.P,NANO3 // CVT,4*
G04 #@! TO.N,/GND*
X99060000Y-26670000D03*
G04 #@! TO.P,NANO3 // CVT,27*
G04 #@! TO.N,/VCC*
X99060000Y-41910000D03*
G04 #@! TO.P,NANO3 // CVT,3*
G04 #@! TO.N,/RST*
X101600000Y-26670000D03*
G04 #@! TO.P,NANO3 // CVT,28*
X101600000Y-41910000D03*
G04 #@! TO.P,NANO3 // CVT,2*
G04 #@! TO.N,Net-(NANO3-Pad2)*
X104140000Y-26670000D03*
G04 #@! TO.P,NANO3 // CVT,29*
G04 #@! TO.N,/GND*
X104140000Y-41910000D03*
G04 #@! TO.P,NANO3 // CVT,1*
G04 #@! TO.N,Net-(NANO3-Pad1)*
X106680000Y-26670000D03*
G04 #@! TO.P,NANO3 // CVT,30*
G04 #@! TO.N,Net-(NANO3-Pad30)*
X106680000Y-41910000D03*
G04 #@! TD*
D12*
G04 #@! TO.P,Wheel1,3*
G04 #@! TO.N,/GND*
X64770000Y-46990000D03*
G04 #@! TO.P,Wheel1,2*
G04 #@! TO.N,/D10*
X64770000Y-44450000D03*
D13*
G04 #@! TO.P,Wheel1,1*
G04 #@! TO.N,/VCC*
X64770000Y-41910000D03*
G04 #@! TD*
D15*
G04 #@! TO.P,Q1,1*
G04 #@! TO.N,/GND*
X124460000Y-48260000D03*
D16*
G04 #@! TO.P,Q1,3*
G04 #@! TO.N,Net-(C1-Pad1)*
X124460000Y-50800000D03*
G04 #@! TO.P,Q1,2*
G04 #@! TO.N,Net-(D3-Pad1)*
X124460000Y-49530000D03*
G04 #@! TD*
D10*
G04 #@! TO.P,NANO1 // Tach,30*
G04 #@! TO.N,Net-(NANO1-Pad30)*
X106680000Y-82550000D03*
G04 #@! TO.P,NANO1 // Tach,1*
G04 #@! TO.N,Net-(NANO1-Pad1)*
X106680000Y-67310000D03*
G04 #@! TO.P,NANO1 // Tach,29*
G04 #@! TO.N,/GND*
X104140000Y-82550000D03*
G04 #@! TO.P,NANO1 // Tach,2*
G04 #@! TO.N,Net-(NANO1-Pad2)*
X104140000Y-67310000D03*
G04 #@! TO.P,NANO1 // Tach,28*
G04 #@! TO.N,/RST*
X101600000Y-82550000D03*
G04 #@! TO.P,NANO1 // Tach,3*
X101600000Y-67310000D03*
G04 #@! TO.P,NANO1 // Tach,27*
G04 #@! TO.N,/VCC*
X99060000Y-82550000D03*
G04 #@! TO.P,NANO1 // Tach,4*
G04 #@! TO.N,/GND*
X99060000Y-67310000D03*
G04 #@! TO.P,NANO1 // Tach,26*
G04 #@! TO.N,Net-(NANO1-Pad26)*
X96520000Y-82550000D03*
G04 #@! TO.P,NANO1 // Tach,5*
G04 #@! TO.N,Net-(NANO1-Pad5)*
X96520000Y-67310000D03*
G04 #@! TO.P,NANO1 // Tach,25*
G04 #@! TO.N,Net-(NANO1-Pad25)*
X93980000Y-82550000D03*
G04 #@! TO.P,NANO1 // Tach,6*
G04 #@! TO.N,Net-(NANO1-Pad6)*
X93980000Y-67310000D03*
G04 #@! TO.P,NANO1 // Tach,24*
G04 #@! TO.N,/A5*
X91440000Y-82550000D03*
G04 #@! TO.P,NANO1 // Tach,7*
G04 #@! TO.N,Net-(NANO1-Pad7)*
X91440000Y-67310000D03*
G04 #@! TO.P,NANO1 // Tach,23*
G04 #@! TO.N,/A4*
X88900000Y-82550000D03*
G04 #@! TO.P,NANO1 // Tach,8*
G04 #@! TO.N,Net-(NANO1-Pad8)*
X88900000Y-67310000D03*
G04 #@! TO.P,NANO1 // Tach,22*
G04 #@! TO.N,Net-(NANO1-Pad22)*
X86360000Y-82550000D03*
G04 #@! TO.P,NANO1 // Tach,9*
G04 #@! TO.N,Net-(NANO1-Pad9)*
X86360000Y-67310000D03*
G04 #@! TO.P,NANO1 // Tach,21*
G04 #@! TO.N,Net-(NANO1-Pad21)*
X83820000Y-82550000D03*
G04 #@! TO.P,NANO1 // Tach,10*
G04 #@! TO.N,Net-(NANO1-Pad10)*
X83820000Y-67310000D03*
G04 #@! TO.P,NANO1 // Tach,20*
G04 #@! TO.N,Net-(NANO1-Pad20)*
X81280000Y-82550000D03*
G04 #@! TO.P,NANO1 // Tach,11*
G04 #@! TO.N,Net-(NANO1-Pad11)*
X81280000Y-67310000D03*
G04 #@! TO.P,NANO1 // Tach,19*
G04 #@! TO.N,/A0*
X78740000Y-82550000D03*
G04 #@! TO.P,NANO1 // Tach,12*
G04 #@! TO.N,Net-(NANO1-Pad12)*
X78740000Y-67310000D03*
G04 #@! TO.P,NANO1 // Tach,18*
G04 #@! TO.N,Net-(NANO1-Pad18)*
X76200000Y-82550000D03*
G04 #@! TO.P,NANO1 // Tach,13*
G04 #@! TO.N,Net-(NANO1-Pad13)*
X76200000Y-67310000D03*
G04 #@! TO.P,NANO1 // Tach,17*
G04 #@! TO.N,Net-(NANO1-Pad17)*
X73660000Y-82550000D03*
G04 #@! TO.P,NANO1 // Tach,14*
G04 #@! TO.N,Net-(NANO1-Pad14)*
X73660000Y-67310000D03*
G04 #@! TO.P,NANO1 // Tach,16*
G04 #@! TO.N,Net-(NANO1-Pad16)*
X71120000Y-82550000D03*
G04 #@! TO.P,NANO1 // Tach,15*
G04 #@! TO.N,Net-(NANO1-Pad15)*
X71120000Y-67310000D03*
G04 #@! TD*
D12*
G04 #@! TO.P,In2,2*
G04 #@! TO.N,N/C*
X154940000Y-20320000D03*
D13*
G04 #@! TO.P,In2,1*
G04 #@! TO.N,Net-(D1-Pad2)*
X154940000Y-22860000D03*
G04 #@! TD*
D12*
G04 #@! TO.P,In1,2*
G04 #@! TO.N,N/C*
X151130000Y-20320000D03*
D13*
G04 #@! TO.P,In1,1*
G04 #@! TO.N,Net-(D1-Pad1)*
X151130000Y-22860000D03*
G04 #@! TD*
D17*
G04 #@! TO.P,DIP1,14*
G04 #@! TO.N,/VCC*
X130810000Y-76200000D03*
G04 #@! TO.P,DIP1,7*
G04 #@! TO.N,/GND*
X146050000Y-83820000D03*
G04 #@! TO.P,DIP1,13*
G04 #@! TO.N,Net-(C1-Pad1)*
X133350000Y-76200000D03*
G04 #@! TO.P,DIP1,6*
G04 #@! TO.N,Net-(DIP1-Pad6)*
X143510000Y-83820000D03*
G04 #@! TO.P,DIP1,12*
G04 #@! TO.N,/A0*
X135890000Y-76200000D03*
G04 #@! TO.P,DIP1,5*
G04 #@! TO.N,Net-(DIP1-Pad5)*
X140970000Y-83820000D03*
G04 #@! TO.P,DIP1,11*
G04 #@! TO.N,Net-(DIP1-Pad11)*
X138430000Y-76200000D03*
G04 #@! TO.P,DIP1,4*
G04 #@! TO.N,Net-(DIP1-Pad4)*
X138430000Y-83820000D03*
G04 #@! TO.P,DIP1,10*
G04 #@! TO.N,Net-(DIP1-Pad10)*
X140970000Y-76200000D03*
G04 #@! TO.P,DIP1,3*
G04 #@! TO.N,Net-(DIP1-Pad3)*
X135890000Y-83820000D03*
G04 #@! TO.P,DIP1,9*
G04 #@! TO.N,Net-(DIP1-Pad9)*
X143510000Y-76200000D03*
G04 #@! TO.P,DIP1,2*
G04 #@! TO.N,Net-(DIP1-Pad2)*
X133350000Y-83820000D03*
G04 #@! TO.P,DIP1,8*
G04 #@! TO.N,Net-(DIP1-Pad8)*
X146050000Y-76200000D03*
D18*
G04 #@! TO.P,DIP1,1*
G04 #@! TO.N,Net-(C1-Pad1)*
X130810000Y-83820000D03*
G04 #@! TD*
D19*
G04 #@! TO.P,D4,2*
G04 #@! TO.N,Net-(D4-Pad2)*
X156210000Y-48260000D03*
D20*
G04 #@! TO.P,D4,1*
G04 #@! TO.N,Net-(D3-Pad1)*
X156210000Y-40640000D03*
G04 #@! TD*
D21*
G04 #@! TO.P,D3,2*
G04 #@! TO.N,Net-(D3-Pad2)*
X156210000Y-31750000D03*
D22*
G04 #@! TO.P,D3,1*
G04 #@! TO.N,Net-(D3-Pad1)*
X156210000Y-36830000D03*
G04 #@! TD*
D19*
G04 #@! TO.P,D2,2*
G04 #@! TO.N,Net-(D1-Pad1)*
X151130000Y-39370000D03*
D20*
G04 #@! TO.P,D2,1*
G04 #@! TO.N,Net-(D2-Pad1)*
X151130000Y-46990000D03*
G04 #@! TD*
D19*
G04 #@! TO.P,D1,2*
G04 #@! TO.N,Net-(D1-Pad2)*
X151130000Y-27940000D03*
D20*
G04 #@! TO.P,D1,1*
G04 #@! TO.N,Net-(D1-Pad1)*
X151130000Y-35560000D03*
G04 #@! TD*
D12*
G04 #@! TO.P,CVT1,4*
G04 #@! TO.N,/GND*
X64770000Y-20320000D03*
G04 #@! TO.P,CVT1,3*
G04 #@! TO.N,/A5*
X64770000Y-22860000D03*
G04 #@! TO.P,CVT1,2*
G04 #@! TO.N,/A4*
X64770000Y-25400000D03*
D13*
G04 #@! TO.P,CVT1,1*
G04 #@! TO.N,/VCC*
X64770000Y-27940000D03*
G04 #@! TD*
D23*
G04 #@! TO.P,C2,2*
G04 #@! TO.N,/GND*
X134620000Y-55960000D03*
G04 #@! TO.P,C2,1*
G04 #@! TO.N,/A0*
X134620000Y-60960000D03*
G04 #@! TD*
G04 #@! TO.P,C1,2*
G04 #@! TO.N,/GND*
X140810000Y-50800000D03*
G04 #@! TO.P,C1,1*
G04 #@! TO.N,Net-(C1-Pad1)*
X130810000Y-50800000D03*
G04 #@! TD*
D24*
G04 #@! TO.N,/GND*
X92710000Y-80010000D03*
X149860000Y-83820000D03*
X156210000Y-83820000D03*
X156210000Y-78740000D03*
X156210000Y-73660000D03*
X156210000Y-68580000D03*
X156210000Y-63500000D03*
X156210000Y-58420000D03*
X156210000Y-53007500D03*
X146050000Y-52070000D03*
X151130000Y-57150000D03*
X146050000Y-57150000D03*
X135890000Y-52070000D03*
X135890000Y-58420000D03*
X138430000Y-60960000D03*
X138430000Y-66040000D03*
X138430000Y-71120000D03*
X130810000Y-69850000D03*
X130810000Y-64770000D03*
X130810000Y-59690000D03*
X130810000Y-54610000D03*
X129540000Y-53340000D03*
X124460000Y-53340000D03*
X119380000Y-52070000D03*
X121920000Y-48260000D03*
X119380000Y-77470000D03*
X125730000Y-77470000D03*
X125730000Y-72390000D03*
X116840000Y-82550000D03*
X121920000Y-82550000D03*
X92710000Y-74930000D03*
X92710000Y-69850000D03*
X97790000Y-69850000D03*
X102870000Y-69850000D03*
X107950000Y-69850000D03*
X111760000Y-68580000D03*
X97790000Y-80010000D03*
X102870000Y-80010000D03*
X113030000Y-77470000D03*
X120650000Y-63500000D03*
X115570000Y-63500000D03*
X110490000Y-63500000D03*
X105410000Y-63500000D03*
X102870000Y-58420000D03*
X102870000Y-53340000D03*
X102870000Y-48260000D03*
X116840000Y-48260000D03*
X135890000Y-46990000D03*
X140970000Y-46990000D03*
X146050000Y-46990000D03*
X149860000Y-43180000D03*
X64770000Y-49530000D03*
X64770000Y-54610000D03*
X64770000Y-59690000D03*
X64770000Y-64770000D03*
X64770000Y-69850000D03*
X64770000Y-74930000D03*
X64770000Y-80010000D03*
X85090000Y-80010000D03*
X85090000Y-74930000D03*
X85090000Y-69850000D03*
X85090000Y-64770000D03*
X92710000Y-64770000D03*
X100330000Y-64770000D03*
X99060000Y-54610000D03*
X97790000Y-59690000D03*
X87630000Y-59690000D03*
X87630000Y-54610000D03*
X80010000Y-64770000D03*
X74930000Y-64770000D03*
X69850000Y-64770000D03*
X82550000Y-59690000D03*
X77470000Y-59690000D03*
X72390000Y-59690000D03*
X80010000Y-69850000D03*
X74930000Y-69850000D03*
X69850000Y-69850000D03*
X80010000Y-80010000D03*
X74930000Y-80010000D03*
X69850000Y-80010000D03*
X93980000Y-59690000D03*
X93980000Y-54610000D03*
X88900000Y-36830000D03*
X81280000Y-29210000D03*
X85090000Y-33020000D03*
X86360000Y-29210000D03*
X91440000Y-29210000D03*
X96520000Y-29210000D03*
X101600000Y-29210000D03*
X106680000Y-29210000D03*
X111760000Y-29210000D03*
X116840000Y-29210000D03*
X121920000Y-29210000D03*
X127000000Y-26670000D03*
X130810000Y-22860000D03*
X130810000Y-46990000D03*
X125730000Y-46990000D03*
X125730000Y-41910000D03*
X130810000Y-41910000D03*
X135890000Y-41910000D03*
X147320000Y-33020000D03*
X148590000Y-38100000D03*
X147320000Y-27940000D03*
X148590000Y-24130000D03*
X148590000Y-20320000D03*
X144780000Y-20320000D03*
X139700000Y-20320000D03*
X135890000Y-22860000D03*
X74930000Y-20320000D03*
X72390000Y-22860000D03*
X66040000Y-21590000D03*
X95250000Y-36830000D03*
X101600000Y-39370000D03*
X109220000Y-41910000D03*
X114300000Y-41910000D03*
X120650000Y-41910000D03*
X109220000Y-36830000D03*
X106680000Y-36830000D03*
X106680000Y-34290000D03*
X106680000Y-31750000D03*
X109220000Y-31750000D03*
X109220000Y-34290000D03*
X109220000Y-26670000D03*
X106680000Y-52070000D03*
X106680000Y-54610000D03*
X106680000Y-57150000D03*
X109220000Y-57150000D03*
X109220000Y-54610000D03*
X109220000Y-52070000D03*
X109220000Y-62230000D03*
X68580000Y-62230000D03*
X68580000Y-67310000D03*
X68580000Y-82550000D03*
X64770000Y-83820000D03*
X109220000Y-82550000D03*
X109220000Y-77470000D03*
X111760000Y-73660000D03*
X111760000Y-53340000D03*
X111760000Y-33020000D03*
X109220000Y-72390000D03*
X109220000Y-67310000D03*
X109220000Y-74930000D03*
X106680000Y-74930000D03*
X106680000Y-77470000D03*
X106680000Y-72390000D03*
X93980000Y-44450000D03*
X99060000Y-44450000D03*
X72390000Y-50800000D03*
X68580000Y-50800000D03*
X77470000Y-49530000D03*
X82550000Y-49530000D03*
X87630000Y-49530000D03*
X93980000Y-49530000D03*
X99060000Y-49530000D03*
X102870000Y-44450000D03*
X102870000Y-44450000D03*
X102870000Y-44450000D03*
X109220000Y-44450000D03*
X114300000Y-44450000D03*
X109220000Y-46990000D03*
X106680000Y-39370000D03*
X128270000Y-82550000D03*
X135890000Y-78740000D03*
X135890000Y-81280000D03*
X142240000Y-81280000D03*
X140970000Y-52070000D03*
X116840000Y-26670000D03*
X116840000Y-24130000D03*
X106680000Y-24130000D03*
X101600000Y-24130000D03*
X96520000Y-24130000D03*
X91440000Y-24130000D03*
X86360000Y-24130000D03*
X81280000Y-24130000D03*
X81280000Y-21590000D03*
X86360000Y-21590000D03*
X91440000Y-21590000D03*
X96520000Y-21590000D03*
X101600000Y-21590000D03*
X106680000Y-21590000D03*
X111760000Y-21590000D03*
X74930000Y-24130000D03*
X130810000Y-20320000D03*
G04 #@! TO.N,/VCC*
X97790000Y-39370000D03*
X72390000Y-39370000D03*
X125730000Y-64770000D03*
G04 #@! TO.N,/A0*
X133350000Y-80010000D03*
X128270000Y-80010000D03*
G04 #@! TO.N,/SCK*
X69850000Y-19050000D03*
X77470000Y-33020000D03*
G04 #@! TD*
D25*
G04 #@! TO.N,/VCC*
X72390000Y-39370000D02*
X97790000Y-39370000D01*
G04 #@! TO.N,/A0*
X128270000Y-80010000D02*
X133350000Y-80010000D01*
G04 #@! TO.N,/SCK*
X75632726Y-33020000D02*
X77470000Y-33020000D01*
X74930000Y-33020000D02*
X75632726Y-33020000D01*
X67310000Y-25400000D02*
X74930000Y-33020000D01*
X69850000Y-19050000D02*
X67310000Y-21590000D01*
X67310000Y-21590000D02*
X67310000Y-25400000D01*
G04 #@! TD*
D26*
G04 #@! TO.N,/GND*
G36*
X66743296Y-20899469D02*
X66669067Y-20949067D01*
X66472581Y-21243131D01*
X66439022Y-21411843D01*
X66403584Y-21590000D01*
X66421000Y-21677555D01*
X66421001Y-25312441D01*
X66403584Y-25400000D01*
X66472582Y-25746870D01*
X66669068Y-26040933D01*
X66743294Y-26090529D01*
X74239471Y-33586707D01*
X74289067Y-33660933D01*
X74583130Y-33857419D01*
X74842444Y-33909000D01*
X74842448Y-33909000D01*
X74929999Y-33926415D01*
X75017550Y-33909000D01*
X76911650Y-33909000D01*
X77264126Y-34055000D01*
X77675874Y-34055000D01*
X78056280Y-33897431D01*
X78347431Y-33606280D01*
X78505000Y-33225874D01*
X78505000Y-32814126D01*
X78347431Y-32433720D01*
X78056280Y-32142569D01*
X77675874Y-31985000D01*
X77264126Y-31985000D01*
X76911650Y-32131000D01*
X75298236Y-32131000D01*
X71259635Y-28092400D01*
X71402933Y-28092400D01*
X71925725Y-27875852D01*
X72325852Y-27475725D01*
X72390000Y-27320858D01*
X72454148Y-27475725D01*
X72854275Y-27875852D01*
X73377067Y-28092400D01*
X73942933Y-28092400D01*
X74465725Y-27875852D01*
X74865852Y-27475725D01*
X74930000Y-27320858D01*
X74994148Y-27475725D01*
X75394275Y-27875852D01*
X75917067Y-28092400D01*
X76482933Y-28092400D01*
X77005725Y-27875852D01*
X77405852Y-27475725D01*
X77470000Y-27320858D01*
X77534148Y-27475725D01*
X77934275Y-27875852D01*
X78457067Y-28092400D01*
X79022933Y-28092400D01*
X79545725Y-27875852D01*
X79945852Y-27475725D01*
X80010000Y-27320858D01*
X80074148Y-27475725D01*
X80474275Y-27875852D01*
X80997067Y-28092400D01*
X81562933Y-28092400D01*
X82085725Y-27875852D01*
X82485852Y-27475725D01*
X82550000Y-27320858D01*
X82614148Y-27475725D01*
X83014275Y-27875852D01*
X83537067Y-28092400D01*
X84102933Y-28092400D01*
X84625725Y-27875852D01*
X85025852Y-27475725D01*
X85090000Y-27320858D01*
X85154148Y-27475725D01*
X85554275Y-27875852D01*
X86077067Y-28092400D01*
X86642933Y-28092400D01*
X87165725Y-27875852D01*
X87565852Y-27475725D01*
X87630000Y-27320858D01*
X87694148Y-27475725D01*
X88094275Y-27875852D01*
X88617067Y-28092400D01*
X89182933Y-28092400D01*
X89705725Y-27875852D01*
X90105852Y-27475725D01*
X90170000Y-27320858D01*
X90234148Y-27475725D01*
X90634275Y-27875852D01*
X91157067Y-28092400D01*
X91722933Y-28092400D01*
X92245725Y-27875852D01*
X92645852Y-27475725D01*
X92710000Y-27320858D01*
X92774148Y-27475725D01*
X93174275Y-27875852D01*
X93697067Y-28092400D01*
X94262933Y-28092400D01*
X94785725Y-27875852D01*
X95185852Y-27475725D01*
X95250000Y-27320858D01*
X95314148Y-27475725D01*
X95714275Y-27875852D01*
X96237067Y-28092400D01*
X96802933Y-28092400D01*
X97325725Y-27875852D01*
X97725852Y-27475725D01*
X97942400Y-26952933D01*
X97942400Y-26387067D01*
X100177600Y-26387067D01*
X100177600Y-26952933D01*
X100394148Y-27475725D01*
X100794275Y-27875852D01*
X101317067Y-28092400D01*
X101882933Y-28092400D01*
X102405725Y-27875852D01*
X102805852Y-27475725D01*
X102870000Y-27320858D01*
X102934148Y-27475725D01*
X103334275Y-27875852D01*
X103857067Y-28092400D01*
X104422933Y-28092400D01*
X104945725Y-27875852D01*
X105345852Y-27475725D01*
X105410000Y-27320858D01*
X105474148Y-27475725D01*
X105874275Y-27875852D01*
X106397067Y-28092400D01*
X106962933Y-28092400D01*
X107330858Y-27940000D01*
X149361010Y-27940000D01*
X149495666Y-28616963D01*
X149879135Y-29190865D01*
X150453037Y-29574334D01*
X150959120Y-29675000D01*
X151300880Y-29675000D01*
X151806963Y-29574334D01*
X152380865Y-29190865D01*
X152764334Y-28616963D01*
X152898990Y-27940000D01*
X152764334Y-27263037D01*
X152380865Y-26689135D01*
X151806963Y-26305666D01*
X151300880Y-26205000D01*
X150959120Y-26205000D01*
X150453037Y-26305666D01*
X149879135Y-26689135D01*
X149495666Y-27263037D01*
X149361010Y-27940000D01*
X107330858Y-27940000D01*
X107485725Y-27875852D01*
X107885852Y-27475725D01*
X108102400Y-26952933D01*
X108102400Y-26387067D01*
X107885852Y-25864275D01*
X107485725Y-25464148D01*
X106962933Y-25247600D01*
X106397067Y-25247600D01*
X105874275Y-25464148D01*
X105474148Y-25864275D01*
X105410000Y-26019142D01*
X105345852Y-25864275D01*
X104945725Y-25464148D01*
X104422933Y-25247600D01*
X103857067Y-25247600D01*
X103334275Y-25464148D01*
X102934148Y-25864275D01*
X102870000Y-26019142D01*
X102805852Y-25864275D01*
X102405725Y-25464148D01*
X101882933Y-25247600D01*
X101317067Y-25247600D01*
X100794275Y-25464148D01*
X100394148Y-25864275D01*
X100177600Y-26387067D01*
X97942400Y-26387067D01*
X97725852Y-25864275D01*
X97325725Y-25464148D01*
X96802933Y-25247600D01*
X96237067Y-25247600D01*
X95714275Y-25464148D01*
X95314148Y-25864275D01*
X95250000Y-26019142D01*
X95185852Y-25864275D01*
X94785725Y-25464148D01*
X94262933Y-25247600D01*
X93697067Y-25247600D01*
X93174275Y-25464148D01*
X92774148Y-25864275D01*
X92710000Y-26019142D01*
X92645852Y-25864275D01*
X92245725Y-25464148D01*
X91722933Y-25247600D01*
X91157067Y-25247600D01*
X90634275Y-25464148D01*
X90234148Y-25864275D01*
X90170000Y-26019142D01*
X90105852Y-25864275D01*
X89705725Y-25464148D01*
X89182933Y-25247600D01*
X88617067Y-25247600D01*
X88094275Y-25464148D01*
X87694148Y-25864275D01*
X87630000Y-26019142D01*
X87565852Y-25864275D01*
X87165725Y-25464148D01*
X86642933Y-25247600D01*
X86077067Y-25247600D01*
X85554275Y-25464148D01*
X85154148Y-25864275D01*
X85090000Y-26019142D01*
X85025852Y-25864275D01*
X84625725Y-25464148D01*
X84102933Y-25247600D01*
X83537067Y-25247600D01*
X83014275Y-25464148D01*
X82614148Y-25864275D01*
X82550000Y-26019142D01*
X82485852Y-25864275D01*
X82085725Y-25464148D01*
X81562933Y-25247600D01*
X80997067Y-25247600D01*
X80474275Y-25464148D01*
X80074148Y-25864275D01*
X80010000Y-26019142D01*
X79945852Y-25864275D01*
X79545725Y-25464148D01*
X79022933Y-25247600D01*
X78457067Y-25247600D01*
X77934275Y-25464148D01*
X77534148Y-25864275D01*
X77470000Y-26019142D01*
X77405852Y-25864275D01*
X77005725Y-25464148D01*
X76482933Y-25247600D01*
X75917067Y-25247600D01*
X75394275Y-25464148D01*
X74994148Y-25864275D01*
X74930000Y-26019142D01*
X74865852Y-25864275D01*
X74465725Y-25464148D01*
X73942933Y-25247600D01*
X73377067Y-25247600D01*
X72854275Y-25464148D01*
X72454148Y-25864275D01*
X72390000Y-26019142D01*
X72325852Y-25864275D01*
X71925725Y-25464148D01*
X71402933Y-25247600D01*
X70837067Y-25247600D01*
X70314275Y-25464148D01*
X69914148Y-25864275D01*
X69697600Y-26387067D01*
X69697600Y-26530365D01*
X68199000Y-25031765D01*
X68199000Y-21958235D01*
X68845116Y-21312119D01*
X117983000Y-21312119D01*
X117983000Y-21867881D01*
X118195680Y-22381337D01*
X118588663Y-22774320D01*
X119102119Y-22987000D01*
X119657881Y-22987000D01*
X120171337Y-22774320D01*
X120564320Y-22381337D01*
X120650000Y-22174487D01*
X120735680Y-22381337D01*
X121128663Y-22774320D01*
X121642119Y-22987000D01*
X122197881Y-22987000D01*
X122711337Y-22774320D01*
X123104320Y-22381337D01*
X123190000Y-22174487D01*
X123275680Y-22381337D01*
X123668663Y-22774320D01*
X124182119Y-22987000D01*
X124737881Y-22987000D01*
X125251337Y-22774320D01*
X125644320Y-22381337D01*
X125730000Y-22174487D01*
X125815680Y-22381337D01*
X126208663Y-22774320D01*
X126722119Y-22987000D01*
X127277881Y-22987000D01*
X127791337Y-22774320D01*
X128184320Y-22381337D01*
X128270000Y-22174487D01*
X128355680Y-22381337D01*
X128748663Y-22774320D01*
X129262119Y-22987000D01*
X129817881Y-22987000D01*
X130331337Y-22774320D01*
X130724320Y-22381337D01*
X130810000Y-22174487D01*
X130895680Y-22381337D01*
X131288663Y-22774320D01*
X131802119Y-22987000D01*
X132357881Y-22987000D01*
X132871337Y-22774320D01*
X133264320Y-22381337D01*
X133350000Y-22174487D01*
X133435680Y-22381337D01*
X133828663Y-22774320D01*
X134342119Y-22987000D01*
X134897881Y-22987000D01*
X135411337Y-22774320D01*
X135804320Y-22381337D01*
X136017000Y-21867881D01*
X136017000Y-21312119D01*
X135804320Y-20798663D01*
X135411337Y-20405680D01*
X134897881Y-20193000D01*
X134342119Y-20193000D01*
X133828663Y-20405680D01*
X133435680Y-20798663D01*
X133350000Y-21005513D01*
X133264320Y-20798663D01*
X132871337Y-20405680D01*
X132357881Y-20193000D01*
X131802119Y-20193000D01*
X131288663Y-20405680D01*
X130895680Y-20798663D01*
X130810000Y-21005513D01*
X130724320Y-20798663D01*
X130331337Y-20405680D01*
X129817881Y-20193000D01*
X129262119Y-20193000D01*
X128748663Y-20405680D01*
X128355680Y-20798663D01*
X128270000Y-21005513D01*
X128184320Y-20798663D01*
X127791337Y-20405680D01*
X127277881Y-20193000D01*
X126722119Y-20193000D01*
X126208663Y-20405680D01*
X125815680Y-20798663D01*
X125730000Y-21005513D01*
X125644320Y-20798663D01*
X125251337Y-20405680D01*
X124737881Y-20193000D01*
X124182119Y-20193000D01*
X123668663Y-20405680D01*
X123275680Y-20798663D01*
X123190000Y-21005513D01*
X123104320Y-20798663D01*
X122711337Y-20405680D01*
X122197881Y-20193000D01*
X121642119Y-20193000D01*
X121128663Y-20405680D01*
X120735680Y-20798663D01*
X120650000Y-21005513D01*
X120564320Y-20798663D01*
X120171337Y-20405680D01*
X119657881Y-20193000D01*
X119102119Y-20193000D01*
X118588663Y-20405680D01*
X118195680Y-20798663D01*
X117983000Y-21312119D01*
X68845116Y-21312119D01*
X70083805Y-20073430D01*
X70436280Y-19927431D01*
X70727431Y-19636280D01*
X70885000Y-19255874D01*
X70885000Y-19177000D01*
X150167692Y-19177000D01*
X150059375Y-19249375D01*
X149731161Y-19740582D01*
X149615908Y-20320000D01*
X149731161Y-20899418D01*
X150059375Y-21390625D01*
X150077619Y-21402816D01*
X150032235Y-21411843D01*
X149822191Y-21552191D01*
X149681843Y-21762235D01*
X149632560Y-22010000D01*
X149632560Y-23710000D01*
X149681843Y-23957765D01*
X149822191Y-24167809D01*
X150032235Y-24308157D01*
X150280000Y-24357440D01*
X151980000Y-24357440D01*
X152227765Y-24308157D01*
X152437809Y-24167809D01*
X152578157Y-23957765D01*
X152627440Y-23710000D01*
X152627440Y-22010000D01*
X152578157Y-21762235D01*
X152437809Y-21552191D01*
X152227765Y-21411843D01*
X152182381Y-21402816D01*
X152200625Y-21390625D01*
X152528839Y-20899418D01*
X152644092Y-20320000D01*
X152528839Y-19740582D01*
X152200625Y-19249375D01*
X152092308Y-19177000D01*
X153977692Y-19177000D01*
X153869375Y-19249375D01*
X153541161Y-19740582D01*
X153425908Y-20320000D01*
X153541161Y-20899418D01*
X153869375Y-21390625D01*
X153887619Y-21402816D01*
X153842235Y-21411843D01*
X153632191Y-21552191D01*
X153491843Y-21762235D01*
X153442560Y-22010000D01*
X153442560Y-23710000D01*
X153491843Y-23957765D01*
X153632191Y-24167809D01*
X153842235Y-24308157D01*
X154090000Y-24357440D01*
X155790000Y-24357440D01*
X156037765Y-24308157D01*
X156247809Y-24167809D01*
X156388157Y-23957765D01*
X156437440Y-23710000D01*
X156437440Y-22010000D01*
X156388157Y-21762235D01*
X156247809Y-21552191D01*
X156037765Y-21411843D01*
X155992381Y-21402816D01*
X156010625Y-21390625D01*
X156338839Y-20899418D01*
X156454092Y-20320000D01*
X156338839Y-19740582D01*
X156010625Y-19249375D01*
X155902308Y-19177000D01*
X156157394Y-19177000D01*
X157353000Y-20372606D01*
X157353000Y-30547331D01*
X156847945Y-30209864D01*
X156371031Y-30115000D01*
X156048969Y-30115000D01*
X155572055Y-30209864D01*
X155031231Y-30571231D01*
X154669864Y-31112055D01*
X154542969Y-31750000D01*
X154669864Y-32387945D01*
X155031231Y-32928769D01*
X155572055Y-33290136D01*
X156048969Y-33385000D01*
X156371031Y-33385000D01*
X156847945Y-33290136D01*
X157353000Y-32952669D01*
X157353000Y-35211004D01*
X157210000Y-35182560D01*
X155210000Y-35182560D01*
X154962235Y-35231843D01*
X154752191Y-35372191D01*
X154611843Y-35582235D01*
X154562560Y-35830000D01*
X154562560Y-37830000D01*
X154611843Y-38077765D01*
X154752191Y-38287809D01*
X154962235Y-38428157D01*
X155210000Y-38477440D01*
X157210000Y-38477440D01*
X157353000Y-38448996D01*
X157353000Y-38901113D01*
X157310000Y-38892560D01*
X155110000Y-38892560D01*
X154862235Y-38941843D01*
X154652191Y-39082191D01*
X154511843Y-39292235D01*
X154462560Y-39540000D01*
X154462560Y-41740000D01*
X154511843Y-41987765D01*
X154652191Y-42197809D01*
X154862235Y-42338157D01*
X155110000Y-42387440D01*
X157310000Y-42387440D01*
X157353000Y-42378887D01*
X157353000Y-46937062D01*
X156886963Y-46625666D01*
X156380880Y-46525000D01*
X156039120Y-46525000D01*
X155533037Y-46625666D01*
X154959135Y-47009135D01*
X154575666Y-47583037D01*
X154441010Y-48260000D01*
X154575666Y-48936963D01*
X154959135Y-49510865D01*
X155533037Y-49894334D01*
X156039120Y-49995000D01*
X156380880Y-49995000D01*
X156886963Y-49894334D01*
X157353000Y-49582938D01*
X157353000Y-83767394D01*
X156157394Y-84963000D01*
X144382311Y-84963000D01*
X144544577Y-84854577D01*
X144861740Y-84379909D01*
X144973113Y-83820000D01*
X144861740Y-83260091D01*
X144544577Y-82785423D01*
X144069909Y-82468260D01*
X143651333Y-82385000D01*
X143368667Y-82385000D01*
X142950091Y-82468260D01*
X142475423Y-82785423D01*
X142240000Y-83137758D01*
X142004577Y-82785423D01*
X141529909Y-82468260D01*
X141111333Y-82385000D01*
X140828667Y-82385000D01*
X140410091Y-82468260D01*
X139935423Y-82785423D01*
X139700000Y-83137758D01*
X139464577Y-82785423D01*
X138989909Y-82468260D01*
X138571333Y-82385000D01*
X138288667Y-82385000D01*
X137870091Y-82468260D01*
X137395423Y-82785423D01*
X137160000Y-83137758D01*
X136924577Y-82785423D01*
X136449909Y-82468260D01*
X136031333Y-82385000D01*
X135748667Y-82385000D01*
X135330091Y-82468260D01*
X134855423Y-82785423D01*
X134620000Y-83137758D01*
X134384577Y-82785423D01*
X133909909Y-82468260D01*
X133491333Y-82385000D01*
X133208667Y-82385000D01*
X132790091Y-82468260D01*
X132315423Y-82785423D01*
X132234785Y-82906106D01*
X132208157Y-82772235D01*
X132067809Y-82562191D01*
X131857765Y-82421843D01*
X131610000Y-82372560D01*
X130010000Y-82372560D01*
X129762235Y-82421843D01*
X129552191Y-82562191D01*
X129411843Y-82772235D01*
X129362560Y-83020000D01*
X129362560Y-84620000D01*
X129411843Y-84867765D01*
X129475477Y-84963000D01*
X126234818Y-84963000D01*
X126521337Y-84844320D01*
X126914320Y-84451337D01*
X127127000Y-83937881D01*
X127127000Y-83382119D01*
X126914320Y-82868663D01*
X126521337Y-82475680D01*
X126007881Y-82263000D01*
X125452119Y-82263000D01*
X124938663Y-82475680D01*
X124545680Y-82868663D01*
X124333000Y-83382119D01*
X124333000Y-83937881D01*
X124545680Y-84451337D01*
X124938663Y-84844320D01*
X125225182Y-84963000D01*
X115234818Y-84963000D01*
X115521337Y-84844320D01*
X115914320Y-84451337D01*
X116127000Y-83937881D01*
X116127000Y-83382119D01*
X115914320Y-82868663D01*
X115521337Y-82475680D01*
X115007881Y-82263000D01*
X114452119Y-82263000D01*
X113938663Y-82475680D01*
X113545680Y-82868663D01*
X113333000Y-83382119D01*
X113333000Y-83937881D01*
X113545680Y-84451337D01*
X113938663Y-84844320D01*
X114225182Y-84963000D01*
X64822606Y-84963000D01*
X63627000Y-83767394D01*
X63627000Y-82267067D01*
X69697600Y-82267067D01*
X69697600Y-82832933D01*
X69914148Y-83355725D01*
X70314275Y-83755852D01*
X70837067Y-83972400D01*
X71402933Y-83972400D01*
X71925725Y-83755852D01*
X72325852Y-83355725D01*
X72390000Y-83200858D01*
X72454148Y-83355725D01*
X72854275Y-83755852D01*
X73377067Y-83972400D01*
X73942933Y-83972400D01*
X74465725Y-83755852D01*
X74865852Y-83355725D01*
X74930000Y-83200858D01*
X74994148Y-83355725D01*
X75394275Y-83755852D01*
X75917067Y-83972400D01*
X76482933Y-83972400D01*
X77005725Y-83755852D01*
X77405852Y-83355725D01*
X77470000Y-83200858D01*
X77534148Y-83355725D01*
X77934275Y-83755852D01*
X78457067Y-83972400D01*
X79022933Y-83972400D01*
X79545725Y-83755852D01*
X79945852Y-83355725D01*
X80010000Y-83200858D01*
X80074148Y-83355725D01*
X80474275Y-83755852D01*
X80997067Y-83972400D01*
X81562933Y-83972400D01*
X82085725Y-83755852D01*
X82485852Y-83355725D01*
X82550000Y-83200858D01*
X82614148Y-83355725D01*
X83014275Y-83755852D01*
X83537067Y-83972400D01*
X84102933Y-83972400D01*
X84625725Y-83755852D01*
X85025852Y-83355725D01*
X85090000Y-83200858D01*
X85154148Y-83355725D01*
X85554275Y-83755852D01*
X86077067Y-83972400D01*
X86642933Y-83972400D01*
X87165725Y-83755852D01*
X87565852Y-83355725D01*
X87630000Y-83200858D01*
X87694148Y-83355725D01*
X88094275Y-83755852D01*
X88617067Y-83972400D01*
X89182933Y-83972400D01*
X89705725Y-83755852D01*
X90105852Y-83355725D01*
X90170000Y-83200858D01*
X90234148Y-83355725D01*
X90634275Y-83755852D01*
X91157067Y-83972400D01*
X91722933Y-83972400D01*
X92245725Y-83755852D01*
X92645852Y-83355725D01*
X92710000Y-83200858D01*
X92774148Y-83355725D01*
X93174275Y-83755852D01*
X93697067Y-83972400D01*
X94262933Y-83972400D01*
X94785725Y-83755852D01*
X95185852Y-83355725D01*
X95250000Y-83200858D01*
X95314148Y-83355725D01*
X95714275Y-83755852D01*
X96237067Y-83972400D01*
X96802933Y-83972400D01*
X97325725Y-83755852D01*
X97725852Y-83355725D01*
X97790000Y-83200858D01*
X97854148Y-83355725D01*
X98254275Y-83755852D01*
X98777067Y-83972400D01*
X99342933Y-83972400D01*
X99865725Y-83755852D01*
X100265852Y-83355725D01*
X100330000Y-83200858D01*
X100394148Y-83355725D01*
X100794275Y-83755852D01*
X101317067Y-83972400D01*
X101882933Y-83972400D01*
X102405725Y-83755852D01*
X102805852Y-83355725D01*
X103022400Y-82832933D01*
X103022400Y-82267067D01*
X105257600Y-82267067D01*
X105257600Y-82832933D01*
X105474148Y-83355725D01*
X105874275Y-83755852D01*
X106397067Y-83972400D01*
X106962933Y-83972400D01*
X107485725Y-83755852D01*
X107885852Y-83355725D01*
X108102400Y-82832933D01*
X108102400Y-82267067D01*
X107885852Y-81744275D01*
X107485725Y-81344148D01*
X106962933Y-81127600D01*
X106397067Y-81127600D01*
X105874275Y-81344148D01*
X105474148Y-81744275D01*
X105257600Y-82267067D01*
X103022400Y-82267067D01*
X102805852Y-81744275D01*
X102405725Y-81344148D01*
X101882933Y-81127600D01*
X101317067Y-81127600D01*
X100794275Y-81344148D01*
X100394148Y-81744275D01*
X100330000Y-81899142D01*
X100265852Y-81744275D01*
X99865725Y-81344148D01*
X99342933Y-81127600D01*
X98777067Y-81127600D01*
X98254275Y-81344148D01*
X97854148Y-81744275D01*
X97790000Y-81899142D01*
X97725852Y-81744275D01*
X97325725Y-81344148D01*
X96802933Y-81127600D01*
X96237067Y-81127600D01*
X95714275Y-81344148D01*
X95314148Y-81744275D01*
X95250000Y-81899142D01*
X95185852Y-81744275D01*
X94785725Y-81344148D01*
X94262933Y-81127600D01*
X93697067Y-81127600D01*
X93174275Y-81344148D01*
X92774148Y-81744275D01*
X92710000Y-81899142D01*
X92645852Y-81744275D01*
X92245725Y-81344148D01*
X91722933Y-81127600D01*
X91157067Y-81127600D01*
X90634275Y-81344148D01*
X90234148Y-81744275D01*
X90170000Y-81899142D01*
X90105852Y-81744275D01*
X89705725Y-81344148D01*
X89182933Y-81127600D01*
X88617067Y-81127600D01*
X88094275Y-81344148D01*
X87694148Y-81744275D01*
X87630000Y-81899142D01*
X87565852Y-81744275D01*
X87165725Y-81344148D01*
X86642933Y-81127600D01*
X86077067Y-81127600D01*
X85554275Y-81344148D01*
X85154148Y-81744275D01*
X85090000Y-81899142D01*
X85025852Y-81744275D01*
X84625725Y-81344148D01*
X84102933Y-81127600D01*
X83537067Y-81127600D01*
X83014275Y-81344148D01*
X82614148Y-81744275D01*
X82550000Y-81899142D01*
X82485852Y-81744275D01*
X82085725Y-81344148D01*
X81562933Y-81127600D01*
X80997067Y-81127600D01*
X80474275Y-81344148D01*
X80074148Y-81744275D01*
X80010000Y-81899142D01*
X79945852Y-81744275D01*
X79545725Y-81344148D01*
X79022933Y-81127600D01*
X78457067Y-81127600D01*
X77934275Y-81344148D01*
X77534148Y-81744275D01*
X77470000Y-81899142D01*
X77405852Y-81744275D01*
X77005725Y-81344148D01*
X76482933Y-81127600D01*
X75917067Y-81127600D01*
X75394275Y-81344148D01*
X74994148Y-81744275D01*
X74930000Y-81899142D01*
X74865852Y-81744275D01*
X74465725Y-81344148D01*
X73942933Y-81127600D01*
X73377067Y-81127600D01*
X72854275Y-81344148D01*
X72454148Y-81744275D01*
X72390000Y-81899142D01*
X72325852Y-81744275D01*
X71925725Y-81344148D01*
X71402933Y-81127600D01*
X70837067Y-81127600D01*
X70314275Y-81344148D01*
X69914148Y-81744275D01*
X69697600Y-82267067D01*
X63627000Y-82267067D01*
X63627000Y-79804126D01*
X127235000Y-79804126D01*
X127235000Y-80215874D01*
X127392569Y-80596280D01*
X127683720Y-80887431D01*
X128064126Y-81045000D01*
X128475874Y-81045000D01*
X128828350Y-80899000D01*
X132791650Y-80899000D01*
X133144126Y-81045000D01*
X133555874Y-81045000D01*
X133936280Y-80887431D01*
X134227431Y-80596280D01*
X134385000Y-80215874D01*
X134385000Y-79804126D01*
X134227431Y-79423720D01*
X133936280Y-79132569D01*
X133555874Y-78975000D01*
X133144126Y-78975000D01*
X132791650Y-79121000D01*
X128828350Y-79121000D01*
X128475874Y-78975000D01*
X128064126Y-78975000D01*
X127683720Y-79132569D01*
X127392569Y-79423720D01*
X127235000Y-79804126D01*
X63627000Y-79804126D01*
X63627000Y-76200000D01*
X129346887Y-76200000D01*
X129458260Y-76759909D01*
X129775423Y-77234577D01*
X130250091Y-77551740D01*
X130668667Y-77635000D01*
X130951333Y-77635000D01*
X131369909Y-77551740D01*
X131844577Y-77234577D01*
X132080000Y-76882242D01*
X132315423Y-77234577D01*
X132790091Y-77551740D01*
X133208667Y-77635000D01*
X133491333Y-77635000D01*
X133909909Y-77551740D01*
X134384577Y-77234577D01*
X134620000Y-76882242D01*
X134855423Y-77234577D01*
X135330091Y-77551740D01*
X135748667Y-77635000D01*
X136031333Y-77635000D01*
X136449909Y-77551740D01*
X136924577Y-77234577D01*
X137160000Y-76882242D01*
X137395423Y-77234577D01*
X137870091Y-77551740D01*
X138288667Y-77635000D01*
X138571333Y-77635000D01*
X138989909Y-77551740D01*
X139464577Y-77234577D01*
X139700000Y-76882242D01*
X139935423Y-77234577D01*
X140410091Y-77551740D01*
X140828667Y-77635000D01*
X141111333Y-77635000D01*
X141529909Y-77551740D01*
X142004577Y-77234577D01*
X142240000Y-76882242D01*
X142475423Y-77234577D01*
X142950091Y-77551740D01*
X143368667Y-77635000D01*
X143651333Y-77635000D01*
X144069909Y-77551740D01*
X144544577Y-77234577D01*
X144780000Y-76882242D01*
X145015423Y-77234577D01*
X145490091Y-77551740D01*
X145908667Y-77635000D01*
X146191333Y-77635000D01*
X146609909Y-77551740D01*
X147084577Y-77234577D01*
X147401740Y-76759909D01*
X147513113Y-76200000D01*
X147401740Y-75640091D01*
X147084577Y-75165423D01*
X146609909Y-74848260D01*
X146191333Y-74765000D01*
X145908667Y-74765000D01*
X145490091Y-74848260D01*
X145015423Y-75165423D01*
X144780000Y-75517758D01*
X144544577Y-75165423D01*
X144069909Y-74848260D01*
X143651333Y-74765000D01*
X143368667Y-74765000D01*
X142950091Y-74848260D01*
X142475423Y-75165423D01*
X142240000Y-75517758D01*
X142004577Y-75165423D01*
X141529909Y-74848260D01*
X141111333Y-74765000D01*
X140828667Y-74765000D01*
X140410091Y-74848260D01*
X139935423Y-75165423D01*
X139700000Y-75517758D01*
X139464577Y-75165423D01*
X138989909Y-74848260D01*
X138571333Y-74765000D01*
X138288667Y-74765000D01*
X137870091Y-74848260D01*
X137395423Y-75165423D01*
X137160000Y-75517758D01*
X136924577Y-75165423D01*
X136449909Y-74848260D01*
X136031333Y-74765000D01*
X135748667Y-74765000D01*
X135330091Y-74848260D01*
X134855423Y-75165423D01*
X134620000Y-75517758D01*
X134384577Y-75165423D01*
X133909909Y-74848260D01*
X133491333Y-74765000D01*
X133208667Y-74765000D01*
X132790091Y-74848260D01*
X132315423Y-75165423D01*
X132080000Y-75517758D01*
X131844577Y-75165423D01*
X131369909Y-74848260D01*
X130951333Y-74765000D01*
X130668667Y-74765000D01*
X130250091Y-74848260D01*
X129775423Y-75165423D01*
X129458260Y-75640091D01*
X129346887Y-76200000D01*
X63627000Y-76200000D01*
X63627000Y-73314887D01*
X115995000Y-73314887D01*
X115995000Y-74005113D01*
X116259138Y-74642799D01*
X116747201Y-75130862D01*
X117384887Y-75395000D01*
X118075113Y-75395000D01*
X118712799Y-75130862D01*
X119200862Y-74642799D01*
X119465000Y-74005113D01*
X119465000Y-73314887D01*
X119200862Y-72677201D01*
X118712799Y-72189138D01*
X118075113Y-71925000D01*
X117384887Y-71925000D01*
X116747201Y-72189138D01*
X116259138Y-72677201D01*
X115995000Y-73314887D01*
X63627000Y-73314887D01*
X63627000Y-67027067D01*
X69697600Y-67027067D01*
X69697600Y-67592933D01*
X69914148Y-68115725D01*
X70314275Y-68515852D01*
X70837067Y-68732400D01*
X71402933Y-68732400D01*
X71925725Y-68515852D01*
X72325852Y-68115725D01*
X72390000Y-67960858D01*
X72454148Y-68115725D01*
X72854275Y-68515852D01*
X73377067Y-68732400D01*
X73942933Y-68732400D01*
X74465725Y-68515852D01*
X74865852Y-68115725D01*
X74930000Y-67960858D01*
X74994148Y-68115725D01*
X75394275Y-68515852D01*
X75917067Y-68732400D01*
X76482933Y-68732400D01*
X77005725Y-68515852D01*
X77405852Y-68115725D01*
X77470000Y-67960858D01*
X77534148Y-68115725D01*
X77934275Y-68515852D01*
X78457067Y-68732400D01*
X79022933Y-68732400D01*
X79545725Y-68515852D01*
X79945852Y-68115725D01*
X80010000Y-67960858D01*
X80074148Y-68115725D01*
X80474275Y-68515852D01*
X80997067Y-68732400D01*
X81562933Y-68732400D01*
X82085725Y-68515852D01*
X82485852Y-68115725D01*
X82550000Y-67960858D01*
X82614148Y-68115725D01*
X83014275Y-68515852D01*
X83537067Y-68732400D01*
X84102933Y-68732400D01*
X84625725Y-68515852D01*
X85025852Y-68115725D01*
X85090000Y-67960858D01*
X85154148Y-68115725D01*
X85554275Y-68515852D01*
X86077067Y-68732400D01*
X86642933Y-68732400D01*
X87165725Y-68515852D01*
X87565852Y-68115725D01*
X87630000Y-67960858D01*
X87694148Y-68115725D01*
X88094275Y-68515852D01*
X88617067Y-68732400D01*
X89182933Y-68732400D01*
X89705725Y-68515852D01*
X90105852Y-68115725D01*
X90170000Y-67960858D01*
X90234148Y-68115725D01*
X90634275Y-68515852D01*
X91157067Y-68732400D01*
X91722933Y-68732400D01*
X92245725Y-68515852D01*
X92645852Y-68115725D01*
X92710000Y-67960858D01*
X92774148Y-68115725D01*
X93174275Y-68515852D01*
X93697067Y-68732400D01*
X94262933Y-68732400D01*
X94785725Y-68515852D01*
X95185852Y-68115725D01*
X95250000Y-67960858D01*
X95314148Y-68115725D01*
X95714275Y-68515852D01*
X96237067Y-68732400D01*
X96802933Y-68732400D01*
X97325725Y-68515852D01*
X97725852Y-68115725D01*
X97942400Y-67592933D01*
X97942400Y-67027067D01*
X100177600Y-67027067D01*
X100177600Y-67592933D01*
X100394148Y-68115725D01*
X100794275Y-68515852D01*
X101317067Y-68732400D01*
X101882933Y-68732400D01*
X102405725Y-68515852D01*
X102805852Y-68115725D01*
X102870000Y-67960858D01*
X102934148Y-68115725D01*
X103334275Y-68515852D01*
X103857067Y-68732400D01*
X104422933Y-68732400D01*
X104945725Y-68515852D01*
X105345852Y-68115725D01*
X105410000Y-67960858D01*
X105474148Y-68115725D01*
X105874275Y-68515852D01*
X106397067Y-68732400D01*
X106962933Y-68732400D01*
X107485725Y-68515852D01*
X107885852Y-68115725D01*
X108045624Y-67730000D01*
X114072560Y-67730000D01*
X114072560Y-69430000D01*
X114121843Y-69677765D01*
X114262191Y-69887809D01*
X114472235Y-70028157D01*
X114720000Y-70077440D01*
X116420000Y-70077440D01*
X116667765Y-70028157D01*
X116877809Y-69887809D01*
X117018157Y-69677765D01*
X117027184Y-69632381D01*
X117039375Y-69650625D01*
X117530582Y-69978839D01*
X117963744Y-70065000D01*
X118256256Y-70065000D01*
X118689418Y-69978839D01*
X119180625Y-69650625D01*
X119380000Y-69352239D01*
X119579375Y-69650625D01*
X120070582Y-69978839D01*
X120503744Y-70065000D01*
X120796256Y-70065000D01*
X121229418Y-69978839D01*
X121720625Y-69650625D01*
X122048839Y-69159418D01*
X122164092Y-68580000D01*
X124215908Y-68580000D01*
X124331161Y-69159418D01*
X124659375Y-69650625D01*
X125150582Y-69978839D01*
X125583744Y-70065000D01*
X125876256Y-70065000D01*
X126309418Y-69978839D01*
X126800625Y-69650625D01*
X127128839Y-69159418D01*
X127244092Y-68580000D01*
X127128839Y-68000582D01*
X126800625Y-67509375D01*
X126309418Y-67181161D01*
X125876256Y-67095000D01*
X125583744Y-67095000D01*
X125150582Y-67181161D01*
X124659375Y-67509375D01*
X124331161Y-68000582D01*
X124215908Y-68580000D01*
X122164092Y-68580000D01*
X122048839Y-68000582D01*
X121720625Y-67509375D01*
X121229418Y-67181161D01*
X120796256Y-67095000D01*
X120503744Y-67095000D01*
X120070582Y-67181161D01*
X119579375Y-67509375D01*
X119380000Y-67807761D01*
X119180625Y-67509375D01*
X118689418Y-67181161D01*
X118256256Y-67095000D01*
X117963744Y-67095000D01*
X117530582Y-67181161D01*
X117039375Y-67509375D01*
X117027184Y-67527619D01*
X117018157Y-67482235D01*
X116877809Y-67272191D01*
X116667765Y-67131843D01*
X116420000Y-67082560D01*
X114720000Y-67082560D01*
X114472235Y-67131843D01*
X114262191Y-67272191D01*
X114121843Y-67482235D01*
X114072560Y-67730000D01*
X108045624Y-67730000D01*
X108102400Y-67592933D01*
X108102400Y-67027067D01*
X107885852Y-66504275D01*
X107485725Y-66104148D01*
X106962933Y-65887600D01*
X106397067Y-65887600D01*
X105874275Y-66104148D01*
X105474148Y-66504275D01*
X105410000Y-66659142D01*
X105345852Y-66504275D01*
X104945725Y-66104148D01*
X104422933Y-65887600D01*
X103857067Y-65887600D01*
X103334275Y-66104148D01*
X102934148Y-66504275D01*
X102870000Y-66659142D01*
X102805852Y-66504275D01*
X102405725Y-66104148D01*
X101882933Y-65887600D01*
X101317067Y-65887600D01*
X100794275Y-66104148D01*
X100394148Y-66504275D01*
X100177600Y-67027067D01*
X97942400Y-67027067D01*
X97725852Y-66504275D01*
X97325725Y-66104148D01*
X96802933Y-65887600D01*
X96237067Y-65887600D01*
X95714275Y-66104148D01*
X95314148Y-66504275D01*
X95250000Y-66659142D01*
X95185852Y-66504275D01*
X94785725Y-66104148D01*
X94262933Y-65887600D01*
X93697067Y-65887600D01*
X93174275Y-66104148D01*
X92774148Y-66504275D01*
X92710000Y-66659142D01*
X92645852Y-66504275D01*
X92245725Y-66104148D01*
X91722933Y-65887600D01*
X91157067Y-65887600D01*
X90634275Y-66104148D01*
X90234148Y-66504275D01*
X90170000Y-66659142D01*
X90105852Y-66504275D01*
X89705725Y-66104148D01*
X89182933Y-65887600D01*
X88617067Y-65887600D01*
X88094275Y-66104148D01*
X87694148Y-66504275D01*
X87630000Y-66659142D01*
X87565852Y-66504275D01*
X87165725Y-66104148D01*
X86642933Y-65887600D01*
X86077067Y-65887600D01*
X85554275Y-66104148D01*
X85154148Y-66504275D01*
X85090000Y-66659142D01*
X85025852Y-66504275D01*
X84625725Y-66104148D01*
X84102933Y-65887600D01*
X83537067Y-65887600D01*
X83014275Y-66104148D01*
X82614148Y-66504275D01*
X82550000Y-66659142D01*
X82485852Y-66504275D01*
X82085725Y-66104148D01*
X81562933Y-65887600D01*
X80997067Y-65887600D01*
X80474275Y-66104148D01*
X80074148Y-66504275D01*
X80010000Y-66659142D01*
X79945852Y-66504275D01*
X79545725Y-66104148D01*
X79022933Y-65887600D01*
X78457067Y-65887600D01*
X77934275Y-66104148D01*
X77534148Y-66504275D01*
X77470000Y-66659142D01*
X77405852Y-66504275D01*
X77005725Y-66104148D01*
X76482933Y-65887600D01*
X75917067Y-65887600D01*
X75394275Y-66104148D01*
X74994148Y-66504275D01*
X74930000Y-66659142D01*
X74865852Y-66504275D01*
X74465725Y-66104148D01*
X73942933Y-65887600D01*
X73377067Y-65887600D01*
X72854275Y-66104148D01*
X72454148Y-66504275D01*
X72390000Y-66659142D01*
X72325852Y-66504275D01*
X71925725Y-66104148D01*
X71402933Y-65887600D01*
X70837067Y-65887600D01*
X70314275Y-66104148D01*
X69914148Y-66504275D01*
X69697600Y-67027067D01*
X63627000Y-67027067D01*
X63627000Y-64564126D01*
X124695000Y-64564126D01*
X124695000Y-64975874D01*
X124852569Y-65356280D01*
X125143720Y-65647431D01*
X125524126Y-65805000D01*
X125935874Y-65805000D01*
X126316280Y-65647431D01*
X126607431Y-65356280D01*
X126765000Y-64975874D01*
X126765000Y-64564126D01*
X126607431Y-64183720D01*
X126316280Y-63892569D01*
X125935874Y-63735000D01*
X125524126Y-63735000D01*
X125143720Y-63892569D01*
X124852569Y-64183720D01*
X124695000Y-64564126D01*
X63627000Y-64564126D01*
X63627000Y-61947067D01*
X69697600Y-61947067D01*
X69697600Y-62512933D01*
X69914148Y-63035725D01*
X70314275Y-63435852D01*
X70837067Y-63652400D01*
X71402933Y-63652400D01*
X71925725Y-63435852D01*
X72325852Y-63035725D01*
X72390000Y-62880858D01*
X72454148Y-63035725D01*
X72854275Y-63435852D01*
X73377067Y-63652400D01*
X73942933Y-63652400D01*
X74465725Y-63435852D01*
X74865852Y-63035725D01*
X74930000Y-62880858D01*
X74994148Y-63035725D01*
X75394275Y-63435852D01*
X75917067Y-63652400D01*
X76482933Y-63652400D01*
X77005725Y-63435852D01*
X77405852Y-63035725D01*
X77470000Y-62880858D01*
X77534148Y-63035725D01*
X77934275Y-63435852D01*
X78457067Y-63652400D01*
X79022933Y-63652400D01*
X79545725Y-63435852D01*
X79945852Y-63035725D01*
X80010000Y-62880858D01*
X80074148Y-63035725D01*
X80474275Y-63435852D01*
X80997067Y-63652400D01*
X81562933Y-63652400D01*
X82085725Y-63435852D01*
X82485852Y-63035725D01*
X82550000Y-62880858D01*
X82614148Y-63035725D01*
X83014275Y-63435852D01*
X83537067Y-63652400D01*
X84102933Y-63652400D01*
X84625725Y-63435852D01*
X85025852Y-63035725D01*
X85090000Y-62880858D01*
X85154148Y-63035725D01*
X85554275Y-63435852D01*
X86077067Y-63652400D01*
X86642933Y-63652400D01*
X87165725Y-63435852D01*
X87565852Y-63035725D01*
X87630000Y-62880858D01*
X87694148Y-63035725D01*
X88094275Y-63435852D01*
X88617067Y-63652400D01*
X89182933Y-63652400D01*
X89705725Y-63435852D01*
X90105852Y-63035725D01*
X90170000Y-62880858D01*
X90234148Y-63035725D01*
X90634275Y-63435852D01*
X91157067Y-63652400D01*
X91722933Y-63652400D01*
X92245725Y-63435852D01*
X92645852Y-63035725D01*
X92710000Y-62880858D01*
X92774148Y-63035725D01*
X93174275Y-63435852D01*
X93697067Y-63652400D01*
X94262933Y-63652400D01*
X94785725Y-63435852D01*
X95185852Y-63035725D01*
X95250000Y-62880858D01*
X95314148Y-63035725D01*
X95714275Y-63435852D01*
X96237067Y-63652400D01*
X96802933Y-63652400D01*
X97325725Y-63435852D01*
X97725852Y-63035725D01*
X97790000Y-62880858D01*
X97854148Y-63035725D01*
X98254275Y-63435852D01*
X98777067Y-63652400D01*
X99342933Y-63652400D01*
X99865725Y-63435852D01*
X100265852Y-63035725D01*
X100330000Y-62880858D01*
X100394148Y-63035725D01*
X100794275Y-63435852D01*
X101317067Y-63652400D01*
X101882933Y-63652400D01*
X102405725Y-63435852D01*
X102805852Y-63035725D01*
X103022400Y-62512933D01*
X103022400Y-61947067D01*
X105257600Y-61947067D01*
X105257600Y-62512933D01*
X105474148Y-63035725D01*
X105874275Y-63435852D01*
X106397067Y-63652400D01*
X106962933Y-63652400D01*
X107485725Y-63435852D01*
X107885852Y-63035725D01*
X108102400Y-62512933D01*
X108102400Y-61947067D01*
X107885852Y-61424275D01*
X107485725Y-61024148D01*
X106962933Y-60807600D01*
X106397067Y-60807600D01*
X105874275Y-61024148D01*
X105474148Y-61424275D01*
X105257600Y-61947067D01*
X103022400Y-61947067D01*
X102805852Y-61424275D01*
X102405725Y-61024148D01*
X101882933Y-60807600D01*
X101317067Y-60807600D01*
X100794275Y-61024148D01*
X100394148Y-61424275D01*
X100330000Y-61579142D01*
X100265852Y-61424275D01*
X99865725Y-61024148D01*
X99342933Y-60807600D01*
X98777067Y-60807600D01*
X98254275Y-61024148D01*
X97854148Y-61424275D01*
X97790000Y-61579142D01*
X97725852Y-61424275D01*
X97325725Y-61024148D01*
X96802933Y-60807600D01*
X96237067Y-60807600D01*
X95714275Y-61024148D01*
X95314148Y-61424275D01*
X95250000Y-61579142D01*
X95185852Y-61424275D01*
X94785725Y-61024148D01*
X94262933Y-60807600D01*
X93697067Y-60807600D01*
X93174275Y-61024148D01*
X92774148Y-61424275D01*
X92710000Y-61579142D01*
X92645852Y-61424275D01*
X92245725Y-61024148D01*
X91722933Y-60807600D01*
X91157067Y-60807600D01*
X90634275Y-61024148D01*
X90234148Y-61424275D01*
X90170000Y-61579142D01*
X90105852Y-61424275D01*
X89705725Y-61024148D01*
X89182933Y-60807600D01*
X88617067Y-60807600D01*
X88094275Y-61024148D01*
X87694148Y-61424275D01*
X87630000Y-61579142D01*
X87565852Y-61424275D01*
X87165725Y-61024148D01*
X86642933Y-60807600D01*
X86077067Y-60807600D01*
X85554275Y-61024148D01*
X85154148Y-61424275D01*
X85090000Y-61579142D01*
X85025852Y-61424275D01*
X84625725Y-61024148D01*
X84102933Y-60807600D01*
X83537067Y-60807600D01*
X83014275Y-61024148D01*
X82614148Y-61424275D01*
X82550000Y-61579142D01*
X82485852Y-61424275D01*
X82085725Y-61024148D01*
X81562933Y-60807600D01*
X80997067Y-60807600D01*
X80474275Y-61024148D01*
X80074148Y-61424275D01*
X80010000Y-61579142D01*
X79945852Y-61424275D01*
X79545725Y-61024148D01*
X79022933Y-60807600D01*
X78457067Y-60807600D01*
X77934275Y-61024148D01*
X77534148Y-61424275D01*
X77470000Y-61579142D01*
X77405852Y-61424275D01*
X77005725Y-61024148D01*
X76482933Y-60807600D01*
X75917067Y-60807600D01*
X75394275Y-61024148D01*
X74994148Y-61424275D01*
X74930000Y-61579142D01*
X74865852Y-61424275D01*
X74465725Y-61024148D01*
X73942933Y-60807600D01*
X73377067Y-60807600D01*
X72854275Y-61024148D01*
X72454148Y-61424275D01*
X72390000Y-61579142D01*
X72325852Y-61424275D01*
X71925725Y-61024148D01*
X71402933Y-60807600D01*
X70837067Y-60807600D01*
X70314275Y-61024148D01*
X69914148Y-61424275D01*
X69697600Y-61947067D01*
X63627000Y-61947067D01*
X63627000Y-60674561D01*
X133185000Y-60674561D01*
X133185000Y-61245439D01*
X133403466Y-61772862D01*
X133807138Y-62176534D01*
X134334561Y-62395000D01*
X134905439Y-62395000D01*
X135432862Y-62176534D01*
X135836534Y-61772862D01*
X136055000Y-61245439D01*
X136055000Y-60674561D01*
X135836534Y-60147138D01*
X135432862Y-59743466D01*
X134905439Y-59525000D01*
X134334561Y-59525000D01*
X133807138Y-59743466D01*
X133403466Y-60147138D01*
X133185000Y-60674561D01*
X63627000Y-60674561D01*
X63627000Y-49530000D01*
X123052275Y-49530000D01*
X123142305Y-49982609D01*
X123264174Y-50165000D01*
X123142305Y-50347391D01*
X123052275Y-50800000D01*
X123142305Y-51252609D01*
X123398687Y-51636313D01*
X123782391Y-51892695D01*
X124120754Y-51960000D01*
X124799246Y-51960000D01*
X125137609Y-51892695D01*
X125521313Y-51636313D01*
X125777695Y-51252609D01*
X125867725Y-50800000D01*
X125810948Y-50514561D01*
X129375000Y-50514561D01*
X129375000Y-51085439D01*
X129593466Y-51612862D01*
X129997138Y-52016534D01*
X130524561Y-52235000D01*
X131095439Y-52235000D01*
X131622862Y-52016534D01*
X132026534Y-51612862D01*
X132245000Y-51085439D01*
X132245000Y-50514561D01*
X132026534Y-49987138D01*
X131622862Y-49583466D01*
X131095439Y-49365000D01*
X130524561Y-49365000D01*
X129997138Y-49583466D01*
X129593466Y-49987138D01*
X129375000Y-50514561D01*
X125810948Y-50514561D01*
X125777695Y-50347391D01*
X125655826Y-50165000D01*
X125777695Y-49982609D01*
X125867725Y-49530000D01*
X125777695Y-49077391D01*
X125521313Y-48693687D01*
X125137609Y-48437305D01*
X124799246Y-48370000D01*
X124120754Y-48370000D01*
X123782391Y-48437305D01*
X123398687Y-48693687D01*
X123142305Y-49077391D01*
X123052275Y-49530000D01*
X63627000Y-49530000D01*
X63627000Y-46707067D01*
X69697600Y-46707067D01*
X69697600Y-47272933D01*
X69914148Y-47795725D01*
X70314275Y-48195852D01*
X70837067Y-48412400D01*
X71402933Y-48412400D01*
X71925725Y-48195852D01*
X72325852Y-47795725D01*
X72390000Y-47640858D01*
X72454148Y-47795725D01*
X72854275Y-48195852D01*
X73377067Y-48412400D01*
X73942933Y-48412400D01*
X74465725Y-48195852D01*
X74865852Y-47795725D01*
X74930000Y-47640858D01*
X74994148Y-47795725D01*
X75394275Y-48195852D01*
X75917067Y-48412400D01*
X76482933Y-48412400D01*
X77005725Y-48195852D01*
X77405852Y-47795725D01*
X77470000Y-47640858D01*
X77534148Y-47795725D01*
X77934275Y-48195852D01*
X78457067Y-48412400D01*
X79022933Y-48412400D01*
X79545725Y-48195852D01*
X79945852Y-47795725D01*
X80010000Y-47640858D01*
X80074148Y-47795725D01*
X80474275Y-48195852D01*
X80997067Y-48412400D01*
X81562933Y-48412400D01*
X82085725Y-48195852D01*
X82485852Y-47795725D01*
X82550000Y-47640858D01*
X82614148Y-47795725D01*
X83014275Y-48195852D01*
X83537067Y-48412400D01*
X84102933Y-48412400D01*
X84625725Y-48195852D01*
X85025852Y-47795725D01*
X85090000Y-47640858D01*
X85154148Y-47795725D01*
X85554275Y-48195852D01*
X86077067Y-48412400D01*
X86642933Y-48412400D01*
X87165725Y-48195852D01*
X87565852Y-47795725D01*
X87630000Y-47640858D01*
X87694148Y-47795725D01*
X88094275Y-48195852D01*
X88617067Y-48412400D01*
X89182933Y-48412400D01*
X89705725Y-48195852D01*
X90105852Y-47795725D01*
X90170000Y-47640858D01*
X90234148Y-47795725D01*
X90634275Y-48195852D01*
X91157067Y-48412400D01*
X91722933Y-48412400D01*
X92245725Y-48195852D01*
X92645852Y-47795725D01*
X92710000Y-47640858D01*
X92774148Y-47795725D01*
X93174275Y-48195852D01*
X93697067Y-48412400D01*
X94262933Y-48412400D01*
X94785725Y-48195852D01*
X95185852Y-47795725D01*
X95250000Y-47640858D01*
X95314148Y-47795725D01*
X95714275Y-48195852D01*
X96237067Y-48412400D01*
X96802933Y-48412400D01*
X97325725Y-48195852D01*
X97725852Y-47795725D01*
X97942400Y-47272933D01*
X97942400Y-46707067D01*
X100177600Y-46707067D01*
X100177600Y-47272933D01*
X100394148Y-47795725D01*
X100794275Y-48195852D01*
X101317067Y-48412400D01*
X101882933Y-48412400D01*
X102405725Y-48195852D01*
X102805852Y-47795725D01*
X102870000Y-47640858D01*
X102934148Y-47795725D01*
X103334275Y-48195852D01*
X103857067Y-48412400D01*
X104422933Y-48412400D01*
X104945725Y-48195852D01*
X105345852Y-47795725D01*
X105410000Y-47640858D01*
X105474148Y-47795725D01*
X105874275Y-48195852D01*
X106397067Y-48412400D01*
X106962933Y-48412400D01*
X107485725Y-48195852D01*
X107885852Y-47795725D01*
X108102400Y-47272933D01*
X108102400Y-46707067D01*
X107885852Y-46184275D01*
X107591577Y-45890000D01*
X149382560Y-45890000D01*
X149382560Y-48090000D01*
X149431843Y-48337765D01*
X149572191Y-48547809D01*
X149782235Y-48688157D01*
X150030000Y-48737440D01*
X152230000Y-48737440D01*
X152477765Y-48688157D01*
X152687809Y-48547809D01*
X152828157Y-48337765D01*
X152877440Y-48090000D01*
X152877440Y-45890000D01*
X152828157Y-45642235D01*
X152687809Y-45432191D01*
X152477765Y-45291843D01*
X152230000Y-45242560D01*
X150030000Y-45242560D01*
X149782235Y-45291843D01*
X149572191Y-45432191D01*
X149431843Y-45642235D01*
X149382560Y-45890000D01*
X107591577Y-45890000D01*
X107485725Y-45784148D01*
X106962933Y-45567600D01*
X106397067Y-45567600D01*
X105874275Y-45784148D01*
X105474148Y-46184275D01*
X105410000Y-46339142D01*
X105345852Y-46184275D01*
X104945725Y-45784148D01*
X104422933Y-45567600D01*
X103857067Y-45567600D01*
X103334275Y-45784148D01*
X102934148Y-46184275D01*
X102870000Y-46339142D01*
X102805852Y-46184275D01*
X102405725Y-45784148D01*
X101882933Y-45567600D01*
X101317067Y-45567600D01*
X100794275Y-45784148D01*
X100394148Y-46184275D01*
X100177600Y-46707067D01*
X97942400Y-46707067D01*
X97725852Y-46184275D01*
X97325725Y-45784148D01*
X96802933Y-45567600D01*
X96237067Y-45567600D01*
X95714275Y-45784148D01*
X95314148Y-46184275D01*
X95250000Y-46339142D01*
X95185852Y-46184275D01*
X94785725Y-45784148D01*
X94262933Y-45567600D01*
X93697067Y-45567600D01*
X93174275Y-45784148D01*
X92774148Y-46184275D01*
X92710000Y-46339142D01*
X92645852Y-46184275D01*
X92245725Y-45784148D01*
X91722933Y-45567600D01*
X91157067Y-45567600D01*
X90634275Y-45784148D01*
X90234148Y-46184275D01*
X90170000Y-46339142D01*
X90105852Y-46184275D01*
X89705725Y-45784148D01*
X89182933Y-45567600D01*
X88617067Y-45567600D01*
X88094275Y-45784148D01*
X87694148Y-46184275D01*
X87630000Y-46339142D01*
X87565852Y-46184275D01*
X87165725Y-45784148D01*
X86642933Y-45567600D01*
X86077067Y-45567600D01*
X85554275Y-45784148D01*
X85154148Y-46184275D01*
X85090000Y-46339142D01*
X85025852Y-46184275D01*
X84625725Y-45784148D01*
X84102933Y-45567600D01*
X83537067Y-45567600D01*
X83014275Y-45784148D01*
X82614148Y-46184275D01*
X82550000Y-46339142D01*
X82485852Y-46184275D01*
X82085725Y-45784148D01*
X81562933Y-45567600D01*
X80997067Y-45567600D01*
X80474275Y-45784148D01*
X80074148Y-46184275D01*
X80010000Y-46339142D01*
X79945852Y-46184275D01*
X79545725Y-45784148D01*
X79022933Y-45567600D01*
X78457067Y-45567600D01*
X77934275Y-45784148D01*
X77534148Y-46184275D01*
X77470000Y-46339142D01*
X77405852Y-46184275D01*
X77005725Y-45784148D01*
X76482933Y-45567600D01*
X75917067Y-45567600D01*
X75394275Y-45784148D01*
X74994148Y-46184275D01*
X74930000Y-46339142D01*
X74865852Y-46184275D01*
X74465725Y-45784148D01*
X73942933Y-45567600D01*
X73377067Y-45567600D01*
X72854275Y-45784148D01*
X72454148Y-46184275D01*
X72390000Y-46339142D01*
X72325852Y-46184275D01*
X71925725Y-45784148D01*
X71402933Y-45567600D01*
X70837067Y-45567600D01*
X70314275Y-45784148D01*
X69914148Y-46184275D01*
X69697600Y-46707067D01*
X63627000Y-46707067D01*
X63627000Y-45412308D01*
X63699375Y-45520625D01*
X64190582Y-45848839D01*
X64623744Y-45935000D01*
X64916256Y-45935000D01*
X65349418Y-45848839D01*
X65840625Y-45520625D01*
X66168839Y-45029418D01*
X66284092Y-44450000D01*
X66228819Y-44172119D01*
X117983000Y-44172119D01*
X117983000Y-44727881D01*
X118195680Y-45241337D01*
X118588663Y-45634320D01*
X119102119Y-45847000D01*
X119657881Y-45847000D01*
X120171337Y-45634320D01*
X120564320Y-45241337D01*
X120650000Y-45034487D01*
X120735680Y-45241337D01*
X121128663Y-45634320D01*
X121642119Y-45847000D01*
X122197881Y-45847000D01*
X122711337Y-45634320D01*
X123104320Y-45241337D01*
X123190000Y-45034487D01*
X123275680Y-45241337D01*
X123668663Y-45634320D01*
X124182119Y-45847000D01*
X124737881Y-45847000D01*
X125251337Y-45634320D01*
X125644320Y-45241337D01*
X125730000Y-45034487D01*
X125815680Y-45241337D01*
X126208663Y-45634320D01*
X126722119Y-45847000D01*
X127277881Y-45847000D01*
X127791337Y-45634320D01*
X128184320Y-45241337D01*
X128270000Y-45034487D01*
X128355680Y-45241337D01*
X128748663Y-45634320D01*
X129262119Y-45847000D01*
X129817881Y-45847000D01*
X130331337Y-45634320D01*
X130724320Y-45241337D01*
X130810000Y-45034487D01*
X130895680Y-45241337D01*
X131288663Y-45634320D01*
X131802119Y-45847000D01*
X132357881Y-45847000D01*
X132871337Y-45634320D01*
X133264320Y-45241337D01*
X133350000Y-45034487D01*
X133435680Y-45241337D01*
X133828663Y-45634320D01*
X134342119Y-45847000D01*
X134897881Y-45847000D01*
X135411337Y-45634320D01*
X135804320Y-45241337D01*
X136017000Y-44727881D01*
X136017000Y-44172119D01*
X135804320Y-43658663D01*
X135411337Y-43265680D01*
X134897881Y-43053000D01*
X134342119Y-43053000D01*
X133828663Y-43265680D01*
X133435680Y-43658663D01*
X133350000Y-43865513D01*
X133264320Y-43658663D01*
X132871337Y-43265680D01*
X132357881Y-43053000D01*
X131802119Y-43053000D01*
X131288663Y-43265680D01*
X130895680Y-43658663D01*
X130810000Y-43865513D01*
X130724320Y-43658663D01*
X130331337Y-43265680D01*
X129817881Y-43053000D01*
X129262119Y-43053000D01*
X128748663Y-43265680D01*
X128355680Y-43658663D01*
X128270000Y-43865513D01*
X128184320Y-43658663D01*
X127791337Y-43265680D01*
X127277881Y-43053000D01*
X126722119Y-43053000D01*
X126208663Y-43265680D01*
X125815680Y-43658663D01*
X125730000Y-43865513D01*
X125644320Y-43658663D01*
X125251337Y-43265680D01*
X124737881Y-43053000D01*
X124182119Y-43053000D01*
X123668663Y-43265680D01*
X123275680Y-43658663D01*
X123190000Y-43865513D01*
X123104320Y-43658663D01*
X122711337Y-43265680D01*
X122197881Y-43053000D01*
X121642119Y-43053000D01*
X121128663Y-43265680D01*
X120735680Y-43658663D01*
X120650000Y-43865513D01*
X120564320Y-43658663D01*
X120171337Y-43265680D01*
X119657881Y-43053000D01*
X119102119Y-43053000D01*
X118588663Y-43265680D01*
X118195680Y-43658663D01*
X117983000Y-44172119D01*
X66228819Y-44172119D01*
X66168839Y-43870582D01*
X65840625Y-43379375D01*
X65822381Y-43367184D01*
X65867765Y-43358157D01*
X66077809Y-43217809D01*
X66218157Y-43007765D01*
X66267440Y-42760000D01*
X66267440Y-41627067D01*
X69697600Y-41627067D01*
X69697600Y-42192933D01*
X69914148Y-42715725D01*
X70314275Y-43115852D01*
X70837067Y-43332400D01*
X71402933Y-43332400D01*
X71925725Y-43115852D01*
X72325852Y-42715725D01*
X72390000Y-42560858D01*
X72454148Y-42715725D01*
X72854275Y-43115852D01*
X73377067Y-43332400D01*
X73942933Y-43332400D01*
X74465725Y-43115852D01*
X74865852Y-42715725D01*
X74930000Y-42560858D01*
X74994148Y-42715725D01*
X75394275Y-43115852D01*
X75917067Y-43332400D01*
X76482933Y-43332400D01*
X77005725Y-43115852D01*
X77405852Y-42715725D01*
X77470000Y-42560858D01*
X77534148Y-42715725D01*
X77934275Y-43115852D01*
X78457067Y-43332400D01*
X79022933Y-43332400D01*
X79545725Y-43115852D01*
X79945852Y-42715725D01*
X80010000Y-42560858D01*
X80074148Y-42715725D01*
X80474275Y-43115852D01*
X80997067Y-43332400D01*
X81562933Y-43332400D01*
X82085725Y-43115852D01*
X82485852Y-42715725D01*
X82550000Y-42560858D01*
X82614148Y-42715725D01*
X83014275Y-43115852D01*
X83537067Y-43332400D01*
X84102933Y-43332400D01*
X84625725Y-43115852D01*
X85025852Y-42715725D01*
X85090000Y-42560858D01*
X85154148Y-42715725D01*
X85554275Y-43115852D01*
X86077067Y-43332400D01*
X86642933Y-43332400D01*
X87165725Y-43115852D01*
X87565852Y-42715725D01*
X87630000Y-42560858D01*
X87694148Y-42715725D01*
X88094275Y-43115852D01*
X88617067Y-43332400D01*
X89182933Y-43332400D01*
X89705725Y-43115852D01*
X90105852Y-42715725D01*
X90170000Y-42560858D01*
X90234148Y-42715725D01*
X90634275Y-43115852D01*
X91157067Y-43332400D01*
X91722933Y-43332400D01*
X92245725Y-43115852D01*
X92645852Y-42715725D01*
X92710000Y-42560858D01*
X92774148Y-42715725D01*
X93174275Y-43115852D01*
X93697067Y-43332400D01*
X94262933Y-43332400D01*
X94785725Y-43115852D01*
X95185852Y-42715725D01*
X95250000Y-42560858D01*
X95314148Y-42715725D01*
X95714275Y-43115852D01*
X96237067Y-43332400D01*
X96802933Y-43332400D01*
X97325725Y-43115852D01*
X97725852Y-42715725D01*
X97790000Y-42560858D01*
X97854148Y-42715725D01*
X98254275Y-43115852D01*
X98777067Y-43332400D01*
X99342933Y-43332400D01*
X99865725Y-43115852D01*
X100265852Y-42715725D01*
X100330000Y-42560858D01*
X100394148Y-42715725D01*
X100794275Y-43115852D01*
X101317067Y-43332400D01*
X101882933Y-43332400D01*
X102405725Y-43115852D01*
X102805852Y-42715725D01*
X103022400Y-42192933D01*
X103022400Y-41627067D01*
X105257600Y-41627067D01*
X105257600Y-42192933D01*
X105474148Y-42715725D01*
X105874275Y-43115852D01*
X106397067Y-43332400D01*
X106962933Y-43332400D01*
X107485725Y-43115852D01*
X107885852Y-42715725D01*
X108102400Y-42192933D01*
X108102400Y-41627067D01*
X107885852Y-41104275D01*
X107485725Y-40704148D01*
X106962933Y-40487600D01*
X106397067Y-40487600D01*
X105874275Y-40704148D01*
X105474148Y-41104275D01*
X105257600Y-41627067D01*
X103022400Y-41627067D01*
X102805852Y-41104275D01*
X102405725Y-40704148D01*
X101882933Y-40487600D01*
X101317067Y-40487600D01*
X100794275Y-40704148D01*
X100394148Y-41104275D01*
X100330000Y-41259142D01*
X100265852Y-41104275D01*
X99865725Y-40704148D01*
X99342933Y-40487600D01*
X98777067Y-40487600D01*
X98254275Y-40704148D01*
X97854148Y-41104275D01*
X97790000Y-41259142D01*
X97725852Y-41104275D01*
X97325725Y-40704148D01*
X96802933Y-40487600D01*
X96237067Y-40487600D01*
X95714275Y-40704148D01*
X95314148Y-41104275D01*
X95250000Y-41259142D01*
X95185852Y-41104275D01*
X94785725Y-40704148D01*
X94262933Y-40487600D01*
X93697067Y-40487600D01*
X93174275Y-40704148D01*
X92774148Y-41104275D01*
X92710000Y-41259142D01*
X92645852Y-41104275D01*
X92245725Y-40704148D01*
X91722933Y-40487600D01*
X91157067Y-40487600D01*
X90634275Y-40704148D01*
X90234148Y-41104275D01*
X90170000Y-41259142D01*
X90105852Y-41104275D01*
X89705725Y-40704148D01*
X89182933Y-40487600D01*
X88617067Y-40487600D01*
X88094275Y-40704148D01*
X87694148Y-41104275D01*
X87630000Y-41259142D01*
X87565852Y-41104275D01*
X87165725Y-40704148D01*
X86642933Y-40487600D01*
X86077067Y-40487600D01*
X85554275Y-40704148D01*
X85154148Y-41104275D01*
X85090000Y-41259142D01*
X85025852Y-41104275D01*
X84625725Y-40704148D01*
X84102933Y-40487600D01*
X83537067Y-40487600D01*
X83014275Y-40704148D01*
X82614148Y-41104275D01*
X82550000Y-41259142D01*
X82485852Y-41104275D01*
X82085725Y-40704148D01*
X81562933Y-40487600D01*
X80997067Y-40487600D01*
X80474275Y-40704148D01*
X80074148Y-41104275D01*
X80010000Y-41259142D01*
X79945852Y-41104275D01*
X79545725Y-40704148D01*
X79022933Y-40487600D01*
X78457067Y-40487600D01*
X77934275Y-40704148D01*
X77534148Y-41104275D01*
X77470000Y-41259142D01*
X77405852Y-41104275D01*
X77005725Y-40704148D01*
X76482933Y-40487600D01*
X75917067Y-40487600D01*
X75394275Y-40704148D01*
X74994148Y-41104275D01*
X74930000Y-41259142D01*
X74865852Y-41104275D01*
X74465725Y-40704148D01*
X73942933Y-40487600D01*
X73377067Y-40487600D01*
X72854275Y-40704148D01*
X72454148Y-41104275D01*
X72390000Y-41259142D01*
X72325852Y-41104275D01*
X71925725Y-40704148D01*
X71402933Y-40487600D01*
X70837067Y-40487600D01*
X70314275Y-40704148D01*
X69914148Y-41104275D01*
X69697600Y-41627067D01*
X66267440Y-41627067D01*
X66267440Y-41060000D01*
X66218157Y-40812235D01*
X66077809Y-40602191D01*
X65867765Y-40461843D01*
X65620000Y-40412560D01*
X63920000Y-40412560D01*
X63672235Y-40461843D01*
X63627000Y-40492068D01*
X63627000Y-39164126D01*
X71355000Y-39164126D01*
X71355000Y-39575874D01*
X71512569Y-39956280D01*
X71803720Y-40247431D01*
X72184126Y-40405000D01*
X72595874Y-40405000D01*
X72948350Y-40259000D01*
X97231650Y-40259000D01*
X97584126Y-40405000D01*
X97995874Y-40405000D01*
X98376280Y-40247431D01*
X98667431Y-39956280D01*
X98825000Y-39575874D01*
X98825000Y-39370000D01*
X149361010Y-39370000D01*
X149495666Y-40046963D01*
X149879135Y-40620865D01*
X150453037Y-41004334D01*
X150959120Y-41105000D01*
X151300880Y-41105000D01*
X151806963Y-41004334D01*
X152380865Y-40620865D01*
X152764334Y-40046963D01*
X152898990Y-39370000D01*
X152764334Y-38693037D01*
X152380865Y-38119135D01*
X151806963Y-37735666D01*
X151300880Y-37635000D01*
X150959120Y-37635000D01*
X150453037Y-37735666D01*
X149879135Y-38119135D01*
X149495666Y-38693037D01*
X149361010Y-39370000D01*
X98825000Y-39370000D01*
X98825000Y-39164126D01*
X98667431Y-38783720D01*
X98376280Y-38492569D01*
X97995874Y-38335000D01*
X97584126Y-38335000D01*
X97231650Y-38481000D01*
X72948350Y-38481000D01*
X72595874Y-38335000D01*
X72184126Y-38335000D01*
X71803720Y-38492569D01*
X71512569Y-38783720D01*
X71355000Y-39164126D01*
X63627000Y-39164126D01*
X63627000Y-34460000D01*
X149382560Y-34460000D01*
X149382560Y-36660000D01*
X149431843Y-36907765D01*
X149572191Y-37117809D01*
X149782235Y-37258157D01*
X150030000Y-37307440D01*
X152230000Y-37307440D01*
X152477765Y-37258157D01*
X152687809Y-37117809D01*
X152828157Y-36907765D01*
X152877440Y-36660000D01*
X152877440Y-34460000D01*
X152828157Y-34212235D01*
X152687809Y-34002191D01*
X152477765Y-33861843D01*
X152230000Y-33812560D01*
X150030000Y-33812560D01*
X149782235Y-33861843D01*
X149572191Y-34002191D01*
X149431843Y-34212235D01*
X149382560Y-34460000D01*
X63627000Y-34460000D01*
X63627000Y-29357932D01*
X63672235Y-29388157D01*
X63920000Y-29437440D01*
X65620000Y-29437440D01*
X65867765Y-29388157D01*
X66077809Y-29247809D01*
X66218157Y-29037765D01*
X66267440Y-28790000D01*
X66267440Y-27090000D01*
X66218157Y-26842235D01*
X66077809Y-26632191D01*
X65867765Y-26491843D01*
X65822381Y-26482816D01*
X65840625Y-26470625D01*
X66168839Y-25979418D01*
X66284092Y-25400000D01*
X66168839Y-24820582D01*
X65840625Y-24329375D01*
X65542239Y-24130000D01*
X65840625Y-23930625D01*
X66168839Y-23439418D01*
X66284092Y-22860000D01*
X66168839Y-22280582D01*
X65840625Y-21789375D01*
X65349418Y-21461161D01*
X64916256Y-21375000D01*
X64623744Y-21375000D01*
X64190582Y-21461161D01*
X63699375Y-21789375D01*
X63627000Y-21897692D01*
X63627000Y-20372606D01*
X64822606Y-19177000D01*
X68465765Y-19177000D01*
X66743296Y-20899469D01*
X66743296Y-20899469D01*
G37*
X66743296Y-20899469D02*
X66669067Y-20949067D01*
X66472581Y-21243131D01*
X66439022Y-21411843D01*
X66403584Y-21590000D01*
X66421000Y-21677555D01*
X66421001Y-25312441D01*
X66403584Y-25400000D01*
X66472582Y-25746870D01*
X66669068Y-26040933D01*
X66743294Y-26090529D01*
X74239471Y-33586707D01*
X74289067Y-33660933D01*
X74583130Y-33857419D01*
X74842444Y-33909000D01*
X74842448Y-33909000D01*
X74929999Y-33926415D01*
X75017550Y-33909000D01*
X76911650Y-33909000D01*
X77264126Y-34055000D01*
X77675874Y-34055000D01*
X78056280Y-33897431D01*
X78347431Y-33606280D01*
X78505000Y-33225874D01*
X78505000Y-32814126D01*
X78347431Y-32433720D01*
X78056280Y-32142569D01*
X77675874Y-31985000D01*
X77264126Y-31985000D01*
X76911650Y-32131000D01*
X75298236Y-32131000D01*
X71259635Y-28092400D01*
X71402933Y-28092400D01*
X71925725Y-27875852D01*
X72325852Y-27475725D01*
X72390000Y-27320858D01*
X72454148Y-27475725D01*
X72854275Y-27875852D01*
X73377067Y-28092400D01*
X73942933Y-28092400D01*
X74465725Y-27875852D01*
X74865852Y-27475725D01*
X74930000Y-27320858D01*
X74994148Y-27475725D01*
X75394275Y-27875852D01*
X75917067Y-28092400D01*
X76482933Y-28092400D01*
X77005725Y-27875852D01*
X77405852Y-27475725D01*
X77470000Y-27320858D01*
X77534148Y-27475725D01*
X77934275Y-27875852D01*
X78457067Y-28092400D01*
X79022933Y-28092400D01*
X79545725Y-27875852D01*
X79945852Y-27475725D01*
X80010000Y-27320858D01*
X80074148Y-27475725D01*
X80474275Y-27875852D01*
X80997067Y-28092400D01*
X81562933Y-28092400D01*
X82085725Y-27875852D01*
X82485852Y-27475725D01*
X82550000Y-27320858D01*
X82614148Y-27475725D01*
X83014275Y-27875852D01*
X83537067Y-28092400D01*
X84102933Y-28092400D01*
X84625725Y-27875852D01*
X85025852Y-27475725D01*
X85090000Y-27320858D01*
X85154148Y-27475725D01*
X85554275Y-27875852D01*
X86077067Y-28092400D01*
X86642933Y-28092400D01*
X87165725Y-27875852D01*
X87565852Y-27475725D01*
X87630000Y-27320858D01*
X87694148Y-27475725D01*
X88094275Y-27875852D01*
X88617067Y-28092400D01*
X89182933Y-28092400D01*
X89705725Y-27875852D01*
X90105852Y-27475725D01*
X90170000Y-27320858D01*
X90234148Y-27475725D01*
X90634275Y-27875852D01*
X91157067Y-28092400D01*
X91722933Y-28092400D01*
X92245725Y-27875852D01*
X92645852Y-27475725D01*
X92710000Y-27320858D01*
X92774148Y-27475725D01*
X93174275Y-27875852D01*
X93697067Y-28092400D01*
X94262933Y-28092400D01*
X94785725Y-27875852D01*
X95185852Y-27475725D01*
X95250000Y-27320858D01*
X95314148Y-27475725D01*
X95714275Y-27875852D01*
X96237067Y-28092400D01*
X96802933Y-28092400D01*
X97325725Y-27875852D01*
X97725852Y-27475725D01*
X97942400Y-26952933D01*
X97942400Y-26387067D01*
X100177600Y-26387067D01*
X100177600Y-26952933D01*
X100394148Y-27475725D01*
X100794275Y-27875852D01*
X101317067Y-28092400D01*
X101882933Y-28092400D01*
X102405725Y-27875852D01*
X102805852Y-27475725D01*
X102870000Y-27320858D01*
X102934148Y-27475725D01*
X103334275Y-27875852D01*
X103857067Y-28092400D01*
X104422933Y-28092400D01*
X104945725Y-27875852D01*
X105345852Y-27475725D01*
X105410000Y-27320858D01*
X105474148Y-27475725D01*
X105874275Y-27875852D01*
X106397067Y-28092400D01*
X106962933Y-28092400D01*
X107330858Y-27940000D01*
X149361010Y-27940000D01*
X149495666Y-28616963D01*
X149879135Y-29190865D01*
X150453037Y-29574334D01*
X150959120Y-29675000D01*
X151300880Y-29675000D01*
X151806963Y-29574334D01*
X152380865Y-29190865D01*
X152764334Y-28616963D01*
X152898990Y-27940000D01*
X152764334Y-27263037D01*
X152380865Y-26689135D01*
X151806963Y-26305666D01*
X151300880Y-26205000D01*
X150959120Y-26205000D01*
X150453037Y-26305666D01*
X149879135Y-26689135D01*
X149495666Y-27263037D01*
X149361010Y-27940000D01*
X107330858Y-27940000D01*
X107485725Y-27875852D01*
X107885852Y-27475725D01*
X108102400Y-26952933D01*
X108102400Y-26387067D01*
X107885852Y-25864275D01*
X107485725Y-25464148D01*
X106962933Y-25247600D01*
X106397067Y-25247600D01*
X105874275Y-25464148D01*
X105474148Y-25864275D01*
X105410000Y-26019142D01*
X105345852Y-25864275D01*
X104945725Y-25464148D01*
X104422933Y-25247600D01*
X103857067Y-25247600D01*
X103334275Y-25464148D01*
X102934148Y-25864275D01*
X102870000Y-26019142D01*
X102805852Y-25864275D01*
X102405725Y-25464148D01*
X101882933Y-25247600D01*
X101317067Y-25247600D01*
X100794275Y-25464148D01*
X100394148Y-25864275D01*
X100177600Y-26387067D01*
X97942400Y-26387067D01*
X97725852Y-25864275D01*
X97325725Y-25464148D01*
X96802933Y-25247600D01*
X96237067Y-25247600D01*
X95714275Y-25464148D01*
X95314148Y-25864275D01*
X95250000Y-26019142D01*
X95185852Y-25864275D01*
X94785725Y-25464148D01*
X94262933Y-25247600D01*
X93697067Y-25247600D01*
X93174275Y-25464148D01*
X92774148Y-25864275D01*
X92710000Y-26019142D01*
X92645852Y-25864275D01*
X92245725Y-25464148D01*
X91722933Y-25247600D01*
X91157067Y-25247600D01*
X90634275Y-25464148D01*
X90234148Y-25864275D01*
X90170000Y-26019142D01*
X90105852Y-25864275D01*
X89705725Y-25464148D01*
X89182933Y-25247600D01*
X88617067Y-25247600D01*
X88094275Y-25464148D01*
X87694148Y-25864275D01*
X87630000Y-26019142D01*
X87565852Y-25864275D01*
X87165725Y-25464148D01*
X86642933Y-25247600D01*
X86077067Y-25247600D01*
X85554275Y-25464148D01*
X85154148Y-25864275D01*
X85090000Y-26019142D01*
X85025852Y-25864275D01*
X84625725Y-25464148D01*
X84102933Y-25247600D01*
X83537067Y-25247600D01*
X83014275Y-25464148D01*
X82614148Y-25864275D01*
X82550000Y-26019142D01*
X82485852Y-25864275D01*
X82085725Y-25464148D01*
X81562933Y-25247600D01*
X80997067Y-25247600D01*
X80474275Y-25464148D01*
X80074148Y-25864275D01*
X80010000Y-26019142D01*
X79945852Y-25864275D01*
X79545725Y-25464148D01*
X79022933Y-25247600D01*
X78457067Y-25247600D01*
X77934275Y-25464148D01*
X77534148Y-25864275D01*
X77470000Y-26019142D01*
X77405852Y-25864275D01*
X77005725Y-25464148D01*
X76482933Y-25247600D01*
X75917067Y-25247600D01*
X75394275Y-25464148D01*
X74994148Y-25864275D01*
X74930000Y-26019142D01*
X74865852Y-25864275D01*
X74465725Y-25464148D01*
X73942933Y-25247600D01*
X73377067Y-25247600D01*
X72854275Y-25464148D01*
X72454148Y-25864275D01*
X72390000Y-26019142D01*
X72325852Y-25864275D01*
X71925725Y-25464148D01*
X71402933Y-25247600D01*
X70837067Y-25247600D01*
X70314275Y-25464148D01*
X69914148Y-25864275D01*
X69697600Y-26387067D01*
X69697600Y-26530365D01*
X68199000Y-25031765D01*
X68199000Y-21958235D01*
X68845116Y-21312119D01*
X117983000Y-21312119D01*
X117983000Y-21867881D01*
X118195680Y-22381337D01*
X118588663Y-22774320D01*
X119102119Y-22987000D01*
X119657881Y-22987000D01*
X120171337Y-22774320D01*
X120564320Y-22381337D01*
X120650000Y-22174487D01*
X120735680Y-22381337D01*
X121128663Y-22774320D01*
X121642119Y-22987000D01*
X122197881Y-22987000D01*
X122711337Y-22774320D01*
X123104320Y-22381337D01*
X123190000Y-22174487D01*
X123275680Y-22381337D01*
X123668663Y-22774320D01*
X124182119Y-22987000D01*
X124737881Y-22987000D01*
X125251337Y-22774320D01*
X125644320Y-22381337D01*
X125730000Y-22174487D01*
X125815680Y-22381337D01*
X126208663Y-22774320D01*
X126722119Y-22987000D01*
X127277881Y-22987000D01*
X127791337Y-22774320D01*
X128184320Y-22381337D01*
X128270000Y-22174487D01*
X128355680Y-22381337D01*
X128748663Y-22774320D01*
X129262119Y-22987000D01*
X129817881Y-22987000D01*
X130331337Y-22774320D01*
X130724320Y-22381337D01*
X130810000Y-22174487D01*
X130895680Y-22381337D01*
X131288663Y-22774320D01*
X131802119Y-22987000D01*
X132357881Y-22987000D01*
X132871337Y-22774320D01*
X133264320Y-22381337D01*
X133350000Y-22174487D01*
X133435680Y-22381337D01*
X133828663Y-22774320D01*
X134342119Y-22987000D01*
X134897881Y-22987000D01*
X135411337Y-22774320D01*
X135804320Y-22381337D01*
X136017000Y-21867881D01*
X136017000Y-21312119D01*
X135804320Y-20798663D01*
X135411337Y-20405680D01*
X134897881Y-20193000D01*
X134342119Y-20193000D01*
X133828663Y-20405680D01*
X133435680Y-20798663D01*
X133350000Y-21005513D01*
X133264320Y-20798663D01*
X132871337Y-20405680D01*
X132357881Y-20193000D01*
X131802119Y-20193000D01*
X131288663Y-20405680D01*
X130895680Y-20798663D01*
X130810000Y-21005513D01*
X130724320Y-20798663D01*
X130331337Y-20405680D01*
X129817881Y-20193000D01*
X129262119Y-20193000D01*
X128748663Y-20405680D01*
X128355680Y-20798663D01*
X128270000Y-21005513D01*
X128184320Y-20798663D01*
X127791337Y-20405680D01*
X127277881Y-20193000D01*
X126722119Y-20193000D01*
X126208663Y-20405680D01*
X125815680Y-20798663D01*
X125730000Y-21005513D01*
X125644320Y-20798663D01*
X125251337Y-20405680D01*
X124737881Y-20193000D01*
X124182119Y-20193000D01*
X123668663Y-20405680D01*
X123275680Y-20798663D01*
X123190000Y-21005513D01*
X123104320Y-20798663D01*
X122711337Y-20405680D01*
X122197881Y-20193000D01*
X121642119Y-20193000D01*
X121128663Y-20405680D01*
X120735680Y-20798663D01*
X120650000Y-21005513D01*
X120564320Y-20798663D01*
X120171337Y-20405680D01*
X119657881Y-20193000D01*
X119102119Y-20193000D01*
X118588663Y-20405680D01*
X118195680Y-20798663D01*
X117983000Y-21312119D01*
X68845116Y-21312119D01*
X70083805Y-20073430D01*
X70436280Y-19927431D01*
X70727431Y-19636280D01*
X70885000Y-19255874D01*
X70885000Y-19177000D01*
X150167692Y-19177000D01*
X150059375Y-19249375D01*
X149731161Y-19740582D01*
X149615908Y-20320000D01*
X149731161Y-20899418D01*
X150059375Y-21390625D01*
X150077619Y-21402816D01*
X150032235Y-21411843D01*
X149822191Y-21552191D01*
X149681843Y-21762235D01*
X149632560Y-22010000D01*
X149632560Y-23710000D01*
X149681843Y-23957765D01*
X149822191Y-24167809D01*
X150032235Y-24308157D01*
X150280000Y-24357440D01*
X151980000Y-24357440D01*
X152227765Y-24308157D01*
X152437809Y-24167809D01*
X152578157Y-23957765D01*
X152627440Y-23710000D01*
X152627440Y-22010000D01*
X152578157Y-21762235D01*
X152437809Y-21552191D01*
X152227765Y-21411843D01*
X152182381Y-21402816D01*
X152200625Y-21390625D01*
X152528839Y-20899418D01*
X152644092Y-20320000D01*
X152528839Y-19740582D01*
X152200625Y-19249375D01*
X152092308Y-19177000D01*
X153977692Y-19177000D01*
X153869375Y-19249375D01*
X153541161Y-19740582D01*
X153425908Y-20320000D01*
X153541161Y-20899418D01*
X153869375Y-21390625D01*
X153887619Y-21402816D01*
X153842235Y-21411843D01*
X153632191Y-21552191D01*
X153491843Y-21762235D01*
X153442560Y-22010000D01*
X153442560Y-23710000D01*
X153491843Y-23957765D01*
X153632191Y-24167809D01*
X153842235Y-24308157D01*
X154090000Y-24357440D01*
X155790000Y-24357440D01*
X156037765Y-24308157D01*
X156247809Y-24167809D01*
X156388157Y-23957765D01*
X156437440Y-23710000D01*
X156437440Y-22010000D01*
X156388157Y-21762235D01*
X156247809Y-21552191D01*
X156037765Y-21411843D01*
X155992381Y-21402816D01*
X156010625Y-21390625D01*
X156338839Y-20899418D01*
X156454092Y-20320000D01*
X156338839Y-19740582D01*
X156010625Y-19249375D01*
X155902308Y-19177000D01*
X156157394Y-19177000D01*
X157353000Y-20372606D01*
X157353000Y-30547331D01*
X156847945Y-30209864D01*
X156371031Y-30115000D01*
X156048969Y-30115000D01*
X155572055Y-30209864D01*
X155031231Y-30571231D01*
X154669864Y-31112055D01*
X154542969Y-31750000D01*
X154669864Y-32387945D01*
X155031231Y-32928769D01*
X155572055Y-33290136D01*
X156048969Y-33385000D01*
X156371031Y-33385000D01*
X156847945Y-33290136D01*
X157353000Y-32952669D01*
X157353000Y-35211004D01*
X157210000Y-35182560D01*
X155210000Y-35182560D01*
X154962235Y-35231843D01*
X154752191Y-35372191D01*
X154611843Y-35582235D01*
X154562560Y-35830000D01*
X154562560Y-37830000D01*
X154611843Y-38077765D01*
X154752191Y-38287809D01*
X154962235Y-38428157D01*
X155210000Y-38477440D01*
X157210000Y-38477440D01*
X157353000Y-38448996D01*
X157353000Y-38901113D01*
X157310000Y-38892560D01*
X155110000Y-38892560D01*
X154862235Y-38941843D01*
X154652191Y-39082191D01*
X154511843Y-39292235D01*
X154462560Y-39540000D01*
X154462560Y-41740000D01*
X154511843Y-41987765D01*
X154652191Y-42197809D01*
X154862235Y-42338157D01*
X155110000Y-42387440D01*
X157310000Y-42387440D01*
X157353000Y-42378887D01*
X157353000Y-46937062D01*
X156886963Y-46625666D01*
X156380880Y-46525000D01*
X156039120Y-46525000D01*
X155533037Y-46625666D01*
X154959135Y-47009135D01*
X154575666Y-47583037D01*
X154441010Y-48260000D01*
X154575666Y-48936963D01*
X154959135Y-49510865D01*
X155533037Y-49894334D01*
X156039120Y-49995000D01*
X156380880Y-49995000D01*
X156886963Y-49894334D01*
X157353000Y-49582938D01*
X157353000Y-83767394D01*
X156157394Y-84963000D01*
X144382311Y-84963000D01*
X144544577Y-84854577D01*
X144861740Y-84379909D01*
X144973113Y-83820000D01*
X144861740Y-83260091D01*
X144544577Y-82785423D01*
X144069909Y-82468260D01*
X143651333Y-82385000D01*
X143368667Y-82385000D01*
X142950091Y-82468260D01*
X142475423Y-82785423D01*
X142240000Y-83137758D01*
X142004577Y-82785423D01*
X141529909Y-82468260D01*
X141111333Y-82385000D01*
X140828667Y-82385000D01*
X140410091Y-82468260D01*
X139935423Y-82785423D01*
X139700000Y-83137758D01*
X139464577Y-82785423D01*
X138989909Y-82468260D01*
X138571333Y-82385000D01*
X138288667Y-82385000D01*
X137870091Y-82468260D01*
X137395423Y-82785423D01*
X137160000Y-83137758D01*
X136924577Y-82785423D01*
X136449909Y-82468260D01*
X136031333Y-82385000D01*
X135748667Y-82385000D01*
X135330091Y-82468260D01*
X134855423Y-82785423D01*
X134620000Y-83137758D01*
X134384577Y-82785423D01*
X133909909Y-82468260D01*
X133491333Y-82385000D01*
X133208667Y-82385000D01*
X132790091Y-82468260D01*
X132315423Y-82785423D01*
X132234785Y-82906106D01*
X132208157Y-82772235D01*
X132067809Y-82562191D01*
X131857765Y-82421843D01*
X131610000Y-82372560D01*
X130010000Y-82372560D01*
X129762235Y-82421843D01*
X129552191Y-82562191D01*
X129411843Y-82772235D01*
X129362560Y-83020000D01*
X129362560Y-84620000D01*
X129411843Y-84867765D01*
X129475477Y-84963000D01*
X126234818Y-84963000D01*
X126521337Y-84844320D01*
X126914320Y-84451337D01*
X127127000Y-83937881D01*
X127127000Y-83382119D01*
X126914320Y-82868663D01*
X126521337Y-82475680D01*
X126007881Y-82263000D01*
X125452119Y-82263000D01*
X124938663Y-82475680D01*
X124545680Y-82868663D01*
X124333000Y-83382119D01*
X124333000Y-83937881D01*
X124545680Y-84451337D01*
X124938663Y-84844320D01*
X125225182Y-84963000D01*
X115234818Y-84963000D01*
X115521337Y-84844320D01*
X115914320Y-84451337D01*
X116127000Y-83937881D01*
X116127000Y-83382119D01*
X115914320Y-82868663D01*
X115521337Y-82475680D01*
X115007881Y-82263000D01*
X114452119Y-82263000D01*
X113938663Y-82475680D01*
X113545680Y-82868663D01*
X113333000Y-83382119D01*
X113333000Y-83937881D01*
X113545680Y-84451337D01*
X113938663Y-84844320D01*
X114225182Y-84963000D01*
X64822606Y-84963000D01*
X63627000Y-83767394D01*
X63627000Y-82267067D01*
X69697600Y-82267067D01*
X69697600Y-82832933D01*
X69914148Y-83355725D01*
X70314275Y-83755852D01*
X70837067Y-83972400D01*
X71402933Y-83972400D01*
X71925725Y-83755852D01*
X72325852Y-83355725D01*
X72390000Y-83200858D01*
X72454148Y-83355725D01*
X72854275Y-83755852D01*
X73377067Y-83972400D01*
X73942933Y-83972400D01*
X74465725Y-83755852D01*
X74865852Y-83355725D01*
X74930000Y-83200858D01*
X74994148Y-83355725D01*
X75394275Y-83755852D01*
X75917067Y-83972400D01*
X76482933Y-83972400D01*
X77005725Y-83755852D01*
X77405852Y-83355725D01*
X77470000Y-83200858D01*
X77534148Y-83355725D01*
X77934275Y-83755852D01*
X78457067Y-83972400D01*
X79022933Y-83972400D01*
X79545725Y-83755852D01*
X79945852Y-83355725D01*
X80010000Y-83200858D01*
X80074148Y-83355725D01*
X80474275Y-83755852D01*
X80997067Y-83972400D01*
X81562933Y-83972400D01*
X82085725Y-83755852D01*
X82485852Y-83355725D01*
X82550000Y-83200858D01*
X82614148Y-83355725D01*
X83014275Y-83755852D01*
X83537067Y-83972400D01*
X84102933Y-83972400D01*
X84625725Y-83755852D01*
X85025852Y-83355725D01*
X85090000Y-83200858D01*
X85154148Y-83355725D01*
X85554275Y-83755852D01*
X86077067Y-83972400D01*
X86642933Y-83972400D01*
X87165725Y-83755852D01*
X87565852Y-83355725D01*
X87630000Y-83200858D01*
X87694148Y-83355725D01*
X88094275Y-83755852D01*
X88617067Y-83972400D01*
X89182933Y-83972400D01*
X89705725Y-83755852D01*
X90105852Y-83355725D01*
X90170000Y-83200858D01*
X90234148Y-83355725D01*
X90634275Y-83755852D01*
X91157067Y-83972400D01*
X91722933Y-83972400D01*
X92245725Y-83755852D01*
X92645852Y-83355725D01*
X92710000Y-83200858D01*
X92774148Y-83355725D01*
X93174275Y-83755852D01*
X93697067Y-83972400D01*
X94262933Y-83972400D01*
X94785725Y-83755852D01*
X95185852Y-83355725D01*
X95250000Y-83200858D01*
X95314148Y-83355725D01*
X95714275Y-83755852D01*
X96237067Y-83972400D01*
X96802933Y-83972400D01*
X97325725Y-83755852D01*
X97725852Y-83355725D01*
X97790000Y-83200858D01*
X97854148Y-83355725D01*
X98254275Y-83755852D01*
X98777067Y-83972400D01*
X99342933Y-83972400D01*
X99865725Y-83755852D01*
X100265852Y-83355725D01*
X100330000Y-83200858D01*
X100394148Y-83355725D01*
X100794275Y-83755852D01*
X101317067Y-83972400D01*
X101882933Y-83972400D01*
X102405725Y-83755852D01*
X102805852Y-83355725D01*
X103022400Y-82832933D01*
X103022400Y-82267067D01*
X105257600Y-82267067D01*
X105257600Y-82832933D01*
X105474148Y-83355725D01*
X105874275Y-83755852D01*
X106397067Y-83972400D01*
X106962933Y-83972400D01*
X107485725Y-83755852D01*
X107885852Y-83355725D01*
X108102400Y-82832933D01*
X108102400Y-82267067D01*
X107885852Y-81744275D01*
X107485725Y-81344148D01*
X106962933Y-81127600D01*
X106397067Y-81127600D01*
X105874275Y-81344148D01*
X105474148Y-81744275D01*
X105257600Y-82267067D01*
X103022400Y-82267067D01*
X102805852Y-81744275D01*
X102405725Y-81344148D01*
X101882933Y-81127600D01*
X101317067Y-81127600D01*
X100794275Y-81344148D01*
X100394148Y-81744275D01*
X100330000Y-81899142D01*
X100265852Y-81744275D01*
X99865725Y-81344148D01*
X99342933Y-81127600D01*
X98777067Y-81127600D01*
X98254275Y-81344148D01*
X97854148Y-81744275D01*
X97790000Y-81899142D01*
X97725852Y-81744275D01*
X97325725Y-81344148D01*
X96802933Y-81127600D01*
X96237067Y-81127600D01*
X95714275Y-81344148D01*
X95314148Y-81744275D01*
X95250000Y-81899142D01*
X95185852Y-81744275D01*
X94785725Y-81344148D01*
X94262933Y-81127600D01*
X93697067Y-81127600D01*
X93174275Y-81344148D01*
X92774148Y-81744275D01*
X92710000Y-81899142D01*
X92645852Y-81744275D01*
X92245725Y-81344148D01*
X91722933Y-81127600D01*
X91157067Y-81127600D01*
X90634275Y-81344148D01*
X90234148Y-81744275D01*
X90170000Y-81899142D01*
X90105852Y-81744275D01*
X89705725Y-81344148D01*
X89182933Y-81127600D01*
X88617067Y-81127600D01*
X88094275Y-81344148D01*
X87694148Y-81744275D01*
X87630000Y-81899142D01*
X87565852Y-81744275D01*
X87165725Y-81344148D01*
X86642933Y-81127600D01*
X86077067Y-81127600D01*
X85554275Y-81344148D01*
X85154148Y-81744275D01*
X85090000Y-81899142D01*
X85025852Y-81744275D01*
X84625725Y-81344148D01*
X84102933Y-81127600D01*
X83537067Y-81127600D01*
X83014275Y-81344148D01*
X82614148Y-81744275D01*
X82550000Y-81899142D01*
X82485852Y-81744275D01*
X82085725Y-81344148D01*
X81562933Y-81127600D01*
X80997067Y-81127600D01*
X80474275Y-81344148D01*
X80074148Y-81744275D01*
X80010000Y-81899142D01*
X79945852Y-81744275D01*
X79545725Y-81344148D01*
X79022933Y-81127600D01*
X78457067Y-81127600D01*
X77934275Y-81344148D01*
X77534148Y-81744275D01*
X77470000Y-81899142D01*
X77405852Y-81744275D01*
X77005725Y-81344148D01*
X76482933Y-81127600D01*
X75917067Y-81127600D01*
X75394275Y-81344148D01*
X74994148Y-81744275D01*
X74930000Y-81899142D01*
X74865852Y-81744275D01*
X74465725Y-81344148D01*
X73942933Y-81127600D01*
X73377067Y-81127600D01*
X72854275Y-81344148D01*
X72454148Y-81744275D01*
X72390000Y-81899142D01*
X72325852Y-81744275D01*
X71925725Y-81344148D01*
X71402933Y-81127600D01*
X70837067Y-81127600D01*
X70314275Y-81344148D01*
X69914148Y-81744275D01*
X69697600Y-82267067D01*
X63627000Y-82267067D01*
X63627000Y-79804126D01*
X127235000Y-79804126D01*
X127235000Y-80215874D01*
X127392569Y-80596280D01*
X127683720Y-80887431D01*
X128064126Y-81045000D01*
X128475874Y-81045000D01*
X128828350Y-80899000D01*
X132791650Y-80899000D01*
X133144126Y-81045000D01*
X133555874Y-81045000D01*
X133936280Y-80887431D01*
X134227431Y-80596280D01*
X134385000Y-80215874D01*
X134385000Y-79804126D01*
X134227431Y-79423720D01*
X133936280Y-79132569D01*
X133555874Y-78975000D01*
X133144126Y-78975000D01*
X132791650Y-79121000D01*
X128828350Y-79121000D01*
X128475874Y-78975000D01*
X128064126Y-78975000D01*
X127683720Y-79132569D01*
X127392569Y-79423720D01*
X127235000Y-79804126D01*
X63627000Y-79804126D01*
X63627000Y-76200000D01*
X129346887Y-76200000D01*
X129458260Y-76759909D01*
X129775423Y-77234577D01*
X130250091Y-77551740D01*
X130668667Y-77635000D01*
X130951333Y-77635000D01*
X131369909Y-77551740D01*
X131844577Y-77234577D01*
X132080000Y-76882242D01*
X132315423Y-77234577D01*
X132790091Y-77551740D01*
X133208667Y-77635000D01*
X133491333Y-77635000D01*
X133909909Y-77551740D01*
X134384577Y-77234577D01*
X134620000Y-76882242D01*
X134855423Y-77234577D01*
X135330091Y-77551740D01*
X135748667Y-77635000D01*
X136031333Y-77635000D01*
X136449909Y-77551740D01*
X136924577Y-77234577D01*
X137160000Y-76882242D01*
X137395423Y-77234577D01*
X137870091Y-77551740D01*
X138288667Y-77635000D01*
X138571333Y-77635000D01*
X138989909Y-77551740D01*
X139464577Y-77234577D01*
X139700000Y-76882242D01*
X139935423Y-77234577D01*
X140410091Y-77551740D01*
X140828667Y-77635000D01*
X141111333Y-77635000D01*
X141529909Y-77551740D01*
X142004577Y-77234577D01*
X142240000Y-76882242D01*
X142475423Y-77234577D01*
X142950091Y-77551740D01*
X143368667Y-77635000D01*
X143651333Y-77635000D01*
X144069909Y-77551740D01*
X144544577Y-77234577D01*
X144780000Y-76882242D01*
X145015423Y-77234577D01*
X145490091Y-77551740D01*
X145908667Y-77635000D01*
X146191333Y-77635000D01*
X146609909Y-77551740D01*
X147084577Y-77234577D01*
X147401740Y-76759909D01*
X147513113Y-76200000D01*
X147401740Y-75640091D01*
X147084577Y-75165423D01*
X146609909Y-74848260D01*
X146191333Y-74765000D01*
X145908667Y-74765000D01*
X145490091Y-74848260D01*
X145015423Y-75165423D01*
X144780000Y-75517758D01*
X144544577Y-75165423D01*
X144069909Y-74848260D01*
X143651333Y-74765000D01*
X143368667Y-74765000D01*
X142950091Y-74848260D01*
X142475423Y-75165423D01*
X142240000Y-75517758D01*
X142004577Y-75165423D01*
X141529909Y-74848260D01*
X141111333Y-74765000D01*
X140828667Y-74765000D01*
X140410091Y-74848260D01*
X139935423Y-75165423D01*
X139700000Y-75517758D01*
X139464577Y-75165423D01*
X138989909Y-74848260D01*
X138571333Y-74765000D01*
X138288667Y-74765000D01*
X137870091Y-74848260D01*
X137395423Y-75165423D01*
X137160000Y-75517758D01*
X136924577Y-75165423D01*
X136449909Y-74848260D01*
X136031333Y-74765000D01*
X135748667Y-74765000D01*
X135330091Y-74848260D01*
X134855423Y-75165423D01*
X134620000Y-75517758D01*
X134384577Y-75165423D01*
X133909909Y-74848260D01*
X133491333Y-74765000D01*
X133208667Y-74765000D01*
X132790091Y-74848260D01*
X132315423Y-75165423D01*
X132080000Y-75517758D01*
X131844577Y-75165423D01*
X131369909Y-74848260D01*
X130951333Y-74765000D01*
X130668667Y-74765000D01*
X130250091Y-74848260D01*
X129775423Y-75165423D01*
X129458260Y-75640091D01*
X129346887Y-76200000D01*
X63627000Y-76200000D01*
X63627000Y-73314887D01*
X115995000Y-73314887D01*
X115995000Y-74005113D01*
X116259138Y-74642799D01*
X116747201Y-75130862D01*
X117384887Y-75395000D01*
X118075113Y-75395000D01*
X118712799Y-75130862D01*
X119200862Y-74642799D01*
X119465000Y-74005113D01*
X119465000Y-73314887D01*
X119200862Y-72677201D01*
X118712799Y-72189138D01*
X118075113Y-71925000D01*
X117384887Y-71925000D01*
X116747201Y-72189138D01*
X116259138Y-72677201D01*
X115995000Y-73314887D01*
X63627000Y-73314887D01*
X63627000Y-67027067D01*
X69697600Y-67027067D01*
X69697600Y-67592933D01*
X69914148Y-68115725D01*
X70314275Y-68515852D01*
X70837067Y-68732400D01*
X71402933Y-68732400D01*
X71925725Y-68515852D01*
X72325852Y-68115725D01*
X72390000Y-67960858D01*
X72454148Y-68115725D01*
X72854275Y-68515852D01*
X73377067Y-68732400D01*
X73942933Y-68732400D01*
X74465725Y-68515852D01*
X74865852Y-68115725D01*
X74930000Y-67960858D01*
X74994148Y-68115725D01*
X75394275Y-68515852D01*
X75917067Y-68732400D01*
X76482933Y-68732400D01*
X77005725Y-68515852D01*
X77405852Y-68115725D01*
X77470000Y-67960858D01*
X77534148Y-68115725D01*
X77934275Y-68515852D01*
X78457067Y-68732400D01*
X79022933Y-68732400D01*
X79545725Y-68515852D01*
X79945852Y-68115725D01*
X80010000Y-67960858D01*
X80074148Y-68115725D01*
X80474275Y-68515852D01*
X80997067Y-68732400D01*
X81562933Y-68732400D01*
X82085725Y-68515852D01*
X82485852Y-68115725D01*
X82550000Y-67960858D01*
X82614148Y-68115725D01*
X83014275Y-68515852D01*
X83537067Y-68732400D01*
X84102933Y-68732400D01*
X84625725Y-68515852D01*
X85025852Y-68115725D01*
X85090000Y-67960858D01*
X85154148Y-68115725D01*
X85554275Y-68515852D01*
X86077067Y-68732400D01*
X86642933Y-68732400D01*
X87165725Y-68515852D01*
X87565852Y-68115725D01*
X87630000Y-67960858D01*
X87694148Y-68115725D01*
X88094275Y-68515852D01*
X88617067Y-68732400D01*
X89182933Y-68732400D01*
X89705725Y-68515852D01*
X90105852Y-68115725D01*
X90170000Y-67960858D01*
X90234148Y-68115725D01*
X90634275Y-68515852D01*
X91157067Y-68732400D01*
X91722933Y-68732400D01*
X92245725Y-68515852D01*
X92645852Y-68115725D01*
X92710000Y-67960858D01*
X92774148Y-68115725D01*
X93174275Y-68515852D01*
X93697067Y-68732400D01*
X94262933Y-68732400D01*
X94785725Y-68515852D01*
X95185852Y-68115725D01*
X95250000Y-67960858D01*
X95314148Y-68115725D01*
X95714275Y-68515852D01*
X96237067Y-68732400D01*
X96802933Y-68732400D01*
X97325725Y-68515852D01*
X97725852Y-68115725D01*
X97942400Y-67592933D01*
X97942400Y-67027067D01*
X100177600Y-67027067D01*
X100177600Y-67592933D01*
X100394148Y-68115725D01*
X100794275Y-68515852D01*
X101317067Y-68732400D01*
X101882933Y-68732400D01*
X102405725Y-68515852D01*
X102805852Y-68115725D01*
X102870000Y-67960858D01*
X102934148Y-68115725D01*
X103334275Y-68515852D01*
X103857067Y-68732400D01*
X104422933Y-68732400D01*
X104945725Y-68515852D01*
X105345852Y-68115725D01*
X105410000Y-67960858D01*
X105474148Y-68115725D01*
X105874275Y-68515852D01*
X106397067Y-68732400D01*
X106962933Y-68732400D01*
X107485725Y-68515852D01*
X107885852Y-68115725D01*
X108045624Y-67730000D01*
X114072560Y-67730000D01*
X114072560Y-69430000D01*
X114121843Y-69677765D01*
X114262191Y-69887809D01*
X114472235Y-70028157D01*
X114720000Y-70077440D01*
X116420000Y-70077440D01*
X116667765Y-70028157D01*
X116877809Y-69887809D01*
X117018157Y-69677765D01*
X117027184Y-69632381D01*
X117039375Y-69650625D01*
X117530582Y-69978839D01*
X117963744Y-70065000D01*
X118256256Y-70065000D01*
X118689418Y-69978839D01*
X119180625Y-69650625D01*
X119380000Y-69352239D01*
X119579375Y-69650625D01*
X120070582Y-69978839D01*
X120503744Y-70065000D01*
X120796256Y-70065000D01*
X121229418Y-69978839D01*
X121720625Y-69650625D01*
X122048839Y-69159418D01*
X122164092Y-68580000D01*
X124215908Y-68580000D01*
X124331161Y-69159418D01*
X124659375Y-69650625D01*
X125150582Y-69978839D01*
X125583744Y-70065000D01*
X125876256Y-70065000D01*
X126309418Y-69978839D01*
X126800625Y-69650625D01*
X127128839Y-69159418D01*
X127244092Y-68580000D01*
X127128839Y-68000582D01*
X126800625Y-67509375D01*
X126309418Y-67181161D01*
X125876256Y-67095000D01*
X125583744Y-67095000D01*
X125150582Y-67181161D01*
X124659375Y-67509375D01*
X124331161Y-68000582D01*
X124215908Y-68580000D01*
X122164092Y-68580000D01*
X122048839Y-68000582D01*
X121720625Y-67509375D01*
X121229418Y-67181161D01*
X120796256Y-67095000D01*
X120503744Y-67095000D01*
X120070582Y-67181161D01*
X119579375Y-67509375D01*
X119380000Y-67807761D01*
X119180625Y-67509375D01*
X118689418Y-67181161D01*
X118256256Y-67095000D01*
X117963744Y-67095000D01*
X117530582Y-67181161D01*
X117039375Y-67509375D01*
X117027184Y-67527619D01*
X117018157Y-67482235D01*
X116877809Y-67272191D01*
X116667765Y-67131843D01*
X116420000Y-67082560D01*
X114720000Y-67082560D01*
X114472235Y-67131843D01*
X114262191Y-67272191D01*
X114121843Y-67482235D01*
X114072560Y-67730000D01*
X108045624Y-67730000D01*
X108102400Y-67592933D01*
X108102400Y-67027067D01*
X107885852Y-66504275D01*
X107485725Y-66104148D01*
X106962933Y-65887600D01*
X106397067Y-65887600D01*
X105874275Y-66104148D01*
X105474148Y-66504275D01*
X105410000Y-66659142D01*
X105345852Y-66504275D01*
X104945725Y-66104148D01*
X104422933Y-65887600D01*
X103857067Y-65887600D01*
X103334275Y-66104148D01*
X102934148Y-66504275D01*
X102870000Y-66659142D01*
X102805852Y-66504275D01*
X102405725Y-66104148D01*
X101882933Y-65887600D01*
X101317067Y-65887600D01*
X100794275Y-66104148D01*
X100394148Y-66504275D01*
X100177600Y-67027067D01*
X97942400Y-67027067D01*
X97725852Y-66504275D01*
X97325725Y-66104148D01*
X96802933Y-65887600D01*
X96237067Y-65887600D01*
X95714275Y-66104148D01*
X95314148Y-66504275D01*
X95250000Y-66659142D01*
X95185852Y-66504275D01*
X94785725Y-66104148D01*
X94262933Y-65887600D01*
X93697067Y-65887600D01*
X93174275Y-66104148D01*
X92774148Y-66504275D01*
X92710000Y-66659142D01*
X92645852Y-66504275D01*
X92245725Y-66104148D01*
X91722933Y-65887600D01*
X91157067Y-65887600D01*
X90634275Y-66104148D01*
X90234148Y-66504275D01*
X90170000Y-66659142D01*
X90105852Y-66504275D01*
X89705725Y-66104148D01*
X89182933Y-65887600D01*
X88617067Y-65887600D01*
X88094275Y-66104148D01*
X87694148Y-66504275D01*
X87630000Y-66659142D01*
X87565852Y-66504275D01*
X87165725Y-66104148D01*
X86642933Y-65887600D01*
X86077067Y-65887600D01*
X85554275Y-66104148D01*
X85154148Y-66504275D01*
X85090000Y-66659142D01*
X85025852Y-66504275D01*
X84625725Y-66104148D01*
X84102933Y-65887600D01*
X83537067Y-65887600D01*
X83014275Y-66104148D01*
X82614148Y-66504275D01*
X82550000Y-66659142D01*
X82485852Y-66504275D01*
X82085725Y-66104148D01*
X81562933Y-65887600D01*
X80997067Y-65887600D01*
X80474275Y-66104148D01*
X80074148Y-66504275D01*
X80010000Y-66659142D01*
X79945852Y-66504275D01*
X79545725Y-66104148D01*
X79022933Y-65887600D01*
X78457067Y-65887600D01*
X77934275Y-66104148D01*
X77534148Y-66504275D01*
X77470000Y-66659142D01*
X77405852Y-66504275D01*
X77005725Y-66104148D01*
X76482933Y-65887600D01*
X75917067Y-65887600D01*
X75394275Y-66104148D01*
X74994148Y-66504275D01*
X74930000Y-66659142D01*
X74865852Y-66504275D01*
X74465725Y-66104148D01*
X73942933Y-65887600D01*
X73377067Y-65887600D01*
X72854275Y-66104148D01*
X72454148Y-66504275D01*
X72390000Y-66659142D01*
X72325852Y-66504275D01*
X71925725Y-66104148D01*
X71402933Y-65887600D01*
X70837067Y-65887600D01*
X70314275Y-66104148D01*
X69914148Y-66504275D01*
X69697600Y-67027067D01*
X63627000Y-67027067D01*
X63627000Y-64564126D01*
X124695000Y-64564126D01*
X124695000Y-64975874D01*
X124852569Y-65356280D01*
X125143720Y-65647431D01*
X125524126Y-65805000D01*
X125935874Y-65805000D01*
X126316280Y-65647431D01*
X126607431Y-65356280D01*
X126765000Y-64975874D01*
X126765000Y-64564126D01*
X126607431Y-64183720D01*
X126316280Y-63892569D01*
X125935874Y-63735000D01*
X125524126Y-63735000D01*
X125143720Y-63892569D01*
X124852569Y-64183720D01*
X124695000Y-64564126D01*
X63627000Y-64564126D01*
X63627000Y-61947067D01*
X69697600Y-61947067D01*
X69697600Y-62512933D01*
X69914148Y-63035725D01*
X70314275Y-63435852D01*
X70837067Y-63652400D01*
X71402933Y-63652400D01*
X71925725Y-63435852D01*
X72325852Y-63035725D01*
X72390000Y-62880858D01*
X72454148Y-63035725D01*
X72854275Y-63435852D01*
X73377067Y-63652400D01*
X73942933Y-63652400D01*
X74465725Y-63435852D01*
X74865852Y-63035725D01*
X74930000Y-62880858D01*
X74994148Y-63035725D01*
X75394275Y-63435852D01*
X75917067Y-63652400D01*
X76482933Y-63652400D01*
X77005725Y-63435852D01*
X77405852Y-63035725D01*
X77470000Y-62880858D01*
X77534148Y-63035725D01*
X77934275Y-63435852D01*
X78457067Y-63652400D01*
X79022933Y-63652400D01*
X79545725Y-63435852D01*
X79945852Y-63035725D01*
X80010000Y-62880858D01*
X80074148Y-63035725D01*
X80474275Y-63435852D01*
X80997067Y-63652400D01*
X81562933Y-63652400D01*
X82085725Y-63435852D01*
X82485852Y-63035725D01*
X82550000Y-62880858D01*
X82614148Y-63035725D01*
X83014275Y-63435852D01*
X83537067Y-63652400D01*
X84102933Y-63652400D01*
X84625725Y-63435852D01*
X85025852Y-63035725D01*
X85090000Y-62880858D01*
X85154148Y-63035725D01*
X85554275Y-63435852D01*
X86077067Y-63652400D01*
X86642933Y-63652400D01*
X87165725Y-63435852D01*
X87565852Y-63035725D01*
X87630000Y-62880858D01*
X87694148Y-63035725D01*
X88094275Y-63435852D01*
X88617067Y-63652400D01*
X89182933Y-63652400D01*
X89705725Y-63435852D01*
X90105852Y-63035725D01*
X90170000Y-62880858D01*
X90234148Y-63035725D01*
X90634275Y-63435852D01*
X91157067Y-63652400D01*
X91722933Y-63652400D01*
X92245725Y-63435852D01*
X92645852Y-63035725D01*
X92710000Y-62880858D01*
X92774148Y-63035725D01*
X93174275Y-63435852D01*
X93697067Y-63652400D01*
X94262933Y-63652400D01*
X94785725Y-63435852D01*
X95185852Y-63035725D01*
X95250000Y-62880858D01*
X95314148Y-63035725D01*
X95714275Y-63435852D01*
X96237067Y-63652400D01*
X96802933Y-63652400D01*
X97325725Y-63435852D01*
X97725852Y-63035725D01*
X97790000Y-62880858D01*
X97854148Y-63035725D01*
X98254275Y-63435852D01*
X98777067Y-63652400D01*
X99342933Y-63652400D01*
X99865725Y-63435852D01*
X100265852Y-63035725D01*
X100330000Y-62880858D01*
X100394148Y-63035725D01*
X100794275Y-63435852D01*
X101317067Y-63652400D01*
X101882933Y-63652400D01*
X102405725Y-63435852D01*
X102805852Y-63035725D01*
X103022400Y-62512933D01*
X103022400Y-61947067D01*
X105257600Y-61947067D01*
X105257600Y-62512933D01*
X105474148Y-63035725D01*
X105874275Y-63435852D01*
X106397067Y-63652400D01*
X106962933Y-63652400D01*
X107485725Y-63435852D01*
X107885852Y-63035725D01*
X108102400Y-62512933D01*
X108102400Y-61947067D01*
X107885852Y-61424275D01*
X107485725Y-61024148D01*
X106962933Y-60807600D01*
X106397067Y-60807600D01*
X105874275Y-61024148D01*
X105474148Y-61424275D01*
X105257600Y-61947067D01*
X103022400Y-61947067D01*
X102805852Y-61424275D01*
X102405725Y-61024148D01*
X101882933Y-60807600D01*
X101317067Y-60807600D01*
X100794275Y-61024148D01*
X100394148Y-61424275D01*
X100330000Y-61579142D01*
X100265852Y-61424275D01*
X99865725Y-61024148D01*
X99342933Y-60807600D01*
X98777067Y-60807600D01*
X98254275Y-61024148D01*
X97854148Y-61424275D01*
X97790000Y-61579142D01*
X97725852Y-61424275D01*
X97325725Y-61024148D01*
X96802933Y-60807600D01*
X96237067Y-60807600D01*
X95714275Y-61024148D01*
X95314148Y-61424275D01*
X95250000Y-61579142D01*
X95185852Y-61424275D01*
X94785725Y-61024148D01*
X94262933Y-60807600D01*
X93697067Y-60807600D01*
X93174275Y-61024148D01*
X92774148Y-61424275D01*
X92710000Y-61579142D01*
X92645852Y-61424275D01*
X92245725Y-61024148D01*
X91722933Y-60807600D01*
X91157067Y-60807600D01*
X90634275Y-61024148D01*
X90234148Y-61424275D01*
X90170000Y-61579142D01*
X90105852Y-61424275D01*
X89705725Y-61024148D01*
X89182933Y-60807600D01*
X88617067Y-60807600D01*
X88094275Y-61024148D01*
X87694148Y-61424275D01*
X87630000Y-61579142D01*
X87565852Y-61424275D01*
X87165725Y-61024148D01*
X86642933Y-60807600D01*
X86077067Y-60807600D01*
X85554275Y-61024148D01*
X85154148Y-61424275D01*
X85090000Y-61579142D01*
X85025852Y-61424275D01*
X84625725Y-61024148D01*
X84102933Y-60807600D01*
X83537067Y-60807600D01*
X83014275Y-61024148D01*
X82614148Y-61424275D01*
X82550000Y-61579142D01*
X82485852Y-61424275D01*
X82085725Y-61024148D01*
X81562933Y-60807600D01*
X80997067Y-60807600D01*
X80474275Y-61024148D01*
X80074148Y-61424275D01*
X80010000Y-61579142D01*
X79945852Y-61424275D01*
X79545725Y-61024148D01*
X79022933Y-60807600D01*
X78457067Y-60807600D01*
X77934275Y-61024148D01*
X77534148Y-61424275D01*
X77470000Y-61579142D01*
X77405852Y-61424275D01*
X77005725Y-61024148D01*
X76482933Y-60807600D01*
X75917067Y-60807600D01*
X75394275Y-61024148D01*
X74994148Y-61424275D01*
X74930000Y-61579142D01*
X74865852Y-61424275D01*
X74465725Y-61024148D01*
X73942933Y-60807600D01*
X73377067Y-60807600D01*
X72854275Y-61024148D01*
X72454148Y-61424275D01*
X72390000Y-61579142D01*
X72325852Y-61424275D01*
X71925725Y-61024148D01*
X71402933Y-60807600D01*
X70837067Y-60807600D01*
X70314275Y-61024148D01*
X69914148Y-61424275D01*
X69697600Y-61947067D01*
X63627000Y-61947067D01*
X63627000Y-60674561D01*
X133185000Y-60674561D01*
X133185000Y-61245439D01*
X133403466Y-61772862D01*
X133807138Y-62176534D01*
X134334561Y-62395000D01*
X134905439Y-62395000D01*
X135432862Y-62176534D01*
X135836534Y-61772862D01*
X136055000Y-61245439D01*
X136055000Y-60674561D01*
X135836534Y-60147138D01*
X135432862Y-59743466D01*
X134905439Y-59525000D01*
X134334561Y-59525000D01*
X133807138Y-59743466D01*
X133403466Y-60147138D01*
X133185000Y-60674561D01*
X63627000Y-60674561D01*
X63627000Y-49530000D01*
X123052275Y-49530000D01*
X123142305Y-49982609D01*
X123264174Y-50165000D01*
X123142305Y-50347391D01*
X123052275Y-50800000D01*
X123142305Y-51252609D01*
X123398687Y-51636313D01*
X123782391Y-51892695D01*
X124120754Y-51960000D01*
X124799246Y-51960000D01*
X125137609Y-51892695D01*
X125521313Y-51636313D01*
X125777695Y-51252609D01*
X125867725Y-50800000D01*
X125810948Y-50514561D01*
X129375000Y-50514561D01*
X129375000Y-51085439D01*
X129593466Y-51612862D01*
X129997138Y-52016534D01*
X130524561Y-52235000D01*
X131095439Y-52235000D01*
X131622862Y-52016534D01*
X132026534Y-51612862D01*
X132245000Y-51085439D01*
X132245000Y-50514561D01*
X132026534Y-49987138D01*
X131622862Y-49583466D01*
X131095439Y-49365000D01*
X130524561Y-49365000D01*
X129997138Y-49583466D01*
X129593466Y-49987138D01*
X129375000Y-50514561D01*
X125810948Y-50514561D01*
X125777695Y-50347391D01*
X125655826Y-50165000D01*
X125777695Y-49982609D01*
X125867725Y-49530000D01*
X125777695Y-49077391D01*
X125521313Y-48693687D01*
X125137609Y-48437305D01*
X124799246Y-48370000D01*
X124120754Y-48370000D01*
X123782391Y-48437305D01*
X123398687Y-48693687D01*
X123142305Y-49077391D01*
X123052275Y-49530000D01*
X63627000Y-49530000D01*
X63627000Y-46707067D01*
X69697600Y-46707067D01*
X69697600Y-47272933D01*
X69914148Y-47795725D01*
X70314275Y-48195852D01*
X70837067Y-48412400D01*
X71402933Y-48412400D01*
X71925725Y-48195852D01*
X72325852Y-47795725D01*
X72390000Y-47640858D01*
X72454148Y-47795725D01*
X72854275Y-48195852D01*
X73377067Y-48412400D01*
X73942933Y-48412400D01*
X74465725Y-48195852D01*
X74865852Y-47795725D01*
X74930000Y-47640858D01*
X74994148Y-47795725D01*
X75394275Y-48195852D01*
X75917067Y-48412400D01*
X76482933Y-48412400D01*
X77005725Y-48195852D01*
X77405852Y-47795725D01*
X77470000Y-47640858D01*
X77534148Y-47795725D01*
X77934275Y-48195852D01*
X78457067Y-48412400D01*
X79022933Y-48412400D01*
X79545725Y-48195852D01*
X79945852Y-47795725D01*
X80010000Y-47640858D01*
X80074148Y-47795725D01*
X80474275Y-48195852D01*
X80997067Y-48412400D01*
X81562933Y-48412400D01*
X82085725Y-48195852D01*
X82485852Y-47795725D01*
X82550000Y-47640858D01*
X82614148Y-47795725D01*
X83014275Y-48195852D01*
X83537067Y-48412400D01*
X84102933Y-48412400D01*
X84625725Y-48195852D01*
X85025852Y-47795725D01*
X85090000Y-47640858D01*
X85154148Y-47795725D01*
X85554275Y-48195852D01*
X86077067Y-48412400D01*
X86642933Y-48412400D01*
X87165725Y-48195852D01*
X87565852Y-47795725D01*
X87630000Y-47640858D01*
X87694148Y-47795725D01*
X88094275Y-48195852D01*
X88617067Y-48412400D01*
X89182933Y-48412400D01*
X89705725Y-48195852D01*
X90105852Y-47795725D01*
X90170000Y-47640858D01*
X90234148Y-47795725D01*
X90634275Y-48195852D01*
X91157067Y-48412400D01*
X91722933Y-48412400D01*
X92245725Y-48195852D01*
X92645852Y-47795725D01*
X92710000Y-47640858D01*
X92774148Y-47795725D01*
X93174275Y-48195852D01*
X93697067Y-48412400D01*
X94262933Y-48412400D01*
X94785725Y-48195852D01*
X95185852Y-47795725D01*
X95250000Y-47640858D01*
X95314148Y-47795725D01*
X95714275Y-48195852D01*
X96237067Y-48412400D01*
X96802933Y-48412400D01*
X97325725Y-48195852D01*
X97725852Y-47795725D01*
X97942400Y-47272933D01*
X97942400Y-46707067D01*
X100177600Y-46707067D01*
X100177600Y-47272933D01*
X100394148Y-47795725D01*
X100794275Y-48195852D01*
X101317067Y-48412400D01*
X101882933Y-48412400D01*
X102405725Y-48195852D01*
X102805852Y-47795725D01*
X102870000Y-47640858D01*
X102934148Y-47795725D01*
X103334275Y-48195852D01*
X103857067Y-48412400D01*
X104422933Y-48412400D01*
X104945725Y-48195852D01*
X105345852Y-47795725D01*
X105410000Y-47640858D01*
X105474148Y-47795725D01*
X105874275Y-48195852D01*
X106397067Y-48412400D01*
X106962933Y-48412400D01*
X107485725Y-48195852D01*
X107885852Y-47795725D01*
X108102400Y-47272933D01*
X108102400Y-46707067D01*
X107885852Y-46184275D01*
X107591577Y-45890000D01*
X149382560Y-45890000D01*
X149382560Y-48090000D01*
X149431843Y-48337765D01*
X149572191Y-48547809D01*
X149782235Y-48688157D01*
X150030000Y-48737440D01*
X152230000Y-48737440D01*
X152477765Y-48688157D01*
X152687809Y-48547809D01*
X152828157Y-48337765D01*
X152877440Y-48090000D01*
X152877440Y-45890000D01*
X152828157Y-45642235D01*
X152687809Y-45432191D01*
X152477765Y-45291843D01*
X152230000Y-45242560D01*
X150030000Y-45242560D01*
X149782235Y-45291843D01*
X149572191Y-45432191D01*
X149431843Y-45642235D01*
X149382560Y-45890000D01*
X107591577Y-45890000D01*
X107485725Y-45784148D01*
X106962933Y-45567600D01*
X106397067Y-45567600D01*
X105874275Y-45784148D01*
X105474148Y-46184275D01*
X105410000Y-46339142D01*
X105345852Y-46184275D01*
X104945725Y-45784148D01*
X104422933Y-45567600D01*
X103857067Y-45567600D01*
X103334275Y-45784148D01*
X102934148Y-46184275D01*
X102870000Y-46339142D01*
X102805852Y-46184275D01*
X102405725Y-45784148D01*
X101882933Y-45567600D01*
X101317067Y-45567600D01*
X100794275Y-45784148D01*
X100394148Y-46184275D01*
X100177600Y-46707067D01*
X97942400Y-46707067D01*
X97725852Y-46184275D01*
X97325725Y-45784148D01*
X96802933Y-45567600D01*
X96237067Y-45567600D01*
X95714275Y-45784148D01*
X95314148Y-46184275D01*
X95250000Y-46339142D01*
X95185852Y-46184275D01*
X94785725Y-45784148D01*
X94262933Y-45567600D01*
X93697067Y-45567600D01*
X93174275Y-45784148D01*
X92774148Y-46184275D01*
X92710000Y-46339142D01*
X92645852Y-46184275D01*
X92245725Y-45784148D01*
X91722933Y-45567600D01*
X91157067Y-45567600D01*
X90634275Y-45784148D01*
X90234148Y-46184275D01*
X90170000Y-46339142D01*
X90105852Y-46184275D01*
X89705725Y-45784148D01*
X89182933Y-45567600D01*
X88617067Y-45567600D01*
X88094275Y-45784148D01*
X87694148Y-46184275D01*
X87630000Y-46339142D01*
X87565852Y-46184275D01*
X87165725Y-45784148D01*
X86642933Y-45567600D01*
X86077067Y-45567600D01*
X85554275Y-45784148D01*
X85154148Y-46184275D01*
X85090000Y-46339142D01*
X85025852Y-46184275D01*
X84625725Y-45784148D01*
X84102933Y-45567600D01*
X83537067Y-45567600D01*
X83014275Y-45784148D01*
X82614148Y-46184275D01*
X82550000Y-46339142D01*
X82485852Y-46184275D01*
X82085725Y-45784148D01*
X81562933Y-45567600D01*
X80997067Y-45567600D01*
X80474275Y-45784148D01*
X80074148Y-46184275D01*
X80010000Y-46339142D01*
X79945852Y-46184275D01*
X79545725Y-45784148D01*
X79022933Y-45567600D01*
X78457067Y-45567600D01*
X77934275Y-45784148D01*
X77534148Y-46184275D01*
X77470000Y-46339142D01*
X77405852Y-46184275D01*
X77005725Y-45784148D01*
X76482933Y-45567600D01*
X75917067Y-45567600D01*
X75394275Y-45784148D01*
X74994148Y-46184275D01*
X74930000Y-46339142D01*
X74865852Y-46184275D01*
X74465725Y-45784148D01*
X73942933Y-45567600D01*
X73377067Y-45567600D01*
X72854275Y-45784148D01*
X72454148Y-46184275D01*
X72390000Y-46339142D01*
X72325852Y-46184275D01*
X71925725Y-45784148D01*
X71402933Y-45567600D01*
X70837067Y-45567600D01*
X70314275Y-45784148D01*
X69914148Y-46184275D01*
X69697600Y-46707067D01*
X63627000Y-46707067D01*
X63627000Y-45412308D01*
X63699375Y-45520625D01*
X64190582Y-45848839D01*
X64623744Y-45935000D01*
X64916256Y-45935000D01*
X65349418Y-45848839D01*
X65840625Y-45520625D01*
X66168839Y-45029418D01*
X66284092Y-44450000D01*
X66228819Y-44172119D01*
X117983000Y-44172119D01*
X117983000Y-44727881D01*
X118195680Y-45241337D01*
X118588663Y-45634320D01*
X119102119Y-45847000D01*
X119657881Y-45847000D01*
X120171337Y-45634320D01*
X120564320Y-45241337D01*
X120650000Y-45034487D01*
X120735680Y-45241337D01*
X121128663Y-45634320D01*
X121642119Y-45847000D01*
X122197881Y-45847000D01*
X122711337Y-45634320D01*
X123104320Y-45241337D01*
X123190000Y-45034487D01*
X123275680Y-45241337D01*
X123668663Y-45634320D01*
X124182119Y-45847000D01*
X124737881Y-45847000D01*
X125251337Y-45634320D01*
X125644320Y-45241337D01*
X125730000Y-45034487D01*
X125815680Y-45241337D01*
X126208663Y-45634320D01*
X126722119Y-45847000D01*
X127277881Y-45847000D01*
X127791337Y-45634320D01*
X128184320Y-45241337D01*
X128270000Y-45034487D01*
X128355680Y-45241337D01*
X128748663Y-45634320D01*
X129262119Y-45847000D01*
X129817881Y-45847000D01*
X130331337Y-45634320D01*
X130724320Y-45241337D01*
X130810000Y-45034487D01*
X130895680Y-45241337D01*
X131288663Y-45634320D01*
X131802119Y-45847000D01*
X132357881Y-45847000D01*
X132871337Y-45634320D01*
X133264320Y-45241337D01*
X133350000Y-45034487D01*
X133435680Y-45241337D01*
X133828663Y-45634320D01*
X134342119Y-45847000D01*
X134897881Y-45847000D01*
X135411337Y-45634320D01*
X135804320Y-45241337D01*
X136017000Y-44727881D01*
X136017000Y-44172119D01*
X135804320Y-43658663D01*
X135411337Y-43265680D01*
X134897881Y-43053000D01*
X134342119Y-43053000D01*
X133828663Y-43265680D01*
X133435680Y-43658663D01*
X133350000Y-43865513D01*
X133264320Y-43658663D01*
X132871337Y-43265680D01*
X132357881Y-43053000D01*
X131802119Y-43053000D01*
X131288663Y-43265680D01*
X130895680Y-43658663D01*
X130810000Y-43865513D01*
X130724320Y-43658663D01*
X130331337Y-43265680D01*
X129817881Y-43053000D01*
X129262119Y-43053000D01*
X128748663Y-43265680D01*
X128355680Y-43658663D01*
X128270000Y-43865513D01*
X128184320Y-43658663D01*
X127791337Y-43265680D01*
X127277881Y-43053000D01*
X126722119Y-43053000D01*
X126208663Y-43265680D01*
X125815680Y-43658663D01*
X125730000Y-43865513D01*
X125644320Y-43658663D01*
X125251337Y-43265680D01*
X124737881Y-43053000D01*
X124182119Y-43053000D01*
X123668663Y-43265680D01*
X123275680Y-43658663D01*
X123190000Y-43865513D01*
X123104320Y-43658663D01*
X122711337Y-43265680D01*
X122197881Y-43053000D01*
X121642119Y-43053000D01*
X121128663Y-43265680D01*
X120735680Y-43658663D01*
X120650000Y-43865513D01*
X120564320Y-43658663D01*
X120171337Y-43265680D01*
X119657881Y-43053000D01*
X119102119Y-43053000D01*
X118588663Y-43265680D01*
X118195680Y-43658663D01*
X117983000Y-44172119D01*
X66228819Y-44172119D01*
X66168839Y-43870582D01*
X65840625Y-43379375D01*
X65822381Y-43367184D01*
X65867765Y-43358157D01*
X66077809Y-43217809D01*
X66218157Y-43007765D01*
X66267440Y-42760000D01*
X66267440Y-41627067D01*
X69697600Y-41627067D01*
X69697600Y-42192933D01*
X69914148Y-42715725D01*
X70314275Y-43115852D01*
X70837067Y-43332400D01*
X71402933Y-43332400D01*
X71925725Y-43115852D01*
X72325852Y-42715725D01*
X72390000Y-42560858D01*
X72454148Y-42715725D01*
X72854275Y-43115852D01*
X73377067Y-43332400D01*
X73942933Y-43332400D01*
X74465725Y-43115852D01*
X74865852Y-42715725D01*
X74930000Y-42560858D01*
X74994148Y-42715725D01*
X75394275Y-43115852D01*
X75917067Y-43332400D01*
X76482933Y-43332400D01*
X77005725Y-43115852D01*
X77405852Y-42715725D01*
X77470000Y-42560858D01*
X77534148Y-42715725D01*
X77934275Y-43115852D01*
X78457067Y-43332400D01*
X79022933Y-43332400D01*
X79545725Y-43115852D01*
X79945852Y-42715725D01*
X80010000Y-42560858D01*
X80074148Y-42715725D01*
X80474275Y-43115852D01*
X80997067Y-43332400D01*
X81562933Y-43332400D01*
X82085725Y-43115852D01*
X82485852Y-42715725D01*
X82550000Y-42560858D01*
X82614148Y-42715725D01*
X83014275Y-43115852D01*
X83537067Y-43332400D01*
X84102933Y-43332400D01*
X84625725Y-43115852D01*
X85025852Y-42715725D01*
X85090000Y-42560858D01*
X85154148Y-42715725D01*
X85554275Y-43115852D01*
X86077067Y-43332400D01*
X86642933Y-43332400D01*
X87165725Y-43115852D01*
X87565852Y-42715725D01*
X87630000Y-42560858D01*
X87694148Y-42715725D01*
X88094275Y-43115852D01*
X88617067Y-43332400D01*
X89182933Y-43332400D01*
X89705725Y-43115852D01*
X90105852Y-42715725D01*
X90170000Y-42560858D01*
X90234148Y-42715725D01*
X90634275Y-43115852D01*
X91157067Y-43332400D01*
X91722933Y-43332400D01*
X92245725Y-43115852D01*
X92645852Y-42715725D01*
X92710000Y-42560858D01*
X92774148Y-42715725D01*
X93174275Y-43115852D01*
X93697067Y-43332400D01*
X94262933Y-43332400D01*
X94785725Y-43115852D01*
X95185852Y-42715725D01*
X95250000Y-42560858D01*
X95314148Y-42715725D01*
X95714275Y-43115852D01*
X96237067Y-43332400D01*
X96802933Y-43332400D01*
X97325725Y-43115852D01*
X97725852Y-42715725D01*
X97790000Y-42560858D01*
X97854148Y-42715725D01*
X98254275Y-43115852D01*
X98777067Y-43332400D01*
X99342933Y-43332400D01*
X99865725Y-43115852D01*
X100265852Y-42715725D01*
X100330000Y-42560858D01*
X100394148Y-42715725D01*
X100794275Y-43115852D01*
X101317067Y-43332400D01*
X101882933Y-43332400D01*
X102405725Y-43115852D01*
X102805852Y-42715725D01*
X103022400Y-42192933D01*
X103022400Y-41627067D01*
X105257600Y-41627067D01*
X105257600Y-42192933D01*
X105474148Y-42715725D01*
X105874275Y-43115852D01*
X106397067Y-43332400D01*
X106962933Y-43332400D01*
X107485725Y-43115852D01*
X107885852Y-42715725D01*
X108102400Y-42192933D01*
X108102400Y-41627067D01*
X107885852Y-41104275D01*
X107485725Y-40704148D01*
X106962933Y-40487600D01*
X106397067Y-40487600D01*
X105874275Y-40704148D01*
X105474148Y-41104275D01*
X105257600Y-41627067D01*
X103022400Y-41627067D01*
X102805852Y-41104275D01*
X102405725Y-40704148D01*
X101882933Y-40487600D01*
X101317067Y-40487600D01*
X100794275Y-40704148D01*
X100394148Y-41104275D01*
X100330000Y-41259142D01*
X100265852Y-41104275D01*
X99865725Y-40704148D01*
X99342933Y-40487600D01*
X98777067Y-40487600D01*
X98254275Y-40704148D01*
X97854148Y-41104275D01*
X97790000Y-41259142D01*
X97725852Y-41104275D01*
X97325725Y-40704148D01*
X96802933Y-40487600D01*
X96237067Y-40487600D01*
X95714275Y-40704148D01*
X95314148Y-41104275D01*
X95250000Y-41259142D01*
X95185852Y-41104275D01*
X94785725Y-40704148D01*
X94262933Y-40487600D01*
X93697067Y-40487600D01*
X93174275Y-40704148D01*
X92774148Y-41104275D01*
X92710000Y-41259142D01*
X92645852Y-41104275D01*
X92245725Y-40704148D01*
X91722933Y-40487600D01*
X91157067Y-40487600D01*
X90634275Y-40704148D01*
X90234148Y-41104275D01*
X90170000Y-41259142D01*
X90105852Y-41104275D01*
X89705725Y-40704148D01*
X89182933Y-40487600D01*
X88617067Y-40487600D01*
X88094275Y-40704148D01*
X87694148Y-41104275D01*
X87630000Y-41259142D01*
X87565852Y-41104275D01*
X87165725Y-40704148D01*
X86642933Y-40487600D01*
X86077067Y-40487600D01*
X85554275Y-40704148D01*
X85154148Y-41104275D01*
X85090000Y-41259142D01*
X85025852Y-41104275D01*
X84625725Y-40704148D01*
X84102933Y-40487600D01*
X83537067Y-40487600D01*
X83014275Y-40704148D01*
X82614148Y-41104275D01*
X82550000Y-41259142D01*
X82485852Y-41104275D01*
X82085725Y-40704148D01*
X81562933Y-40487600D01*
X80997067Y-40487600D01*
X80474275Y-40704148D01*
X80074148Y-41104275D01*
X80010000Y-41259142D01*
X79945852Y-41104275D01*
X79545725Y-40704148D01*
X79022933Y-40487600D01*
X78457067Y-40487600D01*
X77934275Y-40704148D01*
X77534148Y-41104275D01*
X77470000Y-41259142D01*
X77405852Y-41104275D01*
X77005725Y-40704148D01*
X76482933Y-40487600D01*
X75917067Y-40487600D01*
X75394275Y-40704148D01*
X74994148Y-41104275D01*
X74930000Y-41259142D01*
X74865852Y-41104275D01*
X74465725Y-40704148D01*
X73942933Y-40487600D01*
X73377067Y-40487600D01*
X72854275Y-40704148D01*
X72454148Y-41104275D01*
X72390000Y-41259142D01*
X72325852Y-41104275D01*
X71925725Y-40704148D01*
X71402933Y-40487600D01*
X70837067Y-40487600D01*
X70314275Y-40704148D01*
X69914148Y-41104275D01*
X69697600Y-41627067D01*
X66267440Y-41627067D01*
X66267440Y-41060000D01*
X66218157Y-40812235D01*
X66077809Y-40602191D01*
X65867765Y-40461843D01*
X65620000Y-40412560D01*
X63920000Y-40412560D01*
X63672235Y-40461843D01*
X63627000Y-40492068D01*
X63627000Y-39164126D01*
X71355000Y-39164126D01*
X71355000Y-39575874D01*
X71512569Y-39956280D01*
X71803720Y-40247431D01*
X72184126Y-40405000D01*
X72595874Y-40405000D01*
X72948350Y-40259000D01*
X97231650Y-40259000D01*
X97584126Y-40405000D01*
X97995874Y-40405000D01*
X98376280Y-40247431D01*
X98667431Y-39956280D01*
X98825000Y-39575874D01*
X98825000Y-39370000D01*
X149361010Y-39370000D01*
X149495666Y-40046963D01*
X149879135Y-40620865D01*
X150453037Y-41004334D01*
X150959120Y-41105000D01*
X151300880Y-41105000D01*
X151806963Y-41004334D01*
X152380865Y-40620865D01*
X152764334Y-40046963D01*
X152898990Y-39370000D01*
X152764334Y-38693037D01*
X152380865Y-38119135D01*
X151806963Y-37735666D01*
X151300880Y-37635000D01*
X150959120Y-37635000D01*
X150453037Y-37735666D01*
X149879135Y-38119135D01*
X149495666Y-38693037D01*
X149361010Y-39370000D01*
X98825000Y-39370000D01*
X98825000Y-39164126D01*
X98667431Y-38783720D01*
X98376280Y-38492569D01*
X97995874Y-38335000D01*
X97584126Y-38335000D01*
X97231650Y-38481000D01*
X72948350Y-38481000D01*
X72595874Y-38335000D01*
X72184126Y-38335000D01*
X71803720Y-38492569D01*
X71512569Y-38783720D01*
X71355000Y-39164126D01*
X63627000Y-39164126D01*
X63627000Y-34460000D01*
X149382560Y-34460000D01*
X149382560Y-36660000D01*
X149431843Y-36907765D01*
X149572191Y-37117809D01*
X149782235Y-37258157D01*
X150030000Y-37307440D01*
X152230000Y-37307440D01*
X152477765Y-37258157D01*
X152687809Y-37117809D01*
X152828157Y-36907765D01*
X152877440Y-36660000D01*
X152877440Y-34460000D01*
X152828157Y-34212235D01*
X152687809Y-34002191D01*
X152477765Y-33861843D01*
X152230000Y-33812560D01*
X150030000Y-33812560D01*
X149782235Y-33861843D01*
X149572191Y-34002191D01*
X149431843Y-34212235D01*
X149382560Y-34460000D01*
X63627000Y-34460000D01*
X63627000Y-29357932D01*
X63672235Y-29388157D01*
X63920000Y-29437440D01*
X65620000Y-29437440D01*
X65867765Y-29388157D01*
X66077809Y-29247809D01*
X66218157Y-29037765D01*
X66267440Y-28790000D01*
X66267440Y-27090000D01*
X66218157Y-26842235D01*
X66077809Y-26632191D01*
X65867765Y-26491843D01*
X65822381Y-26482816D01*
X65840625Y-26470625D01*
X66168839Y-25979418D01*
X66284092Y-25400000D01*
X66168839Y-24820582D01*
X65840625Y-24329375D01*
X65542239Y-24130000D01*
X65840625Y-23930625D01*
X66168839Y-23439418D01*
X66284092Y-22860000D01*
X66168839Y-22280582D01*
X65840625Y-21789375D01*
X65349418Y-21461161D01*
X64916256Y-21375000D01*
X64623744Y-21375000D01*
X64190582Y-21461161D01*
X63699375Y-21789375D01*
X63627000Y-21897692D01*
X63627000Y-20372606D01*
X64822606Y-19177000D01*
X68465765Y-19177000D01*
X66743296Y-20899469D01*
G04 #@! TD*
M02*
