G04 #@! TF.GenerationSoftware,KiCad,Pcbnew,(5.0.0)*
G04 #@! TF.CreationDate,2018-11-14T12:24:37-05:00*
G04 #@! TF.ProjectId,backdash,6261636B646173682E6B696361645F70,rev?*
G04 #@! TF.SameCoordinates,Original*
G04 #@! TF.FileFunction,Copper,L2,Bot,Signal*
G04 #@! TF.FilePolarity,Positive*
%FSLAX46Y46*%
G04 Gerber Fmt 4.6, Leading zero omitted, Abs format (unit mm)*
G04 Created by KiCad (PCBNEW (5.0.0)) date 11/14/18 12:24:37*
%MOMM*%
%LPD*%
G01*
G04 APERTURE LIST*
G04 #@! TA.AperFunction,ComponentPad*
%ADD10O,1.700000X1.700000*%
G04 #@! TD*
G04 #@! TA.AperFunction,ComponentPad*
%ADD11R,1.700000X1.700000*%
G04 #@! TD*
G04 #@! TA.AperFunction,ComponentPad*
%ADD12C,1.574800*%
G04 #@! TD*
G04 #@! TA.AperFunction,ComponentPad*
%ADD13C,1.524000*%
G04 #@! TD*
G04 #@! TA.AperFunction,ComponentPad*
%ADD14C,2.200000*%
G04 #@! TD*
G04 #@! TA.AperFunction,Conductor*
%ADD15C,0.250000*%
G04 #@! TD*
G04 #@! TA.AperFunction,Conductor*
%ADD16C,0.254000*%
G04 #@! TD*
G04 APERTURE END LIST*
D10*
G04 #@! TO.P,REF\002A\002A,3*
G04 #@! TO.N,/GND*
X165100000Y-44450000D03*
G04 #@! TO.P,REF\002A\002A,2*
G04 #@! TO.N,/D10*
X165100000Y-41910000D03*
D11*
G04 #@! TO.P,REF\002A\002A,1*
G04 #@! TO.N,/VCC*
X165100000Y-39370000D03*
G04 #@! TD*
D12*
G04 #@! TO.P,NANO1,30*
G04 #@! TO.N,Net-(NANO1-Pad30)*
X207010000Y-39370000D03*
G04 #@! TO.P,NANO1,1*
G04 #@! TO.N,Net-(NANO1-Pad1)*
X207010000Y-24130000D03*
G04 #@! TO.P,NANO1,29*
G04 #@! TO.N,/GND*
X204470000Y-39370000D03*
G04 #@! TO.P,NANO1,2*
G04 #@! TO.N,Net-(NANO1-Pad2)*
X204470000Y-24130000D03*
G04 #@! TO.P,NANO1,28*
G04 #@! TO.N,Net-(NANO1-Pad28)*
X201930000Y-39370000D03*
G04 #@! TO.P,NANO1,3*
G04 #@! TO.N,Net-(NANO1-Pad3)*
X201930000Y-24130000D03*
G04 #@! TO.P,NANO1,27*
G04 #@! TO.N,/VCC*
X199390000Y-39370000D03*
G04 #@! TO.P,NANO1,4*
G04 #@! TO.N,Net-(NANO1-Pad4)*
X199390000Y-24130000D03*
G04 #@! TO.P,NANO1,26*
G04 #@! TO.N,Net-(NANO1-Pad26)*
X196850000Y-39370000D03*
G04 #@! TO.P,NANO1,5*
G04 #@! TO.N,Net-(NANO1-Pad5)*
X196850000Y-24130000D03*
G04 #@! TO.P,NANO1,25*
G04 #@! TO.N,Net-(NANO1-Pad25)*
X194310000Y-39370000D03*
G04 #@! TO.P,NANO1,6*
G04 #@! TO.N,Net-(NANO1-Pad6)*
X194310000Y-24130000D03*
G04 #@! TO.P,NANO1,24*
G04 #@! TO.N,/A5*
X191770000Y-39370000D03*
G04 #@! TO.P,NANO1,7*
G04 #@! TO.N,Net-(NANO1-Pad7)*
X191770000Y-24130000D03*
G04 #@! TO.P,NANO1,23*
G04 #@! TO.N,/A4*
X189230000Y-39370000D03*
G04 #@! TO.P,NANO1,8*
G04 #@! TO.N,Net-(NANO1-Pad8)*
X189230000Y-24130000D03*
G04 #@! TO.P,NANO1,22*
G04 #@! TO.N,Net-(NANO1-Pad22)*
X186690000Y-39370000D03*
G04 #@! TO.P,NANO1,9*
G04 #@! TO.N,Net-(NANO1-Pad9)*
X186690000Y-24130000D03*
G04 #@! TO.P,NANO1,21*
G04 #@! TO.N,Net-(NANO1-Pad21)*
X184150000Y-39370000D03*
G04 #@! TO.P,NANO1,10*
G04 #@! TO.N,Net-(NANO1-Pad10)*
X184150000Y-24130000D03*
G04 #@! TO.P,NANO1,20*
G04 #@! TO.N,Net-(NANO1-Pad20)*
X181610000Y-39370000D03*
G04 #@! TO.P,NANO1,11*
G04 #@! TO.N,Net-(NANO1-Pad11)*
X181610000Y-24130000D03*
G04 #@! TO.P,NANO1,19*
G04 #@! TO.N,/A0*
X179070000Y-39370000D03*
G04 #@! TO.P,NANO1,12*
G04 #@! TO.N,Net-(NANO1-Pad12)*
X179070000Y-24130000D03*
G04 #@! TO.P,NANO1,18*
G04 #@! TO.N,Net-(NANO1-Pad18)*
X176530000Y-39370000D03*
G04 #@! TO.P,NANO1,13*
G04 #@! TO.N,Net-(NANO1-Pad13)*
X176530000Y-24130000D03*
G04 #@! TO.P,NANO1,17*
G04 #@! TO.N,Net-(NANO1-Pad17)*
X173990000Y-39370000D03*
G04 #@! TO.P,NANO1,14*
G04 #@! TO.N,Net-(NANO1-Pad14)*
X173990000Y-24130000D03*
G04 #@! TO.P,NANO1,16*
G04 #@! TO.N,Net-(NANO1-Pad16)*
X171450000Y-39370000D03*
G04 #@! TO.P,NANO1,15*
G04 #@! TO.N,Net-(NANO1-Pad15)*
X171450000Y-24130000D03*
G04 #@! TD*
G04 #@! TO.P,NANO3,15*
G04 #@! TO.N,/SDOcan*
X234950000Y-82550000D03*
G04 #@! TO.P,NANO3,16*
G04 #@! TO.N,/SCK*
X250190000Y-82550000D03*
G04 #@! TO.P,NANO3,14*
G04 #@! TO.N,/SDI*
X234950000Y-80010000D03*
G04 #@! TO.P,NANO3,17*
G04 #@! TO.N,Net-(NANO3-Pad17)*
X250190000Y-80010000D03*
G04 #@! TO.P,NANO3,13*
G04 #@! TO.N,/CScan*
X234950000Y-77470000D03*
G04 #@! TO.P,NANO3,18*
G04 #@! TO.N,Net-(NANO3-Pad18)*
X250190000Y-77470000D03*
G04 #@! TO.P,NANO3,12*
G04 #@! TO.N,Net-(NANO3-Pad12)*
X234950000Y-74930000D03*
G04 #@! TO.P,NANO3,19*
G04 #@! TO.N,Net-(NANO3-Pad19)*
X250190000Y-74930000D03*
G04 #@! TO.P,NANO3,11*
G04 #@! TO.N,Net-(NANO3-Pad11)*
X234950000Y-72390000D03*
G04 #@! TO.P,NANO3,20*
G04 #@! TO.N,Net-(NANO3-Pad20)*
X250190000Y-72390000D03*
G04 #@! TO.P,NANO3,10*
G04 #@! TO.N,Net-(NANO3-Pad10)*
X234950000Y-69850000D03*
G04 #@! TO.P,NANO3,21*
G04 #@! TO.N,Net-(NANO3-Pad21)*
X250190000Y-69850000D03*
G04 #@! TO.P,NANO3,9*
G04 #@! TO.N,Net-(NANO3-Pad9)*
X234950000Y-67310000D03*
G04 #@! TO.P,NANO3,22*
G04 #@! TO.N,Net-(NANO3-Pad22)*
X250190000Y-67310000D03*
G04 #@! TO.P,NANO3,8*
G04 #@! TO.N,Net-(NANO3-Pad8)*
X234950000Y-64770000D03*
G04 #@! TO.P,NANO3,23*
G04 #@! TO.N,/A4*
X250190000Y-64770000D03*
G04 #@! TO.P,NANO3,7*
G04 #@! TO.N,Net-(NANO3-Pad7)*
X234950000Y-62230000D03*
G04 #@! TO.P,NANO3,24*
G04 #@! TO.N,/A5*
X250190000Y-62230000D03*
G04 #@! TO.P,NANO3,6*
G04 #@! TO.N,Net-(NANO3-Pad6)*
X234950000Y-59690000D03*
G04 #@! TO.P,NANO3,25*
G04 #@! TO.N,Net-(NANO3-Pad25)*
X250190000Y-59690000D03*
G04 #@! TO.P,NANO3,5*
G04 #@! TO.N,Net-(NANO3-Pad5)*
X234950000Y-57150000D03*
G04 #@! TO.P,NANO3,26*
G04 #@! TO.N,Net-(NANO3-Pad26)*
X250190000Y-57150000D03*
G04 #@! TO.P,NANO3,4*
G04 #@! TO.N,Net-(NANO3-Pad4)*
X234950000Y-54610000D03*
G04 #@! TO.P,NANO3,27*
G04 #@! TO.N,/VCC*
X250190000Y-54610000D03*
G04 #@! TO.P,NANO3,3*
G04 #@! TO.N,Net-(NANO3-Pad3)*
X234950000Y-52070000D03*
G04 #@! TO.P,NANO3,28*
G04 #@! TO.N,Net-(NANO3-Pad28)*
X250190000Y-52070000D03*
G04 #@! TO.P,NANO3,2*
G04 #@! TO.N,Net-(NANO3-Pad2)*
X234950000Y-49530000D03*
G04 #@! TO.P,NANO3,29*
G04 #@! TO.N,/GND*
X250190000Y-49530000D03*
G04 #@! TO.P,NANO3,1*
G04 #@! TO.N,Net-(NANO3-Pad1)*
X234950000Y-46990000D03*
G04 #@! TO.P,NANO3,30*
G04 #@! TO.N,Net-(NANO3-Pad30)*
X250190000Y-46990000D03*
G04 #@! TD*
G04 #@! TO.P,NANO2,30*
G04 #@! TO.N,Net-(NANO2-Pad30)*
X207010000Y-58420000D03*
G04 #@! TO.P,NANO2,1*
G04 #@! TO.N,Net-(NANO2-Pad1)*
X207010000Y-43180000D03*
G04 #@! TO.P,NANO2,29*
G04 #@! TO.N,/GND*
X204470000Y-58420000D03*
G04 #@! TO.P,NANO2,2*
G04 #@! TO.N,Net-(NANO2-Pad2)*
X204470000Y-43180000D03*
G04 #@! TO.P,NANO2,28*
G04 #@! TO.N,Net-(NANO2-Pad28)*
X201930000Y-58420000D03*
G04 #@! TO.P,NANO2,3*
G04 #@! TO.N,Net-(NANO2-Pad3)*
X201930000Y-43180000D03*
G04 #@! TO.P,NANO2,27*
G04 #@! TO.N,/VCC*
X199390000Y-58420000D03*
G04 #@! TO.P,NANO2,4*
G04 #@! TO.N,Net-(NANO2-Pad4)*
X199390000Y-43180000D03*
G04 #@! TO.P,NANO2,26*
G04 #@! TO.N,Net-(NANO2-Pad26)*
X196850000Y-58420000D03*
G04 #@! TO.P,NANO2,5*
G04 #@! TO.N,Net-(NANO2-Pad5)*
X196850000Y-43180000D03*
G04 #@! TO.P,NANO2,25*
G04 #@! TO.N,Net-(NANO2-Pad25)*
X194310000Y-58420000D03*
G04 #@! TO.P,NANO2,6*
G04 #@! TO.N,Net-(NANO2-Pad6)*
X194310000Y-43180000D03*
G04 #@! TO.P,NANO2,24*
G04 #@! TO.N,/A5*
X191770000Y-58420000D03*
G04 #@! TO.P,NANO2,7*
G04 #@! TO.N,Net-(NANO2-Pad7)*
X191770000Y-43180000D03*
G04 #@! TO.P,NANO2,23*
G04 #@! TO.N,/A4*
X189230000Y-58420000D03*
G04 #@! TO.P,NANO2,8*
G04 #@! TO.N,Net-(NANO2-Pad8)*
X189230000Y-43180000D03*
G04 #@! TO.P,NANO2,22*
G04 #@! TO.N,Net-(NANO2-Pad22)*
X186690000Y-58420000D03*
G04 #@! TO.P,NANO2,9*
G04 #@! TO.N,Net-(NANO2-Pad9)*
X186690000Y-43180000D03*
G04 #@! TO.P,NANO2,21*
G04 #@! TO.N,Net-(NANO2-Pad21)*
X184150000Y-58420000D03*
G04 #@! TO.P,NANO2,10*
G04 #@! TO.N,Net-(NANO2-Pad10)*
X184150000Y-43180000D03*
G04 #@! TO.P,NANO2,20*
G04 #@! TO.N,Net-(NANO2-Pad20)*
X181610000Y-58420000D03*
G04 #@! TO.P,NANO2,11*
G04 #@! TO.N,Net-(NANO2-Pad11)*
X181610000Y-43180000D03*
G04 #@! TO.P,NANO2,19*
G04 #@! TO.N,Net-(NANO2-Pad19)*
X179070000Y-58420000D03*
G04 #@! TO.P,NANO2,12*
G04 #@! TO.N,/CSrtd*
X179070000Y-43180000D03*
G04 #@! TO.P,NANO2,18*
G04 #@! TO.N,Net-(NANO2-Pad18)*
X176530000Y-58420000D03*
G04 #@! TO.P,NANO2,13*
G04 #@! TO.N,/D10*
X176530000Y-43180000D03*
G04 #@! TO.P,NANO2,17*
G04 #@! TO.N,Net-(NANO2-Pad17)*
X173990000Y-58420000D03*
G04 #@! TO.P,NANO2,14*
G04 #@! TO.N,/CLK*
X173990000Y-43180000D03*
G04 #@! TO.P,NANO2,16*
X171450000Y-58420000D03*
G04 #@! TO.P,NANO2,15*
G04 #@! TO.N,/SDOrtd*
X171450000Y-43180000D03*
G04 #@! TD*
D10*
G04 #@! TO.P,BUCK1,5*
G04 #@! TO.N,/VCC*
X218440000Y-44450000D03*
G04 #@! TO.P,BUCK1,3*
G04 #@! TO.N,/IN*
X223520000Y-44450000D03*
D11*
G04 #@! TO.P,BUCK1,1*
G04 #@! TO.N,Net-(BUCK1-Pad1)*
X228600000Y-44450000D03*
D10*
G04 #@! TO.P,BUCK1,4*
G04 #@! TO.N,/GND*
X220980000Y-44450000D03*
G04 #@! TO.P,BUCK1,2*
G04 #@! TO.N,Net-(BUCK1-Pad2)*
X226060000Y-44450000D03*
G04 #@! TD*
D13*
G04 #@! TO.P,CAN1,8*
G04 #@! TO.N,Net-(CAN1-Pad8)*
X210820000Y-85090000D03*
G04 #@! TO.P,CAN1,7*
G04 #@! TO.N,Net-(CAN1-Pad7)*
X213360000Y-85090000D03*
G04 #@! TO.P,CAN1,6*
G04 #@! TO.N,/CScan*
X215900000Y-85090000D03*
G04 #@! TO.P,CAN1,5*
G04 #@! TO.N,/SCK*
X218440000Y-85090000D03*
G04 #@! TO.P,CAN1,4*
G04 #@! TO.N,/SDOcan*
X220980000Y-85090000D03*
G04 #@! TO.P,CAN1,3*
G04 #@! TO.N,/SDI*
X223520000Y-85090000D03*
G04 #@! TO.P,CAN1,2*
G04 #@! TO.N,/3V3*
X226060000Y-85090000D03*
G04 #@! TO.P,CAN1,1*
G04 #@! TO.N,Net-(CAN1-Pad1)*
X228600000Y-85090000D03*
G04 #@! TO.P,CAN1,9*
G04 #@! TO.N,Net-(CAN1-Pad9)*
X210820000Y-62230000D03*
G04 #@! TO.P,CAN1,10*
G04 #@! TO.N,Net-(CAN1-Pad10)*
X213360000Y-62230000D03*
G04 #@! TO.P,CAN1,11*
G04 #@! TO.N,Net-(CAN1-Pad11)*
X215900000Y-62230000D03*
G04 #@! TO.P,CAN1,12*
G04 #@! TO.N,Net-(CAN1-Pad12)*
X218440000Y-62230000D03*
G04 #@! TO.P,CAN1,13*
G04 #@! TO.N,Net-(CAN1-Pad13)*
X220980000Y-62230000D03*
G04 #@! TO.P,CAN1,14*
G04 #@! TO.N,Net-(CAN1-Pad14)*
X223520000Y-62230000D03*
G04 #@! TO.P,CAN1,15*
G04 #@! TO.N,/VCC*
X226060000Y-62230000D03*
G04 #@! TO.P,CAN1,16*
G04 #@! TO.N,/GND*
X228600000Y-62230000D03*
G04 #@! TD*
G04 #@! TO.P,RTD1,1*
G04 #@! TO.N,/VIN*
X190500000Y-82550000D03*
G04 #@! TO.P,RTD1,2*
G04 #@! TO.N,/GND*
X190500000Y-80030000D03*
G04 #@! TO.P,RTD1,3*
G04 #@! TO.N,Net-(RTD1-Pad3)*
X190500000Y-77510000D03*
G04 #@! TO.P,RTD1,4*
G04 #@! TO.N,/CLK*
X190500000Y-74990000D03*
G04 #@! TO.P,RTD1,5*
G04 #@! TO.N,/SDOrtd*
X190500000Y-72470000D03*
G04 #@! TO.P,RTD1,6*
G04 #@! TO.N,/SDI*
X190500000Y-69950000D03*
G04 #@! TO.P,RTD1,7*
G04 #@! TO.N,/CSrtd*
X190500000Y-67430000D03*
G04 #@! TO.P,RTD1,8*
G04 #@! TO.N,Net-(RTD1-Pad8)*
X190500000Y-64910000D03*
G04 #@! TD*
D11*
G04 #@! TO.P,REF\002A\002A,1*
G04 #@! TO.N,/VCC*
X218440000Y-27940000D03*
D10*
G04 #@! TO.P,REF\002A\002A,2*
G04 #@! TO.N,/A0*
X218440000Y-30480000D03*
G04 #@! TO.P,REF\002A\002A,3*
G04 #@! TO.N,/GND*
X218440000Y-33020000D03*
G04 #@! TD*
D11*
G04 #@! TO.P,REF\002A\002A,1*
G04 #@! TO.N,/VCC*
X250190000Y-27940000D03*
D10*
G04 #@! TO.P,REF\002A\002A,2*
G04 #@! TO.N,/A4*
X250190000Y-30480000D03*
G04 #@! TO.P,REF\002A\002A,3*
G04 #@! TO.N,/A5*
X250190000Y-33020000D03*
G04 #@! TO.P,REF\002A\002A,4*
G04 #@! TO.N,/GND*
X250190000Y-35560000D03*
G04 #@! TD*
D14*
G04 #@! TO.P,REF\002A\002A,2*
G04 #@! TO.N,/IN*
X232790000Y-37500000D03*
G04 #@! TO.P,REF\002A\002A,1*
G04 #@! TO.N,/GND*
X227790000Y-37500000D03*
D13*
G04 #@! TO.P,REF\002A\002A,3*
G04 #@! TO.N,N/C*
X235790000Y-27500000D03*
G04 #@! TO.P,REF\002A\002A,4*
X224790000Y-27500000D03*
G04 #@! TD*
D15*
G04 #@! TO.N,/GND*
X220130001Y-43600001D02*
X220980000Y-44450000D01*
X218440000Y-41910000D02*
X220130001Y-43600001D01*
X207010000Y-41910000D02*
X218440000Y-41910000D01*
X204470000Y-39370000D02*
X207010000Y-41910000D01*
X220980000Y-44450000D02*
X223520000Y-41910000D01*
X242570000Y-41910000D02*
X250190000Y-49530000D01*
G04 #@! TD*
D16*
G04 #@! TO.N,/GND*
G36*
X254560001Y-88190000D02*
X163270000Y-88190000D01*
X163270000Y-84812119D01*
X209423000Y-84812119D01*
X209423000Y-85367881D01*
X209635680Y-85881337D01*
X210028663Y-86274320D01*
X210542119Y-86487000D01*
X211097881Y-86487000D01*
X211611337Y-86274320D01*
X212004320Y-85881337D01*
X212090000Y-85674487D01*
X212175680Y-85881337D01*
X212568663Y-86274320D01*
X213082119Y-86487000D01*
X213637881Y-86487000D01*
X214151337Y-86274320D01*
X214544320Y-85881337D01*
X214630000Y-85674487D01*
X214715680Y-85881337D01*
X215108663Y-86274320D01*
X215622119Y-86487000D01*
X216177881Y-86487000D01*
X216691337Y-86274320D01*
X217084320Y-85881337D01*
X217170000Y-85674487D01*
X217255680Y-85881337D01*
X217648663Y-86274320D01*
X218162119Y-86487000D01*
X218717881Y-86487000D01*
X219231337Y-86274320D01*
X219624320Y-85881337D01*
X219710000Y-85674487D01*
X219795680Y-85881337D01*
X220188663Y-86274320D01*
X220702119Y-86487000D01*
X221257881Y-86487000D01*
X221771337Y-86274320D01*
X222164320Y-85881337D01*
X222250000Y-85674487D01*
X222335680Y-85881337D01*
X222728663Y-86274320D01*
X223242119Y-86487000D01*
X223797881Y-86487000D01*
X224311337Y-86274320D01*
X224704320Y-85881337D01*
X224790000Y-85674487D01*
X224875680Y-85881337D01*
X225268663Y-86274320D01*
X225782119Y-86487000D01*
X226337881Y-86487000D01*
X226851337Y-86274320D01*
X227244320Y-85881337D01*
X227330000Y-85674487D01*
X227415680Y-85881337D01*
X227808663Y-86274320D01*
X228322119Y-86487000D01*
X228877881Y-86487000D01*
X229391337Y-86274320D01*
X229784320Y-85881337D01*
X229997000Y-85367881D01*
X229997000Y-84812119D01*
X229784320Y-84298663D01*
X229391337Y-83905680D01*
X228877881Y-83693000D01*
X228322119Y-83693000D01*
X227808663Y-83905680D01*
X227415680Y-84298663D01*
X227330000Y-84505513D01*
X227244320Y-84298663D01*
X226851337Y-83905680D01*
X226337881Y-83693000D01*
X225782119Y-83693000D01*
X225268663Y-83905680D01*
X224875680Y-84298663D01*
X224790000Y-84505513D01*
X224704320Y-84298663D01*
X224311337Y-83905680D01*
X223797881Y-83693000D01*
X223242119Y-83693000D01*
X222728663Y-83905680D01*
X222335680Y-84298663D01*
X222250000Y-84505513D01*
X222164320Y-84298663D01*
X221771337Y-83905680D01*
X221257881Y-83693000D01*
X220702119Y-83693000D01*
X220188663Y-83905680D01*
X219795680Y-84298663D01*
X219710000Y-84505513D01*
X219624320Y-84298663D01*
X219231337Y-83905680D01*
X218717881Y-83693000D01*
X218162119Y-83693000D01*
X217648663Y-83905680D01*
X217255680Y-84298663D01*
X217170000Y-84505513D01*
X217084320Y-84298663D01*
X216691337Y-83905680D01*
X216177881Y-83693000D01*
X215622119Y-83693000D01*
X215108663Y-83905680D01*
X214715680Y-84298663D01*
X214630000Y-84505513D01*
X214544320Y-84298663D01*
X214151337Y-83905680D01*
X213637881Y-83693000D01*
X213082119Y-83693000D01*
X212568663Y-83905680D01*
X212175680Y-84298663D01*
X212090000Y-84505513D01*
X212004320Y-84298663D01*
X211611337Y-83905680D01*
X211097881Y-83693000D01*
X210542119Y-83693000D01*
X210028663Y-83905680D01*
X209635680Y-84298663D01*
X209423000Y-84812119D01*
X163270000Y-84812119D01*
X163270000Y-82272119D01*
X189103000Y-82272119D01*
X189103000Y-82827881D01*
X189315680Y-83341337D01*
X189708663Y-83734320D01*
X190222119Y-83947000D01*
X190777881Y-83947000D01*
X191291337Y-83734320D01*
X191684320Y-83341337D01*
X191897000Y-82827881D01*
X191897000Y-82272119D01*
X191684320Y-81758663D01*
X191291337Y-81365680D01*
X190777881Y-81153000D01*
X190222119Y-81153000D01*
X189708663Y-81365680D01*
X189315680Y-81758663D01*
X189103000Y-82272119D01*
X163270000Y-82272119D01*
X163270000Y-64632119D01*
X189103000Y-64632119D01*
X189103000Y-65187881D01*
X189315680Y-65701337D01*
X189708663Y-66094320D01*
X189891371Y-66170000D01*
X189708663Y-66245680D01*
X189315680Y-66638663D01*
X189103000Y-67152119D01*
X189103000Y-67707881D01*
X189315680Y-68221337D01*
X189708663Y-68614320D01*
X189891371Y-68690000D01*
X189708663Y-68765680D01*
X189315680Y-69158663D01*
X189103000Y-69672119D01*
X189103000Y-70227881D01*
X189315680Y-70741337D01*
X189708663Y-71134320D01*
X189891371Y-71210000D01*
X189708663Y-71285680D01*
X189315680Y-71678663D01*
X189103000Y-72192119D01*
X189103000Y-72747881D01*
X189315680Y-73261337D01*
X189708663Y-73654320D01*
X189891371Y-73730000D01*
X189708663Y-73805680D01*
X189315680Y-74198663D01*
X189103000Y-74712119D01*
X189103000Y-75267881D01*
X189315680Y-75781337D01*
X189708663Y-76174320D01*
X189891371Y-76250000D01*
X189708663Y-76325680D01*
X189315680Y-76718663D01*
X189103000Y-77232119D01*
X189103000Y-77787881D01*
X189315680Y-78301337D01*
X189708663Y-78694320D01*
X190222119Y-78907000D01*
X190777881Y-78907000D01*
X191291337Y-78694320D01*
X191684320Y-78301337D01*
X191897000Y-77787881D01*
X191897000Y-77232119D01*
X191684320Y-76718663D01*
X191291337Y-76325680D01*
X191108629Y-76250000D01*
X191291337Y-76174320D01*
X191684320Y-75781337D01*
X191897000Y-75267881D01*
X191897000Y-74712119D01*
X191684320Y-74198663D01*
X191291337Y-73805680D01*
X191108629Y-73730000D01*
X191291337Y-73654320D01*
X191684320Y-73261337D01*
X191897000Y-72747881D01*
X191897000Y-72192119D01*
X191684320Y-71678663D01*
X191291337Y-71285680D01*
X191108629Y-71210000D01*
X191291337Y-71134320D01*
X191684320Y-70741337D01*
X191897000Y-70227881D01*
X191897000Y-69672119D01*
X191684320Y-69158663D01*
X191291337Y-68765680D01*
X191108629Y-68690000D01*
X191291337Y-68614320D01*
X191684320Y-68221337D01*
X191897000Y-67707881D01*
X191897000Y-67152119D01*
X191684320Y-66638663D01*
X191291337Y-66245680D01*
X191108629Y-66170000D01*
X191291337Y-66094320D01*
X191684320Y-65701337D01*
X191897000Y-65187881D01*
X191897000Y-64632119D01*
X191684320Y-64118663D01*
X191291337Y-63725680D01*
X190777881Y-63513000D01*
X190222119Y-63513000D01*
X189708663Y-63725680D01*
X189315680Y-64118663D01*
X189103000Y-64632119D01*
X163270000Y-64632119D01*
X163270000Y-61952119D01*
X209423000Y-61952119D01*
X209423000Y-62507881D01*
X209635680Y-63021337D01*
X210028663Y-63414320D01*
X210542119Y-63627000D01*
X211097881Y-63627000D01*
X211611337Y-63414320D01*
X212004320Y-63021337D01*
X212090000Y-62814487D01*
X212175680Y-63021337D01*
X212568663Y-63414320D01*
X213082119Y-63627000D01*
X213637881Y-63627000D01*
X214151337Y-63414320D01*
X214544320Y-63021337D01*
X214630000Y-62814487D01*
X214715680Y-63021337D01*
X215108663Y-63414320D01*
X215622119Y-63627000D01*
X216177881Y-63627000D01*
X216691337Y-63414320D01*
X217084320Y-63021337D01*
X217170000Y-62814487D01*
X217255680Y-63021337D01*
X217648663Y-63414320D01*
X218162119Y-63627000D01*
X218717881Y-63627000D01*
X219231337Y-63414320D01*
X219624320Y-63021337D01*
X219710000Y-62814487D01*
X219795680Y-63021337D01*
X220188663Y-63414320D01*
X220702119Y-63627000D01*
X221257881Y-63627000D01*
X221771337Y-63414320D01*
X222164320Y-63021337D01*
X222250000Y-62814487D01*
X222335680Y-63021337D01*
X222728663Y-63414320D01*
X223242119Y-63627000D01*
X223797881Y-63627000D01*
X224311337Y-63414320D01*
X224704320Y-63021337D01*
X224790000Y-62814487D01*
X224875680Y-63021337D01*
X225268663Y-63414320D01*
X225782119Y-63627000D01*
X226337881Y-63627000D01*
X226851337Y-63414320D01*
X227244320Y-63021337D01*
X227457000Y-62507881D01*
X227457000Y-61952119D01*
X227244320Y-61438663D01*
X226851337Y-61045680D01*
X226337881Y-60833000D01*
X225782119Y-60833000D01*
X225268663Y-61045680D01*
X224875680Y-61438663D01*
X224790000Y-61645513D01*
X224704320Y-61438663D01*
X224311337Y-61045680D01*
X223797881Y-60833000D01*
X223242119Y-60833000D01*
X222728663Y-61045680D01*
X222335680Y-61438663D01*
X222250000Y-61645513D01*
X222164320Y-61438663D01*
X221771337Y-61045680D01*
X221257881Y-60833000D01*
X220702119Y-60833000D01*
X220188663Y-61045680D01*
X219795680Y-61438663D01*
X219710000Y-61645513D01*
X219624320Y-61438663D01*
X219231337Y-61045680D01*
X218717881Y-60833000D01*
X218162119Y-60833000D01*
X217648663Y-61045680D01*
X217255680Y-61438663D01*
X217170000Y-61645513D01*
X217084320Y-61438663D01*
X216691337Y-61045680D01*
X216177881Y-60833000D01*
X215622119Y-60833000D01*
X215108663Y-61045680D01*
X214715680Y-61438663D01*
X214630000Y-61645513D01*
X214544320Y-61438663D01*
X214151337Y-61045680D01*
X213637881Y-60833000D01*
X213082119Y-60833000D01*
X212568663Y-61045680D01*
X212175680Y-61438663D01*
X212090000Y-61645513D01*
X212004320Y-61438663D01*
X211611337Y-61045680D01*
X211097881Y-60833000D01*
X210542119Y-60833000D01*
X210028663Y-61045680D01*
X209635680Y-61438663D01*
X209423000Y-61952119D01*
X163270000Y-61952119D01*
X163270000Y-58137067D01*
X170027600Y-58137067D01*
X170027600Y-58702933D01*
X170244148Y-59225725D01*
X170644275Y-59625852D01*
X171167067Y-59842400D01*
X171732933Y-59842400D01*
X172255725Y-59625852D01*
X172655852Y-59225725D01*
X172720000Y-59070858D01*
X172784148Y-59225725D01*
X173184275Y-59625852D01*
X173707067Y-59842400D01*
X174272933Y-59842400D01*
X174795725Y-59625852D01*
X175195852Y-59225725D01*
X175260000Y-59070858D01*
X175324148Y-59225725D01*
X175724275Y-59625852D01*
X176247067Y-59842400D01*
X176812933Y-59842400D01*
X177335725Y-59625852D01*
X177735852Y-59225725D01*
X177800000Y-59070858D01*
X177864148Y-59225725D01*
X178264275Y-59625852D01*
X178787067Y-59842400D01*
X179352933Y-59842400D01*
X179875725Y-59625852D01*
X180275852Y-59225725D01*
X180340000Y-59070858D01*
X180404148Y-59225725D01*
X180804275Y-59625852D01*
X181327067Y-59842400D01*
X181892933Y-59842400D01*
X182415725Y-59625852D01*
X182815852Y-59225725D01*
X182880000Y-59070858D01*
X182944148Y-59225725D01*
X183344275Y-59625852D01*
X183867067Y-59842400D01*
X184432933Y-59842400D01*
X184955725Y-59625852D01*
X185355852Y-59225725D01*
X185420000Y-59070858D01*
X185484148Y-59225725D01*
X185884275Y-59625852D01*
X186407067Y-59842400D01*
X186972933Y-59842400D01*
X187495725Y-59625852D01*
X187895852Y-59225725D01*
X187960000Y-59070858D01*
X188024148Y-59225725D01*
X188424275Y-59625852D01*
X188947067Y-59842400D01*
X189512933Y-59842400D01*
X190035725Y-59625852D01*
X190435852Y-59225725D01*
X190500000Y-59070858D01*
X190564148Y-59225725D01*
X190964275Y-59625852D01*
X191487067Y-59842400D01*
X192052933Y-59842400D01*
X192575725Y-59625852D01*
X192975852Y-59225725D01*
X193040000Y-59070858D01*
X193104148Y-59225725D01*
X193504275Y-59625852D01*
X194027067Y-59842400D01*
X194592933Y-59842400D01*
X195115725Y-59625852D01*
X195515852Y-59225725D01*
X195580000Y-59070858D01*
X195644148Y-59225725D01*
X196044275Y-59625852D01*
X196567067Y-59842400D01*
X197132933Y-59842400D01*
X197655725Y-59625852D01*
X198055852Y-59225725D01*
X198120000Y-59070858D01*
X198184148Y-59225725D01*
X198584275Y-59625852D01*
X199107067Y-59842400D01*
X199672933Y-59842400D01*
X200195725Y-59625852D01*
X200595852Y-59225725D01*
X200660000Y-59070858D01*
X200724148Y-59225725D01*
X201124275Y-59625852D01*
X201647067Y-59842400D01*
X202212933Y-59842400D01*
X202735725Y-59625852D01*
X203135852Y-59225725D01*
X203352400Y-58702933D01*
X203352400Y-58137067D01*
X205587600Y-58137067D01*
X205587600Y-58702933D01*
X205804148Y-59225725D01*
X206204275Y-59625852D01*
X206727067Y-59842400D01*
X207292933Y-59842400D01*
X207815725Y-59625852D01*
X208215852Y-59225725D01*
X208432400Y-58702933D01*
X208432400Y-58137067D01*
X208215852Y-57614275D01*
X207815725Y-57214148D01*
X207292933Y-56997600D01*
X206727067Y-56997600D01*
X206204275Y-57214148D01*
X205804148Y-57614275D01*
X205587600Y-58137067D01*
X203352400Y-58137067D01*
X203135852Y-57614275D01*
X202735725Y-57214148D01*
X202212933Y-56997600D01*
X201647067Y-56997600D01*
X201124275Y-57214148D01*
X200724148Y-57614275D01*
X200660000Y-57769142D01*
X200595852Y-57614275D01*
X200195725Y-57214148D01*
X199672933Y-56997600D01*
X199107067Y-56997600D01*
X198584275Y-57214148D01*
X198184148Y-57614275D01*
X198120000Y-57769142D01*
X198055852Y-57614275D01*
X197655725Y-57214148D01*
X197132933Y-56997600D01*
X196567067Y-56997600D01*
X196044275Y-57214148D01*
X195644148Y-57614275D01*
X195580000Y-57769142D01*
X195515852Y-57614275D01*
X195115725Y-57214148D01*
X194592933Y-56997600D01*
X194027067Y-56997600D01*
X193504275Y-57214148D01*
X193104148Y-57614275D01*
X193040000Y-57769142D01*
X192975852Y-57614275D01*
X192575725Y-57214148D01*
X192052933Y-56997600D01*
X191487067Y-56997600D01*
X190964275Y-57214148D01*
X190564148Y-57614275D01*
X190500000Y-57769142D01*
X190435852Y-57614275D01*
X190035725Y-57214148D01*
X189512933Y-56997600D01*
X188947067Y-56997600D01*
X188424275Y-57214148D01*
X188024148Y-57614275D01*
X187960000Y-57769142D01*
X187895852Y-57614275D01*
X187495725Y-57214148D01*
X186972933Y-56997600D01*
X186407067Y-56997600D01*
X185884275Y-57214148D01*
X185484148Y-57614275D01*
X185420000Y-57769142D01*
X185355852Y-57614275D01*
X184955725Y-57214148D01*
X184432933Y-56997600D01*
X183867067Y-56997600D01*
X183344275Y-57214148D01*
X182944148Y-57614275D01*
X182880000Y-57769142D01*
X182815852Y-57614275D01*
X182415725Y-57214148D01*
X181892933Y-56997600D01*
X181327067Y-56997600D01*
X180804275Y-57214148D01*
X180404148Y-57614275D01*
X180340000Y-57769142D01*
X180275852Y-57614275D01*
X179875725Y-57214148D01*
X179352933Y-56997600D01*
X178787067Y-56997600D01*
X178264275Y-57214148D01*
X177864148Y-57614275D01*
X177800000Y-57769142D01*
X177735852Y-57614275D01*
X177335725Y-57214148D01*
X176812933Y-56997600D01*
X176247067Y-56997600D01*
X175724275Y-57214148D01*
X175324148Y-57614275D01*
X175260000Y-57769142D01*
X175195852Y-57614275D01*
X174795725Y-57214148D01*
X174272933Y-56997600D01*
X173707067Y-56997600D01*
X173184275Y-57214148D01*
X172784148Y-57614275D01*
X172720000Y-57769142D01*
X172655852Y-57614275D01*
X172255725Y-57214148D01*
X171732933Y-56997600D01*
X171167067Y-56997600D01*
X170644275Y-57214148D01*
X170244148Y-57614275D01*
X170027600Y-58137067D01*
X163270000Y-58137067D01*
X163270000Y-46707067D01*
X233527600Y-46707067D01*
X233527600Y-47272933D01*
X233744148Y-47795725D01*
X234144275Y-48195852D01*
X234299142Y-48260000D01*
X234144275Y-48324148D01*
X233744148Y-48724275D01*
X233527600Y-49247067D01*
X233527600Y-49812933D01*
X233744148Y-50335725D01*
X234144275Y-50735852D01*
X234299142Y-50800000D01*
X234144275Y-50864148D01*
X233744148Y-51264275D01*
X233527600Y-51787067D01*
X233527600Y-52352933D01*
X233744148Y-52875725D01*
X234144275Y-53275852D01*
X234299142Y-53340000D01*
X234144275Y-53404148D01*
X233744148Y-53804275D01*
X233527600Y-54327067D01*
X233527600Y-54892933D01*
X233744148Y-55415725D01*
X234144275Y-55815852D01*
X234299142Y-55880000D01*
X234144275Y-55944148D01*
X233744148Y-56344275D01*
X233527600Y-56867067D01*
X233527600Y-57432933D01*
X233744148Y-57955725D01*
X234144275Y-58355852D01*
X234299142Y-58420000D01*
X234144275Y-58484148D01*
X233744148Y-58884275D01*
X233527600Y-59407067D01*
X233527600Y-59972933D01*
X233744148Y-60495725D01*
X234144275Y-60895852D01*
X234299142Y-60960000D01*
X234144275Y-61024148D01*
X233744148Y-61424275D01*
X233527600Y-61947067D01*
X233527600Y-62512933D01*
X233744148Y-63035725D01*
X234144275Y-63435852D01*
X234299142Y-63500000D01*
X234144275Y-63564148D01*
X233744148Y-63964275D01*
X233527600Y-64487067D01*
X233527600Y-65052933D01*
X233744148Y-65575725D01*
X234144275Y-65975852D01*
X234299142Y-66040000D01*
X234144275Y-66104148D01*
X233744148Y-66504275D01*
X233527600Y-67027067D01*
X233527600Y-67592933D01*
X233744148Y-68115725D01*
X234144275Y-68515852D01*
X234299142Y-68580000D01*
X234144275Y-68644148D01*
X233744148Y-69044275D01*
X233527600Y-69567067D01*
X233527600Y-70132933D01*
X233744148Y-70655725D01*
X234144275Y-71055852D01*
X234299142Y-71120000D01*
X234144275Y-71184148D01*
X233744148Y-71584275D01*
X233527600Y-72107067D01*
X233527600Y-72672933D01*
X233744148Y-73195725D01*
X234144275Y-73595852D01*
X234299142Y-73660000D01*
X234144275Y-73724148D01*
X233744148Y-74124275D01*
X233527600Y-74647067D01*
X233527600Y-75212933D01*
X233744148Y-75735725D01*
X234144275Y-76135852D01*
X234299142Y-76200000D01*
X234144275Y-76264148D01*
X233744148Y-76664275D01*
X233527600Y-77187067D01*
X233527600Y-77752933D01*
X233744148Y-78275725D01*
X234144275Y-78675852D01*
X234299142Y-78740000D01*
X234144275Y-78804148D01*
X233744148Y-79204275D01*
X233527600Y-79727067D01*
X233527600Y-80292933D01*
X233744148Y-80815725D01*
X234144275Y-81215852D01*
X234299142Y-81280000D01*
X234144275Y-81344148D01*
X233744148Y-81744275D01*
X233527600Y-82267067D01*
X233527600Y-82832933D01*
X233744148Y-83355725D01*
X234144275Y-83755852D01*
X234667067Y-83972400D01*
X235232933Y-83972400D01*
X235755725Y-83755852D01*
X236155852Y-83355725D01*
X236372400Y-82832933D01*
X236372400Y-82267067D01*
X236155852Y-81744275D01*
X235755725Y-81344148D01*
X235600858Y-81280000D01*
X235755725Y-81215852D01*
X236155852Y-80815725D01*
X236372400Y-80292933D01*
X236372400Y-79727067D01*
X236155852Y-79204275D01*
X235755725Y-78804148D01*
X235600858Y-78740000D01*
X235755725Y-78675852D01*
X236155852Y-78275725D01*
X236372400Y-77752933D01*
X236372400Y-77187067D01*
X236155852Y-76664275D01*
X235755725Y-76264148D01*
X235600858Y-76200000D01*
X235755725Y-76135852D01*
X236155852Y-75735725D01*
X236372400Y-75212933D01*
X236372400Y-74647067D01*
X236155852Y-74124275D01*
X235755725Y-73724148D01*
X235600858Y-73660000D01*
X235755725Y-73595852D01*
X236155852Y-73195725D01*
X236372400Y-72672933D01*
X236372400Y-72107067D01*
X236155852Y-71584275D01*
X235755725Y-71184148D01*
X235600858Y-71120000D01*
X235755725Y-71055852D01*
X236155852Y-70655725D01*
X236372400Y-70132933D01*
X236372400Y-69567067D01*
X236155852Y-69044275D01*
X235755725Y-68644148D01*
X235600858Y-68580000D01*
X235755725Y-68515852D01*
X236155852Y-68115725D01*
X236372400Y-67592933D01*
X236372400Y-67027067D01*
X236155852Y-66504275D01*
X235755725Y-66104148D01*
X235600858Y-66040000D01*
X235755725Y-65975852D01*
X236155852Y-65575725D01*
X236372400Y-65052933D01*
X236372400Y-64487067D01*
X236155852Y-63964275D01*
X235755725Y-63564148D01*
X235600858Y-63500000D01*
X235755725Y-63435852D01*
X236155852Y-63035725D01*
X236372400Y-62512933D01*
X236372400Y-61947067D01*
X236155852Y-61424275D01*
X235755725Y-61024148D01*
X235600858Y-60960000D01*
X235755725Y-60895852D01*
X236155852Y-60495725D01*
X236372400Y-59972933D01*
X236372400Y-59407067D01*
X236155852Y-58884275D01*
X235755725Y-58484148D01*
X235600858Y-58420000D01*
X235755725Y-58355852D01*
X236155852Y-57955725D01*
X236372400Y-57432933D01*
X236372400Y-56867067D01*
X236155852Y-56344275D01*
X235755725Y-55944148D01*
X235600858Y-55880000D01*
X235755725Y-55815852D01*
X236155852Y-55415725D01*
X236372400Y-54892933D01*
X236372400Y-54327067D01*
X236155852Y-53804275D01*
X235755725Y-53404148D01*
X235600858Y-53340000D01*
X235755725Y-53275852D01*
X236155852Y-52875725D01*
X236372400Y-52352933D01*
X236372400Y-51787067D01*
X248767600Y-51787067D01*
X248767600Y-52352933D01*
X248984148Y-52875725D01*
X249384275Y-53275852D01*
X249539142Y-53340000D01*
X249384275Y-53404148D01*
X248984148Y-53804275D01*
X248767600Y-54327067D01*
X248767600Y-54892933D01*
X248984148Y-55415725D01*
X249384275Y-55815852D01*
X249539142Y-55880000D01*
X249384275Y-55944148D01*
X248984148Y-56344275D01*
X248767600Y-56867067D01*
X248767600Y-57432933D01*
X248984148Y-57955725D01*
X249384275Y-58355852D01*
X249539142Y-58420000D01*
X249384275Y-58484148D01*
X248984148Y-58884275D01*
X248767600Y-59407067D01*
X248767600Y-59972933D01*
X248984148Y-60495725D01*
X249384275Y-60895852D01*
X249539142Y-60960000D01*
X249384275Y-61024148D01*
X248984148Y-61424275D01*
X248767600Y-61947067D01*
X248767600Y-62512933D01*
X248984148Y-63035725D01*
X249384275Y-63435852D01*
X249539142Y-63500000D01*
X249384275Y-63564148D01*
X248984148Y-63964275D01*
X248767600Y-64487067D01*
X248767600Y-65052933D01*
X248984148Y-65575725D01*
X249384275Y-65975852D01*
X249539142Y-66040000D01*
X249384275Y-66104148D01*
X248984148Y-66504275D01*
X248767600Y-67027067D01*
X248767600Y-67592933D01*
X248984148Y-68115725D01*
X249384275Y-68515852D01*
X249539142Y-68580000D01*
X249384275Y-68644148D01*
X248984148Y-69044275D01*
X248767600Y-69567067D01*
X248767600Y-70132933D01*
X248984148Y-70655725D01*
X249384275Y-71055852D01*
X249539142Y-71120000D01*
X249384275Y-71184148D01*
X248984148Y-71584275D01*
X248767600Y-72107067D01*
X248767600Y-72672933D01*
X248984148Y-73195725D01*
X249384275Y-73595852D01*
X249539142Y-73660000D01*
X249384275Y-73724148D01*
X248984148Y-74124275D01*
X248767600Y-74647067D01*
X248767600Y-75212933D01*
X248984148Y-75735725D01*
X249384275Y-76135852D01*
X249539142Y-76200000D01*
X249384275Y-76264148D01*
X248984148Y-76664275D01*
X248767600Y-77187067D01*
X248767600Y-77752933D01*
X248984148Y-78275725D01*
X249384275Y-78675852D01*
X249539142Y-78740000D01*
X249384275Y-78804148D01*
X248984148Y-79204275D01*
X248767600Y-79727067D01*
X248767600Y-80292933D01*
X248984148Y-80815725D01*
X249384275Y-81215852D01*
X249539142Y-81280000D01*
X249384275Y-81344148D01*
X248984148Y-81744275D01*
X248767600Y-82267067D01*
X248767600Y-82832933D01*
X248984148Y-83355725D01*
X249384275Y-83755852D01*
X249907067Y-83972400D01*
X250472933Y-83972400D01*
X250995725Y-83755852D01*
X251395852Y-83355725D01*
X251612400Y-82832933D01*
X251612400Y-82267067D01*
X251395852Y-81744275D01*
X250995725Y-81344148D01*
X250840858Y-81280000D01*
X250995725Y-81215852D01*
X251395852Y-80815725D01*
X251612400Y-80292933D01*
X251612400Y-79727067D01*
X251395852Y-79204275D01*
X250995725Y-78804148D01*
X250840858Y-78740000D01*
X250995725Y-78675852D01*
X251395852Y-78275725D01*
X251612400Y-77752933D01*
X251612400Y-77187067D01*
X251395852Y-76664275D01*
X250995725Y-76264148D01*
X250840858Y-76200000D01*
X250995725Y-76135852D01*
X251395852Y-75735725D01*
X251612400Y-75212933D01*
X251612400Y-74647067D01*
X251395852Y-74124275D01*
X250995725Y-73724148D01*
X250840858Y-73660000D01*
X250995725Y-73595852D01*
X251395852Y-73195725D01*
X251612400Y-72672933D01*
X251612400Y-72107067D01*
X251395852Y-71584275D01*
X250995725Y-71184148D01*
X250840858Y-71120000D01*
X250995725Y-71055852D01*
X251395852Y-70655725D01*
X251612400Y-70132933D01*
X251612400Y-69567067D01*
X251395852Y-69044275D01*
X250995725Y-68644148D01*
X250840858Y-68580000D01*
X250995725Y-68515852D01*
X251395852Y-68115725D01*
X251612400Y-67592933D01*
X251612400Y-67027067D01*
X251395852Y-66504275D01*
X250995725Y-66104148D01*
X250840858Y-66040000D01*
X250995725Y-65975852D01*
X251395852Y-65575725D01*
X251612400Y-65052933D01*
X251612400Y-64487067D01*
X251395852Y-63964275D01*
X250995725Y-63564148D01*
X250840858Y-63500000D01*
X250995725Y-63435852D01*
X251395852Y-63035725D01*
X251612400Y-62512933D01*
X251612400Y-61947067D01*
X251395852Y-61424275D01*
X250995725Y-61024148D01*
X250840858Y-60960000D01*
X250995725Y-60895852D01*
X251395852Y-60495725D01*
X251612400Y-59972933D01*
X251612400Y-59407067D01*
X251395852Y-58884275D01*
X250995725Y-58484148D01*
X250840858Y-58420000D01*
X250995725Y-58355852D01*
X251395852Y-57955725D01*
X251612400Y-57432933D01*
X251612400Y-56867067D01*
X251395852Y-56344275D01*
X250995725Y-55944148D01*
X250840858Y-55880000D01*
X250995725Y-55815852D01*
X251395852Y-55415725D01*
X251612400Y-54892933D01*
X251612400Y-54327067D01*
X251395852Y-53804275D01*
X250995725Y-53404148D01*
X250840858Y-53340000D01*
X250995725Y-53275852D01*
X251395852Y-52875725D01*
X251612400Y-52352933D01*
X251612400Y-51787067D01*
X251395852Y-51264275D01*
X250995725Y-50864148D01*
X250472933Y-50647600D01*
X249907067Y-50647600D01*
X249384275Y-50864148D01*
X248984148Y-51264275D01*
X248767600Y-51787067D01*
X236372400Y-51787067D01*
X236155852Y-51264275D01*
X235755725Y-50864148D01*
X235600858Y-50800000D01*
X235755725Y-50735852D01*
X236155852Y-50335725D01*
X236372400Y-49812933D01*
X236372400Y-49247067D01*
X236155852Y-48724275D01*
X235755725Y-48324148D01*
X235600858Y-48260000D01*
X235755725Y-48195852D01*
X236155852Y-47795725D01*
X236372400Y-47272933D01*
X236372400Y-46707067D01*
X248767600Y-46707067D01*
X248767600Y-47272933D01*
X248984148Y-47795725D01*
X249384275Y-48195852D01*
X249907067Y-48412400D01*
X250472933Y-48412400D01*
X250995725Y-48195852D01*
X251395852Y-47795725D01*
X251612400Y-47272933D01*
X251612400Y-46707067D01*
X251395852Y-46184275D01*
X250995725Y-45784148D01*
X250472933Y-45567600D01*
X249907067Y-45567600D01*
X249384275Y-45784148D01*
X248984148Y-46184275D01*
X248767600Y-46707067D01*
X236372400Y-46707067D01*
X236155852Y-46184275D01*
X235755725Y-45784148D01*
X235232933Y-45567600D01*
X234667067Y-45567600D01*
X234144275Y-45784148D01*
X233744148Y-46184275D01*
X233527600Y-46707067D01*
X163270000Y-46707067D01*
X163270000Y-41910000D01*
X163585908Y-41910000D01*
X163701161Y-42489418D01*
X164029375Y-42980625D01*
X164520582Y-43308839D01*
X164953744Y-43395000D01*
X165246256Y-43395000D01*
X165679418Y-43308839D01*
X166170625Y-42980625D01*
X166226456Y-42897067D01*
X170027600Y-42897067D01*
X170027600Y-43462933D01*
X170244148Y-43985725D01*
X170644275Y-44385852D01*
X171167067Y-44602400D01*
X171732933Y-44602400D01*
X172255725Y-44385852D01*
X172655852Y-43985725D01*
X172720000Y-43830858D01*
X172784148Y-43985725D01*
X173184275Y-44385852D01*
X173707067Y-44602400D01*
X174272933Y-44602400D01*
X174795725Y-44385852D01*
X175195852Y-43985725D01*
X175260000Y-43830858D01*
X175324148Y-43985725D01*
X175724275Y-44385852D01*
X176247067Y-44602400D01*
X176812933Y-44602400D01*
X177335725Y-44385852D01*
X177735852Y-43985725D01*
X177800000Y-43830858D01*
X177864148Y-43985725D01*
X178264275Y-44385852D01*
X178787067Y-44602400D01*
X179352933Y-44602400D01*
X179875725Y-44385852D01*
X180275852Y-43985725D01*
X180340000Y-43830858D01*
X180404148Y-43985725D01*
X180804275Y-44385852D01*
X181327067Y-44602400D01*
X181892933Y-44602400D01*
X182415725Y-44385852D01*
X182815852Y-43985725D01*
X182880000Y-43830858D01*
X182944148Y-43985725D01*
X183344275Y-44385852D01*
X183867067Y-44602400D01*
X184432933Y-44602400D01*
X184955725Y-44385852D01*
X185355852Y-43985725D01*
X185420000Y-43830858D01*
X185484148Y-43985725D01*
X185884275Y-44385852D01*
X186407067Y-44602400D01*
X186972933Y-44602400D01*
X187495725Y-44385852D01*
X187895852Y-43985725D01*
X187960000Y-43830858D01*
X188024148Y-43985725D01*
X188424275Y-44385852D01*
X188947067Y-44602400D01*
X189512933Y-44602400D01*
X190035725Y-44385852D01*
X190435852Y-43985725D01*
X190500000Y-43830858D01*
X190564148Y-43985725D01*
X190964275Y-44385852D01*
X191487067Y-44602400D01*
X192052933Y-44602400D01*
X192575725Y-44385852D01*
X192975852Y-43985725D01*
X193040000Y-43830858D01*
X193104148Y-43985725D01*
X193504275Y-44385852D01*
X194027067Y-44602400D01*
X194592933Y-44602400D01*
X195115725Y-44385852D01*
X195515852Y-43985725D01*
X195580000Y-43830858D01*
X195644148Y-43985725D01*
X196044275Y-44385852D01*
X196567067Y-44602400D01*
X197132933Y-44602400D01*
X197655725Y-44385852D01*
X198055852Y-43985725D01*
X198120000Y-43830858D01*
X198184148Y-43985725D01*
X198584275Y-44385852D01*
X199107067Y-44602400D01*
X199672933Y-44602400D01*
X200195725Y-44385852D01*
X200595852Y-43985725D01*
X200660000Y-43830858D01*
X200724148Y-43985725D01*
X201124275Y-44385852D01*
X201647067Y-44602400D01*
X202212933Y-44602400D01*
X202735725Y-44385852D01*
X203135852Y-43985725D01*
X203200000Y-43830858D01*
X203264148Y-43985725D01*
X203664275Y-44385852D01*
X204187067Y-44602400D01*
X204752933Y-44602400D01*
X205275725Y-44385852D01*
X205675852Y-43985725D01*
X205740000Y-43830858D01*
X205804148Y-43985725D01*
X206204275Y-44385852D01*
X206727067Y-44602400D01*
X207292933Y-44602400D01*
X207660858Y-44450000D01*
X216925908Y-44450000D01*
X217041161Y-45029418D01*
X217369375Y-45520625D01*
X217860582Y-45848839D01*
X218293744Y-45935000D01*
X218586256Y-45935000D01*
X219019418Y-45848839D01*
X219510625Y-45520625D01*
X219838839Y-45029418D01*
X219954092Y-44450000D01*
X222005908Y-44450000D01*
X222121161Y-45029418D01*
X222449375Y-45520625D01*
X222940582Y-45848839D01*
X223373744Y-45935000D01*
X223666256Y-45935000D01*
X224099418Y-45848839D01*
X224590625Y-45520625D01*
X224790000Y-45222239D01*
X224989375Y-45520625D01*
X225480582Y-45848839D01*
X225913744Y-45935000D01*
X226206256Y-45935000D01*
X226639418Y-45848839D01*
X227130625Y-45520625D01*
X227142816Y-45502381D01*
X227151843Y-45547765D01*
X227292191Y-45757809D01*
X227502235Y-45898157D01*
X227750000Y-45947440D01*
X229450000Y-45947440D01*
X229697765Y-45898157D01*
X229907809Y-45757809D01*
X230048157Y-45547765D01*
X230097440Y-45300000D01*
X230097440Y-43600000D01*
X230048157Y-43352235D01*
X229907809Y-43142191D01*
X229697765Y-43001843D01*
X229450000Y-42952560D01*
X227750000Y-42952560D01*
X227502235Y-43001843D01*
X227292191Y-43142191D01*
X227151843Y-43352235D01*
X227142816Y-43397619D01*
X227130625Y-43379375D01*
X226639418Y-43051161D01*
X226206256Y-42965000D01*
X225913744Y-42965000D01*
X225480582Y-43051161D01*
X224989375Y-43379375D01*
X224790000Y-43677761D01*
X224590625Y-43379375D01*
X224099418Y-43051161D01*
X223666256Y-42965000D01*
X223373744Y-42965000D01*
X222940582Y-43051161D01*
X222449375Y-43379375D01*
X222121161Y-43870582D01*
X222005908Y-44450000D01*
X219954092Y-44450000D01*
X219838839Y-43870582D01*
X219510625Y-43379375D01*
X219019418Y-43051161D01*
X218586256Y-42965000D01*
X218293744Y-42965000D01*
X217860582Y-43051161D01*
X217369375Y-43379375D01*
X217041161Y-43870582D01*
X216925908Y-44450000D01*
X207660858Y-44450000D01*
X207815725Y-44385852D01*
X208215852Y-43985725D01*
X208432400Y-43462933D01*
X208432400Y-42897067D01*
X208215852Y-42374275D01*
X207815725Y-41974148D01*
X207292933Y-41757600D01*
X206727067Y-41757600D01*
X206204275Y-41974148D01*
X205804148Y-42374275D01*
X205740000Y-42529142D01*
X205675852Y-42374275D01*
X205275725Y-41974148D01*
X204752933Y-41757600D01*
X204187067Y-41757600D01*
X203664275Y-41974148D01*
X203264148Y-42374275D01*
X203200000Y-42529142D01*
X203135852Y-42374275D01*
X202735725Y-41974148D01*
X202212933Y-41757600D01*
X201647067Y-41757600D01*
X201124275Y-41974148D01*
X200724148Y-42374275D01*
X200660000Y-42529142D01*
X200595852Y-42374275D01*
X200195725Y-41974148D01*
X199672933Y-41757600D01*
X199107067Y-41757600D01*
X198584275Y-41974148D01*
X198184148Y-42374275D01*
X198120000Y-42529142D01*
X198055852Y-42374275D01*
X197655725Y-41974148D01*
X197132933Y-41757600D01*
X196567067Y-41757600D01*
X196044275Y-41974148D01*
X195644148Y-42374275D01*
X195580000Y-42529142D01*
X195515852Y-42374275D01*
X195115725Y-41974148D01*
X194592933Y-41757600D01*
X194027067Y-41757600D01*
X193504275Y-41974148D01*
X193104148Y-42374275D01*
X193040000Y-42529142D01*
X192975852Y-42374275D01*
X192575725Y-41974148D01*
X192052933Y-41757600D01*
X191487067Y-41757600D01*
X190964275Y-41974148D01*
X190564148Y-42374275D01*
X190500000Y-42529142D01*
X190435852Y-42374275D01*
X190035725Y-41974148D01*
X189512933Y-41757600D01*
X188947067Y-41757600D01*
X188424275Y-41974148D01*
X188024148Y-42374275D01*
X187960000Y-42529142D01*
X187895852Y-42374275D01*
X187495725Y-41974148D01*
X186972933Y-41757600D01*
X186407067Y-41757600D01*
X185884275Y-41974148D01*
X185484148Y-42374275D01*
X185420000Y-42529142D01*
X185355852Y-42374275D01*
X184955725Y-41974148D01*
X184432933Y-41757600D01*
X183867067Y-41757600D01*
X183344275Y-41974148D01*
X182944148Y-42374275D01*
X182880000Y-42529142D01*
X182815852Y-42374275D01*
X182415725Y-41974148D01*
X181892933Y-41757600D01*
X181327067Y-41757600D01*
X180804275Y-41974148D01*
X180404148Y-42374275D01*
X180340000Y-42529142D01*
X180275852Y-42374275D01*
X179875725Y-41974148D01*
X179352933Y-41757600D01*
X178787067Y-41757600D01*
X178264275Y-41974148D01*
X177864148Y-42374275D01*
X177800000Y-42529142D01*
X177735852Y-42374275D01*
X177335725Y-41974148D01*
X176812933Y-41757600D01*
X176247067Y-41757600D01*
X175724275Y-41974148D01*
X175324148Y-42374275D01*
X175260000Y-42529142D01*
X175195852Y-42374275D01*
X174795725Y-41974148D01*
X174272933Y-41757600D01*
X173707067Y-41757600D01*
X173184275Y-41974148D01*
X172784148Y-42374275D01*
X172720000Y-42529142D01*
X172655852Y-42374275D01*
X172255725Y-41974148D01*
X171732933Y-41757600D01*
X171167067Y-41757600D01*
X170644275Y-41974148D01*
X170244148Y-42374275D01*
X170027600Y-42897067D01*
X166226456Y-42897067D01*
X166498839Y-42489418D01*
X166614092Y-41910000D01*
X166498839Y-41330582D01*
X166170625Y-40839375D01*
X166152381Y-40827184D01*
X166197765Y-40818157D01*
X166407809Y-40677809D01*
X166548157Y-40467765D01*
X166597440Y-40220000D01*
X166597440Y-39087067D01*
X170027600Y-39087067D01*
X170027600Y-39652933D01*
X170244148Y-40175725D01*
X170644275Y-40575852D01*
X171167067Y-40792400D01*
X171732933Y-40792400D01*
X172255725Y-40575852D01*
X172655852Y-40175725D01*
X172720000Y-40020858D01*
X172784148Y-40175725D01*
X173184275Y-40575852D01*
X173707067Y-40792400D01*
X174272933Y-40792400D01*
X174795725Y-40575852D01*
X175195852Y-40175725D01*
X175260000Y-40020858D01*
X175324148Y-40175725D01*
X175724275Y-40575852D01*
X176247067Y-40792400D01*
X176812933Y-40792400D01*
X177335725Y-40575852D01*
X177735852Y-40175725D01*
X177800000Y-40020858D01*
X177864148Y-40175725D01*
X178264275Y-40575852D01*
X178787067Y-40792400D01*
X179352933Y-40792400D01*
X179875725Y-40575852D01*
X180275852Y-40175725D01*
X180340000Y-40020858D01*
X180404148Y-40175725D01*
X180804275Y-40575852D01*
X181327067Y-40792400D01*
X181892933Y-40792400D01*
X182415725Y-40575852D01*
X182815852Y-40175725D01*
X182880000Y-40020858D01*
X182944148Y-40175725D01*
X183344275Y-40575852D01*
X183867067Y-40792400D01*
X184432933Y-40792400D01*
X184955725Y-40575852D01*
X185355852Y-40175725D01*
X185420000Y-40020858D01*
X185484148Y-40175725D01*
X185884275Y-40575852D01*
X186407067Y-40792400D01*
X186972933Y-40792400D01*
X187495725Y-40575852D01*
X187895852Y-40175725D01*
X187960000Y-40020858D01*
X188024148Y-40175725D01*
X188424275Y-40575852D01*
X188947067Y-40792400D01*
X189512933Y-40792400D01*
X190035725Y-40575852D01*
X190435852Y-40175725D01*
X190500000Y-40020858D01*
X190564148Y-40175725D01*
X190964275Y-40575852D01*
X191487067Y-40792400D01*
X192052933Y-40792400D01*
X192575725Y-40575852D01*
X192975852Y-40175725D01*
X193040000Y-40020858D01*
X193104148Y-40175725D01*
X193504275Y-40575852D01*
X194027067Y-40792400D01*
X194592933Y-40792400D01*
X195115725Y-40575852D01*
X195515852Y-40175725D01*
X195580000Y-40020858D01*
X195644148Y-40175725D01*
X196044275Y-40575852D01*
X196567067Y-40792400D01*
X197132933Y-40792400D01*
X197655725Y-40575852D01*
X198055852Y-40175725D01*
X198120000Y-40020858D01*
X198184148Y-40175725D01*
X198584275Y-40575852D01*
X199107067Y-40792400D01*
X199672933Y-40792400D01*
X200195725Y-40575852D01*
X200595852Y-40175725D01*
X200660000Y-40020858D01*
X200724148Y-40175725D01*
X201124275Y-40575852D01*
X201647067Y-40792400D01*
X202212933Y-40792400D01*
X202735725Y-40575852D01*
X203135852Y-40175725D01*
X203352400Y-39652933D01*
X203352400Y-39087067D01*
X205587600Y-39087067D01*
X205587600Y-39652933D01*
X205804148Y-40175725D01*
X206204275Y-40575852D01*
X206727067Y-40792400D01*
X207292933Y-40792400D01*
X207815725Y-40575852D01*
X208215852Y-40175725D01*
X208432400Y-39652933D01*
X208432400Y-39087067D01*
X208215852Y-38564275D01*
X207815725Y-38164148D01*
X207292933Y-37947600D01*
X206727067Y-37947600D01*
X206204275Y-38164148D01*
X205804148Y-38564275D01*
X205587600Y-39087067D01*
X203352400Y-39087067D01*
X203135852Y-38564275D01*
X202735725Y-38164148D01*
X202212933Y-37947600D01*
X201647067Y-37947600D01*
X201124275Y-38164148D01*
X200724148Y-38564275D01*
X200660000Y-38719142D01*
X200595852Y-38564275D01*
X200195725Y-38164148D01*
X199672933Y-37947600D01*
X199107067Y-37947600D01*
X198584275Y-38164148D01*
X198184148Y-38564275D01*
X198120000Y-38719142D01*
X198055852Y-38564275D01*
X197655725Y-38164148D01*
X197132933Y-37947600D01*
X196567067Y-37947600D01*
X196044275Y-38164148D01*
X195644148Y-38564275D01*
X195580000Y-38719142D01*
X195515852Y-38564275D01*
X195115725Y-38164148D01*
X194592933Y-37947600D01*
X194027067Y-37947600D01*
X193504275Y-38164148D01*
X193104148Y-38564275D01*
X193040000Y-38719142D01*
X192975852Y-38564275D01*
X192575725Y-38164148D01*
X192052933Y-37947600D01*
X191487067Y-37947600D01*
X190964275Y-38164148D01*
X190564148Y-38564275D01*
X190500000Y-38719142D01*
X190435852Y-38564275D01*
X190035725Y-38164148D01*
X189512933Y-37947600D01*
X188947067Y-37947600D01*
X188424275Y-38164148D01*
X188024148Y-38564275D01*
X187960000Y-38719142D01*
X187895852Y-38564275D01*
X187495725Y-38164148D01*
X186972933Y-37947600D01*
X186407067Y-37947600D01*
X185884275Y-38164148D01*
X185484148Y-38564275D01*
X185420000Y-38719142D01*
X185355852Y-38564275D01*
X184955725Y-38164148D01*
X184432933Y-37947600D01*
X183867067Y-37947600D01*
X183344275Y-38164148D01*
X182944148Y-38564275D01*
X182880000Y-38719142D01*
X182815852Y-38564275D01*
X182415725Y-38164148D01*
X181892933Y-37947600D01*
X181327067Y-37947600D01*
X180804275Y-38164148D01*
X180404148Y-38564275D01*
X180340000Y-38719142D01*
X180275852Y-38564275D01*
X179875725Y-38164148D01*
X179352933Y-37947600D01*
X178787067Y-37947600D01*
X178264275Y-38164148D01*
X177864148Y-38564275D01*
X177800000Y-38719142D01*
X177735852Y-38564275D01*
X177335725Y-38164148D01*
X176812933Y-37947600D01*
X176247067Y-37947600D01*
X175724275Y-38164148D01*
X175324148Y-38564275D01*
X175260000Y-38719142D01*
X175195852Y-38564275D01*
X174795725Y-38164148D01*
X174272933Y-37947600D01*
X173707067Y-37947600D01*
X173184275Y-38164148D01*
X172784148Y-38564275D01*
X172720000Y-38719142D01*
X172655852Y-38564275D01*
X172255725Y-38164148D01*
X171732933Y-37947600D01*
X171167067Y-37947600D01*
X170644275Y-38164148D01*
X170244148Y-38564275D01*
X170027600Y-39087067D01*
X166597440Y-39087067D01*
X166597440Y-38520000D01*
X166548157Y-38272235D01*
X166407809Y-38062191D01*
X166197765Y-37921843D01*
X165950000Y-37872560D01*
X164250000Y-37872560D01*
X164002235Y-37921843D01*
X163792191Y-38062191D01*
X163651843Y-38272235D01*
X163602560Y-38520000D01*
X163602560Y-40220000D01*
X163651843Y-40467765D01*
X163792191Y-40677809D01*
X164002235Y-40818157D01*
X164047619Y-40827184D01*
X164029375Y-40839375D01*
X163701161Y-41330582D01*
X163585908Y-41910000D01*
X163270000Y-41910000D01*
X163270000Y-37154887D01*
X231055000Y-37154887D01*
X231055000Y-37845113D01*
X231319138Y-38482799D01*
X231807201Y-38970862D01*
X232444887Y-39235000D01*
X233135113Y-39235000D01*
X233772799Y-38970862D01*
X234260862Y-38482799D01*
X234525000Y-37845113D01*
X234525000Y-37154887D01*
X234260862Y-36517201D01*
X233772799Y-36029138D01*
X233135113Y-35765000D01*
X232444887Y-35765000D01*
X231807201Y-36029138D01*
X231319138Y-36517201D01*
X231055000Y-37154887D01*
X163270000Y-37154887D01*
X163270000Y-30480000D01*
X216925908Y-30480000D01*
X217041161Y-31059418D01*
X217369375Y-31550625D01*
X217860582Y-31878839D01*
X218293744Y-31965000D01*
X218586256Y-31965000D01*
X219019418Y-31878839D01*
X219510625Y-31550625D01*
X219838839Y-31059418D01*
X219954092Y-30480000D01*
X248675908Y-30480000D01*
X248791161Y-31059418D01*
X249119375Y-31550625D01*
X249417761Y-31750000D01*
X249119375Y-31949375D01*
X248791161Y-32440582D01*
X248675908Y-33020000D01*
X248791161Y-33599418D01*
X249119375Y-34090625D01*
X249610582Y-34418839D01*
X250043744Y-34505000D01*
X250336256Y-34505000D01*
X250769418Y-34418839D01*
X251260625Y-34090625D01*
X251588839Y-33599418D01*
X251704092Y-33020000D01*
X251588839Y-32440582D01*
X251260625Y-31949375D01*
X250962239Y-31750000D01*
X251260625Y-31550625D01*
X251588839Y-31059418D01*
X251704092Y-30480000D01*
X251588839Y-29900582D01*
X251260625Y-29409375D01*
X251242381Y-29397184D01*
X251287765Y-29388157D01*
X251497809Y-29247809D01*
X251638157Y-29037765D01*
X251687440Y-28790000D01*
X251687440Y-27090000D01*
X251638157Y-26842235D01*
X251497809Y-26632191D01*
X251287765Y-26491843D01*
X251040000Y-26442560D01*
X249340000Y-26442560D01*
X249092235Y-26491843D01*
X248882191Y-26632191D01*
X248741843Y-26842235D01*
X248692560Y-27090000D01*
X248692560Y-28790000D01*
X248741843Y-29037765D01*
X248882191Y-29247809D01*
X249092235Y-29388157D01*
X249137619Y-29397184D01*
X249119375Y-29409375D01*
X248791161Y-29900582D01*
X248675908Y-30480000D01*
X219954092Y-30480000D01*
X219838839Y-29900582D01*
X219510625Y-29409375D01*
X219492381Y-29397184D01*
X219537765Y-29388157D01*
X219747809Y-29247809D01*
X219888157Y-29037765D01*
X219937440Y-28790000D01*
X219937440Y-27222119D01*
X223393000Y-27222119D01*
X223393000Y-27777881D01*
X223605680Y-28291337D01*
X223998663Y-28684320D01*
X224512119Y-28897000D01*
X225067881Y-28897000D01*
X225581337Y-28684320D01*
X225974320Y-28291337D01*
X226187000Y-27777881D01*
X226187000Y-27222119D01*
X234393000Y-27222119D01*
X234393000Y-27777881D01*
X234605680Y-28291337D01*
X234998663Y-28684320D01*
X235512119Y-28897000D01*
X236067881Y-28897000D01*
X236581337Y-28684320D01*
X236974320Y-28291337D01*
X237187000Y-27777881D01*
X237187000Y-27222119D01*
X236974320Y-26708663D01*
X236581337Y-26315680D01*
X236067881Y-26103000D01*
X235512119Y-26103000D01*
X234998663Y-26315680D01*
X234605680Y-26708663D01*
X234393000Y-27222119D01*
X226187000Y-27222119D01*
X225974320Y-26708663D01*
X225581337Y-26315680D01*
X225067881Y-26103000D01*
X224512119Y-26103000D01*
X223998663Y-26315680D01*
X223605680Y-26708663D01*
X223393000Y-27222119D01*
X219937440Y-27222119D01*
X219937440Y-27090000D01*
X219888157Y-26842235D01*
X219747809Y-26632191D01*
X219537765Y-26491843D01*
X219290000Y-26442560D01*
X217590000Y-26442560D01*
X217342235Y-26491843D01*
X217132191Y-26632191D01*
X216991843Y-26842235D01*
X216942560Y-27090000D01*
X216942560Y-28790000D01*
X216991843Y-29037765D01*
X217132191Y-29247809D01*
X217342235Y-29388157D01*
X217387619Y-29397184D01*
X217369375Y-29409375D01*
X217041161Y-29900582D01*
X216925908Y-30480000D01*
X163270000Y-30480000D01*
X163270000Y-23847067D01*
X170027600Y-23847067D01*
X170027600Y-24412933D01*
X170244148Y-24935725D01*
X170644275Y-25335852D01*
X171167067Y-25552400D01*
X171732933Y-25552400D01*
X172255725Y-25335852D01*
X172655852Y-24935725D01*
X172720000Y-24780858D01*
X172784148Y-24935725D01*
X173184275Y-25335852D01*
X173707067Y-25552400D01*
X174272933Y-25552400D01*
X174795725Y-25335852D01*
X175195852Y-24935725D01*
X175260000Y-24780858D01*
X175324148Y-24935725D01*
X175724275Y-25335852D01*
X176247067Y-25552400D01*
X176812933Y-25552400D01*
X177335725Y-25335852D01*
X177735852Y-24935725D01*
X177800000Y-24780858D01*
X177864148Y-24935725D01*
X178264275Y-25335852D01*
X178787067Y-25552400D01*
X179352933Y-25552400D01*
X179875725Y-25335852D01*
X180275852Y-24935725D01*
X180340000Y-24780858D01*
X180404148Y-24935725D01*
X180804275Y-25335852D01*
X181327067Y-25552400D01*
X181892933Y-25552400D01*
X182415725Y-25335852D01*
X182815852Y-24935725D01*
X182880000Y-24780858D01*
X182944148Y-24935725D01*
X183344275Y-25335852D01*
X183867067Y-25552400D01*
X184432933Y-25552400D01*
X184955725Y-25335852D01*
X185355852Y-24935725D01*
X185420000Y-24780858D01*
X185484148Y-24935725D01*
X185884275Y-25335852D01*
X186407067Y-25552400D01*
X186972933Y-25552400D01*
X187495725Y-25335852D01*
X187895852Y-24935725D01*
X187960000Y-24780858D01*
X188024148Y-24935725D01*
X188424275Y-25335852D01*
X188947067Y-25552400D01*
X189512933Y-25552400D01*
X190035725Y-25335852D01*
X190435852Y-24935725D01*
X190500000Y-24780858D01*
X190564148Y-24935725D01*
X190964275Y-25335852D01*
X191487067Y-25552400D01*
X192052933Y-25552400D01*
X192575725Y-25335852D01*
X192975852Y-24935725D01*
X193040000Y-24780858D01*
X193104148Y-24935725D01*
X193504275Y-25335852D01*
X194027067Y-25552400D01*
X194592933Y-25552400D01*
X195115725Y-25335852D01*
X195515852Y-24935725D01*
X195580000Y-24780858D01*
X195644148Y-24935725D01*
X196044275Y-25335852D01*
X196567067Y-25552400D01*
X197132933Y-25552400D01*
X197655725Y-25335852D01*
X198055852Y-24935725D01*
X198120000Y-24780858D01*
X198184148Y-24935725D01*
X198584275Y-25335852D01*
X199107067Y-25552400D01*
X199672933Y-25552400D01*
X200195725Y-25335852D01*
X200595852Y-24935725D01*
X200660000Y-24780858D01*
X200724148Y-24935725D01*
X201124275Y-25335852D01*
X201647067Y-25552400D01*
X202212933Y-25552400D01*
X202735725Y-25335852D01*
X203135852Y-24935725D01*
X203200000Y-24780858D01*
X203264148Y-24935725D01*
X203664275Y-25335852D01*
X204187067Y-25552400D01*
X204752933Y-25552400D01*
X205275725Y-25335852D01*
X205675852Y-24935725D01*
X205740000Y-24780858D01*
X205804148Y-24935725D01*
X206204275Y-25335852D01*
X206727067Y-25552400D01*
X207292933Y-25552400D01*
X207815725Y-25335852D01*
X208215852Y-24935725D01*
X208432400Y-24412933D01*
X208432400Y-23847067D01*
X208215852Y-23324275D01*
X207815725Y-22924148D01*
X207292933Y-22707600D01*
X206727067Y-22707600D01*
X206204275Y-22924148D01*
X205804148Y-23324275D01*
X205740000Y-23479142D01*
X205675852Y-23324275D01*
X205275725Y-22924148D01*
X204752933Y-22707600D01*
X204187067Y-22707600D01*
X203664275Y-22924148D01*
X203264148Y-23324275D01*
X203200000Y-23479142D01*
X203135852Y-23324275D01*
X202735725Y-22924148D01*
X202212933Y-22707600D01*
X201647067Y-22707600D01*
X201124275Y-22924148D01*
X200724148Y-23324275D01*
X200660000Y-23479142D01*
X200595852Y-23324275D01*
X200195725Y-22924148D01*
X199672933Y-22707600D01*
X199107067Y-22707600D01*
X198584275Y-22924148D01*
X198184148Y-23324275D01*
X198120000Y-23479142D01*
X198055852Y-23324275D01*
X197655725Y-22924148D01*
X197132933Y-22707600D01*
X196567067Y-22707600D01*
X196044275Y-22924148D01*
X195644148Y-23324275D01*
X195580000Y-23479142D01*
X195515852Y-23324275D01*
X195115725Y-22924148D01*
X194592933Y-22707600D01*
X194027067Y-22707600D01*
X193504275Y-22924148D01*
X193104148Y-23324275D01*
X193040000Y-23479142D01*
X192975852Y-23324275D01*
X192575725Y-22924148D01*
X192052933Y-22707600D01*
X191487067Y-22707600D01*
X190964275Y-22924148D01*
X190564148Y-23324275D01*
X190500000Y-23479142D01*
X190435852Y-23324275D01*
X190035725Y-22924148D01*
X189512933Y-22707600D01*
X188947067Y-22707600D01*
X188424275Y-22924148D01*
X188024148Y-23324275D01*
X187960000Y-23479142D01*
X187895852Y-23324275D01*
X187495725Y-22924148D01*
X186972933Y-22707600D01*
X186407067Y-22707600D01*
X185884275Y-22924148D01*
X185484148Y-23324275D01*
X185420000Y-23479142D01*
X185355852Y-23324275D01*
X184955725Y-22924148D01*
X184432933Y-22707600D01*
X183867067Y-22707600D01*
X183344275Y-22924148D01*
X182944148Y-23324275D01*
X182880000Y-23479142D01*
X182815852Y-23324275D01*
X182415725Y-22924148D01*
X181892933Y-22707600D01*
X181327067Y-22707600D01*
X180804275Y-22924148D01*
X180404148Y-23324275D01*
X180340000Y-23479142D01*
X180275852Y-23324275D01*
X179875725Y-22924148D01*
X179352933Y-22707600D01*
X178787067Y-22707600D01*
X178264275Y-22924148D01*
X177864148Y-23324275D01*
X177800000Y-23479142D01*
X177735852Y-23324275D01*
X177335725Y-22924148D01*
X176812933Y-22707600D01*
X176247067Y-22707600D01*
X175724275Y-22924148D01*
X175324148Y-23324275D01*
X175260000Y-23479142D01*
X175195852Y-23324275D01*
X174795725Y-22924148D01*
X174272933Y-22707600D01*
X173707067Y-22707600D01*
X173184275Y-22924148D01*
X172784148Y-23324275D01*
X172720000Y-23479142D01*
X172655852Y-23324275D01*
X172255725Y-22924148D01*
X171732933Y-22707600D01*
X171167067Y-22707600D01*
X170644275Y-22924148D01*
X170244148Y-23324275D01*
X170027600Y-23847067D01*
X163270000Y-23847067D01*
X163270000Y-22300000D01*
X254560000Y-22300000D01*
X254560001Y-88190000D01*
X254560001Y-88190000D01*
G37*
X254560001Y-88190000D02*
X163270000Y-88190000D01*
X163270000Y-84812119D01*
X209423000Y-84812119D01*
X209423000Y-85367881D01*
X209635680Y-85881337D01*
X210028663Y-86274320D01*
X210542119Y-86487000D01*
X211097881Y-86487000D01*
X211611337Y-86274320D01*
X212004320Y-85881337D01*
X212090000Y-85674487D01*
X212175680Y-85881337D01*
X212568663Y-86274320D01*
X213082119Y-86487000D01*
X213637881Y-86487000D01*
X214151337Y-86274320D01*
X214544320Y-85881337D01*
X214630000Y-85674487D01*
X214715680Y-85881337D01*
X215108663Y-86274320D01*
X215622119Y-86487000D01*
X216177881Y-86487000D01*
X216691337Y-86274320D01*
X217084320Y-85881337D01*
X217170000Y-85674487D01*
X217255680Y-85881337D01*
X217648663Y-86274320D01*
X218162119Y-86487000D01*
X218717881Y-86487000D01*
X219231337Y-86274320D01*
X219624320Y-85881337D01*
X219710000Y-85674487D01*
X219795680Y-85881337D01*
X220188663Y-86274320D01*
X220702119Y-86487000D01*
X221257881Y-86487000D01*
X221771337Y-86274320D01*
X222164320Y-85881337D01*
X222250000Y-85674487D01*
X222335680Y-85881337D01*
X222728663Y-86274320D01*
X223242119Y-86487000D01*
X223797881Y-86487000D01*
X224311337Y-86274320D01*
X224704320Y-85881337D01*
X224790000Y-85674487D01*
X224875680Y-85881337D01*
X225268663Y-86274320D01*
X225782119Y-86487000D01*
X226337881Y-86487000D01*
X226851337Y-86274320D01*
X227244320Y-85881337D01*
X227330000Y-85674487D01*
X227415680Y-85881337D01*
X227808663Y-86274320D01*
X228322119Y-86487000D01*
X228877881Y-86487000D01*
X229391337Y-86274320D01*
X229784320Y-85881337D01*
X229997000Y-85367881D01*
X229997000Y-84812119D01*
X229784320Y-84298663D01*
X229391337Y-83905680D01*
X228877881Y-83693000D01*
X228322119Y-83693000D01*
X227808663Y-83905680D01*
X227415680Y-84298663D01*
X227330000Y-84505513D01*
X227244320Y-84298663D01*
X226851337Y-83905680D01*
X226337881Y-83693000D01*
X225782119Y-83693000D01*
X225268663Y-83905680D01*
X224875680Y-84298663D01*
X224790000Y-84505513D01*
X224704320Y-84298663D01*
X224311337Y-83905680D01*
X223797881Y-83693000D01*
X223242119Y-83693000D01*
X222728663Y-83905680D01*
X222335680Y-84298663D01*
X222250000Y-84505513D01*
X222164320Y-84298663D01*
X221771337Y-83905680D01*
X221257881Y-83693000D01*
X220702119Y-83693000D01*
X220188663Y-83905680D01*
X219795680Y-84298663D01*
X219710000Y-84505513D01*
X219624320Y-84298663D01*
X219231337Y-83905680D01*
X218717881Y-83693000D01*
X218162119Y-83693000D01*
X217648663Y-83905680D01*
X217255680Y-84298663D01*
X217170000Y-84505513D01*
X217084320Y-84298663D01*
X216691337Y-83905680D01*
X216177881Y-83693000D01*
X215622119Y-83693000D01*
X215108663Y-83905680D01*
X214715680Y-84298663D01*
X214630000Y-84505513D01*
X214544320Y-84298663D01*
X214151337Y-83905680D01*
X213637881Y-83693000D01*
X213082119Y-83693000D01*
X212568663Y-83905680D01*
X212175680Y-84298663D01*
X212090000Y-84505513D01*
X212004320Y-84298663D01*
X211611337Y-83905680D01*
X211097881Y-83693000D01*
X210542119Y-83693000D01*
X210028663Y-83905680D01*
X209635680Y-84298663D01*
X209423000Y-84812119D01*
X163270000Y-84812119D01*
X163270000Y-82272119D01*
X189103000Y-82272119D01*
X189103000Y-82827881D01*
X189315680Y-83341337D01*
X189708663Y-83734320D01*
X190222119Y-83947000D01*
X190777881Y-83947000D01*
X191291337Y-83734320D01*
X191684320Y-83341337D01*
X191897000Y-82827881D01*
X191897000Y-82272119D01*
X191684320Y-81758663D01*
X191291337Y-81365680D01*
X190777881Y-81153000D01*
X190222119Y-81153000D01*
X189708663Y-81365680D01*
X189315680Y-81758663D01*
X189103000Y-82272119D01*
X163270000Y-82272119D01*
X163270000Y-64632119D01*
X189103000Y-64632119D01*
X189103000Y-65187881D01*
X189315680Y-65701337D01*
X189708663Y-66094320D01*
X189891371Y-66170000D01*
X189708663Y-66245680D01*
X189315680Y-66638663D01*
X189103000Y-67152119D01*
X189103000Y-67707881D01*
X189315680Y-68221337D01*
X189708663Y-68614320D01*
X189891371Y-68690000D01*
X189708663Y-68765680D01*
X189315680Y-69158663D01*
X189103000Y-69672119D01*
X189103000Y-70227881D01*
X189315680Y-70741337D01*
X189708663Y-71134320D01*
X189891371Y-71210000D01*
X189708663Y-71285680D01*
X189315680Y-71678663D01*
X189103000Y-72192119D01*
X189103000Y-72747881D01*
X189315680Y-73261337D01*
X189708663Y-73654320D01*
X189891371Y-73730000D01*
X189708663Y-73805680D01*
X189315680Y-74198663D01*
X189103000Y-74712119D01*
X189103000Y-75267881D01*
X189315680Y-75781337D01*
X189708663Y-76174320D01*
X189891371Y-76250000D01*
X189708663Y-76325680D01*
X189315680Y-76718663D01*
X189103000Y-77232119D01*
X189103000Y-77787881D01*
X189315680Y-78301337D01*
X189708663Y-78694320D01*
X190222119Y-78907000D01*
X190777881Y-78907000D01*
X191291337Y-78694320D01*
X191684320Y-78301337D01*
X191897000Y-77787881D01*
X191897000Y-77232119D01*
X191684320Y-76718663D01*
X191291337Y-76325680D01*
X191108629Y-76250000D01*
X191291337Y-76174320D01*
X191684320Y-75781337D01*
X191897000Y-75267881D01*
X191897000Y-74712119D01*
X191684320Y-74198663D01*
X191291337Y-73805680D01*
X191108629Y-73730000D01*
X191291337Y-73654320D01*
X191684320Y-73261337D01*
X191897000Y-72747881D01*
X191897000Y-72192119D01*
X191684320Y-71678663D01*
X191291337Y-71285680D01*
X191108629Y-71210000D01*
X191291337Y-71134320D01*
X191684320Y-70741337D01*
X191897000Y-70227881D01*
X191897000Y-69672119D01*
X191684320Y-69158663D01*
X191291337Y-68765680D01*
X191108629Y-68690000D01*
X191291337Y-68614320D01*
X191684320Y-68221337D01*
X191897000Y-67707881D01*
X191897000Y-67152119D01*
X191684320Y-66638663D01*
X191291337Y-66245680D01*
X191108629Y-66170000D01*
X191291337Y-66094320D01*
X191684320Y-65701337D01*
X191897000Y-65187881D01*
X191897000Y-64632119D01*
X191684320Y-64118663D01*
X191291337Y-63725680D01*
X190777881Y-63513000D01*
X190222119Y-63513000D01*
X189708663Y-63725680D01*
X189315680Y-64118663D01*
X189103000Y-64632119D01*
X163270000Y-64632119D01*
X163270000Y-61952119D01*
X209423000Y-61952119D01*
X209423000Y-62507881D01*
X209635680Y-63021337D01*
X210028663Y-63414320D01*
X210542119Y-63627000D01*
X211097881Y-63627000D01*
X211611337Y-63414320D01*
X212004320Y-63021337D01*
X212090000Y-62814487D01*
X212175680Y-63021337D01*
X212568663Y-63414320D01*
X213082119Y-63627000D01*
X213637881Y-63627000D01*
X214151337Y-63414320D01*
X214544320Y-63021337D01*
X214630000Y-62814487D01*
X214715680Y-63021337D01*
X215108663Y-63414320D01*
X215622119Y-63627000D01*
X216177881Y-63627000D01*
X216691337Y-63414320D01*
X217084320Y-63021337D01*
X217170000Y-62814487D01*
X217255680Y-63021337D01*
X217648663Y-63414320D01*
X218162119Y-63627000D01*
X218717881Y-63627000D01*
X219231337Y-63414320D01*
X219624320Y-63021337D01*
X219710000Y-62814487D01*
X219795680Y-63021337D01*
X220188663Y-63414320D01*
X220702119Y-63627000D01*
X221257881Y-63627000D01*
X221771337Y-63414320D01*
X222164320Y-63021337D01*
X222250000Y-62814487D01*
X222335680Y-63021337D01*
X222728663Y-63414320D01*
X223242119Y-63627000D01*
X223797881Y-63627000D01*
X224311337Y-63414320D01*
X224704320Y-63021337D01*
X224790000Y-62814487D01*
X224875680Y-63021337D01*
X225268663Y-63414320D01*
X225782119Y-63627000D01*
X226337881Y-63627000D01*
X226851337Y-63414320D01*
X227244320Y-63021337D01*
X227457000Y-62507881D01*
X227457000Y-61952119D01*
X227244320Y-61438663D01*
X226851337Y-61045680D01*
X226337881Y-60833000D01*
X225782119Y-60833000D01*
X225268663Y-61045680D01*
X224875680Y-61438663D01*
X224790000Y-61645513D01*
X224704320Y-61438663D01*
X224311337Y-61045680D01*
X223797881Y-60833000D01*
X223242119Y-60833000D01*
X222728663Y-61045680D01*
X222335680Y-61438663D01*
X222250000Y-61645513D01*
X222164320Y-61438663D01*
X221771337Y-61045680D01*
X221257881Y-60833000D01*
X220702119Y-60833000D01*
X220188663Y-61045680D01*
X219795680Y-61438663D01*
X219710000Y-61645513D01*
X219624320Y-61438663D01*
X219231337Y-61045680D01*
X218717881Y-60833000D01*
X218162119Y-60833000D01*
X217648663Y-61045680D01*
X217255680Y-61438663D01*
X217170000Y-61645513D01*
X217084320Y-61438663D01*
X216691337Y-61045680D01*
X216177881Y-60833000D01*
X215622119Y-60833000D01*
X215108663Y-61045680D01*
X214715680Y-61438663D01*
X214630000Y-61645513D01*
X214544320Y-61438663D01*
X214151337Y-61045680D01*
X213637881Y-60833000D01*
X213082119Y-60833000D01*
X212568663Y-61045680D01*
X212175680Y-61438663D01*
X212090000Y-61645513D01*
X212004320Y-61438663D01*
X211611337Y-61045680D01*
X211097881Y-60833000D01*
X210542119Y-60833000D01*
X210028663Y-61045680D01*
X209635680Y-61438663D01*
X209423000Y-61952119D01*
X163270000Y-61952119D01*
X163270000Y-58137067D01*
X170027600Y-58137067D01*
X170027600Y-58702933D01*
X170244148Y-59225725D01*
X170644275Y-59625852D01*
X171167067Y-59842400D01*
X171732933Y-59842400D01*
X172255725Y-59625852D01*
X172655852Y-59225725D01*
X172720000Y-59070858D01*
X172784148Y-59225725D01*
X173184275Y-59625852D01*
X173707067Y-59842400D01*
X174272933Y-59842400D01*
X174795725Y-59625852D01*
X175195852Y-59225725D01*
X175260000Y-59070858D01*
X175324148Y-59225725D01*
X175724275Y-59625852D01*
X176247067Y-59842400D01*
X176812933Y-59842400D01*
X177335725Y-59625852D01*
X177735852Y-59225725D01*
X177800000Y-59070858D01*
X177864148Y-59225725D01*
X178264275Y-59625852D01*
X178787067Y-59842400D01*
X179352933Y-59842400D01*
X179875725Y-59625852D01*
X180275852Y-59225725D01*
X180340000Y-59070858D01*
X180404148Y-59225725D01*
X180804275Y-59625852D01*
X181327067Y-59842400D01*
X181892933Y-59842400D01*
X182415725Y-59625852D01*
X182815852Y-59225725D01*
X182880000Y-59070858D01*
X182944148Y-59225725D01*
X183344275Y-59625852D01*
X183867067Y-59842400D01*
X184432933Y-59842400D01*
X184955725Y-59625852D01*
X185355852Y-59225725D01*
X185420000Y-59070858D01*
X185484148Y-59225725D01*
X185884275Y-59625852D01*
X186407067Y-59842400D01*
X186972933Y-59842400D01*
X187495725Y-59625852D01*
X187895852Y-59225725D01*
X187960000Y-59070858D01*
X188024148Y-59225725D01*
X188424275Y-59625852D01*
X188947067Y-59842400D01*
X189512933Y-59842400D01*
X190035725Y-59625852D01*
X190435852Y-59225725D01*
X190500000Y-59070858D01*
X190564148Y-59225725D01*
X190964275Y-59625852D01*
X191487067Y-59842400D01*
X192052933Y-59842400D01*
X192575725Y-59625852D01*
X192975852Y-59225725D01*
X193040000Y-59070858D01*
X193104148Y-59225725D01*
X193504275Y-59625852D01*
X194027067Y-59842400D01*
X194592933Y-59842400D01*
X195115725Y-59625852D01*
X195515852Y-59225725D01*
X195580000Y-59070858D01*
X195644148Y-59225725D01*
X196044275Y-59625852D01*
X196567067Y-59842400D01*
X197132933Y-59842400D01*
X197655725Y-59625852D01*
X198055852Y-59225725D01*
X198120000Y-59070858D01*
X198184148Y-59225725D01*
X198584275Y-59625852D01*
X199107067Y-59842400D01*
X199672933Y-59842400D01*
X200195725Y-59625852D01*
X200595852Y-59225725D01*
X200660000Y-59070858D01*
X200724148Y-59225725D01*
X201124275Y-59625852D01*
X201647067Y-59842400D01*
X202212933Y-59842400D01*
X202735725Y-59625852D01*
X203135852Y-59225725D01*
X203352400Y-58702933D01*
X203352400Y-58137067D01*
X205587600Y-58137067D01*
X205587600Y-58702933D01*
X205804148Y-59225725D01*
X206204275Y-59625852D01*
X206727067Y-59842400D01*
X207292933Y-59842400D01*
X207815725Y-59625852D01*
X208215852Y-59225725D01*
X208432400Y-58702933D01*
X208432400Y-58137067D01*
X208215852Y-57614275D01*
X207815725Y-57214148D01*
X207292933Y-56997600D01*
X206727067Y-56997600D01*
X206204275Y-57214148D01*
X205804148Y-57614275D01*
X205587600Y-58137067D01*
X203352400Y-58137067D01*
X203135852Y-57614275D01*
X202735725Y-57214148D01*
X202212933Y-56997600D01*
X201647067Y-56997600D01*
X201124275Y-57214148D01*
X200724148Y-57614275D01*
X200660000Y-57769142D01*
X200595852Y-57614275D01*
X200195725Y-57214148D01*
X199672933Y-56997600D01*
X199107067Y-56997600D01*
X198584275Y-57214148D01*
X198184148Y-57614275D01*
X198120000Y-57769142D01*
X198055852Y-57614275D01*
X197655725Y-57214148D01*
X197132933Y-56997600D01*
X196567067Y-56997600D01*
X196044275Y-57214148D01*
X195644148Y-57614275D01*
X195580000Y-57769142D01*
X195515852Y-57614275D01*
X195115725Y-57214148D01*
X194592933Y-56997600D01*
X194027067Y-56997600D01*
X193504275Y-57214148D01*
X193104148Y-57614275D01*
X193040000Y-57769142D01*
X192975852Y-57614275D01*
X192575725Y-57214148D01*
X192052933Y-56997600D01*
X191487067Y-56997600D01*
X190964275Y-57214148D01*
X190564148Y-57614275D01*
X190500000Y-57769142D01*
X190435852Y-57614275D01*
X190035725Y-57214148D01*
X189512933Y-56997600D01*
X188947067Y-56997600D01*
X188424275Y-57214148D01*
X188024148Y-57614275D01*
X187960000Y-57769142D01*
X187895852Y-57614275D01*
X187495725Y-57214148D01*
X186972933Y-56997600D01*
X186407067Y-56997600D01*
X185884275Y-57214148D01*
X185484148Y-57614275D01*
X185420000Y-57769142D01*
X185355852Y-57614275D01*
X184955725Y-57214148D01*
X184432933Y-56997600D01*
X183867067Y-56997600D01*
X183344275Y-57214148D01*
X182944148Y-57614275D01*
X182880000Y-57769142D01*
X182815852Y-57614275D01*
X182415725Y-57214148D01*
X181892933Y-56997600D01*
X181327067Y-56997600D01*
X180804275Y-57214148D01*
X180404148Y-57614275D01*
X180340000Y-57769142D01*
X180275852Y-57614275D01*
X179875725Y-57214148D01*
X179352933Y-56997600D01*
X178787067Y-56997600D01*
X178264275Y-57214148D01*
X177864148Y-57614275D01*
X177800000Y-57769142D01*
X177735852Y-57614275D01*
X177335725Y-57214148D01*
X176812933Y-56997600D01*
X176247067Y-56997600D01*
X175724275Y-57214148D01*
X175324148Y-57614275D01*
X175260000Y-57769142D01*
X175195852Y-57614275D01*
X174795725Y-57214148D01*
X174272933Y-56997600D01*
X173707067Y-56997600D01*
X173184275Y-57214148D01*
X172784148Y-57614275D01*
X172720000Y-57769142D01*
X172655852Y-57614275D01*
X172255725Y-57214148D01*
X171732933Y-56997600D01*
X171167067Y-56997600D01*
X170644275Y-57214148D01*
X170244148Y-57614275D01*
X170027600Y-58137067D01*
X163270000Y-58137067D01*
X163270000Y-46707067D01*
X233527600Y-46707067D01*
X233527600Y-47272933D01*
X233744148Y-47795725D01*
X234144275Y-48195852D01*
X234299142Y-48260000D01*
X234144275Y-48324148D01*
X233744148Y-48724275D01*
X233527600Y-49247067D01*
X233527600Y-49812933D01*
X233744148Y-50335725D01*
X234144275Y-50735852D01*
X234299142Y-50800000D01*
X234144275Y-50864148D01*
X233744148Y-51264275D01*
X233527600Y-51787067D01*
X233527600Y-52352933D01*
X233744148Y-52875725D01*
X234144275Y-53275852D01*
X234299142Y-53340000D01*
X234144275Y-53404148D01*
X233744148Y-53804275D01*
X233527600Y-54327067D01*
X233527600Y-54892933D01*
X233744148Y-55415725D01*
X234144275Y-55815852D01*
X234299142Y-55880000D01*
X234144275Y-55944148D01*
X233744148Y-56344275D01*
X233527600Y-56867067D01*
X233527600Y-57432933D01*
X233744148Y-57955725D01*
X234144275Y-58355852D01*
X234299142Y-58420000D01*
X234144275Y-58484148D01*
X233744148Y-58884275D01*
X233527600Y-59407067D01*
X233527600Y-59972933D01*
X233744148Y-60495725D01*
X234144275Y-60895852D01*
X234299142Y-60960000D01*
X234144275Y-61024148D01*
X233744148Y-61424275D01*
X233527600Y-61947067D01*
X233527600Y-62512933D01*
X233744148Y-63035725D01*
X234144275Y-63435852D01*
X234299142Y-63500000D01*
X234144275Y-63564148D01*
X233744148Y-63964275D01*
X233527600Y-64487067D01*
X233527600Y-65052933D01*
X233744148Y-65575725D01*
X234144275Y-65975852D01*
X234299142Y-66040000D01*
X234144275Y-66104148D01*
X233744148Y-66504275D01*
X233527600Y-67027067D01*
X233527600Y-67592933D01*
X233744148Y-68115725D01*
X234144275Y-68515852D01*
X234299142Y-68580000D01*
X234144275Y-68644148D01*
X233744148Y-69044275D01*
X233527600Y-69567067D01*
X233527600Y-70132933D01*
X233744148Y-70655725D01*
X234144275Y-71055852D01*
X234299142Y-71120000D01*
X234144275Y-71184148D01*
X233744148Y-71584275D01*
X233527600Y-72107067D01*
X233527600Y-72672933D01*
X233744148Y-73195725D01*
X234144275Y-73595852D01*
X234299142Y-73660000D01*
X234144275Y-73724148D01*
X233744148Y-74124275D01*
X233527600Y-74647067D01*
X233527600Y-75212933D01*
X233744148Y-75735725D01*
X234144275Y-76135852D01*
X234299142Y-76200000D01*
X234144275Y-76264148D01*
X233744148Y-76664275D01*
X233527600Y-77187067D01*
X233527600Y-77752933D01*
X233744148Y-78275725D01*
X234144275Y-78675852D01*
X234299142Y-78740000D01*
X234144275Y-78804148D01*
X233744148Y-79204275D01*
X233527600Y-79727067D01*
X233527600Y-80292933D01*
X233744148Y-80815725D01*
X234144275Y-81215852D01*
X234299142Y-81280000D01*
X234144275Y-81344148D01*
X233744148Y-81744275D01*
X233527600Y-82267067D01*
X233527600Y-82832933D01*
X233744148Y-83355725D01*
X234144275Y-83755852D01*
X234667067Y-83972400D01*
X235232933Y-83972400D01*
X235755725Y-83755852D01*
X236155852Y-83355725D01*
X236372400Y-82832933D01*
X236372400Y-82267067D01*
X236155852Y-81744275D01*
X235755725Y-81344148D01*
X235600858Y-81280000D01*
X235755725Y-81215852D01*
X236155852Y-80815725D01*
X236372400Y-80292933D01*
X236372400Y-79727067D01*
X236155852Y-79204275D01*
X235755725Y-78804148D01*
X235600858Y-78740000D01*
X235755725Y-78675852D01*
X236155852Y-78275725D01*
X236372400Y-77752933D01*
X236372400Y-77187067D01*
X236155852Y-76664275D01*
X235755725Y-76264148D01*
X235600858Y-76200000D01*
X235755725Y-76135852D01*
X236155852Y-75735725D01*
X236372400Y-75212933D01*
X236372400Y-74647067D01*
X236155852Y-74124275D01*
X235755725Y-73724148D01*
X235600858Y-73660000D01*
X235755725Y-73595852D01*
X236155852Y-73195725D01*
X236372400Y-72672933D01*
X236372400Y-72107067D01*
X236155852Y-71584275D01*
X235755725Y-71184148D01*
X235600858Y-71120000D01*
X235755725Y-71055852D01*
X236155852Y-70655725D01*
X236372400Y-70132933D01*
X236372400Y-69567067D01*
X236155852Y-69044275D01*
X235755725Y-68644148D01*
X235600858Y-68580000D01*
X235755725Y-68515852D01*
X236155852Y-68115725D01*
X236372400Y-67592933D01*
X236372400Y-67027067D01*
X236155852Y-66504275D01*
X235755725Y-66104148D01*
X235600858Y-66040000D01*
X235755725Y-65975852D01*
X236155852Y-65575725D01*
X236372400Y-65052933D01*
X236372400Y-64487067D01*
X236155852Y-63964275D01*
X235755725Y-63564148D01*
X235600858Y-63500000D01*
X235755725Y-63435852D01*
X236155852Y-63035725D01*
X236372400Y-62512933D01*
X236372400Y-61947067D01*
X236155852Y-61424275D01*
X235755725Y-61024148D01*
X235600858Y-60960000D01*
X235755725Y-60895852D01*
X236155852Y-60495725D01*
X236372400Y-59972933D01*
X236372400Y-59407067D01*
X236155852Y-58884275D01*
X235755725Y-58484148D01*
X235600858Y-58420000D01*
X235755725Y-58355852D01*
X236155852Y-57955725D01*
X236372400Y-57432933D01*
X236372400Y-56867067D01*
X236155852Y-56344275D01*
X235755725Y-55944148D01*
X235600858Y-55880000D01*
X235755725Y-55815852D01*
X236155852Y-55415725D01*
X236372400Y-54892933D01*
X236372400Y-54327067D01*
X236155852Y-53804275D01*
X235755725Y-53404148D01*
X235600858Y-53340000D01*
X235755725Y-53275852D01*
X236155852Y-52875725D01*
X236372400Y-52352933D01*
X236372400Y-51787067D01*
X248767600Y-51787067D01*
X248767600Y-52352933D01*
X248984148Y-52875725D01*
X249384275Y-53275852D01*
X249539142Y-53340000D01*
X249384275Y-53404148D01*
X248984148Y-53804275D01*
X248767600Y-54327067D01*
X248767600Y-54892933D01*
X248984148Y-55415725D01*
X249384275Y-55815852D01*
X249539142Y-55880000D01*
X249384275Y-55944148D01*
X248984148Y-56344275D01*
X248767600Y-56867067D01*
X248767600Y-57432933D01*
X248984148Y-57955725D01*
X249384275Y-58355852D01*
X249539142Y-58420000D01*
X249384275Y-58484148D01*
X248984148Y-58884275D01*
X248767600Y-59407067D01*
X248767600Y-59972933D01*
X248984148Y-60495725D01*
X249384275Y-60895852D01*
X249539142Y-60960000D01*
X249384275Y-61024148D01*
X248984148Y-61424275D01*
X248767600Y-61947067D01*
X248767600Y-62512933D01*
X248984148Y-63035725D01*
X249384275Y-63435852D01*
X249539142Y-63500000D01*
X249384275Y-63564148D01*
X248984148Y-63964275D01*
X248767600Y-64487067D01*
X248767600Y-65052933D01*
X248984148Y-65575725D01*
X249384275Y-65975852D01*
X249539142Y-66040000D01*
X249384275Y-66104148D01*
X248984148Y-66504275D01*
X248767600Y-67027067D01*
X248767600Y-67592933D01*
X248984148Y-68115725D01*
X249384275Y-68515852D01*
X249539142Y-68580000D01*
X249384275Y-68644148D01*
X248984148Y-69044275D01*
X248767600Y-69567067D01*
X248767600Y-70132933D01*
X248984148Y-70655725D01*
X249384275Y-71055852D01*
X249539142Y-71120000D01*
X249384275Y-71184148D01*
X248984148Y-71584275D01*
X248767600Y-72107067D01*
X248767600Y-72672933D01*
X248984148Y-73195725D01*
X249384275Y-73595852D01*
X249539142Y-73660000D01*
X249384275Y-73724148D01*
X248984148Y-74124275D01*
X248767600Y-74647067D01*
X248767600Y-75212933D01*
X248984148Y-75735725D01*
X249384275Y-76135852D01*
X249539142Y-76200000D01*
X249384275Y-76264148D01*
X248984148Y-76664275D01*
X248767600Y-77187067D01*
X248767600Y-77752933D01*
X248984148Y-78275725D01*
X249384275Y-78675852D01*
X249539142Y-78740000D01*
X249384275Y-78804148D01*
X248984148Y-79204275D01*
X248767600Y-79727067D01*
X248767600Y-80292933D01*
X248984148Y-80815725D01*
X249384275Y-81215852D01*
X249539142Y-81280000D01*
X249384275Y-81344148D01*
X248984148Y-81744275D01*
X248767600Y-82267067D01*
X248767600Y-82832933D01*
X248984148Y-83355725D01*
X249384275Y-83755852D01*
X249907067Y-83972400D01*
X250472933Y-83972400D01*
X250995725Y-83755852D01*
X251395852Y-83355725D01*
X251612400Y-82832933D01*
X251612400Y-82267067D01*
X251395852Y-81744275D01*
X250995725Y-81344148D01*
X250840858Y-81280000D01*
X250995725Y-81215852D01*
X251395852Y-80815725D01*
X251612400Y-80292933D01*
X251612400Y-79727067D01*
X251395852Y-79204275D01*
X250995725Y-78804148D01*
X250840858Y-78740000D01*
X250995725Y-78675852D01*
X251395852Y-78275725D01*
X251612400Y-77752933D01*
X251612400Y-77187067D01*
X251395852Y-76664275D01*
X250995725Y-76264148D01*
X250840858Y-76200000D01*
X250995725Y-76135852D01*
X251395852Y-75735725D01*
X251612400Y-75212933D01*
X251612400Y-74647067D01*
X251395852Y-74124275D01*
X250995725Y-73724148D01*
X250840858Y-73660000D01*
X250995725Y-73595852D01*
X251395852Y-73195725D01*
X251612400Y-72672933D01*
X251612400Y-72107067D01*
X251395852Y-71584275D01*
X250995725Y-71184148D01*
X250840858Y-71120000D01*
X250995725Y-71055852D01*
X251395852Y-70655725D01*
X251612400Y-70132933D01*
X251612400Y-69567067D01*
X251395852Y-69044275D01*
X250995725Y-68644148D01*
X250840858Y-68580000D01*
X250995725Y-68515852D01*
X251395852Y-68115725D01*
X251612400Y-67592933D01*
X251612400Y-67027067D01*
X251395852Y-66504275D01*
X250995725Y-66104148D01*
X250840858Y-66040000D01*
X250995725Y-65975852D01*
X251395852Y-65575725D01*
X251612400Y-65052933D01*
X251612400Y-64487067D01*
X251395852Y-63964275D01*
X250995725Y-63564148D01*
X250840858Y-63500000D01*
X250995725Y-63435852D01*
X251395852Y-63035725D01*
X251612400Y-62512933D01*
X251612400Y-61947067D01*
X251395852Y-61424275D01*
X250995725Y-61024148D01*
X250840858Y-60960000D01*
X250995725Y-60895852D01*
X251395852Y-60495725D01*
X251612400Y-59972933D01*
X251612400Y-59407067D01*
X251395852Y-58884275D01*
X250995725Y-58484148D01*
X250840858Y-58420000D01*
X250995725Y-58355852D01*
X251395852Y-57955725D01*
X251612400Y-57432933D01*
X251612400Y-56867067D01*
X251395852Y-56344275D01*
X250995725Y-55944148D01*
X250840858Y-55880000D01*
X250995725Y-55815852D01*
X251395852Y-55415725D01*
X251612400Y-54892933D01*
X251612400Y-54327067D01*
X251395852Y-53804275D01*
X250995725Y-53404148D01*
X250840858Y-53340000D01*
X250995725Y-53275852D01*
X251395852Y-52875725D01*
X251612400Y-52352933D01*
X251612400Y-51787067D01*
X251395852Y-51264275D01*
X250995725Y-50864148D01*
X250472933Y-50647600D01*
X249907067Y-50647600D01*
X249384275Y-50864148D01*
X248984148Y-51264275D01*
X248767600Y-51787067D01*
X236372400Y-51787067D01*
X236155852Y-51264275D01*
X235755725Y-50864148D01*
X235600858Y-50800000D01*
X235755725Y-50735852D01*
X236155852Y-50335725D01*
X236372400Y-49812933D01*
X236372400Y-49247067D01*
X236155852Y-48724275D01*
X235755725Y-48324148D01*
X235600858Y-48260000D01*
X235755725Y-48195852D01*
X236155852Y-47795725D01*
X236372400Y-47272933D01*
X236372400Y-46707067D01*
X248767600Y-46707067D01*
X248767600Y-47272933D01*
X248984148Y-47795725D01*
X249384275Y-48195852D01*
X249907067Y-48412400D01*
X250472933Y-48412400D01*
X250995725Y-48195852D01*
X251395852Y-47795725D01*
X251612400Y-47272933D01*
X251612400Y-46707067D01*
X251395852Y-46184275D01*
X250995725Y-45784148D01*
X250472933Y-45567600D01*
X249907067Y-45567600D01*
X249384275Y-45784148D01*
X248984148Y-46184275D01*
X248767600Y-46707067D01*
X236372400Y-46707067D01*
X236155852Y-46184275D01*
X235755725Y-45784148D01*
X235232933Y-45567600D01*
X234667067Y-45567600D01*
X234144275Y-45784148D01*
X233744148Y-46184275D01*
X233527600Y-46707067D01*
X163270000Y-46707067D01*
X163270000Y-41910000D01*
X163585908Y-41910000D01*
X163701161Y-42489418D01*
X164029375Y-42980625D01*
X164520582Y-43308839D01*
X164953744Y-43395000D01*
X165246256Y-43395000D01*
X165679418Y-43308839D01*
X166170625Y-42980625D01*
X166226456Y-42897067D01*
X170027600Y-42897067D01*
X170027600Y-43462933D01*
X170244148Y-43985725D01*
X170644275Y-44385852D01*
X171167067Y-44602400D01*
X171732933Y-44602400D01*
X172255725Y-44385852D01*
X172655852Y-43985725D01*
X172720000Y-43830858D01*
X172784148Y-43985725D01*
X173184275Y-44385852D01*
X173707067Y-44602400D01*
X174272933Y-44602400D01*
X174795725Y-44385852D01*
X175195852Y-43985725D01*
X175260000Y-43830858D01*
X175324148Y-43985725D01*
X175724275Y-44385852D01*
X176247067Y-44602400D01*
X176812933Y-44602400D01*
X177335725Y-44385852D01*
X177735852Y-43985725D01*
X177800000Y-43830858D01*
X177864148Y-43985725D01*
X178264275Y-44385852D01*
X178787067Y-44602400D01*
X179352933Y-44602400D01*
X179875725Y-44385852D01*
X180275852Y-43985725D01*
X180340000Y-43830858D01*
X180404148Y-43985725D01*
X180804275Y-44385852D01*
X181327067Y-44602400D01*
X181892933Y-44602400D01*
X182415725Y-44385852D01*
X182815852Y-43985725D01*
X182880000Y-43830858D01*
X182944148Y-43985725D01*
X183344275Y-44385852D01*
X183867067Y-44602400D01*
X184432933Y-44602400D01*
X184955725Y-44385852D01*
X185355852Y-43985725D01*
X185420000Y-43830858D01*
X185484148Y-43985725D01*
X185884275Y-44385852D01*
X186407067Y-44602400D01*
X186972933Y-44602400D01*
X187495725Y-44385852D01*
X187895852Y-43985725D01*
X187960000Y-43830858D01*
X188024148Y-43985725D01*
X188424275Y-44385852D01*
X188947067Y-44602400D01*
X189512933Y-44602400D01*
X190035725Y-44385852D01*
X190435852Y-43985725D01*
X190500000Y-43830858D01*
X190564148Y-43985725D01*
X190964275Y-44385852D01*
X191487067Y-44602400D01*
X192052933Y-44602400D01*
X192575725Y-44385852D01*
X192975852Y-43985725D01*
X193040000Y-43830858D01*
X193104148Y-43985725D01*
X193504275Y-44385852D01*
X194027067Y-44602400D01*
X194592933Y-44602400D01*
X195115725Y-44385852D01*
X195515852Y-43985725D01*
X195580000Y-43830858D01*
X195644148Y-43985725D01*
X196044275Y-44385852D01*
X196567067Y-44602400D01*
X197132933Y-44602400D01*
X197655725Y-44385852D01*
X198055852Y-43985725D01*
X198120000Y-43830858D01*
X198184148Y-43985725D01*
X198584275Y-44385852D01*
X199107067Y-44602400D01*
X199672933Y-44602400D01*
X200195725Y-44385852D01*
X200595852Y-43985725D01*
X200660000Y-43830858D01*
X200724148Y-43985725D01*
X201124275Y-44385852D01*
X201647067Y-44602400D01*
X202212933Y-44602400D01*
X202735725Y-44385852D01*
X203135852Y-43985725D01*
X203200000Y-43830858D01*
X203264148Y-43985725D01*
X203664275Y-44385852D01*
X204187067Y-44602400D01*
X204752933Y-44602400D01*
X205275725Y-44385852D01*
X205675852Y-43985725D01*
X205740000Y-43830858D01*
X205804148Y-43985725D01*
X206204275Y-44385852D01*
X206727067Y-44602400D01*
X207292933Y-44602400D01*
X207660858Y-44450000D01*
X216925908Y-44450000D01*
X217041161Y-45029418D01*
X217369375Y-45520625D01*
X217860582Y-45848839D01*
X218293744Y-45935000D01*
X218586256Y-45935000D01*
X219019418Y-45848839D01*
X219510625Y-45520625D01*
X219838839Y-45029418D01*
X219954092Y-44450000D01*
X222005908Y-44450000D01*
X222121161Y-45029418D01*
X222449375Y-45520625D01*
X222940582Y-45848839D01*
X223373744Y-45935000D01*
X223666256Y-45935000D01*
X224099418Y-45848839D01*
X224590625Y-45520625D01*
X224790000Y-45222239D01*
X224989375Y-45520625D01*
X225480582Y-45848839D01*
X225913744Y-45935000D01*
X226206256Y-45935000D01*
X226639418Y-45848839D01*
X227130625Y-45520625D01*
X227142816Y-45502381D01*
X227151843Y-45547765D01*
X227292191Y-45757809D01*
X227502235Y-45898157D01*
X227750000Y-45947440D01*
X229450000Y-45947440D01*
X229697765Y-45898157D01*
X229907809Y-45757809D01*
X230048157Y-45547765D01*
X230097440Y-45300000D01*
X230097440Y-43600000D01*
X230048157Y-43352235D01*
X229907809Y-43142191D01*
X229697765Y-43001843D01*
X229450000Y-42952560D01*
X227750000Y-42952560D01*
X227502235Y-43001843D01*
X227292191Y-43142191D01*
X227151843Y-43352235D01*
X227142816Y-43397619D01*
X227130625Y-43379375D01*
X226639418Y-43051161D01*
X226206256Y-42965000D01*
X225913744Y-42965000D01*
X225480582Y-43051161D01*
X224989375Y-43379375D01*
X224790000Y-43677761D01*
X224590625Y-43379375D01*
X224099418Y-43051161D01*
X223666256Y-42965000D01*
X223373744Y-42965000D01*
X222940582Y-43051161D01*
X222449375Y-43379375D01*
X222121161Y-43870582D01*
X222005908Y-44450000D01*
X219954092Y-44450000D01*
X219838839Y-43870582D01*
X219510625Y-43379375D01*
X219019418Y-43051161D01*
X218586256Y-42965000D01*
X218293744Y-42965000D01*
X217860582Y-43051161D01*
X217369375Y-43379375D01*
X217041161Y-43870582D01*
X216925908Y-44450000D01*
X207660858Y-44450000D01*
X207815725Y-44385852D01*
X208215852Y-43985725D01*
X208432400Y-43462933D01*
X208432400Y-42897067D01*
X208215852Y-42374275D01*
X207815725Y-41974148D01*
X207292933Y-41757600D01*
X206727067Y-41757600D01*
X206204275Y-41974148D01*
X205804148Y-42374275D01*
X205740000Y-42529142D01*
X205675852Y-42374275D01*
X205275725Y-41974148D01*
X204752933Y-41757600D01*
X204187067Y-41757600D01*
X203664275Y-41974148D01*
X203264148Y-42374275D01*
X203200000Y-42529142D01*
X203135852Y-42374275D01*
X202735725Y-41974148D01*
X202212933Y-41757600D01*
X201647067Y-41757600D01*
X201124275Y-41974148D01*
X200724148Y-42374275D01*
X200660000Y-42529142D01*
X200595852Y-42374275D01*
X200195725Y-41974148D01*
X199672933Y-41757600D01*
X199107067Y-41757600D01*
X198584275Y-41974148D01*
X198184148Y-42374275D01*
X198120000Y-42529142D01*
X198055852Y-42374275D01*
X197655725Y-41974148D01*
X197132933Y-41757600D01*
X196567067Y-41757600D01*
X196044275Y-41974148D01*
X195644148Y-42374275D01*
X195580000Y-42529142D01*
X195515852Y-42374275D01*
X195115725Y-41974148D01*
X194592933Y-41757600D01*
X194027067Y-41757600D01*
X193504275Y-41974148D01*
X193104148Y-42374275D01*
X193040000Y-42529142D01*
X192975852Y-42374275D01*
X192575725Y-41974148D01*
X192052933Y-41757600D01*
X191487067Y-41757600D01*
X190964275Y-41974148D01*
X190564148Y-42374275D01*
X190500000Y-42529142D01*
X190435852Y-42374275D01*
X190035725Y-41974148D01*
X189512933Y-41757600D01*
X188947067Y-41757600D01*
X188424275Y-41974148D01*
X188024148Y-42374275D01*
X187960000Y-42529142D01*
X187895852Y-42374275D01*
X187495725Y-41974148D01*
X186972933Y-41757600D01*
X186407067Y-41757600D01*
X185884275Y-41974148D01*
X185484148Y-42374275D01*
X185420000Y-42529142D01*
X185355852Y-42374275D01*
X184955725Y-41974148D01*
X184432933Y-41757600D01*
X183867067Y-41757600D01*
X183344275Y-41974148D01*
X182944148Y-42374275D01*
X182880000Y-42529142D01*
X182815852Y-42374275D01*
X182415725Y-41974148D01*
X181892933Y-41757600D01*
X181327067Y-41757600D01*
X180804275Y-41974148D01*
X180404148Y-42374275D01*
X180340000Y-42529142D01*
X180275852Y-42374275D01*
X179875725Y-41974148D01*
X179352933Y-41757600D01*
X178787067Y-41757600D01*
X178264275Y-41974148D01*
X177864148Y-42374275D01*
X177800000Y-42529142D01*
X177735852Y-42374275D01*
X177335725Y-41974148D01*
X176812933Y-41757600D01*
X176247067Y-41757600D01*
X175724275Y-41974148D01*
X175324148Y-42374275D01*
X175260000Y-42529142D01*
X175195852Y-42374275D01*
X174795725Y-41974148D01*
X174272933Y-41757600D01*
X173707067Y-41757600D01*
X173184275Y-41974148D01*
X172784148Y-42374275D01*
X172720000Y-42529142D01*
X172655852Y-42374275D01*
X172255725Y-41974148D01*
X171732933Y-41757600D01*
X171167067Y-41757600D01*
X170644275Y-41974148D01*
X170244148Y-42374275D01*
X170027600Y-42897067D01*
X166226456Y-42897067D01*
X166498839Y-42489418D01*
X166614092Y-41910000D01*
X166498839Y-41330582D01*
X166170625Y-40839375D01*
X166152381Y-40827184D01*
X166197765Y-40818157D01*
X166407809Y-40677809D01*
X166548157Y-40467765D01*
X166597440Y-40220000D01*
X166597440Y-39087067D01*
X170027600Y-39087067D01*
X170027600Y-39652933D01*
X170244148Y-40175725D01*
X170644275Y-40575852D01*
X171167067Y-40792400D01*
X171732933Y-40792400D01*
X172255725Y-40575852D01*
X172655852Y-40175725D01*
X172720000Y-40020858D01*
X172784148Y-40175725D01*
X173184275Y-40575852D01*
X173707067Y-40792400D01*
X174272933Y-40792400D01*
X174795725Y-40575852D01*
X175195852Y-40175725D01*
X175260000Y-40020858D01*
X175324148Y-40175725D01*
X175724275Y-40575852D01*
X176247067Y-40792400D01*
X176812933Y-40792400D01*
X177335725Y-40575852D01*
X177735852Y-40175725D01*
X177800000Y-40020858D01*
X177864148Y-40175725D01*
X178264275Y-40575852D01*
X178787067Y-40792400D01*
X179352933Y-40792400D01*
X179875725Y-40575852D01*
X180275852Y-40175725D01*
X180340000Y-40020858D01*
X180404148Y-40175725D01*
X180804275Y-40575852D01*
X181327067Y-40792400D01*
X181892933Y-40792400D01*
X182415725Y-40575852D01*
X182815852Y-40175725D01*
X182880000Y-40020858D01*
X182944148Y-40175725D01*
X183344275Y-40575852D01*
X183867067Y-40792400D01*
X184432933Y-40792400D01*
X184955725Y-40575852D01*
X185355852Y-40175725D01*
X185420000Y-40020858D01*
X185484148Y-40175725D01*
X185884275Y-40575852D01*
X186407067Y-40792400D01*
X186972933Y-40792400D01*
X187495725Y-40575852D01*
X187895852Y-40175725D01*
X187960000Y-40020858D01*
X188024148Y-40175725D01*
X188424275Y-40575852D01*
X188947067Y-40792400D01*
X189512933Y-40792400D01*
X190035725Y-40575852D01*
X190435852Y-40175725D01*
X190500000Y-40020858D01*
X190564148Y-40175725D01*
X190964275Y-40575852D01*
X191487067Y-40792400D01*
X192052933Y-40792400D01*
X192575725Y-40575852D01*
X192975852Y-40175725D01*
X193040000Y-40020858D01*
X193104148Y-40175725D01*
X193504275Y-40575852D01*
X194027067Y-40792400D01*
X194592933Y-40792400D01*
X195115725Y-40575852D01*
X195515852Y-40175725D01*
X195580000Y-40020858D01*
X195644148Y-40175725D01*
X196044275Y-40575852D01*
X196567067Y-40792400D01*
X197132933Y-40792400D01*
X197655725Y-40575852D01*
X198055852Y-40175725D01*
X198120000Y-40020858D01*
X198184148Y-40175725D01*
X198584275Y-40575852D01*
X199107067Y-40792400D01*
X199672933Y-40792400D01*
X200195725Y-40575852D01*
X200595852Y-40175725D01*
X200660000Y-40020858D01*
X200724148Y-40175725D01*
X201124275Y-40575852D01*
X201647067Y-40792400D01*
X202212933Y-40792400D01*
X202735725Y-40575852D01*
X203135852Y-40175725D01*
X203352400Y-39652933D01*
X203352400Y-39087067D01*
X205587600Y-39087067D01*
X205587600Y-39652933D01*
X205804148Y-40175725D01*
X206204275Y-40575852D01*
X206727067Y-40792400D01*
X207292933Y-40792400D01*
X207815725Y-40575852D01*
X208215852Y-40175725D01*
X208432400Y-39652933D01*
X208432400Y-39087067D01*
X208215852Y-38564275D01*
X207815725Y-38164148D01*
X207292933Y-37947600D01*
X206727067Y-37947600D01*
X206204275Y-38164148D01*
X205804148Y-38564275D01*
X205587600Y-39087067D01*
X203352400Y-39087067D01*
X203135852Y-38564275D01*
X202735725Y-38164148D01*
X202212933Y-37947600D01*
X201647067Y-37947600D01*
X201124275Y-38164148D01*
X200724148Y-38564275D01*
X200660000Y-38719142D01*
X200595852Y-38564275D01*
X200195725Y-38164148D01*
X199672933Y-37947600D01*
X199107067Y-37947600D01*
X198584275Y-38164148D01*
X198184148Y-38564275D01*
X198120000Y-38719142D01*
X198055852Y-38564275D01*
X197655725Y-38164148D01*
X197132933Y-37947600D01*
X196567067Y-37947600D01*
X196044275Y-38164148D01*
X195644148Y-38564275D01*
X195580000Y-38719142D01*
X195515852Y-38564275D01*
X195115725Y-38164148D01*
X194592933Y-37947600D01*
X194027067Y-37947600D01*
X193504275Y-38164148D01*
X193104148Y-38564275D01*
X193040000Y-38719142D01*
X192975852Y-38564275D01*
X192575725Y-38164148D01*
X192052933Y-37947600D01*
X191487067Y-37947600D01*
X190964275Y-38164148D01*
X190564148Y-38564275D01*
X190500000Y-38719142D01*
X190435852Y-38564275D01*
X190035725Y-38164148D01*
X189512933Y-37947600D01*
X188947067Y-37947600D01*
X188424275Y-38164148D01*
X188024148Y-38564275D01*
X187960000Y-38719142D01*
X187895852Y-38564275D01*
X187495725Y-38164148D01*
X186972933Y-37947600D01*
X186407067Y-37947600D01*
X185884275Y-38164148D01*
X185484148Y-38564275D01*
X185420000Y-38719142D01*
X185355852Y-38564275D01*
X184955725Y-38164148D01*
X184432933Y-37947600D01*
X183867067Y-37947600D01*
X183344275Y-38164148D01*
X182944148Y-38564275D01*
X182880000Y-38719142D01*
X182815852Y-38564275D01*
X182415725Y-38164148D01*
X181892933Y-37947600D01*
X181327067Y-37947600D01*
X180804275Y-38164148D01*
X180404148Y-38564275D01*
X180340000Y-38719142D01*
X180275852Y-38564275D01*
X179875725Y-38164148D01*
X179352933Y-37947600D01*
X178787067Y-37947600D01*
X178264275Y-38164148D01*
X177864148Y-38564275D01*
X177800000Y-38719142D01*
X177735852Y-38564275D01*
X177335725Y-38164148D01*
X176812933Y-37947600D01*
X176247067Y-37947600D01*
X175724275Y-38164148D01*
X175324148Y-38564275D01*
X175260000Y-38719142D01*
X175195852Y-38564275D01*
X174795725Y-38164148D01*
X174272933Y-37947600D01*
X173707067Y-37947600D01*
X173184275Y-38164148D01*
X172784148Y-38564275D01*
X172720000Y-38719142D01*
X172655852Y-38564275D01*
X172255725Y-38164148D01*
X171732933Y-37947600D01*
X171167067Y-37947600D01*
X170644275Y-38164148D01*
X170244148Y-38564275D01*
X170027600Y-39087067D01*
X166597440Y-39087067D01*
X166597440Y-38520000D01*
X166548157Y-38272235D01*
X166407809Y-38062191D01*
X166197765Y-37921843D01*
X165950000Y-37872560D01*
X164250000Y-37872560D01*
X164002235Y-37921843D01*
X163792191Y-38062191D01*
X163651843Y-38272235D01*
X163602560Y-38520000D01*
X163602560Y-40220000D01*
X163651843Y-40467765D01*
X163792191Y-40677809D01*
X164002235Y-40818157D01*
X164047619Y-40827184D01*
X164029375Y-40839375D01*
X163701161Y-41330582D01*
X163585908Y-41910000D01*
X163270000Y-41910000D01*
X163270000Y-37154887D01*
X231055000Y-37154887D01*
X231055000Y-37845113D01*
X231319138Y-38482799D01*
X231807201Y-38970862D01*
X232444887Y-39235000D01*
X233135113Y-39235000D01*
X233772799Y-38970862D01*
X234260862Y-38482799D01*
X234525000Y-37845113D01*
X234525000Y-37154887D01*
X234260862Y-36517201D01*
X233772799Y-36029138D01*
X233135113Y-35765000D01*
X232444887Y-35765000D01*
X231807201Y-36029138D01*
X231319138Y-36517201D01*
X231055000Y-37154887D01*
X163270000Y-37154887D01*
X163270000Y-30480000D01*
X216925908Y-30480000D01*
X217041161Y-31059418D01*
X217369375Y-31550625D01*
X217860582Y-31878839D01*
X218293744Y-31965000D01*
X218586256Y-31965000D01*
X219019418Y-31878839D01*
X219510625Y-31550625D01*
X219838839Y-31059418D01*
X219954092Y-30480000D01*
X248675908Y-30480000D01*
X248791161Y-31059418D01*
X249119375Y-31550625D01*
X249417761Y-31750000D01*
X249119375Y-31949375D01*
X248791161Y-32440582D01*
X248675908Y-33020000D01*
X248791161Y-33599418D01*
X249119375Y-34090625D01*
X249610582Y-34418839D01*
X250043744Y-34505000D01*
X250336256Y-34505000D01*
X250769418Y-34418839D01*
X251260625Y-34090625D01*
X251588839Y-33599418D01*
X251704092Y-33020000D01*
X251588839Y-32440582D01*
X251260625Y-31949375D01*
X250962239Y-31750000D01*
X251260625Y-31550625D01*
X251588839Y-31059418D01*
X251704092Y-30480000D01*
X251588839Y-29900582D01*
X251260625Y-29409375D01*
X251242381Y-29397184D01*
X251287765Y-29388157D01*
X251497809Y-29247809D01*
X251638157Y-29037765D01*
X251687440Y-28790000D01*
X251687440Y-27090000D01*
X251638157Y-26842235D01*
X251497809Y-26632191D01*
X251287765Y-26491843D01*
X251040000Y-26442560D01*
X249340000Y-26442560D01*
X249092235Y-26491843D01*
X248882191Y-26632191D01*
X248741843Y-26842235D01*
X248692560Y-27090000D01*
X248692560Y-28790000D01*
X248741843Y-29037765D01*
X248882191Y-29247809D01*
X249092235Y-29388157D01*
X249137619Y-29397184D01*
X249119375Y-29409375D01*
X248791161Y-29900582D01*
X248675908Y-30480000D01*
X219954092Y-30480000D01*
X219838839Y-29900582D01*
X219510625Y-29409375D01*
X219492381Y-29397184D01*
X219537765Y-29388157D01*
X219747809Y-29247809D01*
X219888157Y-29037765D01*
X219937440Y-28790000D01*
X219937440Y-27222119D01*
X223393000Y-27222119D01*
X223393000Y-27777881D01*
X223605680Y-28291337D01*
X223998663Y-28684320D01*
X224512119Y-28897000D01*
X225067881Y-28897000D01*
X225581337Y-28684320D01*
X225974320Y-28291337D01*
X226187000Y-27777881D01*
X226187000Y-27222119D01*
X234393000Y-27222119D01*
X234393000Y-27777881D01*
X234605680Y-28291337D01*
X234998663Y-28684320D01*
X235512119Y-28897000D01*
X236067881Y-28897000D01*
X236581337Y-28684320D01*
X236974320Y-28291337D01*
X237187000Y-27777881D01*
X237187000Y-27222119D01*
X236974320Y-26708663D01*
X236581337Y-26315680D01*
X236067881Y-26103000D01*
X235512119Y-26103000D01*
X234998663Y-26315680D01*
X234605680Y-26708663D01*
X234393000Y-27222119D01*
X226187000Y-27222119D01*
X225974320Y-26708663D01*
X225581337Y-26315680D01*
X225067881Y-26103000D01*
X224512119Y-26103000D01*
X223998663Y-26315680D01*
X223605680Y-26708663D01*
X223393000Y-27222119D01*
X219937440Y-27222119D01*
X219937440Y-27090000D01*
X219888157Y-26842235D01*
X219747809Y-26632191D01*
X219537765Y-26491843D01*
X219290000Y-26442560D01*
X217590000Y-26442560D01*
X217342235Y-26491843D01*
X217132191Y-26632191D01*
X216991843Y-26842235D01*
X216942560Y-27090000D01*
X216942560Y-28790000D01*
X216991843Y-29037765D01*
X217132191Y-29247809D01*
X217342235Y-29388157D01*
X217387619Y-29397184D01*
X217369375Y-29409375D01*
X217041161Y-29900582D01*
X216925908Y-30480000D01*
X163270000Y-30480000D01*
X163270000Y-23847067D01*
X170027600Y-23847067D01*
X170027600Y-24412933D01*
X170244148Y-24935725D01*
X170644275Y-25335852D01*
X171167067Y-25552400D01*
X171732933Y-25552400D01*
X172255725Y-25335852D01*
X172655852Y-24935725D01*
X172720000Y-24780858D01*
X172784148Y-24935725D01*
X173184275Y-25335852D01*
X173707067Y-25552400D01*
X174272933Y-25552400D01*
X174795725Y-25335852D01*
X175195852Y-24935725D01*
X175260000Y-24780858D01*
X175324148Y-24935725D01*
X175724275Y-25335852D01*
X176247067Y-25552400D01*
X176812933Y-25552400D01*
X177335725Y-25335852D01*
X177735852Y-24935725D01*
X177800000Y-24780858D01*
X177864148Y-24935725D01*
X178264275Y-25335852D01*
X178787067Y-25552400D01*
X179352933Y-25552400D01*
X179875725Y-25335852D01*
X180275852Y-24935725D01*
X180340000Y-24780858D01*
X180404148Y-24935725D01*
X180804275Y-25335852D01*
X181327067Y-25552400D01*
X181892933Y-25552400D01*
X182415725Y-25335852D01*
X182815852Y-24935725D01*
X182880000Y-24780858D01*
X182944148Y-24935725D01*
X183344275Y-25335852D01*
X183867067Y-25552400D01*
X184432933Y-25552400D01*
X184955725Y-25335852D01*
X185355852Y-24935725D01*
X185420000Y-24780858D01*
X185484148Y-24935725D01*
X185884275Y-25335852D01*
X186407067Y-25552400D01*
X186972933Y-25552400D01*
X187495725Y-25335852D01*
X187895852Y-24935725D01*
X187960000Y-24780858D01*
X188024148Y-24935725D01*
X188424275Y-25335852D01*
X188947067Y-25552400D01*
X189512933Y-25552400D01*
X190035725Y-25335852D01*
X190435852Y-24935725D01*
X190500000Y-24780858D01*
X190564148Y-24935725D01*
X190964275Y-25335852D01*
X191487067Y-25552400D01*
X192052933Y-25552400D01*
X192575725Y-25335852D01*
X192975852Y-24935725D01*
X193040000Y-24780858D01*
X193104148Y-24935725D01*
X193504275Y-25335852D01*
X194027067Y-25552400D01*
X194592933Y-25552400D01*
X195115725Y-25335852D01*
X195515852Y-24935725D01*
X195580000Y-24780858D01*
X195644148Y-24935725D01*
X196044275Y-25335852D01*
X196567067Y-25552400D01*
X197132933Y-25552400D01*
X197655725Y-25335852D01*
X198055852Y-24935725D01*
X198120000Y-24780858D01*
X198184148Y-24935725D01*
X198584275Y-25335852D01*
X199107067Y-25552400D01*
X199672933Y-25552400D01*
X200195725Y-25335852D01*
X200595852Y-24935725D01*
X200660000Y-24780858D01*
X200724148Y-24935725D01*
X201124275Y-25335852D01*
X201647067Y-25552400D01*
X202212933Y-25552400D01*
X202735725Y-25335852D01*
X203135852Y-24935725D01*
X203200000Y-24780858D01*
X203264148Y-24935725D01*
X203664275Y-25335852D01*
X204187067Y-25552400D01*
X204752933Y-25552400D01*
X205275725Y-25335852D01*
X205675852Y-24935725D01*
X205740000Y-24780858D01*
X205804148Y-24935725D01*
X206204275Y-25335852D01*
X206727067Y-25552400D01*
X207292933Y-25552400D01*
X207815725Y-25335852D01*
X208215852Y-24935725D01*
X208432400Y-24412933D01*
X208432400Y-23847067D01*
X208215852Y-23324275D01*
X207815725Y-22924148D01*
X207292933Y-22707600D01*
X206727067Y-22707600D01*
X206204275Y-22924148D01*
X205804148Y-23324275D01*
X205740000Y-23479142D01*
X205675852Y-23324275D01*
X205275725Y-22924148D01*
X204752933Y-22707600D01*
X204187067Y-22707600D01*
X203664275Y-22924148D01*
X203264148Y-23324275D01*
X203200000Y-23479142D01*
X203135852Y-23324275D01*
X202735725Y-22924148D01*
X202212933Y-22707600D01*
X201647067Y-22707600D01*
X201124275Y-22924148D01*
X200724148Y-23324275D01*
X200660000Y-23479142D01*
X200595852Y-23324275D01*
X200195725Y-22924148D01*
X199672933Y-22707600D01*
X199107067Y-22707600D01*
X198584275Y-22924148D01*
X198184148Y-23324275D01*
X198120000Y-23479142D01*
X198055852Y-23324275D01*
X197655725Y-22924148D01*
X197132933Y-22707600D01*
X196567067Y-22707600D01*
X196044275Y-22924148D01*
X195644148Y-23324275D01*
X195580000Y-23479142D01*
X195515852Y-23324275D01*
X195115725Y-22924148D01*
X194592933Y-22707600D01*
X194027067Y-22707600D01*
X193504275Y-22924148D01*
X193104148Y-23324275D01*
X193040000Y-23479142D01*
X192975852Y-23324275D01*
X192575725Y-22924148D01*
X192052933Y-22707600D01*
X191487067Y-22707600D01*
X190964275Y-22924148D01*
X190564148Y-23324275D01*
X190500000Y-23479142D01*
X190435852Y-23324275D01*
X190035725Y-22924148D01*
X189512933Y-22707600D01*
X188947067Y-22707600D01*
X188424275Y-22924148D01*
X188024148Y-23324275D01*
X187960000Y-23479142D01*
X187895852Y-23324275D01*
X187495725Y-22924148D01*
X186972933Y-22707600D01*
X186407067Y-22707600D01*
X185884275Y-22924148D01*
X185484148Y-23324275D01*
X185420000Y-23479142D01*
X185355852Y-23324275D01*
X184955725Y-22924148D01*
X184432933Y-22707600D01*
X183867067Y-22707600D01*
X183344275Y-22924148D01*
X182944148Y-23324275D01*
X182880000Y-23479142D01*
X182815852Y-23324275D01*
X182415725Y-22924148D01*
X181892933Y-22707600D01*
X181327067Y-22707600D01*
X180804275Y-22924148D01*
X180404148Y-23324275D01*
X180340000Y-23479142D01*
X180275852Y-23324275D01*
X179875725Y-22924148D01*
X179352933Y-22707600D01*
X178787067Y-22707600D01*
X178264275Y-22924148D01*
X177864148Y-23324275D01*
X177800000Y-23479142D01*
X177735852Y-23324275D01*
X177335725Y-22924148D01*
X176812933Y-22707600D01*
X176247067Y-22707600D01*
X175724275Y-22924148D01*
X175324148Y-23324275D01*
X175260000Y-23479142D01*
X175195852Y-23324275D01*
X174795725Y-22924148D01*
X174272933Y-22707600D01*
X173707067Y-22707600D01*
X173184275Y-22924148D01*
X172784148Y-23324275D01*
X172720000Y-23479142D01*
X172655852Y-23324275D01*
X172255725Y-22924148D01*
X171732933Y-22707600D01*
X171167067Y-22707600D01*
X170644275Y-22924148D01*
X170244148Y-23324275D01*
X170027600Y-23847067D01*
X163270000Y-23847067D01*
X163270000Y-22300000D01*
X254560000Y-22300000D01*
X254560001Y-88190000D01*
G04 #@! TD*
M02*
